<?xml version="1.0" encoding="utf-8" standalone="no"?>
<!DOCTYPE svg PUBLIC "-//W3C//DTD SVG 1.1//EN"
  "http://www.w3.org/Graphics/SVG/1.1/DTD/svg11.dtd">
<svg xmlns:xlink="http://www.w3.org/1999/xlink" width="728.023125pt" height="248.478125pt" viewBox="0 0 728.023125 248.478125" xmlns="http://www.w3.org/2000/svg" version="1.1">
 <metadata>
  <rdf:RDF xmlns:dc="http://purl.org/dc/elements/1.1/" xmlns:cc="http://creativecommons.org/ns#" xmlns:rdf="http://www.w3.org/1999/02/22-rdf-syntax-ns#">
   <cc:Work>
    <dc:type rdf:resource="http://purl.org/dc/dcmitype/StillImage"/>
    <dc:date>2025-05-23T08:37:58.257268</dc:date>
    <dc:format>image/svg+xml</dc:format>
    <dc:creator>
     <cc:Agent>
      <dc:title>Matplotlib v3.10.1, https://matplotlib.org/</dc:title>
     </cc:Agent>
    </dc:creator>
   </cc:Work>
  </rdf:RDF>
 </metadata>
 <defs>
  <style type="text/css">*{stroke-linejoin: round; stroke-linecap: butt}</style>
 </defs>
 <g id="figure_1">
  <g id="patch_1">
   <path d="M -0 248.478125 
L 728.023125 248.478125 
L 728.023125 0 
L -0 0 
L -0 248.478125 
z
" style="fill: none"/>
  </g>
  <g id="axes_1">
   <g id="patch_2">
    <path d="M 51.223125 201.24 
L 270.764109 201.24 
L 270.764109 7.2 
L 51.223125 7.2 
z
" style="fill: #ffffff; fill-opacity: 0.501961"/>
   </g>
   <g id="matplotlib.axis_1">
    <g id="xtick_1">
     <g id="line2d_1">
      <path d="M 51.223125 201.24 
L 51.223125 7.2 
" clip-path="url(#p9af6620c76)" style="fill: none; stroke-dasharray: 3.7,1.6; stroke-dashoffset: 0; stroke: #808080"/>
     </g>
     <g id="line2d_2">
      <defs>
       <path id="m5dd1546ec2" d="M 0 0 
L 0 3.5 
" style="stroke: #000000; stroke-width: 0.8"/>
      </defs>
      <g>
       <use xlink:href="#m5dd1546ec2" x="51.223125" y="201.24" style="stroke: #000000; stroke-width: 0.8"/>
      </g>
     </g>
     <g id="text_1">
      <!-- 0 -->
      <g transform="translate(48.041875 215.838437) scale(0.1 -0.1)">
       <defs>
        <path id="DejaVuSans-30" d="M 2034 4250 
Q 1547 4250 1301 3770 
Q 1056 3291 1056 2328 
Q 1056 1369 1301 889 
Q 1547 409 2034 409 
Q 2525 409 2770 889 
Q 3016 1369 3016 2328 
Q 3016 3291 2770 3770 
Q 2525 4250 2034 4250 
z
M 2034 4750 
Q 2819 4750 3233 4129 
Q 3647 3509 3647 2328 
Q 3647 1150 3233 529 
Q 2819 -91 2034 -91 
Q 1250 -91 836 529 
Q 422 1150 422 2328 
Q 422 3509 836 4129 
Q 1250 4750 2034 4750 
z
" transform="scale(0.015625)"/>
       </defs>
       <use xlink:href="#DejaVuSans-30"/>
      </g>
     </g>
    </g>
    <g id="xtick_2">
     <g id="line2d_3">
      <path d="M 110.979241 201.24 
L 110.979241 7.2 
" clip-path="url(#p9af6620c76)" style="fill: none; stroke-dasharray: 3.7,1.6; stroke-dashoffset: 0; stroke: #808080"/>
     </g>
     <g id="line2d_4">
      <g>
       <use xlink:href="#m5dd1546ec2" x="110.979241" y="201.24" style="stroke: #000000; stroke-width: 0.8"/>
      </g>
     </g>
     <g id="text_2">
      <!-- 2 -->
      <g transform="translate(107.797991 215.838437) scale(0.1 -0.1)">
       <defs>
        <path id="DejaVuSans-32" d="M 1228 531 
L 3431 531 
L 3431 0 
L 469 0 
L 469 531 
Q 828 903 1448 1529 
Q 2069 2156 2228 2338 
Q 2531 2678 2651 2914 
Q 2772 3150 2772 3378 
Q 2772 3750 2511 3984 
Q 2250 4219 1831 4219 
Q 1534 4219 1204 4116 
Q 875 4013 500 3803 
L 500 4441 
Q 881 4594 1212 4672 
Q 1544 4750 1819 4750 
Q 2544 4750 2975 4387 
Q 3406 4025 3406 3419 
Q 3406 3131 3298 2873 
Q 3191 2616 2906 2266 
Q 2828 2175 2409 1742 
Q 1991 1309 1228 531 
z
" transform="scale(0.015625)"/>
       </defs>
       <use xlink:href="#DejaVuSans-32"/>
      </g>
     </g>
    </g>
    <g id="xtick_3">
     <g id="line2d_5">
      <path d="M 170.735358 201.24 
L 170.735358 7.2 
" clip-path="url(#p9af6620c76)" style="fill: none; stroke-dasharray: 3.7,1.6; stroke-dashoffset: 0; stroke: #808080"/>
     </g>
     <g id="line2d_6">
      <g>
       <use xlink:href="#m5dd1546ec2" x="170.735358" y="201.24" style="stroke: #000000; stroke-width: 0.8"/>
      </g>
     </g>
     <g id="text_3">
      <!-- 4 -->
      <g transform="translate(167.554108 215.838437) scale(0.1 -0.1)">
       <defs>
        <path id="DejaVuSans-34" d="M 2419 4116 
L 825 1625 
L 2419 1625 
L 2419 4116 
z
M 2253 4666 
L 3047 4666 
L 3047 1625 
L 3713 1625 
L 3713 1100 
L 3047 1100 
L 3047 0 
L 2419 0 
L 2419 1100 
L 313 1100 
L 313 1709 
L 2253 4666 
z
" transform="scale(0.015625)"/>
       </defs>
       <use xlink:href="#DejaVuSans-34"/>
      </g>
     </g>
    </g>
    <g id="xtick_4">
     <g id="line2d_7">
      <path d="M 230.491474 201.24 
L 230.491474 7.2 
" clip-path="url(#p9af6620c76)" style="fill: none; stroke-dasharray: 3.7,1.6; stroke-dashoffset: 0; stroke: #808080"/>
     </g>
     <g id="line2d_8">
      <g>
       <use xlink:href="#m5dd1546ec2" x="230.491474" y="201.24" style="stroke: #000000; stroke-width: 0.8"/>
      </g>
     </g>
     <g id="text_4">
      <!-- 6 -->
      <g transform="translate(227.310224 215.838437) scale(0.1 -0.1)">
       <defs>
        <path id="DejaVuSans-36" d="M 2113 2584 
Q 1688 2584 1439 2293 
Q 1191 2003 1191 1497 
Q 1191 994 1439 701 
Q 1688 409 2113 409 
Q 2538 409 2786 701 
Q 3034 994 3034 1497 
Q 3034 2003 2786 2293 
Q 2538 2584 2113 2584 
z
M 3366 4563 
L 3366 3988 
Q 3128 4100 2886 4159 
Q 2644 4219 2406 4219 
Q 1781 4219 1451 3797 
Q 1122 3375 1075 2522 
Q 1259 2794 1537 2939 
Q 1816 3084 2150 3084 
Q 2853 3084 3261 2657 
Q 3669 2231 3669 1497 
Q 3669 778 3244 343 
Q 2819 -91 2113 -91 
Q 1303 -91 875 529 
Q 447 1150 447 2328 
Q 447 3434 972 4092 
Q 1497 4750 2381 4750 
Q 2619 4750 2861 4703 
Q 3103 4656 3366 4563 
z
" transform="scale(0.015625)"/>
       </defs>
       <use xlink:href="#DejaVuSans-36"/>
      </g>
     </g>
    </g>
    <g id="text_5">
     <!-- $\hat{t}$ [-] -->
     <g transform="translate(146.113617 237.950625) scale(0.16 -0.16)">
      <defs>
       <path id="DejaVuSans-302" d="M -1831 5119 
L -1369 5119 
L -603 3944 
L -1038 3944 
L -1600 4709 
L -2163 3944 
L -2597 3944 
L -1831 5119 
z
M -1600 3584 
L -1600 3584 
z
" transform="scale(0.015625)"/>
       <path id="DejaVuSans-Oblique-74" d="M 2706 3500 
L 2619 3053 
L 1472 3053 
L 1100 1153 
Q 1081 1047 1072 975 
Q 1063 903 1063 863 
Q 1063 663 1183 572 
Q 1303 481 1569 481 
L 2150 481 
L 2053 0 
L 1503 0 
Q 991 0 739 200 
Q 488 400 488 806 
Q 488 878 497 964 
Q 506 1050 525 1153 
L 897 3053 
L 409 3053 
L 500 3500 
L 978 3500 
L 1172 4494 
L 1747 4494 
L 1556 3500 
L 2706 3500 
z
" transform="scale(0.015625)"/>
       <path id="DejaVuSans-20" transform="scale(0.015625)"/>
       <path id="DejaVuSans-5b" d="M 550 4863 
L 1875 4863 
L 1875 4416 
L 1125 4416 
L 1125 -397 
L 1875 -397 
L 1875 -844 
L 550 -844 
L 550 4863 
z
" transform="scale(0.015625)"/>
       <path id="DejaVuSans-2d" d="M 313 2009 
L 1997 2009 
L 1997 1497 
L 313 1497 
L 313 2009 
z
" transform="scale(0.015625)"/>
       <path id="DejaVuSans-5d" d="M 1947 4863 
L 1947 -844 
L 622 -844 
L 622 -397 
L 1369 -397 
L 1369 4416 
L 622 4416 
L 622 4863 
L 1947 4863 
z
" transform="scale(0.015625)"/>
      </defs>
      <use xlink:href="#DejaVuSans-302" transform="translate(49.380371 27.015625)"/>
      <use xlink:href="#DejaVuSans-Oblique-74" transform="translate(0 0.296875)"/>
      <use xlink:href="#DejaVuSans-20" transform="translate(39.208984 0.296875)"/>
      <use xlink:href="#DejaVuSans-5b" transform="translate(70.996094 0.296875)"/>
      <use xlink:href="#DejaVuSans-2d" transform="translate(110.009766 0.296875)"/>
      <use xlink:href="#DejaVuSans-5d" transform="translate(146.09375 0.296875)"/>
     </g>
    </g>
   </g>
   <g id="matplotlib.axis_2">
    <g id="ytick_1">
     <g id="line2d_9">
      <path d="M 51.223125 201.24 
L 270.764109 201.24 
" clip-path="url(#p9af6620c76)" style="fill: none; stroke-dasharray: 3.7,1.6; stroke-dashoffset: 0; stroke: #808080"/>
     </g>
     <g id="line2d_10">
      <defs>
       <path id="m9bdd6c5327" d="M 0 0 
L -3.5 0 
" style="stroke: #000000; stroke-width: 0.8"/>
      </defs>
      <g>
       <use xlink:href="#m9bdd6c5327" x="51.223125" y="201.24" style="stroke: #000000; stroke-width: 0.8"/>
      </g>
     </g>
     <g id="text_6">
      <!-- 0.0 -->
      <g transform="translate(28.32 205.039219) scale(0.1 -0.1)">
       <defs>
        <path id="DejaVuSans-2e" d="M 684 794 
L 1344 794 
L 1344 0 
L 684 0 
L 684 794 
z
" transform="scale(0.015625)"/>
       </defs>
       <use xlink:href="#DejaVuSans-30"/>
       <use xlink:href="#DejaVuSans-2e" transform="translate(63.623047 0)"/>
       <use xlink:href="#DejaVuSans-30" transform="translate(95.410156 0)"/>
      </g>
     </g>
    </g>
    <g id="ytick_2">
     <g id="line2d_11">
      <path d="M 51.223125 164.28 
L 270.764109 164.28 
" clip-path="url(#p9af6620c76)" style="fill: none; stroke-dasharray: 3.7,1.6; stroke-dashoffset: 0; stroke: #808080"/>
     </g>
     <g id="line2d_12">
      <g>
       <use xlink:href="#m9bdd6c5327" x="51.223125" y="164.28" style="stroke: #000000; stroke-width: 0.8"/>
      </g>
     </g>
     <g id="text_7">
      <!-- 0.2 -->
      <g transform="translate(28.32 168.079219) scale(0.1 -0.1)">
       <use xlink:href="#DejaVuSans-30"/>
       <use xlink:href="#DejaVuSans-2e" transform="translate(63.623047 0)"/>
       <use xlink:href="#DejaVuSans-32" transform="translate(95.410156 0)"/>
      </g>
     </g>
    </g>
    <g id="ytick_3">
     <g id="line2d_13">
      <path d="M 51.223125 127.32 
L 270.764109 127.32 
" clip-path="url(#p9af6620c76)" style="fill: none; stroke-dasharray: 3.7,1.6; stroke-dashoffset: 0; stroke: #808080"/>
     </g>
     <g id="line2d_14">
      <g>
       <use xlink:href="#m9bdd6c5327" x="51.223125" y="127.32" style="stroke: #000000; stroke-width: 0.8"/>
      </g>
     </g>
     <g id="text_8">
      <!-- 0.4 -->
      <g transform="translate(28.32 131.119219) scale(0.1 -0.1)">
       <use xlink:href="#DejaVuSans-30"/>
       <use xlink:href="#DejaVuSans-2e" transform="translate(63.623047 0)"/>
       <use xlink:href="#DejaVuSans-34" transform="translate(95.410156 0)"/>
      </g>
     </g>
    </g>
    <g id="ytick_4">
     <g id="line2d_15">
      <path d="M 51.223125 90.36 
L 270.764109 90.36 
" clip-path="url(#p9af6620c76)" style="fill: none; stroke-dasharray: 3.7,1.6; stroke-dashoffset: 0; stroke: #808080"/>
     </g>
     <g id="line2d_16">
      <g>
       <use xlink:href="#m9bdd6c5327" x="51.223125" y="90.36" style="stroke: #000000; stroke-width: 0.8"/>
      </g>
     </g>
     <g id="text_9">
      <!-- 0.6 -->
      <g transform="translate(28.32 94.159219) scale(0.1 -0.1)">
       <use xlink:href="#DejaVuSans-30"/>
       <use xlink:href="#DejaVuSans-2e" transform="translate(63.623047 0)"/>
       <use xlink:href="#DejaVuSans-36" transform="translate(95.410156 0)"/>
      </g>
     </g>
    </g>
    <g id="ytick_5">
     <g id="line2d_17">
      <path d="M 51.223125 53.4 
L 270.764109 53.4 
" clip-path="url(#p9af6620c76)" style="fill: none; stroke-dasharray: 3.7,1.6; stroke-dashoffset: 0; stroke: #808080"/>
     </g>
     <g id="line2d_18">
      <g>
       <use xlink:href="#m9bdd6c5327" x="51.223125" y="53.4" style="stroke: #000000; stroke-width: 0.8"/>
      </g>
     </g>
     <g id="text_10">
      <!-- 0.8 -->
      <g transform="translate(28.32 57.199219) scale(0.1 -0.1)">
       <defs>
        <path id="DejaVuSans-38" d="M 2034 2216 
Q 1584 2216 1326 1975 
Q 1069 1734 1069 1313 
Q 1069 891 1326 650 
Q 1584 409 2034 409 
Q 2484 409 2743 651 
Q 3003 894 3003 1313 
Q 3003 1734 2745 1975 
Q 2488 2216 2034 2216 
z
M 1403 2484 
Q 997 2584 770 2862 
Q 544 3141 544 3541 
Q 544 4100 942 4425 
Q 1341 4750 2034 4750 
Q 2731 4750 3128 4425 
Q 3525 4100 3525 3541 
Q 3525 3141 3298 2862 
Q 3072 2584 2669 2484 
Q 3125 2378 3379 2068 
Q 3634 1759 3634 1313 
Q 3634 634 3220 271 
Q 2806 -91 2034 -91 
Q 1263 -91 848 271 
Q 434 634 434 1313 
Q 434 1759 690 2068 
Q 947 2378 1403 2484 
z
M 1172 3481 
Q 1172 3119 1398 2916 
Q 1625 2713 2034 2713 
Q 2441 2713 2670 2916 
Q 2900 3119 2900 3481 
Q 2900 3844 2670 4047 
Q 2441 4250 2034 4250 
Q 1625 4250 1398 4047 
Q 1172 3844 1172 3481 
z
" transform="scale(0.015625)"/>
       </defs>
       <use xlink:href="#DejaVuSans-30"/>
       <use xlink:href="#DejaVuSans-2e" transform="translate(63.623047 0)"/>
       <use xlink:href="#DejaVuSans-38" transform="translate(95.410156 0)"/>
      </g>
     </g>
    </g>
    <g id="ytick_6">
     <g id="line2d_19">
      <path d="M 51.223125 16.44 
L 270.764109 16.44 
" clip-path="url(#p9af6620c76)" style="fill: none; stroke-dasharray: 3.7,1.6; stroke-dashoffset: 0; stroke: #808080"/>
     </g>
     <g id="line2d_20">
      <g>
       <use xlink:href="#m9bdd6c5327" x="51.223125" y="16.44" style="stroke: #000000; stroke-width: 0.8"/>
      </g>
     </g>
     <g id="text_11">
      <!-- 1.0 -->
      <g transform="translate(28.32 20.239219) scale(0.1 -0.1)">
       <defs>
        <path id="DejaVuSans-31" d="M 794 531 
L 1825 531 
L 1825 4091 
L 703 3866 
L 703 4441 
L 1819 4666 
L 2450 4666 
L 2450 531 
L 3481 531 
L 3481 0 
L 794 0 
L 794 531 
z
" transform="scale(0.015625)"/>
       </defs>
       <use xlink:href="#DejaVuSans-31"/>
       <use xlink:href="#DejaVuSans-2e" transform="translate(63.623047 0)"/>
       <use xlink:href="#DejaVuSans-30" transform="translate(95.410156 0)"/>
      </g>
     </g>
    </g>
    <g id="text_12">
     <!-- $1 - \hat{c}$ [-] -->
     <g transform="translate(20.9925 135.26) rotate(-90) scale(0.16 -0.16)">
      <defs>
       <path id="DejaVuSans-2212" d="M 678 2272 
L 4684 2272 
L 4684 1741 
L 678 1741 
L 678 2272 
z
" transform="scale(0.015625)"/>
       <path id="DejaVuSans-Oblique-63" d="M 3431 3366 
L 3316 2797 
Q 3109 2947 2876 3022 
Q 2644 3097 2394 3097 
Q 2119 3097 1870 3000 
Q 1622 2903 1453 2725 
Q 1184 2453 1037 2087 
Q 891 1722 891 1331 
Q 891 859 1127 628 
Q 1363 397 1844 397 
Q 2081 397 2348 469 
Q 2616 541 2906 684 
L 2797 116 
Q 2547 13 2283 -39 
Q 2019 -91 1741 -91 
Q 1044 -91 669 257 
Q 294 606 294 1253 
Q 294 1797 489 2255 
Q 684 2713 1069 3078 
Q 1331 3328 1684 3456 
Q 2038 3584 2456 3584 
Q 2700 3584 2940 3529 
Q 3181 3475 3431 3366 
z
" transform="scale(0.015625)"/>
      </defs>
      <use xlink:href="#DejaVuSans-31" transform="translate(0 0.515625)"/>
      <use xlink:href="#DejaVuSans-2212" transform="translate(83.105469 0.515625)"/>
      <use xlink:href="#DejaVuSans-302" transform="translate(245.700195 13.015625)"/>
      <use xlink:href="#DejaVuSans-Oblique-63" transform="translate(186.376953 0.515625)"/>
      <use xlink:href="#DejaVuSans-20" transform="translate(241.357422 0.515625)"/>
      <use xlink:href="#DejaVuSans-5b" transform="translate(273.144531 0.515625)"/>
      <use xlink:href="#DejaVuSans-2d" transform="translate(312.158203 0.515625)"/>
      <use xlink:href="#DejaVuSans-5d" transform="translate(348.242188 0.515625)"/>
     </g>
    </g>
   </g>
   <g id="line2d_21">
    <path d="M 51.223125 201.24 
L 53.075565 190.464622 
L 54.928004 180.94638 
L 56.780444 172.538563 
L 58.69264 164.887016 
L 60.604835 158.155033 
L 62.517031 152.232079 
L 64.429227 147.020904 
L 66.341422 142.435956 
L 68.313374 138.284042 
L 70.285326 134.645621 
L 72.317034 131.366982 
L 74.348742 128.505295 
L 76.440206 125.939085 
L 78.591426 123.648894 
L 80.802403 121.614758 
L 83.132891 119.772842 
L 85.582892 118.122615 
L 88.152405 116.659387 
L 90.901186 115.349087 
L 93.888992 114.173359 
L 97.175578 113.12467 
L 100.820702 112.201979 
L 104.884117 111.406834 
L 109.545095 110.725063 
L 115.042657 110.151795 
L 121.735342 109.686452 
L 130.220711 109.329658 
L 141.873153 109.076973 
L 160.218281 108.925738 
L 200.732928 108.86726 
L 260.309776 108.863177 
L 260.309776 108.863177 
" clip-path="url(#p9af6620c76)" style="fill: none; stroke: #222222; stroke-width: 7; stroke-linecap: square"/>
    <path d="M 51.223125 201.24 
L 53.075565 190.464622 
L 54.928004 180.94638 
L 56.780444 172.538563 
L 58.69264 164.887016 
L 60.604835 158.155033 
L 62.517031 152.232079 
L 64.429227 147.020904 
L 66.341422 142.435956 
L 68.313374 138.284042 
L 70.285326 134.645621 
L 72.317034 131.366982 
L 74.348742 128.505295 
L 76.440206 125.939085 
L 78.591426 123.648894 
L 80.802403 121.614758 
L 83.132891 119.772842 
L 85.582892 118.122615 
L 88.152405 116.659387 
L 90.901186 115.349087 
L 93.888992 114.173359 
L 97.175578 113.12467 
L 100.820702 112.201979 
L 104.884117 111.406834 
L 109.545095 110.725063 
L 115.042657 110.151795 
L 121.735342 109.686452 
L 130.220711 109.329658 
L 141.873153 109.076973 
L 160.218281 108.925738 
L 200.732928 108.86726 
L 260.309776 108.863177 
L 260.309776 108.863177 
" clip-path="url(#p9af6620c76)" style="fill: none; stroke: #980043; stroke-width: 5; stroke-linecap: square"/>
   </g>
   <g id="line2d_22">
    <path d="M 51.223125 201.24 
L 53.075565 190.467449 
L 54.928004 180.956406 
L 56.780444 172.558614 
L 58.69264 164.919182 
L 60.604835 158.200213 
L 62.517031 152.290534 
L 64.429227 147.092451 
L 66.341422 142.520114 
L 68.313374 138.380503 
L 70.285326 134.753556 
L 72.317034 131.48581 
L 74.348742 128.63406 
L 76.440206 126.077101 
L 78.591426 123.795439 
L 80.802403 121.769094 
L 83.132891 119.93441 
L 85.582892 118.290803 
L 88.152405 116.833558 
L 90.901186 115.528707 
L 93.888992 114.357942 
L 97.175578 113.313738 
L 100.820702 112.395039 
L 104.884117 111.603371 
L 109.604851 110.917207 
L 115.162169 110.343665 
L 121.914611 109.88085 
L 130.519491 109.526243 
L 142.351202 109.277192 
L 161.114623 109.129719 
L 203.481709 109.074443 
L 260.309776 109.071075 
L 260.309776 109.071075 
" clip-path="url(#p9af6620c76)" style="fill: none; stroke: #222222; stroke-width: 7; stroke-linecap: square"/>
    <path d="M 51.223125 201.24 
L 53.075565 190.467449 
L 54.928004 180.956406 
L 56.780444 172.558614 
L 58.69264 164.919182 
L 60.604835 158.200213 
L 62.517031 152.290534 
L 64.429227 147.092451 
L 66.341422 142.520114 
L 68.313374 138.380503 
L 70.285326 134.753556 
L 72.317034 131.48581 
L 74.348742 128.63406 
L 76.440206 126.077101 
L 78.591426 123.795439 
L 80.802403 121.769094 
L 83.132891 119.93441 
L 85.582892 118.290803 
L 88.152405 116.833558 
L 90.901186 115.528707 
L 93.888992 114.357942 
L 97.175578 113.313738 
L 100.820702 112.395039 
L 104.884117 111.603371 
L 109.604851 110.917207 
L 115.162169 110.343665 
L 121.914611 109.88085 
L 130.519491 109.526243 
L 142.351202 109.277192 
L 161.114623 109.129719 
L 203.481709 109.074443 
L 260.309776 109.071075 
L 260.309776 109.071075 
" clip-path="url(#p9af6620c76)" style="fill: none; stroke: #dd1c77; stroke-width: 5; stroke-linecap: square"/>
   </g>
   <g id="line2d_23">
    <path d="M 51.223125 201.24 
L 53.075565 190.495665 
L 54.928004 181.056323 
L 56.780444 172.758209 
L 58.632883 165.459288 
L 60.485323 159.036073 
L 62.337763 153.381063 
L 64.249958 148.250098 
L 66.162154 143.747943 
L 68.07435 139.796295 
L 70.046302 136.225568 
L 72.018253 133.102528 
L 74.049961 130.293205 
L 76.141426 127.777952 
L 78.292646 125.536475 
L 80.503622 123.548211 
L 82.834111 121.749991 
L 85.284111 120.140694 
L 87.91338 118.684908 
L 90.721918 117.389641 
L 93.76948 116.235044 
L 97.115822 115.212003 
L 100.820702 114.31776 
L 105.00363 113.542451 
L 109.843875 112.878931 
L 115.580462 112.326429 
L 122.571928 111.885685 
L 131.595101 111.551147 
L 144.263398 111.320781 
L 165.178039 111.190952 
L 218.898787 111.149716 
L 260.309776 111.14863 
L 260.309776 111.14863 
" clip-path="url(#p9af6620c76)" style="fill: none; stroke: #222222; stroke-width: 7; stroke-linecap: square"/>
    <path d="M 51.223125 201.24 
L 53.075565 190.495665 
L 54.928004 181.056323 
L 56.780444 172.758209 
L 58.632883 165.459288 
L 60.485323 159.036073 
L 62.337763 153.381063 
L 64.249958 148.250098 
L 66.162154 143.747943 
L 68.07435 139.796295 
L 70.046302 136.225568 
L 72.018253 133.102528 
L 74.049961 130.293205 
L 76.141426 127.777952 
L 78.292646 125.536475 
L 80.503622 123.548211 
L 82.834111 121.749991 
L 85.284111 120.140694 
L 87.91338 118.684908 
L 90.721918 117.389641 
L 93.76948 116.235044 
L 97.115822 115.212003 
L 100.820702 114.31776 
L 105.00363 113.542451 
L 109.843875 112.878931 
L 115.580462 112.326429 
L 122.571928 111.885685 
L 131.595101 111.551147 
L 144.263398 111.320781 
L 165.178039 111.190952 
L 218.898787 111.149716 
L 260.309776 111.14863 
L 260.309776 111.14863 
" clip-path="url(#p9af6620c76)" style="fill: none; stroke: #df65b0; stroke-width: 5; stroke-linecap: square"/>
   </g>
   <g id="line2d_24">
    <path d="M 51.223125 201.24 
L 52.776784 192.33502 
L 54.330443 184.678899 
L 55.943858 177.832221 
L 57.557273 171.929863 
L 59.230445 166.648465 
L 60.903616 162.08956 
L 62.636543 158.01259 
L 64.369471 154.492699 
L 66.162154 151.349584 
L 68.014594 148.554187 
L 69.926789 146.078098 
L 71.898741 143.893804 
L 73.930449 141.974876 
L 76.081669 140.252092 
L 78.352402 138.722544 
L 80.742646 137.379197 
L 83.371916 136.161663 
L 86.240209 135.085985 
L 89.407283 134.142538 
L 92.932894 133.327945 
L 96.99631 132.623101 
L 101.776799 132.028491 
L 107.513387 131.547223 
L 114.743877 131.172915 
L 124.54388 130.902365 
L 139.482909 130.734275 
L 169.659748 130.661208 
L 260.309776 130.65269 
L 260.309776 130.65269 
" clip-path="url(#p9af6620c76)" style="fill: none; stroke: #222222; stroke-width: 7; stroke-linecap: square"/>
    <path d="M 51.223125 201.24 
L 52.776784 192.33502 
L 54.330443 184.678899 
L 55.943858 177.832221 
L 57.557273 171.929863 
L 59.230445 166.648465 
L 60.903616 162.08956 
L 62.636543 158.01259 
L 64.369471 154.492699 
L 66.162154 151.349584 
L 68.014594 148.554187 
L 69.926789 146.078098 
L 71.898741 143.893804 
L 73.930449 141.974876 
L 76.081669 140.252092 
L 78.352402 138.722544 
L 80.742646 137.379197 
L 83.371916 136.161663 
L 86.240209 135.085985 
L 89.407283 134.142538 
L 92.932894 133.327945 
L 96.99631 132.623101 
L 101.776799 132.028491 
L 107.513387 131.547223 
L 114.743877 131.172915 
L 124.54388 130.902365 
L 139.482909 130.734275 
L 169.659748 130.661208 
L 260.309776 130.65269 
L 260.309776 130.65269 
" clip-path="url(#p9af6620c76)" style="fill: none; stroke: #d7b5d8; stroke-width: 5; stroke-linecap: square"/>
   </g>
   <g id="patch_3">
    <path d="M 51.223125 201.24 
L 51.223125 7.2 
" style="fill: none; stroke: #000000; stroke-width: 0.8; stroke-linejoin: miter; stroke-linecap: square"/>
   </g>
   <g id="patch_4">
    <path d="M 270.764109 201.24 
L 270.764109 7.2 
" style="fill: none; stroke: #000000; stroke-width: 0.8; stroke-linejoin: miter; stroke-linecap: square"/>
   </g>
   <g id="patch_5">
    <path d="M 51.223125 201.24 
L 270.764109 201.24 
" style="fill: none; stroke: #000000; stroke-width: 0.8; stroke-linejoin: miter; stroke-linecap: square"/>
   </g>
   <g id="patch_6">
    <path d="M 51.223125 7.2 
L 270.764109 7.2 
" style="fill: none; stroke: #000000; stroke-width: 0.8; stroke-linejoin: miter; stroke-linecap: square"/>
   </g>
   <g id="text_13">
    <g id="patch_7">
     <path d="M 54.037223 23.2032 
L 92.317223 23.2032 
L 92.317223 3.66945 
L 54.037223 3.66945 
z
" style="fill: #ffffff; stroke: #000000; stroke-linejoin: miter"/>
    </g>
    <!-- $\psi=1$ -->
    <g transform="translate(57.997223 16.7232) scale(0.12 -0.12)">
     <defs>
      <path id="DejaVuSans-Oblique-3c8" d="M 1591 -78 
Q 891 38 616 341 
Q 278 713 425 1472 
L 819 3500 
L 1400 3500 
L 1009 1494 
Q 900 922 1119 684 
Q 1313 478 1691 434 
L 2284 3500 
L 2856 3500 
L 2263 438 
Q 2681 481 2928 688 
Q 3247 950 3353 1497 
L 3741 3500 
L 4322 3500 
L 3928 1475 
Q 3775 688 3300 344 
Q 2872 34 2163 -75 
L 1919 -1331 
L 1347 -1331 
L 1591 -78 
z
" transform="scale(0.015625)"/>
      <path id="DejaVuSans-3d" d="M 678 2906 
L 4684 2906 
L 4684 2381 
L 678 2381 
L 678 2906 
z
M 678 1631 
L 4684 1631 
L 4684 1100 
L 678 1100 
L 678 1631 
z
" transform="scale(0.015625)"/>
     </defs>
     <use xlink:href="#DejaVuSans-Oblique-3c8" transform="translate(0 0.09375)"/>
     <use xlink:href="#DejaVuSans-3d" transform="translate(85.449219 0.09375)"/>
     <use xlink:href="#DejaVuSans-31" transform="translate(188.720703 0.09375)"/>
    </g>
   </g>
   <g id="legend_1">
    <g id="patch_8">
     <path d="M 184.964109 88.590625 
L 263.764109 88.590625 
Q 265.764109 88.590625 265.764109 86.590625 
L 265.764109 14.2 
Q 265.764109 12.2 263.764109 12.2 
L 184.964109 12.2 
Q 182.964109 12.2 182.964109 14.2 
L 182.964109 86.590625 
Q 182.964109 88.590625 184.964109 88.590625 
z
" style="fill: #ffffff; opacity: 0.8; stroke: #cccccc; stroke-linejoin: miter"/>
    </g>
    <g id="text_14">
     <!-- Batch kinetics -->
     <g transform="translate(189.169577 23.798438) scale(0.1 -0.1)">
      <defs>
       <path id="DejaVuSans-42" d="M 1259 2228 
L 1259 519 
L 2272 519 
Q 2781 519 3026 730 
Q 3272 941 3272 1375 
Q 3272 1813 3026 2020 
Q 2781 2228 2272 2228 
L 1259 2228 
z
M 1259 4147 
L 1259 2741 
L 2194 2741 
Q 2656 2741 2882 2914 
Q 3109 3088 3109 3444 
Q 3109 3797 2882 3972 
Q 2656 4147 2194 4147 
L 1259 4147 
z
M 628 4666 
L 2241 4666 
Q 2963 4666 3353 4366 
Q 3744 4066 3744 3513 
Q 3744 3084 3544 2831 
Q 3344 2578 2956 2516 
Q 3422 2416 3680 2098 
Q 3938 1781 3938 1306 
Q 3938 681 3513 340 
Q 3088 0 2303 0 
L 628 0 
L 628 4666 
z
" transform="scale(0.015625)"/>
       <path id="DejaVuSans-61" d="M 2194 1759 
Q 1497 1759 1228 1600 
Q 959 1441 959 1056 
Q 959 750 1161 570 
Q 1363 391 1709 391 
Q 2188 391 2477 730 
Q 2766 1069 2766 1631 
L 2766 1759 
L 2194 1759 
z
M 3341 1997 
L 3341 0 
L 2766 0 
L 2766 531 
Q 2569 213 2275 61 
Q 1981 -91 1556 -91 
Q 1019 -91 701 211 
Q 384 513 384 1019 
Q 384 1609 779 1909 
Q 1175 2209 1959 2209 
L 2766 2209 
L 2766 2266 
Q 2766 2663 2505 2880 
Q 2244 3097 1772 3097 
Q 1472 3097 1187 3025 
Q 903 2953 641 2809 
L 641 3341 
Q 956 3463 1253 3523 
Q 1550 3584 1831 3584 
Q 2591 3584 2966 3190 
Q 3341 2797 3341 1997 
z
" transform="scale(0.015625)"/>
       <path id="DejaVuSans-74" d="M 1172 4494 
L 1172 3500 
L 2356 3500 
L 2356 3053 
L 1172 3053 
L 1172 1153 
Q 1172 725 1289 603 
Q 1406 481 1766 481 
L 2356 481 
L 2356 0 
L 1766 0 
Q 1100 0 847 248 
Q 594 497 594 1153 
L 594 3053 
L 172 3053 
L 172 3500 
L 594 3500 
L 594 4494 
L 1172 4494 
z
" transform="scale(0.015625)"/>
       <path id="DejaVuSans-63" d="M 3122 3366 
L 3122 2828 
Q 2878 2963 2633 3030 
Q 2388 3097 2138 3097 
Q 1578 3097 1268 2742 
Q 959 2388 959 1747 
Q 959 1106 1268 751 
Q 1578 397 2138 397 
Q 2388 397 2633 464 
Q 2878 531 3122 666 
L 3122 134 
Q 2881 22 2623 -34 
Q 2366 -91 2075 -91 
Q 1284 -91 818 406 
Q 353 903 353 1747 
Q 353 2603 823 3093 
Q 1294 3584 2113 3584 
Q 2378 3584 2631 3529 
Q 2884 3475 3122 3366 
z
" transform="scale(0.015625)"/>
       <path id="DejaVuSans-68" d="M 3513 2113 
L 3513 0 
L 2938 0 
L 2938 2094 
Q 2938 2591 2744 2837 
Q 2550 3084 2163 3084 
Q 1697 3084 1428 2787 
Q 1159 2491 1159 1978 
L 1159 0 
L 581 0 
L 581 4863 
L 1159 4863 
L 1159 2956 
Q 1366 3272 1645 3428 
Q 1925 3584 2291 3584 
Q 2894 3584 3203 3211 
Q 3513 2838 3513 2113 
z
" transform="scale(0.015625)"/>
       <path id="DejaVuSans-6b" d="M 581 4863 
L 1159 4863 
L 1159 1991 
L 2875 3500 
L 3609 3500 
L 1753 1863 
L 3688 0 
L 2938 0 
L 1159 1709 
L 1159 0 
L 581 0 
L 581 4863 
z
" transform="scale(0.015625)"/>
       <path id="DejaVuSans-69" d="M 603 3500 
L 1178 3500 
L 1178 0 
L 603 0 
L 603 3500 
z
M 603 4863 
L 1178 4863 
L 1178 4134 
L 603 4134 
L 603 4863 
z
" transform="scale(0.015625)"/>
       <path id="DejaVuSans-6e" d="M 3513 2113 
L 3513 0 
L 2938 0 
L 2938 2094 
Q 2938 2591 2744 2837 
Q 2550 3084 2163 3084 
Q 1697 3084 1428 2787 
Q 1159 2491 1159 1978 
L 1159 0 
L 581 0 
L 581 3500 
L 1159 3500 
L 1159 2956 
Q 1366 3272 1645 3428 
Q 1925 3584 2291 3584 
Q 2894 3584 3203 3211 
Q 3513 2838 3513 2113 
z
" transform="scale(0.015625)"/>
       <path id="DejaVuSans-65" d="M 3597 1894 
L 3597 1613 
L 953 1613 
Q 991 1019 1311 708 
Q 1631 397 2203 397 
Q 2534 397 2845 478 
Q 3156 559 3463 722 
L 3463 178 
Q 3153 47 2828 -22 
Q 2503 -91 2169 -91 
Q 1331 -91 842 396 
Q 353 884 353 1716 
Q 353 2575 817 3079 
Q 1281 3584 2069 3584 
Q 2775 3584 3186 3129 
Q 3597 2675 3597 1894 
z
M 3022 2063 
Q 3016 2534 2758 2815 
Q 2500 3097 2075 3097 
Q 1594 3097 1305 2825 
Q 1016 2553 972 2059 
L 3022 2063 
z
" transform="scale(0.015625)"/>
       <path id="DejaVuSans-73" d="M 2834 3397 
L 2834 2853 
Q 2591 2978 2328 3040 
Q 2066 3103 1784 3103 
Q 1356 3103 1142 2972 
Q 928 2841 928 2578 
Q 928 2378 1081 2264 
Q 1234 2150 1697 2047 
L 1894 2003 
Q 2506 1872 2764 1633 
Q 3022 1394 3022 966 
Q 3022 478 2636 193 
Q 2250 -91 1575 -91 
Q 1294 -91 989 -36 
Q 684 19 347 128 
L 347 722 
Q 666 556 975 473 
Q 1284 391 1588 391 
Q 1994 391 2212 530 
Q 2431 669 2431 922 
Q 2431 1156 2273 1281 
Q 2116 1406 1581 1522 
L 1381 1569 
Q 847 1681 609 1914 
Q 372 2147 372 2553 
Q 372 3047 722 3315 
Q 1072 3584 1716 3584 
Q 2034 3584 2315 3537 
Q 2597 3491 2834 3397 
z
" transform="scale(0.015625)"/>
      </defs>
      <use xlink:href="#DejaVuSans-42"/>
      <use xlink:href="#DejaVuSans-61" transform="translate(68.603516 0)"/>
      <use xlink:href="#DejaVuSans-74" transform="translate(129.882812 0)"/>
      <use xlink:href="#DejaVuSans-63" transform="translate(169.091797 0)"/>
      <use xlink:href="#DejaVuSans-68" transform="translate(224.072266 0)"/>
      <use xlink:href="#DejaVuSans-20" transform="translate(287.451172 0)"/>
      <use xlink:href="#DejaVuSans-6b" transform="translate(319.238281 0)"/>
      <use xlink:href="#DejaVuSans-69" transform="translate(377.148438 0)"/>
      <use xlink:href="#DejaVuSans-6e" transform="translate(404.931641 0)"/>
      <use xlink:href="#DejaVuSans-65" transform="translate(468.310547 0)"/>
      <use xlink:href="#DejaVuSans-74" transform="translate(529.833984 0)"/>
      <use xlink:href="#DejaVuSans-69" transform="translate(569.042969 0)"/>
      <use xlink:href="#DejaVuSans-63" transform="translate(596.826172 0)"/>
      <use xlink:href="#DejaVuSans-73" transform="translate(651.806641 0)"/>
     </g>
    </g>
    <g id="line2d_25">
     <path d="M 186.964109 34.976562 
L 196.964109 34.976562 
L 206.964109 34.976562 
" style="fill: none; stroke: #222222; stroke-width: 7; stroke-linecap: square"/>
     <path d="M 186.964109 34.976562 
L 196.964109 34.976562 
L 206.964109 34.976562 
" style="fill: none; stroke: #980043; stroke-width: 5; stroke-linecap: square"/>
    </g>
    <g id="text_15">
     <!-- $\kappa=0.001$ -->
     <g transform="translate(214.964109 38.476562) scale(0.1 -0.1)">
      <defs>
       <path id="DejaVuSans-Oblique-3ba" d="M 938 3500 
L 1531 3500 
L 1247 2047 
L 3041 3500 
L 3741 3500 
L 2106 2181 
L 3275 0 
L 2572 0 
L 1628 1806 
L 1122 1403 
L 850 0 
L 256 0 
L 938 3500 
z
" transform="scale(0.015625)"/>
      </defs>
      <use xlink:href="#DejaVuSans-Oblique-3ba" transform="translate(0 0.78125)"/>
      <use xlink:href="#DejaVuSans-3d" transform="translate(78.417969 0.78125)"/>
      <use xlink:href="#DejaVuSans-30" transform="translate(181.689453 0.78125)"/>
      <use xlink:href="#DejaVuSans-2e" transform="translate(245.3125 0.78125)"/>
      <use xlink:href="#DejaVuSans-30" transform="translate(277.099609 0.78125)"/>
      <use xlink:href="#DejaVuSans-30" transform="translate(340.722656 0.78125)"/>
      <use xlink:href="#DejaVuSans-31" transform="translate(404.345703 0.78125)"/>
     </g>
    </g>
    <g id="line2d_26">
     <path d="M 186.964109 49.654687 
L 196.964109 49.654687 
L 206.964109 49.654687 
" style="fill: none; stroke: #222222; stroke-width: 7; stroke-linecap: square"/>
     <path d="M 186.964109 49.654687 
L 196.964109 49.654687 
L 206.964109 49.654687 
" style="fill: none; stroke: #dd1c77; stroke-width: 5; stroke-linecap: square"/>
    </g>
    <g id="text_16">
     <!-- $\kappa=0.01$ -->
     <g transform="translate(214.964109 53.154687) scale(0.1 -0.1)">
      <use xlink:href="#DejaVuSans-Oblique-3ba" transform="translate(0 0.78125)"/>
      <use xlink:href="#DejaVuSans-3d" transform="translate(78.417969 0.78125)"/>
      <use xlink:href="#DejaVuSans-30" transform="translate(181.689453 0.78125)"/>
      <use xlink:href="#DejaVuSans-2e" transform="translate(245.3125 0.78125)"/>
      <use xlink:href="#DejaVuSans-30" transform="translate(277.099609 0.78125)"/>
      <use xlink:href="#DejaVuSans-31" transform="translate(340.722656 0.78125)"/>
     </g>
    </g>
    <g id="line2d_27">
     <path d="M 186.964109 64.332813 
L 196.964109 64.332813 
L 206.964109 64.332813 
" style="fill: none; stroke: #222222; stroke-width: 7; stroke-linecap: square"/>
     <path d="M 186.964109 64.332813 
L 196.964109 64.332813 
L 206.964109 64.332813 
" style="fill: none; stroke: #df65b0; stroke-width: 5; stroke-linecap: square"/>
    </g>
    <g id="text_17">
     <!-- $\kappa=0.1$ -->
     <g transform="translate(214.964109 67.832813) scale(0.1 -0.1)">
      <use xlink:href="#DejaVuSans-Oblique-3ba" transform="translate(0 0.78125)"/>
      <use xlink:href="#DejaVuSans-3d" transform="translate(78.417969 0.78125)"/>
      <use xlink:href="#DejaVuSans-30" transform="translate(181.689453 0.78125)"/>
      <use xlink:href="#DejaVuSans-2e" transform="translate(245.3125 0.78125)"/>
      <use xlink:href="#DejaVuSans-31" transform="translate(277.099609 0.78125)"/>
     </g>
    </g>
    <g id="line2d_28">
     <path d="M 186.964109 79.010938 
L 196.964109 79.010938 
L 206.964109 79.010938 
" style="fill: none; stroke: #222222; stroke-width: 7; stroke-linecap: square"/>
     <path d="M 186.964109 79.010938 
L 196.964109 79.010938 
L 206.964109 79.010938 
" style="fill: none; stroke: #d7b5d8; stroke-width: 5; stroke-linecap: square"/>
    </g>
    <g id="text_18">
     <!-- $\kappa=1.0$ -->
     <g transform="translate(214.964109 82.510938) scale(0.1 -0.1)">
      <use xlink:href="#DejaVuSans-Oblique-3ba" transform="translate(0 0.78125)"/>
      <use xlink:href="#DejaVuSans-3d" transform="translate(78.417969 0.78125)"/>
      <use xlink:href="#DejaVuSans-31" transform="translate(181.689453 0.78125)"/>
      <use xlink:href="#DejaVuSans-2e" transform="translate(245.3125 0.78125)"/>
      <use xlink:href="#DejaVuSans-30" transform="translate(277.099609 0.78125)"/>
     </g>
    </g>
   </g>
  </g>
  <g id="axes_2">
   <g id="patch_9">
    <path d="M 276.252633 201.24 
L 495.793617 201.24 
L 495.793617 7.2 
L 276.252633 7.2 
z
" style="fill: #ffffff; fill-opacity: 0.501961"/>
   </g>
   <g id="matplotlib.axis_3">
    <g id="xtick_5">
     <g id="line2d_29">
      <path d="M 276.252633 201.24 
L 276.252633 7.2 
" clip-path="url(#p94f6b7b05d)" style="fill: none; stroke-dasharray: 3.7,1.6; stroke-dashoffset: 0; stroke: #808080"/>
     </g>
     <g id="line2d_30">
      <g>
       <use xlink:href="#m5dd1546ec2" x="276.252633" y="201.24" style="stroke: #000000; stroke-width: 0.8"/>
      </g>
     </g>
     <g id="text_19">
      <!-- 0 -->
      <g transform="translate(273.071383 215.838437) scale(0.1 -0.1)">
       <use xlink:href="#DejaVuSans-30"/>
      </g>
     </g>
    </g>
    <g id="xtick_6">
     <g id="line2d_31">
      <path d="M 336.00875 201.24 
L 336.00875 7.2 
" clip-path="url(#p94f6b7b05d)" style="fill: none; stroke-dasharray: 3.7,1.6; stroke-dashoffset: 0; stroke: #808080"/>
     </g>
     <g id="line2d_32">
      <g>
       <use xlink:href="#m5dd1546ec2" x="336.00875" y="201.24" style="stroke: #000000; stroke-width: 0.8"/>
      </g>
     </g>
     <g id="text_20">
      <!-- 2 -->
      <g transform="translate(332.8275 215.838437) scale(0.1 -0.1)">
       <use xlink:href="#DejaVuSans-32"/>
      </g>
     </g>
    </g>
    <g id="xtick_7">
     <g id="line2d_33">
      <path d="M 395.764866 201.24 
L 395.764866 7.2 
" clip-path="url(#p94f6b7b05d)" style="fill: none; stroke-dasharray: 3.7,1.6; stroke-dashoffset: 0; stroke: #808080"/>
     </g>
     <g id="line2d_34">
      <g>
       <use xlink:href="#m5dd1546ec2" x="395.764866" y="201.24" style="stroke: #000000; stroke-width: 0.8"/>
      </g>
     </g>
     <g id="text_21">
      <!-- 4 -->
      <g transform="translate(392.583616 215.838437) scale(0.1 -0.1)">
       <use xlink:href="#DejaVuSans-34"/>
      </g>
     </g>
    </g>
    <g id="xtick_8">
     <g id="line2d_35">
      <path d="M 455.520982 201.24 
L 455.520982 7.2 
" clip-path="url(#p94f6b7b05d)" style="fill: none; stroke-dasharray: 3.7,1.6; stroke-dashoffset: 0; stroke: #808080"/>
     </g>
     <g id="line2d_36">
      <g>
       <use xlink:href="#m5dd1546ec2" x="455.520982" y="201.24" style="stroke: #000000; stroke-width: 0.8"/>
      </g>
     </g>
     <g id="text_22">
      <!-- 6 -->
      <g transform="translate(452.339732 215.838437) scale(0.1 -0.1)">
       <use xlink:href="#DejaVuSans-36"/>
      </g>
     </g>
    </g>
    <g id="text_23">
     <!-- $\hat{t}$ [-] -->
     <g transform="translate(371.143125 237.950625) scale(0.16 -0.16)">
      <use xlink:href="#DejaVuSans-302" transform="translate(49.380371 27.015625)"/>
      <use xlink:href="#DejaVuSans-Oblique-74" transform="translate(0 0.296875)"/>
      <use xlink:href="#DejaVuSans-20" transform="translate(39.208984 0.296875)"/>
      <use xlink:href="#DejaVuSans-5b" transform="translate(70.996094 0.296875)"/>
      <use xlink:href="#DejaVuSans-2d" transform="translate(110.009766 0.296875)"/>
      <use xlink:href="#DejaVuSans-5d" transform="translate(146.09375 0.296875)"/>
     </g>
    </g>
   </g>
   <g id="matplotlib.axis_4">
    <g id="ytick_7">
     <g id="line2d_37">
      <path d="M 276.252633 201.24 
L 495.793617 201.24 
" clip-path="url(#p94f6b7b05d)" style="fill: none; stroke-dasharray: 3.7,1.6; stroke-dashoffset: 0; stroke: #808080"/>
     </g>
     <g id="line2d_38">
      <g>
       <use xlink:href="#m9bdd6c5327" x="276.252633" y="201.24" style="stroke: #000000; stroke-width: 0.8"/>
      </g>
     </g>
    </g>
    <g id="ytick_8">
     <g id="line2d_39">
      <path d="M 276.252633 164.28 
L 495.793617 164.28 
" clip-path="url(#p94f6b7b05d)" style="fill: none; stroke-dasharray: 3.7,1.6; stroke-dashoffset: 0; stroke: #808080"/>
     </g>
     <g id="line2d_40">
      <g>
       <use xlink:href="#m9bdd6c5327" x="276.252633" y="164.28" style="stroke: #000000; stroke-width: 0.8"/>
      </g>
     </g>
    </g>
    <g id="ytick_9">
     <g id="line2d_41">
      <path d="M 276.252633 127.32 
L 495.793617 127.32 
" clip-path="url(#p94f6b7b05d)" style="fill: none; stroke-dasharray: 3.7,1.6; stroke-dashoffset: 0; stroke: #808080"/>
     </g>
     <g id="line2d_42">
      <g>
       <use xlink:href="#m9bdd6c5327" x="276.252633" y="127.32" style="stroke: #000000; stroke-width: 0.8"/>
      </g>
     </g>
    </g>
    <g id="ytick_10">
     <g id="line2d_43">
      <path d="M 276.252633 90.36 
L 495.793617 90.36 
" clip-path="url(#p94f6b7b05d)" style="fill: none; stroke-dasharray: 3.7,1.6; stroke-dashoffset: 0; stroke: #808080"/>
     </g>
     <g id="line2d_44">
      <g>
       <use xlink:href="#m9bdd6c5327" x="276.252633" y="90.36" style="stroke: #000000; stroke-width: 0.8"/>
      </g>
     </g>
    </g>
    <g id="ytick_11">
     <g id="line2d_45">
      <path d="M 276.252633 53.4 
L 495.793617 53.4 
" clip-path="url(#p94f6b7b05d)" style="fill: none; stroke-dasharray: 3.7,1.6; stroke-dashoffset: 0; stroke: #808080"/>
     </g>
     <g id="line2d_46">
      <g>
       <use xlink:href="#m9bdd6c5327" x="276.252633" y="53.4" style="stroke: #000000; stroke-width: 0.8"/>
      </g>
     </g>
    </g>
    <g id="ytick_12">
     <g id="line2d_47">
      <path d="M 276.252633 16.44 
L 495.793617 16.44 
" clip-path="url(#p94f6b7b05d)" style="fill: none; stroke-dasharray: 3.7,1.6; stroke-dashoffset: 0; stroke: #808080"/>
     </g>
     <g id="line2d_48">
      <g>
       <use xlink:href="#m9bdd6c5327" x="276.252633" y="16.44" style="stroke: #000000; stroke-width: 0.8"/>
      </g>
     </g>
    </g>
   </g>
   <g id="line2d_49">
    <path d="M 276.252633 201.24 
L 278.76239 186.412974 
L 281.272147 172.895519 
L 283.781904 160.571831 
L 286.291661 149.336353 
L 288.801418 139.092905 
L 291.311175 129.753789 
L 293.880688 121.045811 
L 296.450201 113.123933 
L 299.019714 105.917139 
L 301.589227 99.360838 
L 304.15874 93.396279 
L 306.788009 87.849831 
L 309.417278 82.815013 
L 312.106303 78.145789 
L 314.795328 73.916547 
L 317.54411 70.004917 
L 320.352647 66.396684 
L 323.220941 63.077117 
L 326.14899 60.031141 
L 329.136796 57.243498 
L 332.244114 54.651796 
L 335.411188 52.298197 
L 338.697775 50.129131 
L 342.16363 48.10883 
L 345.808753 46.244452 
L 349.633144 44.539398 
L 353.69656 42.97231 
L 358.058756 41.531344 
L 362.719734 40.226968 
L 367.799003 39.038438 
L 373.356322 37.968836 
L 379.511202 37.013448 
L 386.442912 36.167193 
L 394.330719 35.433401 
L 403.533161 34.807452 
L 414.528286 34.290598 
L 428.152681 33.881915 
L 446.139272 33.577933 
L 472.252695 33.377881 
L 485.339284 33.330505 
L 485.339284 33.330505 
" clip-path="url(#p94f6b7b05d)" style="fill: none; stroke: #222222; stroke-width: 7; stroke-linecap: square"/>
    <path d="M 276.252633 201.24 
L 278.76239 186.412974 
L 281.272147 172.895519 
L 283.781904 160.571831 
L 286.291661 149.336353 
L 288.801418 139.092905 
L 291.311175 129.753789 
L 293.880688 121.045811 
L 296.450201 113.123933 
L 299.019714 105.917139 
L 301.589227 99.360838 
L 304.15874 93.396279 
L 306.788009 87.849831 
L 309.417278 82.815013 
L 312.106303 78.145789 
L 314.795328 73.916547 
L 317.54411 70.004917 
L 320.352647 66.396684 
L 323.220941 63.077117 
L 326.14899 60.031141 
L 329.136796 57.243498 
L 332.244114 54.651796 
L 335.411188 52.298197 
L 338.697775 50.129131 
L 342.16363 48.10883 
L 345.808753 46.244452 
L 349.633144 44.539398 
L 353.69656 42.97231 
L 358.058756 41.531344 
L 362.719734 40.226968 
L 367.799003 39.038438 
L 373.356322 37.968836 
L 379.511202 37.013448 
L 386.442912 36.167193 
L 394.330719 35.433401 
L 403.533161 34.807452 
L 414.528286 34.290598 
L 428.152681 33.881915 
L 446.139272 33.577933 
L 472.252695 33.377881 
L 485.339284 33.330505 
L 485.339284 33.330505 
" clip-path="url(#p94f6b7b05d)" style="fill: none; stroke: #980043; stroke-width: 5; stroke-linecap: square"/>
   </g>
   <g id="line2d_50">
    <path d="M 276.252633 201.24 
L 278.76239 186.418191 
L 281.272147 172.914092 
L 283.781904 160.609052 
L 286.291661 149.395342 
L 288.801418 139.17515 
L 291.311175 129.859559 
L 293.880688 121.175033 
L 296.450201 113.275316 
L 299.019714 106.088958 
L 301.589227 99.551105 
L 304.15874 93.602871 
L 306.788009 88.070893 
L 309.417278 83.048322 
L 312.106303 78.389416 
L 314.795328 74.168399 
L 317.54411 70.263177 
L 320.352647 66.659599 
L 323.220941 63.343023 
L 326.14899 60.298486 
L 329.136796 57.510857 
L 332.244114 54.917848 
L 335.411188 52.561765 
L 338.757531 50.351993 
L 342.223386 48.331488 
L 345.868509 46.465616 
L 349.6929 44.757901 
L 353.756316 43.187076 
L 358.118513 41.741374 
L 362.839246 40.416036 
L 367.918516 39.223739 
L 373.475834 38.149455 
L 379.630714 37.188596 
L 386.562424 36.336199 
L 394.450231 35.595793 
L 403.592917 34.966384 
L 414.528286 34.443732 
L 428.092925 34.027912 
L 445.840491 33.71867 
L 471.475865 33.512646 
L 485.339284 33.459877 
L 485.339284 33.459877 
" clip-path="url(#p94f6b7b05d)" style="fill: none; stroke: #222222; stroke-width: 7; stroke-linecap: square"/>
    <path d="M 276.252633 201.24 
L 278.76239 186.418191 
L 281.272147 172.914092 
L 283.781904 160.609052 
L 286.291661 149.395342 
L 288.801418 139.17515 
L 291.311175 129.859559 
L 293.880688 121.175033 
L 296.450201 113.275316 
L 299.019714 106.088958 
L 301.589227 99.551105 
L 304.15874 93.602871 
L 306.788009 88.070893 
L 309.417278 83.048322 
L 312.106303 78.389416 
L 314.795328 74.168399 
L 317.54411 70.263177 
L 320.352647 66.659599 
L 323.220941 63.343023 
L 326.14899 60.298486 
L 329.136796 57.510857 
L 332.244114 54.917848 
L 335.411188 52.561765 
L 338.757531 50.351993 
L 342.223386 48.331488 
L 345.868509 46.465616 
L 349.6929 44.757901 
L 353.756316 43.187076 
L 358.118513 41.741374 
L 362.839246 40.416036 
L 367.918516 39.223739 
L 373.475834 38.149455 
L 379.630714 37.188596 
L 386.562424 36.336199 
L 394.450231 35.595793 
L 403.592917 34.966384 
L 414.528286 34.443732 
L 428.092925 34.027912 
L 445.840491 33.71867 
L 471.475865 33.512646 
L 485.339284 33.459877 
L 485.339284 33.459877 
" clip-path="url(#p94f6b7b05d)" style="fill: none; stroke: #dd1c77; stroke-width: 5; stroke-linecap: square"/>
   </g>
   <g id="line2d_51">
    <path d="M 276.252633 201.24 
L 278.642878 187.140603 
L 281.092879 174.01097 
L 283.542879 162.083192 
L 285.99288 151.235754 
L 288.502637 141.131784 
L 291.012394 131.946714 
L 293.522151 123.589992 
L 296.091664 115.808474 
L 298.661177 108.734005 
L 301.23069 102.298102 
L 303.859959 96.309787 
L 306.489228 90.867526 
L 309.178253 85.811849 
L 311.867279 81.222458 
L 314.61606 76.966331 
L 317.424597 73.02788 
L 320.292891 69.391325 
L 323.220941 66.040817 
L 326.208746 62.960555 
L 329.256308 60.13488 
L 332.423383 57.501332 
L 335.709969 55.059836 
L 339.116068 52.808134 
L 342.641678 50.742069 
L 346.346558 48.826882 
L 350.290461 47.040951 
L 354.473389 45.394911 
L 358.895342 43.894813 
L 363.675831 42.510673 
L 368.814857 41.25598 
L 374.431932 40.11572 
L 380.646568 39.085651 
L 387.578278 38.168154 
L 395.406329 37.36295 
L 404.369747 36.670596 
L 414.886823 36.087541 
L 427.614876 35.612066 
L 443.749027 35.242185 
L 465.619766 34.977387 
L 485.339284 34.860508 
L 485.339284 34.860508 
" clip-path="url(#p94f6b7b05d)" style="fill: none; stroke: #222222; stroke-width: 7; stroke-linecap: square"/>
    <path d="M 276.252633 201.24 
L 278.642878 187.140603 
L 281.092879 174.01097 
L 283.542879 162.083192 
L 285.99288 151.235754 
L 288.502637 141.131784 
L 291.012394 131.946714 
L 293.522151 123.589992 
L 296.091664 115.808474 
L 298.661177 108.734005 
L 301.23069 102.298102 
L 303.859959 96.309787 
L 306.489228 90.867526 
L 309.178253 85.811849 
L 311.867279 81.222458 
L 314.61606 76.966331 
L 317.424597 73.02788 
L 320.292891 69.391325 
L 323.220941 66.040817 
L 326.208746 62.960555 
L 329.256308 60.13488 
L 332.423383 57.501332 
L 335.709969 55.059836 
L 339.116068 52.808134 
L 342.641678 50.742069 
L 346.346558 48.826882 
L 350.290461 47.040951 
L 354.473389 45.394911 
L 358.895342 43.894813 
L 363.675831 42.510673 
L 368.814857 41.25598 
L 374.431932 40.11572 
L 380.646568 39.085651 
L 387.578278 38.168154 
L 395.406329 37.36295 
L 404.369747 36.670596 
L 414.886823 36.087541 
L 427.614876 35.612066 
L 443.749027 35.242185 
L 465.619766 34.977387 
L 485.339284 34.860508 
L 485.339284 34.860508 
" clip-path="url(#p94f6b7b05d)" style="fill: none; stroke: #df65b0; stroke-width: 5; stroke-linecap: square"/>
   </g>
   <g id="line2d_52">
    <path d="M 276.252633 201.24 
L 278.105073 190.484028 
L 280.017269 180.685684 
L 281.98922 171.742285 
L 284.020928 163.564416 
L 286.112392 156.073961 
L 288.263613 149.202456 
L 290.474589 142.889695 
L 292.745321 137.082579 
L 295.07581 131.734134 
L 297.466054 126.802686 
L 299.916055 122.251158 
L 302.425812 118.046474 
L 305.055081 114.07322 
L 307.744107 110.407218 
L 310.552644 106.952105 
L 313.480694 103.704509 
L 316.528256 100.65951 
L 319.69533 97.811004 
L 322.981916 95.15202 
L 326.447771 92.633821 
L 330.092894 90.261206 
L 333.917285 88.036383 
L 337.980701 85.930169 
L 342.283142 83.950702 
L 346.884363 82.080039 
L 351.784364 80.328596 
L 357.042902 78.685432 
L 362.719734 77.145528 
L 368.874614 75.708114 
L 375.567299 74.375171 
L 382.917301 73.140918 
L 391.044133 72.006186 
L 400.067306 70.975642 
L 410.16609 70.050403 
L 421.639264 69.227579 
L 434.845366 68.509151 
L 450.3222 67.89602 
L 468.966108 67.387329 
L 485.339284 67.082905 
L 485.339284 67.082905 
" clip-path="url(#p94f6b7b05d)" style="fill: none; stroke: #222222; stroke-width: 7; stroke-linecap: square"/>
    <path d="M 276.252633 201.24 
L 278.105073 190.484028 
L 280.017269 180.685684 
L 281.98922 171.742285 
L 284.020928 163.564416 
L 286.112392 156.073961 
L 288.263613 149.202456 
L 290.474589 142.889695 
L 292.745321 137.082579 
L 295.07581 131.734134 
L 297.466054 126.802686 
L 299.916055 122.251158 
L 302.425812 118.046474 
L 305.055081 114.07322 
L 307.744107 110.407218 
L 310.552644 106.952105 
L 313.480694 103.704509 
L 316.528256 100.65951 
L 319.69533 97.811004 
L 322.981916 95.15202 
L 326.447771 92.633821 
L 330.092894 90.261206 
L 333.917285 88.036383 
L 337.980701 85.930169 
L 342.283142 83.950702 
L 346.884363 82.080039 
L 351.784364 80.328596 
L 357.042902 78.685432 
L 362.719734 77.145528 
L 368.874614 75.708114 
L 375.567299 74.375171 
L 382.917301 73.140918 
L 391.044133 72.006186 
L 400.067306 70.975642 
L 410.16609 70.050403 
L 421.639264 69.227579 
L 434.845366 68.509151 
L 450.3222 67.89602 
L 468.966108 67.387329 
L 485.339284 67.082905 
L 485.339284 67.082905 
" clip-path="url(#p94f6b7b05d)" style="fill: none; stroke: #d7b5d8; stroke-width: 5; stroke-linecap: square"/>
   </g>
   <g id="patch_10">
    <path d="M 276.252633 201.24 
L 276.252633 7.2 
" style="fill: none; stroke: #000000; stroke-width: 0.8; stroke-linejoin: miter; stroke-linecap: square"/>
   </g>
   <g id="patch_11">
    <path d="M 495.793617 201.24 
L 495.793617 7.2 
" style="fill: none; stroke: #000000; stroke-width: 0.8; stroke-linejoin: miter; stroke-linecap: square"/>
   </g>
   <g id="patch_12">
    <path d="M 276.252633 201.24 
L 495.793617 201.24 
" style="fill: none; stroke: #000000; stroke-width: 0.8; stroke-linejoin: miter; stroke-linecap: square"/>
   </g>
   <g id="patch_13">
    <path d="M 276.252633 7.2 
L 495.793617 7.2 
" style="fill: none; stroke: #000000; stroke-width: 0.8; stroke-linejoin: miter; stroke-linecap: square"/>
   </g>
   <g id="text_24">
    <g id="patch_14">
     <path d="M 275.286732 23.2032 
L 321.126732 23.2032 
L 321.126732 3.66945 
L 275.286732 3.66945 
z
" style="fill: #ffffff; stroke: #000000; stroke-linejoin: miter"/>
    </g>
    <!-- $\psi=10$ -->
    <g transform="translate(279.246732 16.7232) scale(0.12 -0.12)">
     <use xlink:href="#DejaVuSans-Oblique-3c8" transform="translate(0 0.78125)"/>
     <use xlink:href="#DejaVuSans-3d" transform="translate(85.449219 0.78125)"/>
     <use xlink:href="#DejaVuSans-31" transform="translate(188.720703 0.78125)"/>
     <use xlink:href="#DejaVuSans-30" transform="translate(252.34375 0.78125)"/>
    </g>
   </g>
   <g id="legend_2">
    <g id="patch_15">
     <path d="M 409.993617 196.24 
L 488.793617 196.24 
Q 490.793617 196.24 490.793617 194.24 
L 490.793617 121.849375 
Q 490.793617 119.849375 488.793617 119.849375 
L 409.993617 119.849375 
Q 407.993617 119.849375 407.993617 121.849375 
L 407.993617 194.24 
Q 407.993617 196.24 409.993617 196.24 
z
" style="fill: #ffffff; opacity: 0.8; stroke: #cccccc; stroke-linejoin: miter"/>
    </g>
    <g id="text_25">
     <!-- Batch kinetics -->
     <g transform="translate(414.199086 131.447812) scale(0.1 -0.1)">
      <use xlink:href="#DejaVuSans-42"/>
      <use xlink:href="#DejaVuSans-61" transform="translate(68.603516 0)"/>
      <use xlink:href="#DejaVuSans-74" transform="translate(129.882812 0)"/>
      <use xlink:href="#DejaVuSans-63" transform="translate(169.091797 0)"/>
      <use xlink:href="#DejaVuSans-68" transform="translate(224.072266 0)"/>
      <use xlink:href="#DejaVuSans-20" transform="translate(287.451172 0)"/>
      <use xlink:href="#DejaVuSans-6b" transform="translate(319.238281 0)"/>
      <use xlink:href="#DejaVuSans-69" transform="translate(377.148438 0)"/>
      <use xlink:href="#DejaVuSans-6e" transform="translate(404.931641 0)"/>
      <use xlink:href="#DejaVuSans-65" transform="translate(468.310547 0)"/>
      <use xlink:href="#DejaVuSans-74" transform="translate(529.833984 0)"/>
      <use xlink:href="#DejaVuSans-69" transform="translate(569.042969 0)"/>
      <use xlink:href="#DejaVuSans-63" transform="translate(596.826172 0)"/>
      <use xlink:href="#DejaVuSans-73" transform="translate(651.806641 0)"/>
     </g>
    </g>
    <g id="line2d_53">
     <path d="M 411.993617 142.625937 
L 421.993617 142.625937 
L 431.993617 142.625937 
" style="fill: none; stroke: #222222; stroke-width: 7; stroke-linecap: square"/>
     <path d="M 411.993617 142.625937 
L 421.993617 142.625937 
L 431.993617 142.625937 
" style="fill: none; stroke: #980043; stroke-width: 5; stroke-linecap: square"/>
    </g>
    <g id="text_26">
     <!-- $\kappa=0.001$ -->
     <g transform="translate(439.993617 146.125937) scale(0.1 -0.1)">
      <use xlink:href="#DejaVuSans-Oblique-3ba" transform="translate(0 0.78125)"/>
      <use xlink:href="#DejaVuSans-3d" transform="translate(78.417969 0.78125)"/>
      <use xlink:href="#DejaVuSans-30" transform="translate(181.689453 0.78125)"/>
      <use xlink:href="#DejaVuSans-2e" transform="translate(245.3125 0.78125)"/>
      <use xlink:href="#DejaVuSans-30" transform="translate(277.099609 0.78125)"/>
      <use xlink:href="#DejaVuSans-30" transform="translate(340.722656 0.78125)"/>
      <use xlink:href="#DejaVuSans-31" transform="translate(404.345703 0.78125)"/>
     </g>
    </g>
    <g id="line2d_54">
     <path d="M 411.993617 157.304062 
L 421.993617 157.304062 
L 431.993617 157.304062 
" style="fill: none; stroke: #222222; stroke-width: 7; stroke-linecap: square"/>
     <path d="M 411.993617 157.304062 
L 421.993617 157.304062 
L 431.993617 157.304062 
" style="fill: none; stroke: #dd1c77; stroke-width: 5; stroke-linecap: square"/>
    </g>
    <g id="text_27">
     <!-- $\kappa=0.01$ -->
     <g transform="translate(439.993617 160.804062) scale(0.1 -0.1)">
      <use xlink:href="#DejaVuSans-Oblique-3ba" transform="translate(0 0.78125)"/>
      <use xlink:href="#DejaVuSans-3d" transform="translate(78.417969 0.78125)"/>
      <use xlink:href="#DejaVuSans-30" transform="translate(181.689453 0.78125)"/>
      <use xlink:href="#DejaVuSans-2e" transform="translate(245.3125 0.78125)"/>
      <use xlink:href="#DejaVuSans-30" transform="translate(277.099609 0.78125)"/>
      <use xlink:href="#DejaVuSans-31" transform="translate(340.722656 0.78125)"/>
     </g>
    </g>
    <g id="line2d_55">
     <path d="M 411.993617 171.982188 
L 421.993617 171.982188 
L 431.993617 171.982188 
" style="fill: none; stroke: #222222; stroke-width: 7; stroke-linecap: square"/>
     <path d="M 411.993617 171.982188 
L 421.993617 171.982188 
L 431.993617 171.982188 
" style="fill: none; stroke: #df65b0; stroke-width: 5; stroke-linecap: square"/>
    </g>
    <g id="text_28">
     <!-- $\kappa=0.1$ -->
     <g transform="translate(439.993617 175.482188) scale(0.1 -0.1)">
      <use xlink:href="#DejaVuSans-Oblique-3ba" transform="translate(0 0.78125)"/>
      <use xlink:href="#DejaVuSans-3d" transform="translate(78.417969 0.78125)"/>
      <use xlink:href="#DejaVuSans-30" transform="translate(181.689453 0.78125)"/>
      <use xlink:href="#DejaVuSans-2e" transform="translate(245.3125 0.78125)"/>
      <use xlink:href="#DejaVuSans-31" transform="translate(277.099609 0.78125)"/>
     </g>
    </g>
    <g id="line2d_56">
     <path d="M 411.993617 186.660313 
L 421.993617 186.660313 
L 431.993617 186.660313 
" style="fill: none; stroke: #222222; stroke-width: 7; stroke-linecap: square"/>
     <path d="M 411.993617 186.660313 
L 421.993617 186.660313 
L 431.993617 186.660313 
" style="fill: none; stroke: #d7b5d8; stroke-width: 5; stroke-linecap: square"/>
    </g>
    <g id="text_29">
     <!-- $\kappa=1.0$ -->
     <g transform="translate(439.993617 190.160313) scale(0.1 -0.1)">
      <use xlink:href="#DejaVuSans-Oblique-3ba" transform="translate(0 0.78125)"/>
      <use xlink:href="#DejaVuSans-3d" transform="translate(78.417969 0.78125)"/>
      <use xlink:href="#DejaVuSans-31" transform="translate(181.689453 0.78125)"/>
      <use xlink:href="#DejaVuSans-2e" transform="translate(245.3125 0.78125)"/>
      <use xlink:href="#DejaVuSans-30" transform="translate(277.099609 0.78125)"/>
     </g>
    </g>
   </g>
  </g>
  <g id="axes_3">
   <g id="patch_16">
    <path d="M 501.282141 201.24 
L 720.823125 201.24 
L 720.823125 7.2 
L 501.282141 7.2 
z
" style="fill: #ffffff; fill-opacity: 0.501961"/>
   </g>
   <g id="matplotlib.axis_5">
    <g id="xtick_9">
     <g id="line2d_57">
      <path d="M 501.282141 201.24 
L 501.282141 7.2 
" clip-path="url(#pb5f9e95ef4)" style="fill: none; stroke-dasharray: 3.7,1.6; stroke-dashoffset: 0; stroke: #808080"/>
     </g>
     <g id="line2d_58">
      <g>
       <use xlink:href="#m5dd1546ec2" x="501.282141" y="201.24" style="stroke: #000000; stroke-width: 0.8"/>
      </g>
     </g>
     <g id="text_30">
      <!-- 0 -->
      <g transform="translate(498.100891 215.838437) scale(0.1 -0.1)">
       <use xlink:href="#DejaVuSans-30"/>
      </g>
     </g>
    </g>
    <g id="xtick_10">
     <g id="line2d_59">
      <path d="M 561.038258 201.24 
L 561.038258 7.2 
" clip-path="url(#pb5f9e95ef4)" style="fill: none; stroke-dasharray: 3.7,1.6; stroke-dashoffset: 0; stroke: #808080"/>
     </g>
     <g id="line2d_60">
      <g>
       <use xlink:href="#m5dd1546ec2" x="561.038258" y="201.24" style="stroke: #000000; stroke-width: 0.8"/>
      </g>
     </g>
     <g id="text_31">
      <!-- 2 -->
      <g transform="translate(557.857008 215.838437) scale(0.1 -0.1)">
       <use xlink:href="#DejaVuSans-32"/>
      </g>
     </g>
    </g>
    <g id="xtick_11">
     <g id="line2d_61">
      <path d="M 620.794374 201.24 
L 620.794374 7.2 
" clip-path="url(#pb5f9e95ef4)" style="fill: none; stroke-dasharray: 3.7,1.6; stroke-dashoffset: 0; stroke: #808080"/>
     </g>
     <g id="line2d_62">
      <g>
       <use xlink:href="#m5dd1546ec2" x="620.794374" y="201.24" style="stroke: #000000; stroke-width: 0.8"/>
      </g>
     </g>
     <g id="text_32">
      <!-- 4 -->
      <g transform="translate(617.613124 215.838437) scale(0.1 -0.1)">
       <use xlink:href="#DejaVuSans-34"/>
      </g>
     </g>
    </g>
    <g id="xtick_12">
     <g id="line2d_63">
      <path d="M 680.55049 201.24 
L 680.55049 7.2 
" clip-path="url(#pb5f9e95ef4)" style="fill: none; stroke-dasharray: 3.7,1.6; stroke-dashoffset: 0; stroke: #808080"/>
     </g>
     <g id="line2d_64">
      <g>
       <use xlink:href="#m5dd1546ec2" x="680.55049" y="201.24" style="stroke: #000000; stroke-width: 0.8"/>
      </g>
     </g>
     <g id="text_33">
      <!-- 6 -->
      <g transform="translate(677.36924 215.838437) scale(0.1 -0.1)">
       <use xlink:href="#DejaVuSans-36"/>
      </g>
     </g>
    </g>
    <g id="text_34">
     <!-- $\hat{t}$ [-] -->
     <g transform="translate(596.172633 237.950625) scale(0.16 -0.16)">
      <use xlink:href="#DejaVuSans-302" transform="translate(49.380371 27.015625)"/>
      <use xlink:href="#DejaVuSans-Oblique-74" transform="translate(0 0.296875)"/>
      <use xlink:href="#DejaVuSans-20" transform="translate(39.208984 0.296875)"/>
      <use xlink:href="#DejaVuSans-5b" transform="translate(70.996094 0.296875)"/>
      <use xlink:href="#DejaVuSans-2d" transform="translate(110.009766 0.296875)"/>
      <use xlink:href="#DejaVuSans-5d" transform="translate(146.09375 0.296875)"/>
     </g>
    </g>
   </g>
   <g id="matplotlib.axis_6">
    <g id="ytick_13">
     <g id="line2d_65">
      <path d="M 501.282141 201.24 
L 720.823125 201.24 
" clip-path="url(#pb5f9e95ef4)" style="fill: none; stroke-dasharray: 3.7,1.6; stroke-dashoffset: 0; stroke: #808080"/>
     </g>
     <g id="line2d_66">
      <g>
       <use xlink:href="#m9bdd6c5327" x="501.282141" y="201.24" style="stroke: #000000; stroke-width: 0.8"/>
      </g>
     </g>
    </g>
    <g id="ytick_14">
     <g id="line2d_67">
      <path d="M 501.282141 164.28 
L 720.823125 164.28 
" clip-path="url(#pb5f9e95ef4)" style="fill: none; stroke-dasharray: 3.7,1.6; stroke-dashoffset: 0; stroke: #808080"/>
     </g>
     <g id="line2d_68">
      <g>
       <use xlink:href="#m9bdd6c5327" x="501.282141" y="164.28" style="stroke: #000000; stroke-width: 0.8"/>
      </g>
     </g>
    </g>
    <g id="ytick_15">
     <g id="line2d_69">
      <path d="M 501.282141 127.32 
L 720.823125 127.32 
" clip-path="url(#pb5f9e95ef4)" style="fill: none; stroke-dasharray: 3.7,1.6; stroke-dashoffset: 0; stroke: #808080"/>
     </g>
     <g id="line2d_70">
      <g>
       <use xlink:href="#m9bdd6c5327" x="501.282141" y="127.32" style="stroke: #000000; stroke-width: 0.8"/>
      </g>
     </g>
    </g>
    <g id="ytick_16">
     <g id="line2d_71">
      <path d="M 501.282141 90.36 
L 720.823125 90.36 
" clip-path="url(#pb5f9e95ef4)" style="fill: none; stroke-dasharray: 3.7,1.6; stroke-dashoffset: 0; stroke: #808080"/>
     </g>
     <g id="line2d_72">
      <g>
       <use xlink:href="#m9bdd6c5327" x="501.282141" y="90.36" style="stroke: #000000; stroke-width: 0.8"/>
      </g>
     </g>
    </g>
    <g id="ytick_17">
     <g id="line2d_73">
      <path d="M 501.282141 53.4 
L 720.823125 53.4 
" clip-path="url(#pb5f9e95ef4)" style="fill: none; stroke-dasharray: 3.7,1.6; stroke-dashoffset: 0; stroke: #808080"/>
     </g>
     <g id="line2d_74">
      <g>
       <use xlink:href="#m9bdd6c5327" x="501.282141" y="53.4" style="stroke: #000000; stroke-width: 0.8"/>
      </g>
     </g>
    </g>
    <g id="ytick_18">
     <g id="line2d_75">
      <path d="M 501.282141 16.44 
L 720.823125 16.44 
" clip-path="url(#pb5f9e95ef4)" style="fill: none; stroke-dasharray: 3.7,1.6; stroke-dashoffset: 0; stroke: #808080"/>
     </g>
     <g id="line2d_76">
      <g>
       <use xlink:href="#m9bdd6c5327" x="501.282141" y="16.44" style="stroke: #000000; stroke-width: 0.8"/>
      </g>
     </g>
    </g>
   </g>
   <g id="line2d_77">
    <path d="M 501.282141 201.24 
L 503.911411 185.680005 
L 506.54068 171.444334 
L 509.169949 158.420112 
L 511.799218 146.504093 
L 514.428487 135.601867 
L 517.057756 125.62707 
L 519.687025 116.500722 
L 522.37605 107.9693 
L 525.065076 100.179176 
L 527.754101 93.065885 
L 530.443126 86.570571 
L 533.132151 80.639514 
L 535.880933 75.108815 
L 538.629714 70.068707 
L 541.438252 65.38046 
L 544.246789 61.116651 
L 547.115083 57.160264 
L 550.043132 53.49811 
L 553.030938 50.116539 
L 556.0785 47.001586 
L 559.185818 44.139106 
L 562.412648 41.468036 
L 565.758991 38.989014 
L 569.224846 36.700413 
L 572.810213 34.598614 
L 576.574848 32.649225 
L 580.518752 30.856176 
L 584.70168 29.198187 
L 589.183389 27.663394 
L 593.963878 26.263143 
L 599.16266 24.976275 
L 604.779735 23.817728 
L 610.994371 22.767716 
L 617.866324 21.836473 
L 625.634619 21.013827 
L 634.478525 20.305762 
L 644.876089 19.703383 
L 657.365117 19.210647 
L 673.02122 18.82499 
L 693.995617 18.544073 
L 710.368792 18.428298 
L 710.368792 18.428298 
" clip-path="url(#pb5f9e95ef4)" style="fill: none; stroke: #222222; stroke-width: 7; stroke-linecap: square"/>
    <path d="M 501.282141 201.24 
L 503.911411 185.680005 
L 506.54068 171.444334 
L 509.169949 158.420112 
L 511.799218 146.504093 
L 514.428487 135.601867 
L 517.057756 125.62707 
L 519.687025 116.500722 
L 522.37605 107.9693 
L 525.065076 100.179176 
L 527.754101 93.065885 
L 530.443126 86.570571 
L 533.132151 80.639514 
L 535.880933 75.108815 
L 538.629714 70.068707 
L 541.438252 65.38046 
L 544.246789 61.116651 
L 547.115083 57.160264 
L 550.043132 53.49811 
L 553.030938 50.116539 
L 556.0785 47.001586 
L 559.185818 44.139106 
L 562.412648 41.468036 
L 565.758991 38.989014 
L 569.224846 36.700413 
L 572.810213 34.598614 
L 576.574848 32.649225 
L 580.518752 30.856176 
L 584.70168 29.198187 
L 589.183389 27.663394 
L 593.963878 26.263143 
L 599.16266 24.976275 
L 604.779735 23.817728 
L 610.994371 22.767716 
L 617.866324 21.836473 
L 625.634619 21.013827 
L 634.478525 20.305762 
L 644.876089 19.703383 
L 657.365117 19.210647 
L 673.02122 18.82499 
L 693.995617 18.544073 
L 710.368792 18.428298 
L 710.368792 18.428298 
" clip-path="url(#pb5f9e95ef4)" style="fill: none; stroke: #980043; stroke-width: 5; stroke-linecap: square"/>
   </g>
   <g id="line2d_78">
    <path d="M 501.282141 201.24 
L 503.911411 185.685728 
L 506.54068 171.464691 
L 509.169949 158.460862 
L 511.799218 146.568579 
L 514.428487 135.691606 
L 517.057756 125.742216 
L 519.687025 116.640446 
L 522.37605 108.132579 
L 525.065076 100.363927 
L 527.754101 93.26972 
L 530.443126 86.790958 
L 533.191908 80.748384 
L 535.940689 75.240454 
L 538.68947 70.219588 
L 541.498008 65.547609 
L 544.366301 61.210765 
L 547.234595 57.272733 
L 550.162645 53.625796 
L 553.15045 50.256485 
L 556.198012 47.151038 
L 559.365086 44.243481 
L 562.591917 41.582484 
L 565.938259 39.111032 
L 569.404114 36.827656 
L 573.049237 34.696034 
L 576.813872 32.751659 
L 580.817532 30.936169 
L 585.060216 29.260491 
L 589.541925 27.731021 
L 594.382171 26.317832 
L 599.580953 25.034711 
L 605.257784 23.866658 
L 611.47242 22.818545 
L 618.404129 21.880091 
L 626.172425 21.057378 
L 635.076086 20.343464 
L 645.47365 19.739158 
L 657.962678 19.243219 
L 673.618781 18.853484 
L 694.533422 18.568674 
L 710.368792 18.453112 
L 710.368792 18.453112 
" clip-path="url(#pb5f9e95ef4)" style="fill: none; stroke: #222222; stroke-width: 7; stroke-linecap: square"/>
    <path d="M 501.282141 201.24 
L 503.911411 185.685728 
L 506.54068 171.464691 
L 509.169949 158.460862 
L 511.799218 146.568579 
L 514.428487 135.691606 
L 517.057756 125.742216 
L 519.687025 116.640446 
L 522.37605 108.132579 
L 525.065076 100.363927 
L 527.754101 93.26972 
L 530.443126 86.790958 
L 533.191908 80.748384 
L 535.940689 75.240454 
L 538.68947 70.219588 
L 541.498008 65.547609 
L 544.366301 61.210765 
L 547.234595 57.272733 
L 550.162645 53.625796 
L 553.15045 50.256485 
L 556.198012 47.151038 
L 559.365086 44.243481 
L 562.591917 41.582484 
L 565.938259 39.111032 
L 569.404114 36.827656 
L 573.049237 34.696034 
L 576.813872 32.751659 
L 580.817532 30.936169 
L 585.060216 29.260491 
L 589.541925 27.731021 
L 594.382171 26.317832 
L 599.580953 25.034711 
L 605.257784 23.866658 
L 611.47242 22.818545 
L 618.404129 21.880091 
L 626.172425 21.057378 
L 635.076086 20.343464 
L 645.47365 19.739158 
L 657.962678 19.243219 
L 673.618781 18.853484 
L 694.533422 18.568674 
L 710.368792 18.453112 
L 710.368792 18.453112 
" clip-path="url(#pb5f9e95ef4)" style="fill: none; stroke: #dd1c77; stroke-width: 5; stroke-linecap: square"/>
   </g>
   <g id="line2d_79">
    <path d="M 501.282141 201.24 
L 503.791898 186.415197 
L 506.301655 172.89221 
L 508.871168 160.260803 
L 511.440681 148.735749 
L 514.010194 138.208847 
L 516.639463 128.370406 
L 519.268732 119.385521 
L 521.898002 111.173106 
L 524.587027 103.497747 
L 527.276052 96.485737 
L 530.024833 89.939307 
L 532.773615 83.962585 
L 535.582152 78.389423 
L 538.39069 73.305352 
L 541.258983 68.570834 
L 544.187033 64.170118 
L 547.115083 60.16522 
L 550.102888 56.448069 
L 553.15045 53.00457 
L 556.317525 49.762445 
L 559.544355 46.777132 
L 562.890697 43.986156 
L 566.356552 41.389108 
L 569.941919 38.983643 
L 573.646798 36.765724 
L 577.530946 34.699934 
L 581.594362 32.790072 
L 585.896802 31.014023 
L 590.498023 29.359195 
L 595.398025 27.837523 
L 600.656563 26.441296 
L 606.333394 25.167522 
L 612.54803 24.005943 
L 619.360227 22.963332 
L 626.949254 22.031736 
L 635.494379 21.212128 
L 645.294382 20.501755 
L 656.767556 19.900342 
L 670.571219 19.407604 
L 687.900493 19.021574 
L 710.368792 18.746895 
L 710.368792 18.746895 
" clip-path="url(#pb5f9e95ef4)" style="fill: none; stroke: #222222; stroke-width: 7; stroke-linecap: square"/>
    <path d="M 501.282141 201.24 
L 503.791898 186.415197 
L 506.301655 172.89221 
L 508.871168 160.260803 
L 511.440681 148.735749 
L 514.010194 138.208847 
L 516.639463 128.370406 
L 519.268732 119.385521 
L 521.898002 111.173106 
L 524.587027 103.497747 
L 527.276052 96.485737 
L 530.024833 89.939307 
L 532.773615 83.962585 
L 535.582152 78.389423 
L 538.39069 73.305352 
L 541.258983 68.570834 
L 544.187033 64.170118 
L 547.115083 60.16522 
L 550.102888 56.448069 
L 553.15045 53.00457 
L 556.317525 49.762445 
L 559.544355 46.777132 
L 562.890697 43.986156 
L 566.356552 41.389108 
L 569.941919 38.983643 
L 573.646798 36.765724 
L 577.530946 34.699934 
L 581.594362 32.790072 
L 585.896802 31.014023 
L 590.498023 29.359195 
L 595.398025 27.837523 
L 600.656563 26.441296 
L 606.333394 25.167522 
L 612.54803 24.005943 
L 619.360227 22.963332 
L 626.949254 22.031736 
L 635.494379 21.212128 
L 645.294382 20.501755 
L 656.767556 19.900342 
L 670.571219 19.407604 
L 687.900493 19.021574 
L 710.368792 18.746895 
L 710.368792 18.746895 
" clip-path="url(#pb5f9e95ef4)" style="fill: none; stroke: #df65b0; stroke-width: 5; stroke-linecap: square"/>
   </g>
   <g id="line2d_80">
    <path d="M 501.282141 201.24 
L 503.194337 190.127697 
L 505.166289 179.993106 
L 507.197997 170.725651 
L 509.289461 162.229936 
L 511.440681 154.423339 
L 513.651657 147.234004 
L 515.92239 140.599206 
L 518.252878 134.463992 
L 520.643123 128.780057 
L 523.15288 123.382445 
L 525.722393 118.378446 
L 528.411418 113.630243 
L 531.1602 109.223679 
L 534.028493 105.043521 
L 537.016299 101.083541 
L 540.123617 97.336301 
L 543.350447 93.793521 
L 546.69679 90.446387 
L 550.222401 87.233796 
L 553.92728 84.160352 
L 557.811427 81.228196 
L 561.874843 78.437466 
L 566.177284 75.751118 
L 570.718749 73.176196 
L 575.558994 70.687809 
L 580.69802 68.296402 
L 586.195583 65.985287 
L 592.051682 63.765959 
L 598.326074 61.627077 
L 605.078515 59.562295 
L 612.368762 57.569077 
L 620.196813 55.661403 
L 628.682181 53.824581 
L 637.884623 52.062349 
L 647.923651 50.369524 
L 658.85902 48.753953 
L 670.87 47.208096 
L 684.016345 45.743322 
L 698.537081 44.352468 
L 710.368792 43.36572 
L 710.368792 43.36572 
" clip-path="url(#pb5f9e95ef4)" style="fill: none; stroke: #222222; stroke-width: 7; stroke-linecap: square"/>
    <path d="M 501.282141 201.24 
L 503.194337 190.127697 
L 505.166289 179.993106 
L 507.197997 170.725651 
L 509.289461 162.229936 
L 511.440681 154.423339 
L 513.651657 147.234004 
L 515.92239 140.599206 
L 518.252878 134.463992 
L 520.643123 128.780057 
L 523.15288 123.382445 
L 525.722393 118.378446 
L 528.411418 113.630243 
L 531.1602 109.223679 
L 534.028493 105.043521 
L 537.016299 101.083541 
L 540.123617 97.336301 
L 543.350447 93.793521 
L 546.69679 90.446387 
L 550.222401 87.233796 
L 553.92728 84.160352 
L 557.811427 81.228196 
L 561.874843 78.437466 
L 566.177284 75.751118 
L 570.718749 73.176196 
L 575.558994 70.687809 
L 580.69802 68.296402 
L 586.195583 65.985287 
L 592.051682 63.765959 
L 598.326074 61.627077 
L 605.078515 59.562295 
L 612.368762 57.569077 
L 620.196813 55.661403 
L 628.682181 53.824581 
L 637.884623 52.062349 
L 647.923651 50.369524 
L 658.85902 48.753953 
L 670.87 47.208096 
L 684.016345 45.743322 
L 698.537081 44.352468 
L 710.368792 43.36572 
L 710.368792 43.36572 
" clip-path="url(#pb5f9e95ef4)" style="fill: none; stroke: #d7b5d8; stroke-width: 5; stroke-linecap: square"/>
   </g>
   <g id="patch_17">
    <path d="M 501.282141 201.24 
L 501.282141 7.2 
" style="fill: none; stroke: #000000; stroke-width: 0.8; stroke-linejoin: miter; stroke-linecap: square"/>
   </g>
   <g id="patch_18">
    <path d="M 720.823125 201.24 
L 720.823125 7.2 
" style="fill: none; stroke: #000000; stroke-width: 0.8; stroke-linejoin: miter; stroke-linecap: square"/>
   </g>
   <g id="patch_19">
    <path d="M 501.282141 201.24 
L 720.823125 201.24 
" style="fill: none; stroke: #000000; stroke-width: 0.8; stroke-linejoin: miter; stroke-linecap: square"/>
   </g>
   <g id="patch_20">
    <path d="M 501.282141 7.2 
L 720.823125 7.2 
" style="fill: none; stroke: #000000; stroke-width: 0.8; stroke-linejoin: miter; stroke-linecap: square"/>
   </g>
   <g id="text_35">
    <g id="patch_21">
     <path d="M 496.47624 23.2032 
L 549.99624 23.2032 
L 549.99624 3.66945 
L 496.47624 3.66945 
z
" style="fill: #ffffff; stroke: #000000; stroke-linejoin: miter"/>
    </g>
    <!-- $\psi=100$ -->
    <g transform="translate(500.43624 16.7232) scale(0.12 -0.12)">
     <use xlink:href="#DejaVuSans-Oblique-3c8" transform="translate(0 0.78125)"/>
     <use xlink:href="#DejaVuSans-3d" transform="translate(85.449219 0.78125)"/>
     <use xlink:href="#DejaVuSans-31" transform="translate(188.720703 0.78125)"/>
     <use xlink:href="#DejaVuSans-30" transform="translate(252.34375 0.78125)"/>
     <use xlink:href="#DejaVuSans-30" transform="translate(315.966797 0.78125)"/>
    </g>
   </g>
   <g id="legend_3">
    <g id="patch_22">
     <path d="M 635.023125 196.24 
L 713.823125 196.24 
Q 715.823125 196.24 715.823125 194.24 
L 715.823125 121.849375 
Q 715.823125 119.849375 713.823125 119.849375 
L 635.023125 119.849375 
Q 633.023125 119.849375 633.023125 121.849375 
L 633.023125 194.24 
Q 633.023125 196.24 635.023125 196.24 
z
" style="fill: #ffffff; opacity: 0.8; stroke: #cccccc; stroke-linejoin: miter"/>
    </g>
    <g id="text_36">
     <!-- Batch kinetics -->
     <g transform="translate(639.228594 131.447812) scale(0.1 -0.1)">
      <use xlink:href="#DejaVuSans-42"/>
      <use xlink:href="#DejaVuSans-61" transform="translate(68.603516 0)"/>
      <use xlink:href="#DejaVuSans-74" transform="translate(129.882812 0)"/>
      <use xlink:href="#DejaVuSans-63" transform="translate(169.091797 0)"/>
      <use xlink:href="#DejaVuSans-68" transform="translate(224.072266 0)"/>
      <use xlink:href="#DejaVuSans-20" transform="translate(287.451172 0)"/>
      <use xlink:href="#DejaVuSans-6b" transform="translate(319.238281 0)"/>
      <use xlink:href="#DejaVuSans-69" transform="translate(377.148438 0)"/>
      <use xlink:href="#DejaVuSans-6e" transform="translate(404.931641 0)"/>
      <use xlink:href="#DejaVuSans-65" transform="translate(468.310547 0)"/>
      <use xlink:href="#DejaVuSans-74" transform="translate(529.833984 0)"/>
      <use xlink:href="#DejaVuSans-69" transform="translate(569.042969 0)"/>
      <use xlink:href="#DejaVuSans-63" transform="translate(596.826172 0)"/>
      <use xlink:href="#DejaVuSans-73" transform="translate(651.806641 0)"/>
     </g>
    </g>
    <g id="line2d_81">
     <path d="M 637.023125 142.625937 
L 647.023125 142.625937 
L 657.023125 142.625937 
" style="fill: none; stroke: #222222; stroke-width: 7; stroke-linecap: square"/>
     <path d="M 637.023125 142.625937 
L 647.023125 142.625937 
L 657.023125 142.625937 
" style="fill: none; stroke: #980043; stroke-width: 5; stroke-linecap: square"/>
    </g>
    <g id="text_37">
     <!-- $\kappa=0.001$ -->
     <g transform="translate(665.023125 146.125937) scale(0.1 -0.1)">
      <use xlink:href="#DejaVuSans-Oblique-3ba" transform="translate(0 0.78125)"/>
      <use xlink:href="#DejaVuSans-3d" transform="translate(78.417969 0.78125)"/>
      <use xlink:href="#DejaVuSans-30" transform="translate(181.689453 0.78125)"/>
      <use xlink:href="#DejaVuSans-2e" transform="translate(245.3125 0.78125)"/>
      <use xlink:href="#DejaVuSans-30" transform="translate(277.099609 0.78125)"/>
      <use xlink:href="#DejaVuSans-30" transform="translate(340.722656 0.78125)"/>
      <use xlink:href="#DejaVuSans-31" transform="translate(404.345703 0.78125)"/>
     </g>
    </g>
    <g id="line2d_82">
     <path d="M 637.023125 157.304062 
L 647.023125 157.304062 
L 657.023125 157.304062 
" style="fill: none; stroke: #222222; stroke-width: 7; stroke-linecap: square"/>
     <path d="M 637.023125 157.304062 
L 647.023125 157.304062 
L 657.023125 157.304062 
" style="fill: none; stroke: #dd1c77; stroke-width: 5; stroke-linecap: square"/>
    </g>
    <g id="text_38">
     <!-- $\kappa=0.01$ -->
     <g transform="translate(665.023125 160.804062) scale(0.1 -0.1)">
      <use xlink:href="#DejaVuSans-Oblique-3ba" transform="translate(0 0.78125)"/>
      <use xlink:href="#DejaVuSans-3d" transform="translate(78.417969 0.78125)"/>
      <use xlink:href="#DejaVuSans-30" transform="translate(181.689453 0.78125)"/>
      <use xlink:href="#DejaVuSans-2e" transform="translate(245.3125 0.78125)"/>
      <use xlink:href="#DejaVuSans-30" transform="translate(277.099609 0.78125)"/>
      <use xlink:href="#DejaVuSans-31" transform="translate(340.722656 0.78125)"/>
     </g>
    </g>
    <g id="line2d_83">
     <path d="M 637.023125 171.982188 
L 647.023125 171.982188 
L 657.023125 171.982188 
" style="fill: none; stroke: #222222; stroke-width: 7; stroke-linecap: square"/>
     <path d="M 637.023125 171.982188 
L 647.023125 171.982188 
L 657.023125 171.982188 
" style="fill: none; stroke: #df65b0; stroke-width: 5; stroke-linecap: square"/>
    </g>
    <g id="text_39">
     <!-- $\kappa=0.1$ -->
     <g transform="translate(665.023125 175.482188) scale(0.1 -0.1)">
      <use xlink:href="#DejaVuSans-Oblique-3ba" transform="translate(0 0.78125)"/>
      <use xlink:href="#DejaVuSans-3d" transform="translate(78.417969 0.78125)"/>
      <use xlink:href="#DejaVuSans-30" transform="translate(181.689453 0.78125)"/>
      <use xlink:href="#DejaVuSans-2e" transform="translate(245.3125 0.78125)"/>
      <use xlink:href="#DejaVuSans-31" transform="translate(277.099609 0.78125)"/>
     </g>
    </g>
    <g id="line2d_84">
     <path d="M 637.023125 186.660313 
L 647.023125 186.660313 
L 657.023125 186.660313 
" style="fill: none; stroke: #222222; stroke-width: 7; stroke-linecap: square"/>
     <path d="M 637.023125 186.660313 
L 647.023125 186.660313 
L 657.023125 186.660313 
" style="fill: none; stroke: #d7b5d8; stroke-width: 5; stroke-linecap: square"/>
    </g>
    <g id="text_40">
     <!-- $\kappa=1.0$ -->
     <g transform="translate(665.023125 190.160313) scale(0.1 -0.1)">
      <use xlink:href="#DejaVuSans-Oblique-3ba" transform="translate(0 0.78125)"/>
      <use xlink:href="#DejaVuSans-3d" transform="translate(78.417969 0.78125)"/>
      <use xlink:href="#DejaVuSans-31" transform="translate(181.689453 0.78125)"/>
      <use xlink:href="#DejaVuSans-2e" transform="translate(245.3125 0.78125)"/>
      <use xlink:href="#DejaVuSans-30" transform="translate(277.099609 0.78125)"/>
     </g>
    </g>
   </g>
  </g>
 </g>
 <defs>
  <clipPath id="p9af6620c76">
   <rect x="51.223125" y="7.2" width="219.540984" height="194.04"/>
  </clipPath>
  <clipPath id="p94f6b7b05d">
   <rect x="276.252633" y="7.2" width="219.540984" height="194.04"/>
  </clipPath>
  <clipPath id="pb5f9e95ef4">
   <rect x="501.282141" y="7.2" width="219.540984" height="194.04"/>
  </clipPath>
 </defs>
</svg>
