<?xml version="1.0" encoding="utf-8" standalone="no"?>
<!DOCTYPE svg PUBLIC "-//W3C//DTD SVG 1.1//EN"
  "http://www.w3.org/Graphics/SVG/1.1/DTD/svg11.dtd">
<svg xmlns:xlink="http://www.w3.org/1999/xlink" width="393.223125pt" height="248.478125pt" viewBox="0 0 393.223125 248.478125" xmlns="http://www.w3.org/2000/svg" version="1.1">
 <metadata>
  <rdf:RDF xmlns:dc="http://purl.org/dc/elements/1.1/" xmlns:cc="http://creativecommons.org/ns#" xmlns:rdf="http://www.w3.org/1999/02/22-rdf-syntax-ns#">
   <cc:Work>
    <dc:type rdf:resource="http://purl.org/dc/dcmitype/StillImage"/>
    <dc:date>2025-05-23T14:08:55.050664</dc:date>
    <dc:format>image/svg+xml</dc:format>
    <dc:creator>
     <cc:Agent>
      <dc:title>Matplotlib v3.10.1, https://matplotlib.org/</dc:title>
     </cc:Agent>
    </dc:creator>
   </cc:Work>
  </rdf:RDF>
 </metadata>
 <defs>
  <style type="text/css">*{stroke-linejoin: round; stroke-linecap: butt}</style>
 </defs>
 <g id="figure_1">
  <g id="patch_1">
   <path d="M 0 248.478125 
L 393.223125 248.478125 
L 393.223125 0 
L 0 0 
L 0 248.478125 
z
" style="fill: none"/>
  </g>
  <g id="axes_1">
   <g id="patch_2">
    <path d="M 51.223125 201.24 
L 386.023125 201.24 
L 386.023125 7.2 
L 51.223125 7.2 
z
" style="fill: #ffffff; fill-opacity: 0.501961"/>
   </g>
   <g id="matplotlib.axis_1">
    <g id="xtick_1">
     <g id="line2d_1">
      <defs>
       <path id="m31245604b0" d="M 0 0 
L 0 3.5 
" style="stroke: #000000; stroke-width: 0.8"/>
      </defs>
      <g>
       <use xlink:href="#m31245604b0" x="66.441307" y="201.24" style="stroke: #000000; stroke-width: 0.8"/>
      </g>
     </g>
     <g id="text_1">
      <!-- 0 -->
      <g transform="translate(63.260057 215.838437) scale(0.1 -0.1)">
       <defs>
        <path id="DejaVuSans-30" d="M 2034 4250 
Q 1547 4250 1301 3770 
Q 1056 3291 1056 2328 
Q 1056 1369 1301 889 
Q 1547 409 2034 409 
Q 2525 409 2770 889 
Q 3016 1369 3016 2328 
Q 3016 3291 2770 3770 
Q 2525 4250 2034 4250 
z
M 2034 4750 
Q 2819 4750 3233 4129 
Q 3647 3509 3647 2328 
Q 3647 1150 3233 529 
Q 2819 -91 2034 -91 
Q 1250 -91 836 529 
Q 422 1150 422 2328 
Q 422 3509 836 4129 
Q 1250 4750 2034 4750 
z
" transform="scale(0.015625)"/>
       </defs>
       <use xlink:href="#DejaVuSans-30"/>
      </g>
     </g>
    </g>
    <g id="xtick_2">
     <g id="line2d_2">
      <g>
       <use xlink:href="#m31245604b0" x="117.16858" y="201.24" style="stroke: #000000; stroke-width: 0.8"/>
      </g>
     </g>
     <g id="text_2">
      <!-- 50 -->
      <g transform="translate(110.80608 215.838437) scale(0.1 -0.1)">
       <defs>
        <path id="DejaVuSans-35" d="M 691 4666 
L 3169 4666 
L 3169 4134 
L 1269 4134 
L 1269 2991 
Q 1406 3038 1543 3061 
Q 1681 3084 1819 3084 
Q 2600 3084 3056 2656 
Q 3513 2228 3513 1497 
Q 3513 744 3044 326 
Q 2575 -91 1722 -91 
Q 1428 -91 1123 -41 
Q 819 9 494 109 
L 494 744 
Q 775 591 1075 516 
Q 1375 441 1709 441 
Q 2250 441 2565 725 
Q 2881 1009 2881 1497 
Q 2881 1984 2565 2268 
Q 2250 2553 1709 2553 
Q 1456 2553 1204 2497 
Q 953 2441 691 2322 
L 691 4666 
z
" transform="scale(0.015625)"/>
       </defs>
       <use xlink:href="#DejaVuSans-35"/>
       <use xlink:href="#DejaVuSans-30" transform="translate(63.623047 0)"/>
      </g>
     </g>
    </g>
    <g id="xtick_3">
     <g id="line2d_3">
      <g>
       <use xlink:href="#m31245604b0" x="167.895852" y="201.24" style="stroke: #000000; stroke-width: 0.8"/>
      </g>
     </g>
     <g id="text_3">
      <!-- 100 -->
      <g transform="translate(158.352102 215.838437) scale(0.1 -0.1)">
       <defs>
        <path id="DejaVuSans-31" d="M 794 531 
L 1825 531 
L 1825 4091 
L 703 3866 
L 703 4441 
L 1819 4666 
L 2450 4666 
L 2450 531 
L 3481 531 
L 3481 0 
L 794 0 
L 794 531 
z
" transform="scale(0.015625)"/>
       </defs>
       <use xlink:href="#DejaVuSans-31"/>
       <use xlink:href="#DejaVuSans-30" transform="translate(63.623047 0)"/>
       <use xlink:href="#DejaVuSans-30" transform="translate(127.246094 0)"/>
      </g>
     </g>
    </g>
    <g id="xtick_4">
     <g id="line2d_4">
      <g>
       <use xlink:href="#m31245604b0" x="218.623125" y="201.24" style="stroke: #000000; stroke-width: 0.8"/>
      </g>
     </g>
     <g id="text_4">
      <!-- 150 -->
      <g transform="translate(209.079375 215.838437) scale(0.1 -0.1)">
       <use xlink:href="#DejaVuSans-31"/>
       <use xlink:href="#DejaVuSans-35" transform="translate(63.623047 0)"/>
       <use xlink:href="#DejaVuSans-30" transform="translate(127.246094 0)"/>
      </g>
     </g>
    </g>
    <g id="xtick_5">
     <g id="line2d_5">
      <g>
       <use xlink:href="#m31245604b0" x="269.350398" y="201.24" style="stroke: #000000; stroke-width: 0.8"/>
      </g>
     </g>
     <g id="text_5">
      <!-- 200 -->
      <g transform="translate(259.806648 215.838437) scale(0.1 -0.1)">
       <defs>
        <path id="DejaVuSans-32" d="M 1228 531 
L 3431 531 
L 3431 0 
L 469 0 
L 469 531 
Q 828 903 1448 1529 
Q 2069 2156 2228 2338 
Q 2531 2678 2651 2914 
Q 2772 3150 2772 3378 
Q 2772 3750 2511 3984 
Q 2250 4219 1831 4219 
Q 1534 4219 1204 4116 
Q 875 4013 500 3803 
L 500 4441 
Q 881 4594 1212 4672 
Q 1544 4750 1819 4750 
Q 2544 4750 2975 4387 
Q 3406 4025 3406 3419 
Q 3406 3131 3298 2873 
Q 3191 2616 2906 2266 
Q 2828 2175 2409 1742 
Q 1991 1309 1228 531 
z
" transform="scale(0.015625)"/>
       </defs>
       <use xlink:href="#DejaVuSans-32"/>
       <use xlink:href="#DejaVuSans-30" transform="translate(63.623047 0)"/>
       <use xlink:href="#DejaVuSans-30" transform="translate(127.246094 0)"/>
      </g>
     </g>
    </g>
    <g id="xtick_6">
     <g id="line2d_6">
      <g>
       <use xlink:href="#m31245604b0" x="320.07767" y="201.24" style="stroke: #000000; stroke-width: 0.8"/>
      </g>
     </g>
     <g id="text_6">
      <!-- 250 -->
      <g transform="translate(310.53392 215.838437) scale(0.1 -0.1)">
       <use xlink:href="#DejaVuSans-32"/>
       <use xlink:href="#DejaVuSans-35" transform="translate(63.623047 0)"/>
       <use xlink:href="#DejaVuSans-30" transform="translate(127.246094 0)"/>
      </g>
     </g>
    </g>
    <g id="xtick_7">
     <g id="line2d_7">
      <g>
       <use xlink:href="#m31245604b0" x="370.804943" y="201.24" style="stroke: #000000; stroke-width: 0.8"/>
      </g>
     </g>
     <g id="text_7">
      <!-- 300 -->
      <g transform="translate(361.261193 215.838437) scale(0.1 -0.1)">
       <defs>
        <path id="DejaVuSans-33" d="M 2597 2516 
Q 3050 2419 3304 2112 
Q 3559 1806 3559 1356 
Q 3559 666 3084 287 
Q 2609 -91 1734 -91 
Q 1441 -91 1130 -33 
Q 819 25 488 141 
L 488 750 
Q 750 597 1062 519 
Q 1375 441 1716 441 
Q 2309 441 2620 675 
Q 2931 909 2931 1356 
Q 2931 1769 2642 2001 
Q 2353 2234 1838 2234 
L 1294 2234 
L 1294 2753 
L 1863 2753 
Q 2328 2753 2575 2939 
Q 2822 3125 2822 3475 
Q 2822 3834 2567 4026 
Q 2313 4219 1838 4219 
Q 1578 4219 1281 4162 
Q 984 4106 628 3988 
L 628 4550 
Q 988 4650 1302 4700 
Q 1616 4750 1894 4750 
Q 2613 4750 3031 4423 
Q 3450 4097 3450 3541 
Q 3450 3153 3228 2886 
Q 3006 2619 2597 2516 
z
" transform="scale(0.015625)"/>
       </defs>
       <use xlink:href="#DejaVuSans-33"/>
       <use xlink:href="#DejaVuSans-30" transform="translate(63.623047 0)"/>
       <use xlink:href="#DejaVuSans-30" transform="translate(127.246094 0)"/>
      </g>
     </g>
    </g>
    <g id="text_8">
     <!-- $\hat{t}$ [-] -->
     <g transform="translate(203.743125 237.950625) scale(0.16 -0.16)">
      <defs>
       <path id="DejaVuSans-302" d="M -1831 5119 
L -1369 5119 
L -603 3944 
L -1038 3944 
L -1600 4709 
L -2163 3944 
L -2597 3944 
L -1831 5119 
z
M -1600 3584 
L -1600 3584 
z
" transform="scale(0.015625)"/>
       <path id="DejaVuSans-Oblique-74" d="M 2706 3500 
L 2619 3053 
L 1472 3053 
L 1100 1153 
Q 1081 1047 1072 975 
Q 1063 903 1063 863 
Q 1063 663 1183 572 
Q 1303 481 1569 481 
L 2150 481 
L 2053 0 
L 1503 0 
Q 991 0 739 200 
Q 488 400 488 806 
Q 488 878 497 964 
Q 506 1050 525 1153 
L 897 3053 
L 409 3053 
L 500 3500 
L 978 3500 
L 1172 4494 
L 1747 4494 
L 1556 3500 
L 2706 3500 
z
" transform="scale(0.015625)"/>
       <path id="DejaVuSans-20" transform="scale(0.015625)"/>
       <path id="DejaVuSans-5b" d="M 550 4863 
L 1875 4863 
L 1875 4416 
L 1125 4416 
L 1125 -397 
L 1875 -397 
L 1875 -844 
L 550 -844 
L 550 4863 
z
" transform="scale(0.015625)"/>
       <path id="DejaVuSans-2d" d="M 313 2009 
L 1997 2009 
L 1997 1497 
L 313 1497 
L 313 2009 
z
" transform="scale(0.015625)"/>
       <path id="DejaVuSans-5d" d="M 1947 4863 
L 1947 -844 
L 622 -844 
L 622 -397 
L 1369 -397 
L 1369 4416 
L 622 4416 
L 622 4863 
L 1947 4863 
z
" transform="scale(0.015625)"/>
      </defs>
      <use xlink:href="#DejaVuSans-302" transform="translate(49.380371 27.015625)"/>
      <use xlink:href="#DejaVuSans-Oblique-74" transform="translate(0 0.296875)"/>
      <use xlink:href="#DejaVuSans-20" transform="translate(39.208984 0.296875)"/>
      <use xlink:href="#DejaVuSans-5b" transform="translate(70.996094 0.296875)"/>
      <use xlink:href="#DejaVuSans-2d" transform="translate(110.009766 0.296875)"/>
      <use xlink:href="#DejaVuSans-5d" transform="translate(146.09375 0.296875)"/>
     </g>
    </g>
   </g>
   <g id="matplotlib.axis_2">
    <g id="ytick_1">
     <g id="line2d_8">
      <defs>
       <path id="mbd76606cd0" d="M 0 0 
L -3.5 0 
" style="stroke: #000000; stroke-width: 0.8"/>
      </defs>
      <g>
       <use xlink:href="#mbd76606cd0" x="51.223125" y="201.24" style="stroke: #000000; stroke-width: 0.8"/>
      </g>
     </g>
     <g id="text_9">
      <!-- 0.0 -->
      <g transform="translate(28.32 205.039219) scale(0.1 -0.1)">
       <defs>
        <path id="DejaVuSans-2e" d="M 684 794 
L 1344 794 
L 1344 0 
L 684 0 
L 684 794 
z
" transform="scale(0.015625)"/>
       </defs>
       <use xlink:href="#DejaVuSans-30"/>
       <use xlink:href="#DejaVuSans-2e" transform="translate(63.623047 0)"/>
       <use xlink:href="#DejaVuSans-30" transform="translate(95.410156 0)"/>
      </g>
     </g>
    </g>
    <g id="ytick_2">
     <g id="line2d_9">
      <g>
       <use xlink:href="#mbd76606cd0" x="51.223125" y="164.28" style="stroke: #000000; stroke-width: 0.8"/>
      </g>
     </g>
     <g id="text_10">
      <!-- 0.2 -->
      <g transform="translate(28.32 168.079219) scale(0.1 -0.1)">
       <use xlink:href="#DejaVuSans-30"/>
       <use xlink:href="#DejaVuSans-2e" transform="translate(63.623047 0)"/>
       <use xlink:href="#DejaVuSans-32" transform="translate(95.410156 0)"/>
      </g>
     </g>
    </g>
    <g id="ytick_3">
     <g id="line2d_10">
      <g>
       <use xlink:href="#mbd76606cd0" x="51.223125" y="127.32" style="stroke: #000000; stroke-width: 0.8"/>
      </g>
     </g>
     <g id="text_11">
      <!-- 0.4 -->
      <g transform="translate(28.32 131.119219) scale(0.1 -0.1)">
       <defs>
        <path id="DejaVuSans-34" d="M 2419 4116 
L 825 1625 
L 2419 1625 
L 2419 4116 
z
M 2253 4666 
L 3047 4666 
L 3047 1625 
L 3713 1625 
L 3713 1100 
L 3047 1100 
L 3047 0 
L 2419 0 
L 2419 1100 
L 313 1100 
L 313 1709 
L 2253 4666 
z
" transform="scale(0.015625)"/>
       </defs>
       <use xlink:href="#DejaVuSans-30"/>
       <use xlink:href="#DejaVuSans-2e" transform="translate(63.623047 0)"/>
       <use xlink:href="#DejaVuSans-34" transform="translate(95.410156 0)"/>
      </g>
     </g>
    </g>
    <g id="ytick_4">
     <g id="line2d_11">
      <g>
       <use xlink:href="#mbd76606cd0" x="51.223125" y="90.36" style="stroke: #000000; stroke-width: 0.8"/>
      </g>
     </g>
     <g id="text_12">
      <!-- 0.6 -->
      <g transform="translate(28.32 94.159219) scale(0.1 -0.1)">
       <defs>
        <path id="DejaVuSans-36" d="M 2113 2584 
Q 1688 2584 1439 2293 
Q 1191 2003 1191 1497 
Q 1191 994 1439 701 
Q 1688 409 2113 409 
Q 2538 409 2786 701 
Q 3034 994 3034 1497 
Q 3034 2003 2786 2293 
Q 2538 2584 2113 2584 
z
M 3366 4563 
L 3366 3988 
Q 3128 4100 2886 4159 
Q 2644 4219 2406 4219 
Q 1781 4219 1451 3797 
Q 1122 3375 1075 2522 
Q 1259 2794 1537 2939 
Q 1816 3084 2150 3084 
Q 2853 3084 3261 2657 
Q 3669 2231 3669 1497 
Q 3669 778 3244 343 
Q 2819 -91 2113 -91 
Q 1303 -91 875 529 
Q 447 1150 447 2328 
Q 447 3434 972 4092 
Q 1497 4750 2381 4750 
Q 2619 4750 2861 4703 
Q 3103 4656 3366 4563 
z
" transform="scale(0.015625)"/>
       </defs>
       <use xlink:href="#DejaVuSans-30"/>
       <use xlink:href="#DejaVuSans-2e" transform="translate(63.623047 0)"/>
       <use xlink:href="#DejaVuSans-36" transform="translate(95.410156 0)"/>
      </g>
     </g>
    </g>
    <g id="ytick_5">
     <g id="line2d_12">
      <g>
       <use xlink:href="#mbd76606cd0" x="51.223125" y="53.4" style="stroke: #000000; stroke-width: 0.8"/>
      </g>
     </g>
     <g id="text_13">
      <!-- 0.8 -->
      <g transform="translate(28.32 57.199219) scale(0.1 -0.1)">
       <defs>
        <path id="DejaVuSans-38" d="M 2034 2216 
Q 1584 2216 1326 1975 
Q 1069 1734 1069 1313 
Q 1069 891 1326 650 
Q 1584 409 2034 409 
Q 2484 409 2743 651 
Q 3003 894 3003 1313 
Q 3003 1734 2745 1975 
Q 2488 2216 2034 2216 
z
M 1403 2484 
Q 997 2584 770 2862 
Q 544 3141 544 3541 
Q 544 4100 942 4425 
Q 1341 4750 2034 4750 
Q 2731 4750 3128 4425 
Q 3525 4100 3525 3541 
Q 3525 3141 3298 2862 
Q 3072 2584 2669 2484 
Q 3125 2378 3379 2068 
Q 3634 1759 3634 1313 
Q 3634 634 3220 271 
Q 2806 -91 2034 -91 
Q 1263 -91 848 271 
Q 434 634 434 1313 
Q 434 1759 690 2068 
Q 947 2378 1403 2484 
z
M 1172 3481 
Q 1172 3119 1398 2916 
Q 1625 2713 2034 2713 
Q 2441 2713 2670 2916 
Q 2900 3119 2900 3481 
Q 2900 3844 2670 4047 
Q 2441 4250 2034 4250 
Q 1625 4250 1398 4047 
Q 1172 3844 1172 3481 
z
" transform="scale(0.015625)"/>
       </defs>
       <use xlink:href="#DejaVuSans-30"/>
       <use xlink:href="#DejaVuSans-2e" transform="translate(63.623047 0)"/>
       <use xlink:href="#DejaVuSans-38" transform="translate(95.410156 0)"/>
      </g>
     </g>
    </g>
    <g id="ytick_6">
     <g id="line2d_13">
      <g>
       <use xlink:href="#mbd76606cd0" x="51.223125" y="16.44" style="stroke: #000000; stroke-width: 0.8"/>
      </g>
     </g>
     <g id="text_14">
      <!-- 1.0 -->
      <g transform="translate(28.32 20.239219) scale(0.1 -0.1)">
       <use xlink:href="#DejaVuSans-31"/>
       <use xlink:href="#DejaVuSans-2e" transform="translate(63.623047 0)"/>
       <use xlink:href="#DejaVuSans-30" transform="translate(95.410156 0)"/>
      </g>
     </g>
    </g>
    <g id="text_15">
     <!-- $\hat{c}$ [-] -->
     <g transform="translate(20.9925 120.3) rotate(-90) scale(0.16 -0.16)">
      <defs>
       <path id="DejaVuSans-Oblique-63" d="M 3431 3366 
L 3316 2797 
Q 3109 2947 2876 3022 
Q 2644 3097 2394 3097 
Q 2119 3097 1870 3000 
Q 1622 2903 1453 2725 
Q 1184 2453 1037 2087 
Q 891 1722 891 1331 
Q 891 859 1127 628 
Q 1363 397 1844 397 
Q 2081 397 2348 469 
Q 2616 541 2906 684 
L 2797 116 
Q 2547 13 2283 -39 
Q 2019 -91 1741 -91 
Q 1044 -91 669 257 
Q 294 606 294 1253 
Q 294 1797 489 2255 
Q 684 2713 1069 3078 
Q 1331 3328 1684 3456 
Q 2038 3584 2456 3584 
Q 2700 3584 2940 3529 
Q 3181 3475 3431 3366 
z
" transform="scale(0.015625)"/>
      </defs>
      <use xlink:href="#DejaVuSans-302" transform="translate(59.323242 13.015625)"/>
      <use xlink:href="#DejaVuSans-Oblique-63" transform="translate(0 0.515625)"/>
      <use xlink:href="#DejaVuSans-20" transform="translate(54.980469 0.515625)"/>
      <use xlink:href="#DejaVuSans-5b" transform="translate(86.767578 0.515625)"/>
      <use xlink:href="#DejaVuSans-2d" transform="translate(125.78125 0.515625)"/>
      <use xlink:href="#DejaVuSans-5d" transform="translate(161.865234 0.515625)"/>
     </g>
    </g>
   </g>
   <g id="line2d_14">
    <path d="M 66.441307 201.24 
L 67.181925 201.158469 
L 67.242798 200.435568 
L 67.313816 195.869435 
L 67.445707 165.83097 
L 67.668907 132.399272 
L 67.86167 130.22757 
L 69.748725 118.385001 
L 71.87927 106.317407 
L 73.97938 95.671867 
L 76.059198 86.25222 
L 78.12887 77.89253 
L 80.178252 70.521977 
L 82.217489 64.00044 
L 84.256725 58.211451 
L 86.295961 53.082397 
L 88.335198 48.546022 
L 90.38458 44.521725 
L 92.444107 40.959552 
L 94.523925 37.798701 
L 96.644325 34.976513 
L 98.805307 32.467578 
L 101.017016 30.2372 
L 103.299743 28.248231 
L 105.67378 26.472808 
L 108.169561 24.884176 
L 110.80738 23.469557 
L 113.627816 22.210864 
L 116.681598 21.094368 
L 120.019452 20.113778 
L 123.732689 19.258506 
L 127.932907 18.523937 
L 132.79258 17.905501 
L 138.585634 17.399813 
L 145.778761 17.004708 
L 155.295198 16.717805 
L 169.366943 16.53595 
L 196.049489 16.452294 
L 325.048943 16.44 
L 370.804943 16.44 
L 370.804943 16.44 
" clip-path="url(#p0a690f25ce)" style="fill: none; stroke: #222222; stroke-width: 7; stroke-linecap: square"/>
    <path d="M 66.441307 201.24 
L 67.181925 201.158469 
L 67.242798 200.435568 
L 67.313816 195.869435 
L 67.445707 165.83097 
L 67.668907 132.399272 
L 67.86167 130.22757 
L 69.748725 118.385001 
L 71.87927 106.317407 
L 73.97938 95.671867 
L 76.059198 86.25222 
L 78.12887 77.89253 
L 80.178252 70.521977 
L 82.217489 64.00044 
L 84.256725 58.211451 
L 86.295961 53.082397 
L 88.335198 48.546022 
L 90.38458 44.521725 
L 92.444107 40.959552 
L 94.523925 37.798701 
L 96.644325 34.976513 
L 98.805307 32.467578 
L 101.017016 30.2372 
L 103.299743 28.248231 
L 105.67378 26.472808 
L 108.169561 24.884176 
L 110.80738 23.469557 
L 113.627816 22.210864 
L 116.681598 21.094368 
L 120.019452 20.113778 
L 123.732689 19.258506 
L 127.932907 18.523937 
L 132.79258 17.905501 
L 138.585634 17.399813 
L 145.778761 17.004708 
L 155.295198 16.717805 
L 169.366943 16.53595 
L 196.049489 16.452294 
L 325.048943 16.44 
L 370.804943 16.44 
L 370.804943 16.44 
" clip-path="url(#p0a690f25ce)" style="fill: none; stroke: #f1eef6; stroke-width: 5; stroke-linecap: square"/>
   </g>
   <g id="line2d_15">
    <path d="M 66.441307 201.24 
L 67.273234 201.146441 
L 67.39498 200.575193 
L 67.63847 199.696891 
L 68.328361 199.189544 
L 70.032798 197.77179 
L 71.808252 196.001079 
L 73.675016 193.81893 
L 75.65338 191.156109 
L 77.763634 187.933662 
L 80.036216 184.046787 
L 82.511707 179.359294 
L 85.240834 173.700987 
L 88.325052 166.776217 
L 91.936834 158.096675 
L 96.553016 146.386509 
L 113.445198 102.984928 
L 117.665707 93.065081 
L 121.490543 84.631902 
L 125.061743 77.285989 
L 128.470616 70.774537 
L 131.757743 64.968178 
L 134.953561 59.767427 
L 138.088507 55.084126 
L 141.18287 50.855817 
L 144.256943 47.02774 
L 147.32087 43.563761 
L 150.394943 40.420985 
L 153.489307 37.572499 
L 156.634398 34.978226 
L 159.840361 32.621633 
L 163.127489 30.481473 
L 166.51607 28.540795 
L 170.036543 26.781386 
L 173.719343 25.190314 
L 177.605052 23.755167 
L 181.744398 22.465577 
L 186.188107 21.316414 
L 191.017343 20.299868 
L 196.343707 19.409527 
L 202.309234 18.642336 
L 209.12698 17.995184 
L 217.141889 17.46474 
L 226.922107 17.049136 
L 239.583634 16.745484 
L 257.754143 16.55012 
L 290.37178 16.456333 
L 370.804943 16.440106 
L 370.804943 16.440106 
" clip-path="url(#p0a690f25ce)" style="fill: none; stroke: #222222; stroke-width: 7; stroke-linecap: square"/>
    <path d="M 66.441307 201.24 
L 67.273234 201.146441 
L 67.39498 200.575193 
L 67.63847 199.696891 
L 68.328361 199.189544 
L 70.032798 197.77179 
L 71.808252 196.001079 
L 73.675016 193.81893 
L 75.65338 191.156109 
L 77.763634 187.933662 
L 80.036216 184.046787 
L 82.511707 179.359294 
L 85.240834 173.700987 
L 88.325052 166.776217 
L 91.936834 158.096675 
L 96.553016 146.386509 
L 113.445198 102.984928 
L 117.665707 93.065081 
L 121.490543 84.631902 
L 125.061743 77.285989 
L 128.470616 70.774537 
L 131.757743 64.968178 
L 134.953561 59.767427 
L 138.088507 55.084126 
L 141.18287 50.855817 
L 144.256943 47.02774 
L 147.32087 43.563761 
L 150.394943 40.420985 
L 153.489307 37.572499 
L 156.634398 34.978226 
L 159.840361 32.621633 
L 163.127489 30.481473 
L 166.51607 28.540795 
L 170.036543 26.781386 
L 173.719343 25.190314 
L 177.605052 23.755167 
L 181.744398 22.465577 
L 186.188107 21.316414 
L 191.017343 20.299868 
L 196.343707 19.409527 
L 202.309234 18.642336 
L 209.12698 17.995184 
L 217.141889 17.46474 
L 226.922107 17.049136 
L 239.583634 16.745484 
L 257.754143 16.55012 
L 290.37178 16.456333 
L 370.804943 16.440106 
L 370.804943 16.440106 
" clip-path="url(#p0a690f25ce)" style="fill: none; stroke: #d7b5d8; stroke-width: 5; stroke-linecap: square"/>
   </g>
   <g id="line2d_16">
    <path d="M 66.441307 201.24 
L 71.54447 201.128898 
L 76.424434 200.836498 
L 80.411598 200.379975 
L 83.93207 199.756209 
L 87.158325 198.960418 
L 90.18167 197.987292 
L 93.08327 196.820027 
L 95.903707 195.444682 
L 98.673416 193.84527 
L 101.422834 191.999217 
L 104.182398 189.876074 
L 106.972398 187.445904 
L 109.813125 184.673617 
L 112.735016 181.507472 
L 115.758361 177.899262 
L 118.923743 173.769503 
L 122.261598 169.042818 
L 125.832798 163.592732 
L 129.728652 157.231184 
L 134.091198 149.66864 
L 139.255234 140.251691 
L 146.40778 126.701108 
L 159.333089 102.180162 
L 164.963816 92.025252 
L 169.803198 83.745413 
L 174.21647 76.626737 
L 178.355816 70.364629 
L 182.312543 64.776452 
L 186.13738 59.754981 
L 189.860761 55.228976 
L 193.52327 51.122967 
L 197.145198 47.392957 
L 200.75698 43.99035 
L 204.368761 40.89124 
L 208.000834 38.065543 
L 211.683634 35.480907 
L 215.437452 33.117977 
L 219.272434 30.966159 
L 223.229161 29.001033 
L 227.33807 27.209635 
L 231.629598 25.582745 
L 236.144325 24.110841 
L 240.93298 22.785506 
L 246.06658 21.59811 
L 251.616143 20.545511 
L 257.703416 19.620656 
L 264.48058 18.820172 
L 272.170834 18.141004 
L 281.119125 17.580477 
L 291.893598 17.13639 
L 305.579816 16.805662 
L 324.572107 16.585128 
L 356.175198 16.469084 
L 370.804943 16.453456 
L 370.804943 16.453456 
" clip-path="url(#p0a690f25ce)" style="fill: none; stroke: #222222; stroke-width: 7; stroke-linecap: square"/>
    <path d="M 66.441307 201.24 
L 71.54447 201.128898 
L 76.424434 200.836498 
L 80.411598 200.379975 
L 83.93207 199.756209 
L 87.158325 198.960418 
L 90.18167 197.987292 
L 93.08327 196.820027 
L 95.903707 195.444682 
L 98.673416 193.84527 
L 101.422834 191.999217 
L 104.182398 189.876074 
L 106.972398 187.445904 
L 109.813125 184.673617 
L 112.735016 181.507472 
L 115.758361 177.899262 
L 118.923743 173.769503 
L 122.261598 169.042818 
L 125.832798 163.592732 
L 129.728652 157.231184 
L 134.091198 149.66864 
L 139.255234 140.251691 
L 146.40778 126.701108 
L 159.333089 102.180162 
L 164.963816 92.025252 
L 169.803198 83.745413 
L 174.21647 76.626737 
L 178.355816 70.364629 
L 182.312543 64.776452 
L 186.13738 59.754981 
L 189.860761 55.228976 
L 193.52327 51.122967 
L 197.145198 47.392957 
L 200.75698 43.99035 
L 204.368761 40.89124 
L 208.000834 38.065543 
L 211.683634 35.480907 
L 215.437452 33.117977 
L 219.272434 30.966159 
L 223.229161 29.001033 
L 227.33807 27.209635 
L 231.629598 25.582745 
L 236.144325 24.110841 
L 240.93298 22.785506 
L 246.06658 21.59811 
L 251.616143 20.545511 
L 257.703416 19.620656 
L 264.48058 18.820172 
L 272.170834 18.141004 
L 281.119125 17.580477 
L 291.893598 17.13639 
L 305.579816 16.805662 
L 324.572107 16.585128 
L 356.175198 16.469084 
L 370.804943 16.453456 
L 370.804943 16.453456 
" clip-path="url(#p0a690f25ce)" style="fill: none; stroke: #df65b0; stroke-width: 5; stroke-linecap: square"/>
   </g>
   <g id="line2d_17">
    <path d="M 66.441307 201.24 
L 106.089743 201.12894 
L 117.18887 200.868879 
L 125.22407 200.465854 
L 131.78818 199.919895 
L 137.469634 199.228781 
L 142.562652 198.38836 
L 147.219416 197.397412 
L 151.56167 196.24836 
L 155.67058 194.932208 
L 159.59687 193.441464 
L 163.381125 191.767009 
L 167.063925 189.894076 
L 170.675707 187.807069 
L 174.236761 185.492082 
L 177.78767 182.91677 
L 181.33858 180.064765 
L 184.919925 176.900539 
L 188.551998 173.391936 
L 192.265234 169.492525 
L 196.09007 165.150035 
L 200.077234 160.282122 
L 204.277452 154.797608 
L 208.782034 148.543081 
L 213.743161 141.264897 
L 219.485489 132.431174 
L 227.074289 120.315915 
L 243.256289 94.380193 
L 249.242107 85.281665 
L 254.416289 77.812178 
L 259.14407 71.370535 
L 263.58778 65.686479 
L 267.82858 60.61797 
L 271.937489 56.049629 
L 275.955089 51.912399 
L 279.911816 48.154583 
L 283.838107 44.730388 
L 287.754252 41.608093 
L 291.690689 38.752478 
L 295.667707 36.140917 
L 299.715743 33.748304 
L 303.855089 31.55998 
L 308.11618 29.559163 
L 312.529452 27.733195 
L 317.135489 26.069325 
L 321.97487 24.559201 
L 327.098325 23.195183 
L 332.57687 21.969109 
L 338.49167 20.876171 
L 344.954325 19.911631 
L 352.117016 19.071693 
L 360.192798 18.353595 
L 369.506325 17.754648 
L 370.804943 17.686789 
L 370.804943 17.686789 
" clip-path="url(#p0a690f25ce)" style="fill: none; stroke: #222222; stroke-width: 7; stroke-linecap: square"/>
    <path d="M 66.441307 201.24 
L 106.089743 201.12894 
L 117.18887 200.868879 
L 125.22407 200.465854 
L 131.78818 199.919895 
L 137.469634 199.228781 
L 142.562652 198.38836 
L 147.219416 197.397412 
L 151.56167 196.24836 
L 155.67058 194.932208 
L 159.59687 193.441464 
L 163.381125 191.767009 
L 167.063925 189.894076 
L 170.675707 187.807069 
L 174.236761 185.492082 
L 177.78767 182.91677 
L 181.33858 180.064765 
L 184.919925 176.900539 
L 188.551998 173.391936 
L 192.265234 169.492525 
L 196.09007 165.150035 
L 200.077234 160.282122 
L 204.277452 154.797608 
L 208.782034 148.543081 
L 213.743161 141.264897 
L 219.485489 132.431174 
L 227.074289 120.315915 
L 243.256289 94.380193 
L 249.242107 85.281665 
L 254.416289 77.812178 
L 259.14407 71.370535 
L 263.58778 65.686479 
L 267.82858 60.61797 
L 271.937489 56.049629 
L 275.955089 51.912399 
L 279.911816 48.154583 
L 283.838107 44.730388 
L 287.754252 41.608093 
L 291.690689 38.752478 
L 295.667707 36.140917 
L 299.715743 33.748304 
L 303.855089 31.55998 
L 308.11618 29.559163 
L 312.529452 27.733195 
L 317.135489 26.069325 
L 321.97487 24.559201 
L 327.098325 23.195183 
L 332.57687 21.969109 
L 338.49167 20.876171 
L 344.954325 19.911631 
L 352.117016 19.071693 
L 360.192798 18.353595 
L 369.506325 17.754648 
L 370.804943 17.686789 
L 370.804943 17.686789 
" clip-path="url(#p0a690f25ce)" style="fill: none; stroke: #dd1c77; stroke-width: 5; stroke-linecap: square"/>
   </g>
   <g id="patch_3">
    <path d="M 51.223125 201.24 
L 51.223125 7.2 
" style="fill: none; stroke: #000000; stroke-width: 0.8; stroke-linejoin: miter; stroke-linecap: square"/>
   </g>
   <g id="patch_4">
    <path d="M 386.023125 201.24 
L 386.023125 7.2 
" style="fill: none; stroke: #000000; stroke-width: 0.8; stroke-linejoin: miter; stroke-linecap: square"/>
   </g>
   <g id="patch_5">
    <path d="M 51.223125 201.24 
L 386.023125 201.24 
" style="fill: none; stroke: #000000; stroke-width: 0.8; stroke-linejoin: miter; stroke-linecap: square"/>
   </g>
   <g id="patch_6">
    <path d="M 51.223125 7.2 
L 386.023125 7.2 
" style="fill: none; stroke: #000000; stroke-width: 0.8; stroke-linejoin: miter; stroke-linecap: square"/>
   </g>
   <g id="text_16">
    <g id="patch_7">
     <path d="M 309.607125 105.003563 
L 383.287125 105.003563 
L 383.287125 72.032438 
L 309.607125 72.032438 
z
" style="fill: #ffffff; stroke: #000000; stroke-linejoin: miter"/>
    </g>
    <!-- $\kappa=0.001$ -->
    <g transform="translate(323.167125 85.110562) scale(0.12 -0.12)">
     <defs>
      <path id="DejaVuSans-Oblique-3ba" d="M 938 3500 
L 1531 3500 
L 1247 2047 
L 3041 3500 
L 3741 3500 
L 2106 2181 
L 3275 0 
L 2572 0 
L 1628 1806 
L 1122 1403 
L 850 0 
L 256 0 
L 938 3500 
z
" transform="scale(0.015625)"/>
      <path id="DejaVuSans-3d" d="M 678 2906 
L 4684 2906 
L 4684 2381 
L 678 2381 
L 678 2906 
z
M 678 1631 
L 4684 1631 
L 4684 1100 
L 678 1100 
L 678 1631 
z
" transform="scale(0.015625)"/>
     </defs>
     <use xlink:href="#DejaVuSans-Oblique-3ba" transform="translate(0 0.78125)"/>
     <use xlink:href="#DejaVuSans-3d" transform="translate(78.417969 0.78125)"/>
     <use xlink:href="#DejaVuSans-30" transform="translate(181.689453 0.78125)"/>
     <use xlink:href="#DejaVuSans-2e" transform="translate(245.3125 0.78125)"/>
     <use xlink:href="#DejaVuSans-30" transform="translate(277.099609 0.78125)"/>
     <use xlink:href="#DejaVuSans-30" transform="translate(340.722656 0.78125)"/>
     <use xlink:href="#DejaVuSans-31" transform="translate(404.345703 0.78125)"/>
    </g>
    <!-- $\mathsf{Da}_{des}=0.1$ -->
    <g transform="translate(313.567125 98.547937) scale(0.12 -0.12)">
     <defs>
      <path id="DejaVuSans-44" d="M 1259 4147 
L 1259 519 
L 2022 519 
Q 2988 519 3436 956 
Q 3884 1394 3884 2338 
Q 3884 3275 3436 3711 
Q 2988 4147 2022 4147 
L 1259 4147 
z
M 628 4666 
L 1925 4666 
Q 3281 4666 3915 4102 
Q 4550 3538 4550 2338 
Q 4550 1131 3912 565 
Q 3275 0 1925 0 
L 628 0 
L 628 4666 
z
" transform="scale(0.015625)"/>
      <path id="DejaVuSans-61" d="M 2194 1759 
Q 1497 1759 1228 1600 
Q 959 1441 959 1056 
Q 959 750 1161 570 
Q 1363 391 1709 391 
Q 2188 391 2477 730 
Q 2766 1069 2766 1631 
L 2766 1759 
L 2194 1759 
z
M 3341 1997 
L 3341 0 
L 2766 0 
L 2766 531 
Q 2569 213 2275 61 
Q 1981 -91 1556 -91 
Q 1019 -91 701 211 
Q 384 513 384 1019 
Q 384 1609 779 1909 
Q 1175 2209 1959 2209 
L 2766 2209 
L 2766 2266 
Q 2766 2663 2505 2880 
Q 2244 3097 1772 3097 
Q 1472 3097 1187 3025 
Q 903 2953 641 2809 
L 641 3341 
Q 956 3463 1253 3523 
Q 1550 3584 1831 3584 
Q 2591 3584 2966 3190 
Q 3341 2797 3341 1997 
z
" transform="scale(0.015625)"/>
      <path id="DejaVuSans-Oblique-64" d="M 2675 525 
Q 2444 222 2128 65 
Q 1813 -91 1428 -91 
Q 903 -91 598 267 
Q 294 625 294 1247 
Q 294 1766 478 2236 
Q 663 2706 1013 3078 
Q 1244 3325 1534 3454 
Q 1825 3584 2144 3584 
Q 2481 3584 2739 3421 
Q 2997 3259 3138 2956 
L 3513 4863 
L 4091 4863 
L 3144 0 
L 2566 0 
L 2675 525 
z
M 891 1350 
Q 891 897 1095 644 
Q 1300 391 1663 391 
Q 1931 391 2161 520 
Q 2391 650 2566 903 
Q 2750 1166 2856 1509 
Q 2963 1853 2963 2188 
Q 2963 2622 2758 2865 
Q 2553 3109 2194 3109 
Q 1922 3109 1687 2981 
Q 1453 2853 1288 2613 
Q 1106 2353 998 2009 
Q 891 1666 891 1350 
z
" transform="scale(0.015625)"/>
      <path id="DejaVuSans-Oblique-65" d="M 3078 2063 
Q 3088 2113 3092 2166 
Q 3097 2219 3097 2272 
Q 3097 2653 2873 2875 
Q 2650 3097 2266 3097 
Q 1838 3097 1509 2826 
Q 1181 2556 1013 2059 
L 3078 2063 
z
M 3578 1613 
L 903 1613 
Q 884 1494 878 1425 
Q 872 1356 872 1306 
Q 872 872 1139 634 
Q 1406 397 1894 397 
Q 2269 397 2603 481 
Q 2938 566 3225 728 
L 3116 159 
Q 2806 34 2476 -28 
Q 2147 -91 1806 -91 
Q 1078 -91 686 257 
Q 294 606 294 1247 
Q 294 1794 489 2264 
Q 684 2734 1063 3103 
Q 1306 3334 1642 3459 
Q 1978 3584 2356 3584 
Q 2950 3584 3301 3228 
Q 3653 2872 3653 2272 
Q 3653 2128 3634 1964 
Q 3616 1800 3578 1613 
z
" transform="scale(0.015625)"/>
      <path id="DejaVuSans-Oblique-73" d="M 3200 3397 
L 3091 2853 
Q 2863 2978 2609 3040 
Q 2356 3103 2088 3103 
Q 1634 3103 1373 2948 
Q 1113 2794 1113 2528 
Q 1113 2219 1719 2053 
Q 1766 2041 1788 2034 
L 1972 1978 
Q 2547 1819 2739 1644 
Q 2931 1469 2931 1166 
Q 2931 609 2489 259 
Q 2047 -91 1331 -91 
Q 1053 -91 747 -37 
Q 441 16 72 128 
L 184 722 
Q 500 559 806 475 
Q 1113 391 1394 391 
Q 1816 391 2080 572 
Q 2344 753 2344 1031 
Q 2344 1331 1650 1516 
L 1591 1531 
L 1394 1581 
Q 956 1697 753 1886 
Q 550 2075 550 2369 
Q 550 2928 970 3256 
Q 1391 3584 2113 3584 
Q 2397 3584 2667 3537 
Q 2938 3491 3200 3397 
z
" transform="scale(0.015625)"/>
     </defs>
     <use xlink:href="#DejaVuSans-44" transform="translate(0 0.78125)"/>
     <use xlink:href="#DejaVuSans-61" transform="translate(77.001953 0.78125)"/>
     <use xlink:href="#DejaVuSans-Oblique-64" transform="translate(139.238281 -15.625) scale(0.7)"/>
     <use xlink:href="#DejaVuSans-Oblique-65" transform="translate(183.671875 -15.625) scale(0.7)"/>
     <use xlink:href="#DejaVuSans-Oblique-73" transform="translate(226.738281 -15.625) scale(0.7)"/>
     <use xlink:href="#DejaVuSans-3d" transform="translate(285.424805 0.78125)"/>
     <use xlink:href="#DejaVuSans-30" transform="translate(388.696289 0.78125)"/>
     <use xlink:href="#DejaVuSans-2e" transform="translate(452.319336 0.78125)"/>
     <use xlink:href="#DejaVuSans-31" transform="translate(484.106445 0.78125)"/>
    </g>
   </g>
   <g id="legend_1">
    <g id="patch_8">
     <path d="M 285.823125 196.24 
L 379.023125 196.24 
Q 381.023125 196.24 381.023125 194.24 
L 381.023125 136.5275 
Q 381.023125 134.5275 379.023125 134.5275 
L 285.823125 134.5275 
Q 283.823125 134.5275 283.823125 136.5275 
L 283.823125 194.24 
Q 283.823125 196.24 285.823125 196.24 
z
" style="fill: #ffffff; opacity: 0.8; stroke: #cccccc; stroke-linejoin: miter"/>
    </g>
    <g id="line2d_18">
     <path d="M 287.823125 142.625937 
L 297.823125 142.625937 
L 307.823125 142.625937 
" style="fill: none; stroke: #222222; stroke-width: 7; stroke-linecap: square"/>
     <path d="M 287.823125 142.625937 
L 297.823125 142.625937 
L 307.823125 142.625937 
" style="fill: none; stroke: #f1eef6; stroke-width: 5; stroke-linecap: square"/>
    </g>
    <g id="text_17">
     <!-- $\mathsf{Da}_{ads}=1.0$ -->
     <g transform="translate(315.823125 146.125937) scale(0.1 -0.1)">
      <defs>
       <path id="DejaVuSans-Oblique-61" d="M 3438 1997 
L 3047 0 
L 2472 0 
L 2578 531 
Q 2325 219 2001 64 
Q 1678 -91 1281 -91 
Q 834 -91 548 182 
Q 263 456 263 884 
Q 263 1497 752 1853 
Q 1241 2209 2100 2209 
L 2900 2209 
L 2931 2363 
Q 2938 2388 2941 2417 
Q 2944 2447 2944 2509 
Q 2944 2788 2717 2942 
Q 2491 3097 2081 3097 
Q 1800 3097 1504 3025 
Q 1209 2953 897 2809 
L 997 3341 
Q 1322 3463 1633 3523 
Q 1944 3584 2234 3584 
Q 2853 3584 3176 3315 
Q 3500 3047 3500 2534 
Q 3500 2431 3484 2292 
Q 3469 2153 3438 1997 
z
M 2816 1759 
L 2241 1759 
Q 1534 1759 1195 1570 
Q 856 1381 856 984 
Q 856 709 1029 553 
Q 1203 397 1509 397 
Q 1978 397 2328 733 
Q 2678 1069 2791 1631 
L 2816 1759 
z
" transform="scale(0.015625)"/>
      </defs>
      <use xlink:href="#DejaVuSans-44" transform="translate(0 0.78125)"/>
      <use xlink:href="#DejaVuSans-61" transform="translate(77.001953 0.78125)"/>
      <use xlink:href="#DejaVuSans-Oblique-61" transform="translate(139.238281 -15.625) scale(0.7)"/>
      <use xlink:href="#DejaVuSans-Oblique-64" transform="translate(182.133789 -15.625) scale(0.7)"/>
      <use xlink:href="#DejaVuSans-Oblique-73" transform="translate(226.567383 -15.625) scale(0.7)"/>
      <use xlink:href="#DejaVuSans-3d" transform="translate(285.253906 0.78125)"/>
      <use xlink:href="#DejaVuSans-31" transform="translate(388.525391 0.78125)"/>
      <use xlink:href="#DejaVuSans-2e" transform="translate(452.148438 0.78125)"/>
      <use xlink:href="#DejaVuSans-30" transform="translate(483.935547 0.78125)"/>
     </g>
    </g>
    <g id="line2d_19">
     <path d="M 287.823125 157.304062 
L 297.823125 157.304062 
L 307.823125 157.304062 
" style="fill: none; stroke: #222222; stroke-width: 7; stroke-linecap: square"/>
     <path d="M 287.823125 157.304062 
L 297.823125 157.304062 
L 307.823125 157.304062 
" style="fill: none; stroke: #d7b5d8; stroke-width: 5; stroke-linecap: square"/>
    </g>
    <g id="text_18">
     <!-- $\mathsf{Da}_{ads}=5.0$ -->
     <g transform="translate(315.823125 160.804062) scale(0.1 -0.1)">
      <use xlink:href="#DejaVuSans-44" transform="translate(0 0.78125)"/>
      <use xlink:href="#DejaVuSans-61" transform="translate(77.001953 0.78125)"/>
      <use xlink:href="#DejaVuSans-Oblique-61" transform="translate(139.238281 -15.625) scale(0.7)"/>
      <use xlink:href="#DejaVuSans-Oblique-64" transform="translate(182.133789 -15.625) scale(0.7)"/>
      <use xlink:href="#DejaVuSans-Oblique-73" transform="translate(226.567383 -15.625) scale(0.7)"/>
      <use xlink:href="#DejaVuSans-3d" transform="translate(285.253906 0.78125)"/>
      <use xlink:href="#DejaVuSans-35" transform="translate(388.525391 0.78125)"/>
      <use xlink:href="#DejaVuSans-2e" transform="translate(452.148438 0.78125)"/>
      <use xlink:href="#DejaVuSans-30" transform="translate(483.935547 0.78125)"/>
     </g>
    </g>
    <g id="line2d_20">
     <path d="M 287.823125 171.982188 
L 297.823125 171.982188 
L 307.823125 171.982188 
" style="fill: none; stroke: #222222; stroke-width: 7; stroke-linecap: square"/>
     <path d="M 287.823125 171.982188 
L 297.823125 171.982188 
L 307.823125 171.982188 
" style="fill: none; stroke: #df65b0; stroke-width: 5; stroke-linecap: square"/>
    </g>
    <g id="text_19">
     <!-- $\mathsf{Da}_{ads}=10.0$ -->
     <g transform="translate(315.823125 175.482188) scale(0.1 -0.1)">
      <use xlink:href="#DejaVuSans-44" transform="translate(0 0.78125)"/>
      <use xlink:href="#DejaVuSans-61" transform="translate(77.001953 0.78125)"/>
      <use xlink:href="#DejaVuSans-Oblique-61" transform="translate(139.238281 -15.625) scale(0.7)"/>
      <use xlink:href="#DejaVuSans-Oblique-64" transform="translate(182.133789 -15.625) scale(0.7)"/>
      <use xlink:href="#DejaVuSans-Oblique-73" transform="translate(226.567383 -15.625) scale(0.7)"/>
      <use xlink:href="#DejaVuSans-3d" transform="translate(285.253906 0.78125)"/>
      <use xlink:href="#DejaVuSans-31" transform="translate(388.525391 0.78125)"/>
      <use xlink:href="#DejaVuSans-30" transform="translate(452.148438 0.78125)"/>
      <use xlink:href="#DejaVuSans-2e" transform="translate(515.771484 0.78125)"/>
      <use xlink:href="#DejaVuSans-30" transform="translate(547.558594 0.78125)"/>
     </g>
    </g>
    <g id="line2d_21">
     <path d="M 287.823125 186.660313 
L 297.823125 186.660313 
L 307.823125 186.660313 
" style="fill: none; stroke: #222222; stroke-width: 7; stroke-linecap: square"/>
     <path d="M 287.823125 186.660313 
L 297.823125 186.660313 
L 307.823125 186.660313 
" style="fill: none; stroke: #dd1c77; stroke-width: 5; stroke-linecap: square"/>
    </g>
    <g id="text_20">
     <!-- $\mathsf{Da}_{ads}=20.0$ -->
     <g transform="translate(315.823125 190.160313) scale(0.1 -0.1)">
      <use xlink:href="#DejaVuSans-44" transform="translate(0 0.78125)"/>
      <use xlink:href="#DejaVuSans-61" transform="translate(77.001953 0.78125)"/>
      <use xlink:href="#DejaVuSans-Oblique-61" transform="translate(139.238281 -15.625) scale(0.7)"/>
      <use xlink:href="#DejaVuSans-Oblique-64" transform="translate(182.133789 -15.625) scale(0.7)"/>
      <use xlink:href="#DejaVuSans-Oblique-73" transform="translate(226.567383 -15.625) scale(0.7)"/>
      <use xlink:href="#DejaVuSans-3d" transform="translate(285.253906 0.78125)"/>
      <use xlink:href="#DejaVuSans-32" transform="translate(388.525391 0.78125)"/>
      <use xlink:href="#DejaVuSans-30" transform="translate(452.148438 0.78125)"/>
      <use xlink:href="#DejaVuSans-2e" transform="translate(515.771484 0.78125)"/>
      <use xlink:href="#DejaVuSans-30" transform="translate(547.558594 0.78125)"/>
     </g>
    </g>
   </g>
  </g>
 </g>
 <defs>
  <clipPath id="p0a690f25ce">
   <rect x="51.223125" y="7.2" width="334.8" height="194.04"/>
  </clipPath>
 </defs>
</svg>
