<?xml version="1.0" encoding="utf-8" standalone="no"?>
<!DOCTYPE svg PUBLIC "-//W3C//DTD SVG 1.1//EN"
  "http://www.w3.org/Graphics/SVG/1.1/DTD/svg11.dtd">
<svg xmlns:xlink="http://www.w3.org/1999/xlink" width="393.223125pt" height="248.478125pt" viewBox="0 0 393.223125 248.478125" xmlns="http://www.w3.org/2000/svg" version="1.1">
 <metadata>
  <rdf:RDF xmlns:dc="http://purl.org/dc/elements/1.1/" xmlns:cc="http://creativecommons.org/ns#" xmlns:rdf="http://www.w3.org/1999/02/22-rdf-syntax-ns#">
   <cc:Work>
    <dc:type rdf:resource="http://purl.org/dc/dcmitype/StillImage"/>
    <dc:date>2025-05-23T14:08:48.274036</dc:date>
    <dc:format>image/svg+xml</dc:format>
    <dc:creator>
     <cc:Agent>
      <dc:title>Matplotlib v3.10.1, https://matplotlib.org/</dc:title>
     </cc:Agent>
    </dc:creator>
   </cc:Work>
  </rdf:RDF>
 </metadata>
 <defs>
  <style type="text/css">*{stroke-linejoin: round; stroke-linecap: butt}</style>
 </defs>
 <g id="figure_1">
  <g id="patch_1">
   <path d="M 0 248.478125 
L 393.223125 248.478125 
L 393.223125 0 
L 0 0 
L 0 248.478125 
z
" style="fill: none"/>
  </g>
  <g id="axes_1">
   <g id="patch_2">
    <path d="M 51.223125 201.24 
L 386.023125 201.24 
L 386.023125 7.2 
L 51.223125 7.2 
z
" style="fill: #ffffff; fill-opacity: 0.501961"/>
   </g>
   <g id="matplotlib.axis_1">
    <g id="xtick_1">
     <g id="line2d_1">
      <defs>
       <path id="m57ccf51ff4" d="M 0 0 
L 0 3.5 
" style="stroke: #000000; stroke-width: 0.8"/>
      </defs>
      <g>
       <use xlink:href="#m57ccf51ff4" x="51.223125" y="201.24" style="stroke: #000000; stroke-width: 0.8"/>
      </g>
     </g>
     <g id="text_1">
      <!-- 0 -->
      <g transform="translate(48.041875 215.838437) scale(0.1 -0.1)">
       <defs>
        <path id="DejaVuSans-30" d="M 2034 4250 
Q 1547 4250 1301 3770 
Q 1056 3291 1056 2328 
Q 1056 1369 1301 889 
Q 1547 409 2034 409 
Q 2525 409 2770 889 
Q 3016 1369 3016 2328 
Q 3016 3291 2770 3770 
Q 2525 4250 2034 4250 
z
M 2034 4750 
Q 2819 4750 3233 4129 
Q 3647 3509 3647 2328 
Q 3647 1150 3233 529 
Q 2819 -91 2034 -91 
Q 1250 -91 836 529 
Q 422 1150 422 2328 
Q 422 3509 836 4129 
Q 1250 4750 2034 4750 
z
" transform="scale(0.015625)"/>
       </defs>
       <use xlink:href="#DejaVuSans-30"/>
      </g>
     </g>
    </g>
    <g id="xtick_2">
     <g id="line2d_2">
      <g>
       <use xlink:href="#m57ccf51ff4" x="115.60774" y="201.24" style="stroke: #000000; stroke-width: 0.8"/>
      </g>
     </g>
     <g id="text_2">
      <!-- 50 -->
      <g transform="translate(109.24524 215.838437) scale(0.1 -0.1)">
       <defs>
        <path id="DejaVuSans-35" d="M 691 4666 
L 3169 4666 
L 3169 4134 
L 1269 4134 
L 1269 2991 
Q 1406 3038 1543 3061 
Q 1681 3084 1819 3084 
Q 2600 3084 3056 2656 
Q 3513 2228 3513 1497 
Q 3513 744 3044 326 
Q 2575 -91 1722 -91 
Q 1428 -91 1123 -41 
Q 819 9 494 109 
L 494 744 
Q 775 591 1075 516 
Q 1375 441 1709 441 
Q 2250 441 2565 725 
Q 2881 1009 2881 1497 
Q 2881 1984 2565 2268 
Q 2250 2553 1709 2553 
Q 1456 2553 1204 2497 
Q 953 2441 691 2322 
L 691 4666 
z
" transform="scale(0.015625)"/>
       </defs>
       <use xlink:href="#DejaVuSans-35"/>
       <use xlink:href="#DejaVuSans-30" transform="translate(63.623047 0)"/>
      </g>
     </g>
    </g>
    <g id="xtick_3">
     <g id="line2d_3">
      <g>
       <use xlink:href="#m57ccf51ff4" x="179.992356" y="201.24" style="stroke: #000000; stroke-width: 0.8"/>
      </g>
     </g>
     <g id="text_3">
      <!-- 100 -->
      <g transform="translate(170.448606 215.838437) scale(0.1 -0.1)">
       <defs>
        <path id="DejaVuSans-31" d="M 794 531 
L 1825 531 
L 1825 4091 
L 703 3866 
L 703 4441 
L 1819 4666 
L 2450 4666 
L 2450 531 
L 3481 531 
L 3481 0 
L 794 0 
L 794 531 
z
" transform="scale(0.015625)"/>
       </defs>
       <use xlink:href="#DejaVuSans-31"/>
       <use xlink:href="#DejaVuSans-30" transform="translate(63.623047 0)"/>
       <use xlink:href="#DejaVuSans-30" transform="translate(127.246094 0)"/>
      </g>
     </g>
    </g>
    <g id="xtick_4">
     <g id="line2d_4">
      <g>
       <use xlink:href="#m57ccf51ff4" x="244.376971" y="201.24" style="stroke: #000000; stroke-width: 0.8"/>
      </g>
     </g>
     <g id="text_4">
      <!-- 150 -->
      <g transform="translate(234.833221 215.838437) scale(0.1 -0.1)">
       <use xlink:href="#DejaVuSans-31"/>
       <use xlink:href="#DejaVuSans-35" transform="translate(63.623047 0)"/>
       <use xlink:href="#DejaVuSans-30" transform="translate(127.246094 0)"/>
      </g>
     </g>
    </g>
    <g id="xtick_5">
     <g id="line2d_5">
      <g>
       <use xlink:href="#m57ccf51ff4" x="308.761587" y="201.24" style="stroke: #000000; stroke-width: 0.8"/>
      </g>
     </g>
     <g id="text_5">
      <!-- 200 -->
      <g transform="translate(299.217837 215.838437) scale(0.1 -0.1)">
       <defs>
        <path id="DejaVuSans-32" d="M 1228 531 
L 3431 531 
L 3431 0 
L 469 0 
L 469 531 
Q 828 903 1448 1529 
Q 2069 2156 2228 2338 
Q 2531 2678 2651 2914 
Q 2772 3150 2772 3378 
Q 2772 3750 2511 3984 
Q 2250 4219 1831 4219 
Q 1534 4219 1204 4116 
Q 875 4013 500 3803 
L 500 4441 
Q 881 4594 1212 4672 
Q 1544 4750 1819 4750 
Q 2544 4750 2975 4387 
Q 3406 4025 3406 3419 
Q 3406 3131 3298 2873 
Q 3191 2616 2906 2266 
Q 2828 2175 2409 1742 
Q 1991 1309 1228 531 
z
" transform="scale(0.015625)"/>
       </defs>
       <use xlink:href="#DejaVuSans-32"/>
       <use xlink:href="#DejaVuSans-30" transform="translate(63.623047 0)"/>
       <use xlink:href="#DejaVuSans-30" transform="translate(127.246094 0)"/>
      </g>
     </g>
    </g>
    <g id="xtick_6">
     <g id="line2d_6">
      <g>
       <use xlink:href="#m57ccf51ff4" x="373.146202" y="201.24" style="stroke: #000000; stroke-width: 0.8"/>
      </g>
     </g>
     <g id="text_6">
      <!-- 250 -->
      <g transform="translate(363.602452 215.838437) scale(0.1 -0.1)">
       <use xlink:href="#DejaVuSans-32"/>
       <use xlink:href="#DejaVuSans-35" transform="translate(63.623047 0)"/>
       <use xlink:href="#DejaVuSans-30" transform="translate(127.246094 0)"/>
      </g>
     </g>
    </g>
    <g id="text_7">
     <!-- $\hat{t}$ [-] -->
     <g transform="translate(203.743125 237.950625) scale(0.16 -0.16)">
      <defs>
       <path id="DejaVuSans-302" d="M -1831 5119 
L -1369 5119 
L -603 3944 
L -1038 3944 
L -1600 4709 
L -2163 3944 
L -2597 3944 
L -1831 5119 
z
M -1600 3584 
L -1600 3584 
z
" transform="scale(0.015625)"/>
       <path id="DejaVuSans-Oblique-74" d="M 2706 3500 
L 2619 3053 
L 1472 3053 
L 1100 1153 
Q 1081 1047 1072 975 
Q 1063 903 1063 863 
Q 1063 663 1183 572 
Q 1303 481 1569 481 
L 2150 481 
L 2053 0 
L 1503 0 
Q 991 0 739 200 
Q 488 400 488 806 
Q 488 878 497 964 
Q 506 1050 525 1153 
L 897 3053 
L 409 3053 
L 500 3500 
L 978 3500 
L 1172 4494 
L 1747 4494 
L 1556 3500 
L 2706 3500 
z
" transform="scale(0.015625)"/>
       <path id="DejaVuSans-20" transform="scale(0.015625)"/>
       <path id="DejaVuSans-5b" d="M 550 4863 
L 1875 4863 
L 1875 4416 
L 1125 4416 
L 1125 -397 
L 1875 -397 
L 1875 -844 
L 550 -844 
L 550 4863 
z
" transform="scale(0.015625)"/>
       <path id="DejaVuSans-2d" d="M 313 2009 
L 1997 2009 
L 1997 1497 
L 313 1497 
L 313 2009 
z
" transform="scale(0.015625)"/>
       <path id="DejaVuSans-5d" d="M 1947 4863 
L 1947 -844 
L 622 -844 
L 622 -397 
L 1369 -397 
L 1369 4416 
L 622 4416 
L 622 4863 
L 1947 4863 
z
" transform="scale(0.015625)"/>
      </defs>
      <use xlink:href="#DejaVuSans-302" transform="translate(49.380371 27.015625)"/>
      <use xlink:href="#DejaVuSans-Oblique-74" transform="translate(0 0.296875)"/>
      <use xlink:href="#DejaVuSans-20" transform="translate(39.208984 0.296875)"/>
      <use xlink:href="#DejaVuSans-5b" transform="translate(70.996094 0.296875)"/>
      <use xlink:href="#DejaVuSans-2d" transform="translate(110.009766 0.296875)"/>
      <use xlink:href="#DejaVuSans-5d" transform="translate(146.09375 0.296875)"/>
     </g>
    </g>
   </g>
   <g id="matplotlib.axis_2">
    <g id="ytick_1">
     <g id="line2d_7">
      <defs>
       <path id="mccda4c90bf" d="M 0 0 
L -3.5 0 
" style="stroke: #000000; stroke-width: 0.8"/>
      </defs>
      <g>
       <use xlink:href="#mccda4c90bf" x="51.223125" y="201.24" style="stroke: #000000; stroke-width: 0.8"/>
      </g>
     </g>
     <g id="text_8">
      <!-- 0.0 -->
      <g transform="translate(28.32 205.039219) scale(0.1 -0.1)">
       <defs>
        <path id="DejaVuSans-2e" d="M 684 794 
L 1344 794 
L 1344 0 
L 684 0 
L 684 794 
z
" transform="scale(0.015625)"/>
       </defs>
       <use xlink:href="#DejaVuSans-30"/>
       <use xlink:href="#DejaVuSans-2e" transform="translate(63.623047 0)"/>
       <use xlink:href="#DejaVuSans-30" transform="translate(95.410156 0)"/>
      </g>
     </g>
    </g>
    <g id="ytick_2">
     <g id="line2d_8">
      <g>
       <use xlink:href="#mccda4c90bf" x="51.223125" y="164.28" style="stroke: #000000; stroke-width: 0.8"/>
      </g>
     </g>
     <g id="text_9">
      <!-- 0.2 -->
      <g transform="translate(28.32 168.079219) scale(0.1 -0.1)">
       <use xlink:href="#DejaVuSans-30"/>
       <use xlink:href="#DejaVuSans-2e" transform="translate(63.623047 0)"/>
       <use xlink:href="#DejaVuSans-32" transform="translate(95.410156 0)"/>
      </g>
     </g>
    </g>
    <g id="ytick_3">
     <g id="line2d_9">
      <g>
       <use xlink:href="#mccda4c90bf" x="51.223125" y="127.32" style="stroke: #000000; stroke-width: 0.8"/>
      </g>
     </g>
     <g id="text_10">
      <!-- 0.4 -->
      <g transform="translate(28.32 131.119219) scale(0.1 -0.1)">
       <defs>
        <path id="DejaVuSans-34" d="M 2419 4116 
L 825 1625 
L 2419 1625 
L 2419 4116 
z
M 2253 4666 
L 3047 4666 
L 3047 1625 
L 3713 1625 
L 3713 1100 
L 3047 1100 
L 3047 0 
L 2419 0 
L 2419 1100 
L 313 1100 
L 313 1709 
L 2253 4666 
z
" transform="scale(0.015625)"/>
       </defs>
       <use xlink:href="#DejaVuSans-30"/>
       <use xlink:href="#DejaVuSans-2e" transform="translate(63.623047 0)"/>
       <use xlink:href="#DejaVuSans-34" transform="translate(95.410156 0)"/>
      </g>
     </g>
    </g>
    <g id="ytick_4">
     <g id="line2d_10">
      <g>
       <use xlink:href="#mccda4c90bf" x="51.223125" y="90.36" style="stroke: #000000; stroke-width: 0.8"/>
      </g>
     </g>
     <g id="text_11">
      <!-- 0.6 -->
      <g transform="translate(28.32 94.159219) scale(0.1 -0.1)">
       <defs>
        <path id="DejaVuSans-36" d="M 2113 2584 
Q 1688 2584 1439 2293 
Q 1191 2003 1191 1497 
Q 1191 994 1439 701 
Q 1688 409 2113 409 
Q 2538 409 2786 701 
Q 3034 994 3034 1497 
Q 3034 2003 2786 2293 
Q 2538 2584 2113 2584 
z
M 3366 4563 
L 3366 3988 
Q 3128 4100 2886 4159 
Q 2644 4219 2406 4219 
Q 1781 4219 1451 3797 
Q 1122 3375 1075 2522 
Q 1259 2794 1537 2939 
Q 1816 3084 2150 3084 
Q 2853 3084 3261 2657 
Q 3669 2231 3669 1497 
Q 3669 778 3244 343 
Q 2819 -91 2113 -91 
Q 1303 -91 875 529 
Q 447 1150 447 2328 
Q 447 3434 972 4092 
Q 1497 4750 2381 4750 
Q 2619 4750 2861 4703 
Q 3103 4656 3366 4563 
z
" transform="scale(0.015625)"/>
       </defs>
       <use xlink:href="#DejaVuSans-30"/>
       <use xlink:href="#DejaVuSans-2e" transform="translate(63.623047 0)"/>
       <use xlink:href="#DejaVuSans-36" transform="translate(95.410156 0)"/>
      </g>
     </g>
    </g>
    <g id="ytick_5">
     <g id="line2d_11">
      <g>
       <use xlink:href="#mccda4c90bf" x="51.223125" y="53.4" style="stroke: #000000; stroke-width: 0.8"/>
      </g>
     </g>
     <g id="text_12">
      <!-- 0.8 -->
      <g transform="translate(28.32 57.199219) scale(0.1 -0.1)">
       <defs>
        <path id="DejaVuSans-38" d="M 2034 2216 
Q 1584 2216 1326 1975 
Q 1069 1734 1069 1313 
Q 1069 891 1326 650 
Q 1584 409 2034 409 
Q 2484 409 2743 651 
Q 3003 894 3003 1313 
Q 3003 1734 2745 1975 
Q 2488 2216 2034 2216 
z
M 1403 2484 
Q 997 2584 770 2862 
Q 544 3141 544 3541 
Q 544 4100 942 4425 
Q 1341 4750 2034 4750 
Q 2731 4750 3128 4425 
Q 3525 4100 3525 3541 
Q 3525 3141 3298 2862 
Q 3072 2584 2669 2484 
Q 3125 2378 3379 2068 
Q 3634 1759 3634 1313 
Q 3634 634 3220 271 
Q 2806 -91 2034 -91 
Q 1263 -91 848 271 
Q 434 634 434 1313 
Q 434 1759 690 2068 
Q 947 2378 1403 2484 
z
M 1172 3481 
Q 1172 3119 1398 2916 
Q 1625 2713 2034 2713 
Q 2441 2713 2670 2916 
Q 2900 3119 2900 3481 
Q 2900 3844 2670 4047 
Q 2441 4250 2034 4250 
Q 1625 4250 1398 4047 
Q 1172 3844 1172 3481 
z
" transform="scale(0.015625)"/>
       </defs>
       <use xlink:href="#DejaVuSans-30"/>
       <use xlink:href="#DejaVuSans-2e" transform="translate(63.623047 0)"/>
       <use xlink:href="#DejaVuSans-38" transform="translate(95.410156 0)"/>
      </g>
     </g>
    </g>
    <g id="ytick_6">
     <g id="line2d_12">
      <g>
       <use xlink:href="#mccda4c90bf" x="51.223125" y="16.44" style="stroke: #000000; stroke-width: 0.8"/>
      </g>
     </g>
     <g id="text_13">
      <!-- 1.0 -->
      <g transform="translate(28.32 20.239219) scale(0.1 -0.1)">
       <use xlink:href="#DejaVuSans-31"/>
       <use xlink:href="#DejaVuSans-2e" transform="translate(63.623047 0)"/>
       <use xlink:href="#DejaVuSans-30" transform="translate(95.410156 0)"/>
      </g>
     </g>
    </g>
    <g id="text_14">
     <!-- $\hat{c}$ [-] -->
     <g transform="translate(20.9925 120.3) rotate(-90) scale(0.16 -0.16)">
      <defs>
       <path id="DejaVuSans-Oblique-63" d="M 3431 3366 
L 3316 2797 
Q 3109 2947 2876 3022 
Q 2644 3097 2394 3097 
Q 2119 3097 1870 3000 
Q 1622 2903 1453 2725 
Q 1184 2453 1037 2087 
Q 891 1722 891 1331 
Q 891 859 1127 628 
Q 1363 397 1844 397 
Q 2081 397 2348 469 
Q 2616 541 2906 684 
L 2797 116 
Q 2547 13 2283 -39 
Q 2019 -91 1741 -91 
Q 1044 -91 669 257 
Q 294 606 294 1253 
Q 294 1797 489 2255 
Q 684 2713 1069 3078 
Q 1331 3328 1684 3456 
Q 2038 3584 2456 3584 
Q 2700 3584 2940 3529 
Q 3181 3475 3431 3366 
z
" transform="scale(0.015625)"/>
      </defs>
      <use xlink:href="#DejaVuSans-302" transform="translate(59.323242 13.015625)"/>
      <use xlink:href="#DejaVuSans-Oblique-63" transform="translate(0 0.515625)"/>
      <use xlink:href="#DejaVuSans-20" transform="translate(54.980469 0.515625)"/>
      <use xlink:href="#DejaVuSans-5b" transform="translate(86.767578 0.515625)"/>
      <use xlink:href="#DejaVuSans-2d" transform="translate(125.78125 0.515625)"/>
      <use xlink:href="#DejaVuSans-5d" transform="translate(161.865234 0.515625)"/>
     </g>
    </g>
   </g>
   <g id="line2d_13">
    <path d="M 51.223125 201.24 
L 54.442356 201.129004 
L 55.884571 200.880047 
L 56.81171 200.504832 
L 57.532817 199.974804 
L 58.15091 199.23803 
L 58.717494 198.205098 
L 59.271202 196.702561 
L 59.812033 194.552254 
L 60.352863 191.443732 
L 60.906571 186.883303 
L 61.473156 180.273183 
L 62.078371 170.415354 
L 62.735094 155.832879 
L 63.520587 133.0498 
L 66.18611 50.701539 
L 66.881463 38.212628 
L 67.52531 30.350823 
L 68.143402 25.334168 
L 68.748617 22.118239 
L 69.353833 20.039949 
L 69.959048 18.712108 
L 70.590017 17.841968 
L 71.272494 17.269828 
L 72.08374 16.884135 
L 73.165402 16.632694 
L 74.878033 16.491283 
L 78.934263 16.442225 
L 145.083017 16.44 
L 386.036002 16.44 
L 386.036002 16.44 
" clip-path="url(#p7306285985)" style="fill: none; stroke: #222222; stroke-width: 7; stroke-linecap: square"/>
    <path d="M 51.223125 201.24 
L 54.442356 201.129004 
L 55.884571 200.880047 
L 56.81171 200.504832 
L 57.532817 199.974804 
L 58.15091 199.23803 
L 58.717494 198.205098 
L 59.271202 196.702561 
L 59.812033 194.552254 
L 60.352863 191.443732 
L 60.906571 186.883303 
L 61.473156 180.273183 
L 62.078371 170.415354 
L 62.735094 155.832879 
L 63.520587 133.0498 
L 66.18611 50.701539 
L 66.881463 38.212628 
L 67.52531 30.350823 
L 68.143402 25.334168 
L 68.748617 22.118239 
L 69.353833 20.039949 
L 69.959048 18.712108 
L 70.590017 17.841968 
L 71.272494 17.269828 
L 72.08374 16.884135 
L 73.165402 16.632694 
L 74.878033 16.491283 
L 78.934263 16.442225 
L 145.083017 16.44 
L 386.036002 16.44 
L 386.036002 16.44 
" clip-path="url(#p7306285985)" style="fill: none; stroke: #f1eef6; stroke-width: 5; stroke-linecap: square"/>
   </g>
   <g id="line2d_14">
    <path d="M 51.223125 201.24 
L 57.107879 201.129249 
L 62.220017 200.84558 
L 66.160356 200.410415 
L 69.456848 199.827092 
L 72.328402 199.097385 
L 74.916663 198.213107 
L 77.298894 197.165334 
L 79.526602 195.942493 
L 81.638417 194.528915 
L 83.672971 192.897065 
L 85.64314 191.029807 
L 87.587556 188.875988 
L 89.506217 186.414541 
L 91.424879 183.586474 
L 93.356417 180.337502 
L 95.31371 176.604262 
L 97.32251 172.285074 
L 99.395694 167.28944 
L 101.559017 161.484706 
L 103.85111 154.684139 
L 106.336356 146.596673 
L 109.143525 136.6764 
L 112.59454 123.614988 
L 124.003494 79.741555 
L 126.82354 70.182802 
L 129.347417 62.395061 
L 131.691017 55.869304 
L 133.918725 50.311935 
L 136.056294 45.563314 
L 138.142356 41.458882 
L 140.202663 37.888751 
L 142.237217 34.800111 
L 144.271771 32.108044 
L 146.332079 29.746558 
L 148.431017 27.67728 
L 150.581463 25.867676 
L 152.809171 24.281686 
L 155.152771 22.885799 
L 157.650894 21.658583 
L 160.342171 20.58701 
L 163.290987 19.655957 
L 166.574602 18.85657 
L 170.321787 18.178838 
L 174.69994 17.619466 
L 180.01811 17.172663 
L 186.817125 16.835979 
L 196.268787 16.606484 
L 211.785479 16.479147 
L 252.322033 16.440784 
L 386.036002 16.44 
L 386.036002 16.44 
" clip-path="url(#p7306285985)" style="fill: none; stroke: #222222; stroke-width: 7; stroke-linecap: square"/>
    <path d="M 51.223125 201.24 
L 57.107879 201.129249 
L 62.220017 200.84558 
L 66.160356 200.410415 
L 69.456848 199.827092 
L 72.328402 199.097385 
L 74.916663 198.213107 
L 77.298894 197.165334 
L 79.526602 195.942493 
L 81.638417 194.528915 
L 83.672971 192.897065 
L 85.64314 191.029807 
L 87.587556 188.875988 
L 89.506217 186.414541 
L 91.424879 183.586474 
L 93.356417 180.337502 
L 95.31371 176.604262 
L 97.32251 172.285074 
L 99.395694 167.28944 
L 101.559017 161.484706 
L 103.85111 154.684139 
L 106.336356 146.596673 
L 109.143525 136.6764 
L 112.59454 123.614988 
L 124.003494 79.741555 
L 126.82354 70.182802 
L 129.347417 62.395061 
L 131.691017 55.869304 
L 133.918725 50.311935 
L 136.056294 45.563314 
L 138.142356 41.458882 
L 140.202663 37.888751 
L 142.237217 34.800111 
L 144.271771 32.108044 
L 146.332079 29.746558 
L 148.431017 27.67728 
L 150.581463 25.867676 
L 152.809171 24.281686 
L 155.152771 22.885799 
L 157.650894 21.658583 
L 160.342171 20.58701 
L 163.290987 19.655957 
L 166.574602 18.85657 
L 170.321787 18.178838 
L 174.69994 17.619466 
L 180.01811 17.172663 
L 186.817125 16.835979 
L 196.268787 16.606484 
L 211.785479 16.479147 
L 252.322033 16.440784 
L 386.036002 16.44 
L 386.036002 16.44 
" clip-path="url(#p7306285985)" style="fill: none; stroke: #d7b5d8; stroke-width: 5; stroke-linecap: square"/>
   </g>
   <g id="line2d_15">
    <path d="M 51.223125 201.24 
L 57.700217 201.128898 
L 63.894017 200.836498 
L 68.954648 200.379975 
L 73.410063 199.758352 
L 77.479171 198.969045 
L 81.303617 198.001939 
L 84.947787 196.85151 
L 88.463187 195.50921 
L 91.901325 193.958626 
L 95.300833 192.180621 
L 98.687463 190.156587 
L 102.086971 187.863328 
L 105.52511 185.272673 
L 109.027633 182.351343 
L 112.620294 179.061134 
L 116.328848 175.359465 
L 120.204802 171.171566 
L 124.286787 166.428215 
L 128.652063 161.008112 
L 133.403648 154.745864 
L 138.734694 147.341883 
L 145.095894 138.109564 
L 154.27714 124.347812 
L 167.849417 104.039477 
L 174.66131 94.268053 
L 180.481679 86.298757 
L 185.786971 79.405166 
L 190.757463 73.305629 
L 195.509048 67.822514 
L 200.093233 62.867744 
L 204.574402 58.348406 
L 208.97831 54.219878 
L 213.343587 50.430363 
L 217.68311 46.955509 
L 222.03551 43.753909 
L 226.413663 40.808425 
L 230.843325 38.095564 
L 235.350248 35.595912 
L 239.960187 33.29374 
L 244.698894 31.176539 
L 249.592125 29.234503 
L 254.67851 27.455764 
L 260.009556 25.828578 
L 265.623894 24.349244 
L 271.58591 23.01036 
L 277.972863 21.806489 
L 284.887771 20.732622 
L 292.446525 19.78714 
L 300.842279 18.964992 
L 310.332571 18.263847 
L 321.329463 17.680615 
L 334.476802 17.213922 
L 350.97214 16.861254 
L 373.36511 16.619619 
L 386.036002 16.549489 
L 386.036002 16.549489 
" clip-path="url(#p7306285985)" style="fill: none; stroke: #222222; stroke-width: 7; stroke-linecap: square"/>
    <path d="M 51.223125 201.24 
L 57.700217 201.128898 
L 63.894017 200.836498 
L 68.954648 200.379975 
L 73.410063 199.758352 
L 77.479171 198.969045 
L 81.303617 198.001939 
L 84.947787 196.85151 
L 88.463187 195.50921 
L 91.901325 193.958626 
L 95.300833 192.180621 
L 98.687463 190.156587 
L 102.086971 187.863328 
L 105.52511 185.272673 
L 109.027633 182.351343 
L 112.620294 179.061134 
L 116.328848 175.359465 
L 120.204802 171.171566 
L 124.286787 166.428215 
L 128.652063 161.008112 
L 133.403648 154.745864 
L 138.734694 147.341883 
L 145.095894 138.109564 
L 154.27714 124.347812 
L 167.849417 104.039477 
L 174.66131 94.268053 
L 180.481679 86.298757 
L 185.786971 79.405166 
L 190.757463 73.305629 
L 195.509048 67.822514 
L 200.093233 62.867744 
L 204.574402 58.348406 
L 208.97831 54.219878 
L 213.343587 50.430363 
L 217.68311 46.955509 
L 222.03551 43.753909 
L 226.413663 40.808425 
L 230.843325 38.095564 
L 235.350248 35.595912 
L 239.960187 33.29374 
L 244.698894 31.176539 
L 249.592125 29.234503 
L 254.67851 27.455764 
L 260.009556 25.828578 
L 265.623894 24.349244 
L 271.58591 23.01036 
L 277.972863 21.806489 
L 284.887771 20.732622 
L 292.446525 19.78714 
L 300.842279 18.964992 
L 310.332571 18.263847 
L 321.329463 17.680615 
L 334.476802 17.213922 
L 350.97214 16.861254 
L 373.36511 16.619619 
L 386.036002 16.549489 
L 386.036002 16.549489 
" clip-path="url(#p7306285985)" style="fill: none; stroke: #df65b0; stroke-width: 5; stroke-linecap: square"/>
   </g>
   <g id="line2d_16">
    <path d="M 51.223125 201.24 
L 57.751725 201.129236 
L 64.061417 200.836704 
L 69.250817 200.378632 
L 73.847879 199.753024 
L 78.07151 198.956276 
L 82.050479 197.981069 
L 85.862048 196.819172 
L 89.570602 195.456507 
L 93.214771 193.880267 
L 96.833187 192.07189 
L 100.451602 190.013802 
L 104.108648 187.675951 
L 107.830079 185.030205 
L 111.641648 182.044492 
L 115.581987 178.671768 
L 119.689725 174.858651 
L 124.016371 170.533619 
L 128.62631 165.605027 
L 133.622556 159.930973 
L 139.17251 153.283198 
L 145.623848 145.196537 
L 153.993848 134.323372 
L 177.198063 103.987202 
L 184.344756 95.127734 
L 190.667325 87.637523 
L 196.513448 81.050879 
L 202.050525 75.142643 
L 207.381571 69.776085 
L 212.558094 64.877731 
L 217.631602 60.380676 
L 222.627848 56.246675 
L 227.585463 52.430859 
L 232.530202 48.903518 
L 237.487817 45.638522 
L 242.484063 42.613355 
L 247.544694 39.808992 
L 252.682587 37.215862 
L 257.936371 34.813786 
L 263.318925 32.597668 
L 268.868879 30.553477 
L 274.624863 28.671165 
L 280.62551 26.943911 
L 286.922325 25.364332 
L 293.566817 23.928393 
L 300.649125 22.627753 
L 308.24651 21.461353 
L 316.48774 20.424289 
L 325.52734 19.514391 
L 335.609971 18.727397 
L 347.057556 18.062063 
L 360.410925 17.515216 
L 376.558587 17.084906 
L 386.036002 16.914529 
L 386.036002 16.914529 
" clip-path="url(#p7306285985)" style="fill: none; stroke: #222222; stroke-width: 7; stroke-linecap: square"/>
    <path d="M 51.223125 201.24 
L 57.751725 201.129236 
L 64.061417 200.836704 
L 69.250817 200.378632 
L 73.847879 199.753024 
L 78.07151 198.956276 
L 82.050479 197.981069 
L 85.862048 196.819172 
L 89.570602 195.456507 
L 93.214771 193.880267 
L 96.833187 192.07189 
L 100.451602 190.013802 
L 104.108648 187.675951 
L 107.830079 185.030205 
L 111.641648 182.044492 
L 115.581987 178.671768 
L 119.689725 174.858651 
L 124.016371 170.533619 
L 128.62631 165.605027 
L 133.622556 159.930973 
L 139.17251 153.283198 
L 145.623848 145.196537 
L 153.993848 134.323372 
L 177.198063 103.987202 
L 184.344756 95.127734 
L 190.667325 87.637523 
L 196.513448 81.050879 
L 202.050525 75.142643 
L 207.381571 69.776085 
L 212.558094 64.877731 
L 217.631602 60.380676 
L 222.627848 56.246675 
L 227.585463 52.430859 
L 232.530202 48.903518 
L 237.487817 45.638522 
L 242.484063 42.613355 
L 247.544694 39.808992 
L 252.682587 37.215862 
L 257.936371 34.813786 
L 263.318925 32.597668 
L 268.868879 30.553477 
L 274.624863 28.671165 
L 280.62551 26.943911 
L 286.922325 25.364332 
L 293.566817 23.928393 
L 300.649125 22.627753 
L 308.24651 21.461353 
L 316.48774 20.424289 
L 325.52734 19.514391 
L 335.609971 18.727397 
L 347.057556 18.062063 
L 360.410925 17.515216 
L 376.558587 17.084906 
L 386.036002 16.914529 
L 386.036002 16.914529 
" clip-path="url(#p7306285985)" style="fill: none; stroke: #dd1c77; stroke-width: 5; stroke-linecap: square"/>
   </g>
   <g id="patch_3">
    <path d="M 51.223125 201.24 
L 51.223125 7.2 
" style="fill: none; stroke: #000000; stroke-width: 0.8; stroke-linejoin: miter; stroke-linecap: square"/>
   </g>
   <g id="patch_4">
    <path d="M 386.023125 201.24 
L 386.023125 7.2 
" style="fill: none; stroke: #000000; stroke-width: 0.8; stroke-linejoin: miter; stroke-linecap: square"/>
   </g>
   <g id="patch_5">
    <path d="M 51.223125 201.24 
L 386.023125 201.24 
" style="fill: none; stroke: #000000; stroke-width: 0.8; stroke-linejoin: miter; stroke-linecap: square"/>
   </g>
   <g id="patch_6">
    <path d="M 51.223125 7.2 
L 386.023125 7.2 
" style="fill: none; stroke: #000000; stroke-width: 0.8; stroke-linejoin: miter; stroke-linecap: square"/>
   </g>
   <g id="text_15">
    <g id="patch_7">
     <path d="M 309.607125 105.003563 
L 383.287125 105.003563 
L 383.287125 72.032438 
L 309.607125 72.032438 
z
" style="fill: #ffffff; stroke: #000000; stroke-linejoin: miter"/>
    </g>
    <!-- $\mathsf{Da}_{ads}=10$ -->
    <g transform="translate(317.407125 85.110562) scale(0.12 -0.12)">
     <defs>
      <path id="DejaVuSans-44" d="M 1259 4147 
L 1259 519 
L 2022 519 
Q 2988 519 3436 956 
Q 3884 1394 3884 2338 
Q 3884 3275 3436 3711 
Q 2988 4147 2022 4147 
L 1259 4147 
z
M 628 4666 
L 1925 4666 
Q 3281 4666 3915 4102 
Q 4550 3538 4550 2338 
Q 4550 1131 3912 565 
Q 3275 0 1925 0 
L 628 0 
L 628 4666 
z
" transform="scale(0.015625)"/>
      <path id="DejaVuSans-61" d="M 2194 1759 
Q 1497 1759 1228 1600 
Q 959 1441 959 1056 
Q 959 750 1161 570 
Q 1363 391 1709 391 
Q 2188 391 2477 730 
Q 2766 1069 2766 1631 
L 2766 1759 
L 2194 1759 
z
M 3341 1997 
L 3341 0 
L 2766 0 
L 2766 531 
Q 2569 213 2275 61 
Q 1981 -91 1556 -91 
Q 1019 -91 701 211 
Q 384 513 384 1019 
Q 384 1609 779 1909 
Q 1175 2209 1959 2209 
L 2766 2209 
L 2766 2266 
Q 2766 2663 2505 2880 
Q 2244 3097 1772 3097 
Q 1472 3097 1187 3025 
Q 903 2953 641 2809 
L 641 3341 
Q 956 3463 1253 3523 
Q 1550 3584 1831 3584 
Q 2591 3584 2966 3190 
Q 3341 2797 3341 1997 
z
" transform="scale(0.015625)"/>
      <path id="DejaVuSans-Oblique-61" d="M 3438 1997 
L 3047 0 
L 2472 0 
L 2578 531 
Q 2325 219 2001 64 
Q 1678 -91 1281 -91 
Q 834 -91 548 182 
Q 263 456 263 884 
Q 263 1497 752 1853 
Q 1241 2209 2100 2209 
L 2900 2209 
L 2931 2363 
Q 2938 2388 2941 2417 
Q 2944 2447 2944 2509 
Q 2944 2788 2717 2942 
Q 2491 3097 2081 3097 
Q 1800 3097 1504 3025 
Q 1209 2953 897 2809 
L 997 3341 
Q 1322 3463 1633 3523 
Q 1944 3584 2234 3584 
Q 2853 3584 3176 3315 
Q 3500 3047 3500 2534 
Q 3500 2431 3484 2292 
Q 3469 2153 3438 1997 
z
M 2816 1759 
L 2241 1759 
Q 1534 1759 1195 1570 
Q 856 1381 856 984 
Q 856 709 1029 553 
Q 1203 397 1509 397 
Q 1978 397 2328 733 
Q 2678 1069 2791 1631 
L 2816 1759 
z
" transform="scale(0.015625)"/>
      <path id="DejaVuSans-Oblique-64" d="M 2675 525 
Q 2444 222 2128 65 
Q 1813 -91 1428 -91 
Q 903 -91 598 267 
Q 294 625 294 1247 
Q 294 1766 478 2236 
Q 663 2706 1013 3078 
Q 1244 3325 1534 3454 
Q 1825 3584 2144 3584 
Q 2481 3584 2739 3421 
Q 2997 3259 3138 2956 
L 3513 4863 
L 4091 4863 
L 3144 0 
L 2566 0 
L 2675 525 
z
M 891 1350 
Q 891 897 1095 644 
Q 1300 391 1663 391 
Q 1931 391 2161 520 
Q 2391 650 2566 903 
Q 2750 1166 2856 1509 
Q 2963 1853 2963 2188 
Q 2963 2622 2758 2865 
Q 2553 3109 2194 3109 
Q 1922 3109 1687 2981 
Q 1453 2853 1288 2613 
Q 1106 2353 998 2009 
Q 891 1666 891 1350 
z
" transform="scale(0.015625)"/>
      <path id="DejaVuSans-Oblique-73" d="M 3200 3397 
L 3091 2853 
Q 2863 2978 2609 3040 
Q 2356 3103 2088 3103 
Q 1634 3103 1373 2948 
Q 1113 2794 1113 2528 
Q 1113 2219 1719 2053 
Q 1766 2041 1788 2034 
L 1972 1978 
Q 2547 1819 2739 1644 
Q 2931 1469 2931 1166 
Q 2931 609 2489 259 
Q 2047 -91 1331 -91 
Q 1053 -91 747 -37 
Q 441 16 72 128 
L 184 722 
Q 500 559 806 475 
Q 1113 391 1394 391 
Q 1816 391 2080 572 
Q 2344 753 2344 1031 
Q 2344 1331 1650 1516 
L 1591 1531 
L 1394 1581 
Q 956 1697 753 1886 
Q 550 2075 550 2369 
Q 550 2928 970 3256 
Q 1391 3584 2113 3584 
Q 2397 3584 2667 3537 
Q 2938 3491 3200 3397 
z
" transform="scale(0.015625)"/>
      <path id="DejaVuSans-3d" d="M 678 2906 
L 4684 2906 
L 4684 2381 
L 678 2381 
L 678 2906 
z
M 678 1631 
L 4684 1631 
L 4684 1100 
L 678 1100 
L 678 1631 
z
" transform="scale(0.015625)"/>
     </defs>
     <use xlink:href="#DejaVuSans-44" transform="translate(0 0.78125)"/>
     <use xlink:href="#DejaVuSans-61" transform="translate(77.001953 0.78125)"/>
     <use xlink:href="#DejaVuSans-Oblique-61" transform="translate(139.238281 -15.625) scale(0.7)"/>
     <use xlink:href="#DejaVuSans-Oblique-64" transform="translate(182.133789 -15.625) scale(0.7)"/>
     <use xlink:href="#DejaVuSans-Oblique-73" transform="translate(226.567383 -15.625) scale(0.7)"/>
     <use xlink:href="#DejaVuSans-3d" transform="translate(285.253906 0.78125)"/>
     <use xlink:href="#DejaVuSans-31" transform="translate(388.525391 0.78125)"/>
     <use xlink:href="#DejaVuSans-30" transform="translate(452.148438 0.78125)"/>
    </g>
    <!-- $\mathsf{Da}_{des}=0.1$ -->
    <g transform="translate(313.567125 98.547937) scale(0.12 -0.12)">
     <defs>
      <path id="DejaVuSans-Oblique-65" d="M 3078 2063 
Q 3088 2113 3092 2166 
Q 3097 2219 3097 2272 
Q 3097 2653 2873 2875 
Q 2650 3097 2266 3097 
Q 1838 3097 1509 2826 
Q 1181 2556 1013 2059 
L 3078 2063 
z
M 3578 1613 
L 903 1613 
Q 884 1494 878 1425 
Q 872 1356 872 1306 
Q 872 872 1139 634 
Q 1406 397 1894 397 
Q 2269 397 2603 481 
Q 2938 566 3225 728 
L 3116 159 
Q 2806 34 2476 -28 
Q 2147 -91 1806 -91 
Q 1078 -91 686 257 
Q 294 606 294 1247 
Q 294 1794 489 2264 
Q 684 2734 1063 3103 
Q 1306 3334 1642 3459 
Q 1978 3584 2356 3584 
Q 2950 3584 3301 3228 
Q 3653 2872 3653 2272 
Q 3653 2128 3634 1964 
Q 3616 1800 3578 1613 
z
" transform="scale(0.015625)"/>
     </defs>
     <use xlink:href="#DejaVuSans-44" transform="translate(0 0.78125)"/>
     <use xlink:href="#DejaVuSans-61" transform="translate(77.001953 0.78125)"/>
     <use xlink:href="#DejaVuSans-Oblique-64" transform="translate(139.238281 -15.625) scale(0.7)"/>
     <use xlink:href="#DejaVuSans-Oblique-65" transform="translate(183.671875 -15.625) scale(0.7)"/>
     <use xlink:href="#DejaVuSans-Oblique-73" transform="translate(226.738281 -15.625) scale(0.7)"/>
     <use xlink:href="#DejaVuSans-3d" transform="translate(285.424805 0.78125)"/>
     <use xlink:href="#DejaVuSans-30" transform="translate(388.696289 0.78125)"/>
     <use xlink:href="#DejaVuSans-2e" transform="translate(452.319336 0.78125)"/>
     <use xlink:href="#DejaVuSans-31" transform="translate(484.106445 0.78125)"/>
    </g>
   </g>
   <g id="legend_1">
    <g id="patch_8">
     <path d="M 293.823125 196.24 
L 379.023125 196.24 
Q 381.023125 196.24 381.023125 194.24 
L 381.023125 136.5275 
Q 381.023125 134.5275 379.023125 134.5275 
L 293.823125 134.5275 
Q 291.823125 134.5275 291.823125 136.5275 
L 291.823125 194.24 
Q 291.823125 196.24 293.823125 196.24 
z
" style="fill: #ffffff; opacity: 0.8; stroke: #cccccc; stroke-linejoin: miter"/>
    </g>
    <g id="line2d_17">
     <path d="M 295.823125 142.625937 
L 305.823125 142.625937 
L 315.823125 142.625937 
" style="fill: none; stroke: #222222; stroke-width: 7; stroke-linecap: square"/>
     <path d="M 295.823125 142.625937 
L 305.823125 142.625937 
L 315.823125 142.625937 
" style="fill: none; stroke: #f1eef6; stroke-width: 5; stroke-linecap: square"/>
    </g>
    <g id="text_16">
     <!-- $\kappa=0.1$ -->
     <g transform="translate(323.823125 146.125937) scale(0.1 -0.1)">
      <defs>
       <path id="DejaVuSans-Oblique-3ba" d="M 938 3500 
L 1531 3500 
L 1247 2047 
L 3041 3500 
L 3741 3500 
L 2106 2181 
L 3275 0 
L 2572 0 
L 1628 1806 
L 1122 1403 
L 850 0 
L 256 0 
L 938 3500 
z
" transform="scale(0.015625)"/>
      </defs>
      <use xlink:href="#DejaVuSans-Oblique-3ba" transform="translate(0 0.78125)"/>
      <use xlink:href="#DejaVuSans-3d" transform="translate(78.417969 0.78125)"/>
      <use xlink:href="#DejaVuSans-30" transform="translate(181.689453 0.78125)"/>
      <use xlink:href="#DejaVuSans-2e" transform="translate(245.3125 0.78125)"/>
      <use xlink:href="#DejaVuSans-31" transform="translate(277.099609 0.78125)"/>
     </g>
    </g>
    <g id="line2d_18">
     <path d="M 295.823125 157.304062 
L 305.823125 157.304062 
L 315.823125 157.304062 
" style="fill: none; stroke: #222222; stroke-width: 7; stroke-linecap: square"/>
     <path d="M 295.823125 157.304062 
L 305.823125 157.304062 
L 315.823125 157.304062 
" style="fill: none; stroke: #d7b5d8; stroke-width: 5; stroke-linecap: square"/>
    </g>
    <g id="text_17">
     <!-- $\kappa=0.01$ -->
     <g transform="translate(323.823125 160.804062) scale(0.1 -0.1)">
      <use xlink:href="#DejaVuSans-Oblique-3ba" transform="translate(0 0.78125)"/>
      <use xlink:href="#DejaVuSans-3d" transform="translate(78.417969 0.78125)"/>
      <use xlink:href="#DejaVuSans-30" transform="translate(181.689453 0.78125)"/>
      <use xlink:href="#DejaVuSans-2e" transform="translate(245.3125 0.78125)"/>
      <use xlink:href="#DejaVuSans-30" transform="translate(277.099609 0.78125)"/>
      <use xlink:href="#DejaVuSans-31" transform="translate(340.722656 0.78125)"/>
     </g>
    </g>
    <g id="line2d_19">
     <path d="M 295.823125 171.982188 
L 305.823125 171.982188 
L 315.823125 171.982188 
" style="fill: none; stroke: #222222; stroke-width: 7; stroke-linecap: square"/>
     <path d="M 295.823125 171.982188 
L 305.823125 171.982188 
L 315.823125 171.982188 
" style="fill: none; stroke: #df65b0; stroke-width: 5; stroke-linecap: square"/>
    </g>
    <g id="text_18">
     <!-- $\kappa=0.001$ -->
     <g transform="translate(323.823125 175.482188) scale(0.1 -0.1)">
      <use xlink:href="#DejaVuSans-Oblique-3ba" transform="translate(0 0.78125)"/>
      <use xlink:href="#DejaVuSans-3d" transform="translate(78.417969 0.78125)"/>
      <use xlink:href="#DejaVuSans-30" transform="translate(181.689453 0.78125)"/>
      <use xlink:href="#DejaVuSans-2e" transform="translate(245.3125 0.78125)"/>
      <use xlink:href="#DejaVuSans-30" transform="translate(277.099609 0.78125)"/>
      <use xlink:href="#DejaVuSans-30" transform="translate(340.722656 0.78125)"/>
      <use xlink:href="#DejaVuSans-31" transform="translate(404.345703 0.78125)"/>
     </g>
    </g>
    <g id="line2d_20">
     <path d="M 295.823125 186.660313 
L 305.823125 186.660313 
L 315.823125 186.660313 
" style="fill: none; stroke: #222222; stroke-width: 7; stroke-linecap: square"/>
     <path d="M 295.823125 186.660313 
L 305.823125 186.660313 
L 315.823125 186.660313 
" style="fill: none; stroke: #dd1c77; stroke-width: 5; stroke-linecap: square"/>
    </g>
    <g id="text_19">
     <!-- $\kappa=0.0001$ -->
     <g transform="translate(323.823125 190.160313) scale(0.1 -0.1)">
      <use xlink:href="#DejaVuSans-Oblique-3ba" transform="translate(0 0.78125)"/>
      <use xlink:href="#DejaVuSans-3d" transform="translate(78.417969 0.78125)"/>
      <use xlink:href="#DejaVuSans-30" transform="translate(181.689453 0.78125)"/>
      <use xlink:href="#DejaVuSans-2e" transform="translate(245.3125 0.78125)"/>
      <use xlink:href="#DejaVuSans-30" transform="translate(277.099609 0.78125)"/>
      <use xlink:href="#DejaVuSans-30" transform="translate(340.722656 0.78125)"/>
      <use xlink:href="#DejaVuSans-30" transform="translate(404.345703 0.78125)"/>
      <use xlink:href="#DejaVuSans-31" transform="translate(467.96875 0.78125)"/>
     </g>
    </g>
   </g>
  </g>
 </g>
 <defs>
  <clipPath id="p7306285985">
   <rect x="51.223125" y="7.2" width="334.8" height="194.04"/>
  </clipPath>
 </defs>
</svg>
