<?xml version="1.0" encoding="utf-8" standalone="no"?>
<!DOCTYPE svg PUBLIC "-//W3C//DTD SVG 1.1//EN"
  "http://www.w3.org/Graphics/SVG/1.1/DTD/svg11.dtd">
<svg xmlns:xlink="http://www.w3.org/1999/xlink" width="970.704436pt" height="304.039637pt" viewBox="0 0 970.704436 304.039637" xmlns="http://www.w3.org/2000/svg" version="1.1">
 <metadata>
  <rdf:RDF xmlns:dc="http://purl.org/dc/elements/1.1/" xmlns:cc="http://creativecommons.org/ns#" xmlns:rdf="http://www.w3.org/1999/02/22-rdf-syntax-ns#">
   <cc:Work>
    <dc:type rdf:resource="http://purl.org/dc/dcmitype/StillImage"/>
    <dc:date>2025-05-23T15:38:01.925931</dc:date>
    <dc:format>image/svg+xml</dc:format>
    <dc:creator>
     <cc:Agent>
      <dc:title>Matplotlib v3.10.1, https://matplotlib.org/</dc:title>
     </cc:Agent>
    </dc:creator>
   </cc:Work>
  </rdf:RDF>
 </metadata>
 <defs>
  <style type="text/css">*{stroke-linejoin: round; stroke-linecap: butt}</style>
 </defs>
 <g id="figure_1">
  <g id="patch_1">
   <path d="M 0 304.039637 
L 970.704436 304.039637 
L 970.704436 0 
L 0 0 
L 0 304.039637 
z
" style="fill: none"/>
  </g>
  <g id="axes_1">
   <g id="patch_2">
    <path d="M 51.223125 257.959637 
L 325.649355 257.959637 
L 325.649355 8.479637 
L 51.223125 8.479637 
z
" style="fill: #ffffff; fill-opacity: 0.501961"/>
   </g>
   <g id="matplotlib.axis_1">
    <g id="xtick_1">
     <g id="line2d_1">
      <defs>
       <path id="m85ec7ecef7" d="M 0 0 
L 0 3.5 
" style="stroke: #000000; stroke-width: 0.8"/>
      </defs>
      <g>
       <use xlink:href="#m85ec7ecef7" x="51.223125" y="257.959637" style="stroke: #000000; stroke-width: 0.8"/>
      </g>
     </g>
     <g id="text_1">
      <!-- 0 -->
      <g transform="translate(48.041875 272.558075) scale(0.1 -0.1)">
       <defs>
        <path id="DejaVuSans-30" d="M 2034 4250 
Q 1547 4250 1301 3770 
Q 1056 3291 1056 2328 
Q 1056 1369 1301 889 
Q 1547 409 2034 409 
Q 2525 409 2770 889 
Q 3016 1369 3016 2328 
Q 3016 3291 2770 3770 
Q 2525 4250 2034 4250 
z
M 2034 4750 
Q 2819 4750 3233 4129 
Q 3647 3509 3647 2328 
Q 3647 1150 3233 529 
Q 2819 -91 2034 -91 
Q 1250 -91 836 529 
Q 422 1150 422 2328 
Q 422 3509 836 4129 
Q 1250 4750 2034 4750 
z
" transform="scale(0.015625)"/>
       </defs>
       <use xlink:href="#DejaVuSans-30"/>
      </g>
     </g>
    </g>
    <g id="xtick_2">
     <g id="line2d_2">
      <g>
       <use xlink:href="#m85ec7ecef7" x="94.782844" y="257.959637" style="stroke: #000000; stroke-width: 0.8"/>
      </g>
     </g>
     <g id="text_2">
      <!-- 50 -->
      <g transform="translate(88.420344 272.558075) scale(0.1 -0.1)">
       <defs>
        <path id="DejaVuSans-35" d="M 691 4666 
L 3169 4666 
L 3169 4134 
L 1269 4134 
L 1269 2991 
Q 1406 3038 1543 3061 
Q 1681 3084 1819 3084 
Q 2600 3084 3056 2656 
Q 3513 2228 3513 1497 
Q 3513 744 3044 326 
Q 2575 -91 1722 -91 
Q 1428 -91 1123 -41 
Q 819 9 494 109 
L 494 744 
Q 775 591 1075 516 
Q 1375 441 1709 441 
Q 2250 441 2565 725 
Q 2881 1009 2881 1497 
Q 2881 1984 2565 2268 
Q 2250 2553 1709 2553 
Q 1456 2553 1204 2497 
Q 953 2441 691 2322 
L 691 4666 
z
" transform="scale(0.015625)"/>
       </defs>
       <use xlink:href="#DejaVuSans-35"/>
       <use xlink:href="#DejaVuSans-30" transform="translate(63.623047 0)"/>
      </g>
     </g>
    </g>
    <g id="xtick_3">
     <g id="line2d_3">
      <g>
       <use xlink:href="#m85ec7ecef7" x="138.342563" y="257.959637" style="stroke: #000000; stroke-width: 0.8"/>
      </g>
     </g>
     <g id="text_3">
      <!-- 100 -->
      <g transform="translate(128.798813 272.558075) scale(0.1 -0.1)">
       <defs>
        <path id="DejaVuSans-31" d="M 794 531 
L 1825 531 
L 1825 4091 
L 703 3866 
L 703 4441 
L 1819 4666 
L 2450 4666 
L 2450 531 
L 3481 531 
L 3481 0 
L 794 0 
L 794 531 
z
" transform="scale(0.015625)"/>
       </defs>
       <use xlink:href="#DejaVuSans-31"/>
       <use xlink:href="#DejaVuSans-30" transform="translate(63.623047 0)"/>
       <use xlink:href="#DejaVuSans-30" transform="translate(127.246094 0)"/>
      </g>
     </g>
    </g>
    <g id="xtick_4">
     <g id="line2d_4">
      <g>
       <use xlink:href="#m85ec7ecef7" x="181.902282" y="257.959637" style="stroke: #000000; stroke-width: 0.8"/>
      </g>
     </g>
     <g id="text_4">
      <!-- 150 -->
      <g transform="translate(172.358532 272.558075) scale(0.1 -0.1)">
       <use xlink:href="#DejaVuSans-31"/>
       <use xlink:href="#DejaVuSans-35" transform="translate(63.623047 0)"/>
       <use xlink:href="#DejaVuSans-30" transform="translate(127.246094 0)"/>
      </g>
     </g>
    </g>
    <g id="xtick_5">
     <g id="line2d_5">
      <g>
       <use xlink:href="#m85ec7ecef7" x="225.462001" y="257.959637" style="stroke: #000000; stroke-width: 0.8"/>
      </g>
     </g>
     <g id="text_5">
      <!-- 200 -->
      <g transform="translate(215.918251 272.558075) scale(0.1 -0.1)">
       <defs>
        <path id="DejaVuSans-32" d="M 1228 531 
L 3431 531 
L 3431 0 
L 469 0 
L 469 531 
Q 828 903 1448 1529 
Q 2069 2156 2228 2338 
Q 2531 2678 2651 2914 
Q 2772 3150 2772 3378 
Q 2772 3750 2511 3984 
Q 2250 4219 1831 4219 
Q 1534 4219 1204 4116 
Q 875 4013 500 3803 
L 500 4441 
Q 881 4594 1212 4672 
Q 1544 4750 1819 4750 
Q 2544 4750 2975 4387 
Q 3406 4025 3406 3419 
Q 3406 3131 3298 2873 
Q 3191 2616 2906 2266 
Q 2828 2175 2409 1742 
Q 1991 1309 1228 531 
z
" transform="scale(0.015625)"/>
       </defs>
       <use xlink:href="#DejaVuSans-32"/>
       <use xlink:href="#DejaVuSans-30" transform="translate(63.623047 0)"/>
       <use xlink:href="#DejaVuSans-30" transform="translate(127.246094 0)"/>
      </g>
     </g>
    </g>
    <g id="xtick_6">
     <g id="line2d_6">
      <g>
       <use xlink:href="#m85ec7ecef7" x="269.02172" y="257.959637" style="stroke: #000000; stroke-width: 0.8"/>
      </g>
     </g>
     <g id="text_6">
      <!-- 250 -->
      <g transform="translate(259.47797 272.558075) scale(0.1 -0.1)">
       <use xlink:href="#DejaVuSans-32"/>
       <use xlink:href="#DejaVuSans-35" transform="translate(63.623047 0)"/>
       <use xlink:href="#DejaVuSans-30" transform="translate(127.246094 0)"/>
      </g>
     </g>
    </g>
    <g id="xtick_7">
     <g id="line2d_7">
      <g>
       <use xlink:href="#m85ec7ecef7" x="312.581439" y="257.959637" style="stroke: #000000; stroke-width: 0.8"/>
      </g>
     </g>
     <g id="text_7">
      <!-- 300 -->
      <g transform="translate(303.037689 272.558075) scale(0.1 -0.1)">
       <defs>
        <path id="DejaVuSans-33" d="M 2597 2516 
Q 3050 2419 3304 2112 
Q 3559 1806 3559 1356 
Q 3559 666 3084 287 
Q 2609 -91 1734 -91 
Q 1441 -91 1130 -33 
Q 819 25 488 141 
L 488 750 
Q 750 597 1062 519 
Q 1375 441 1716 441 
Q 2309 441 2620 675 
Q 2931 909 2931 1356 
Q 2931 1769 2642 2001 
Q 2353 2234 1838 2234 
L 1294 2234 
L 1294 2753 
L 1863 2753 
Q 2328 2753 2575 2939 
Q 2822 3125 2822 3475 
Q 2822 3834 2567 4026 
Q 2313 4219 1838 4219 
Q 1578 4219 1281 4162 
Q 984 4106 628 3988 
L 628 4550 
Q 988 4650 1302 4700 
Q 1616 4750 1894 4750 
Q 2613 4750 3031 4423 
Q 3450 4097 3450 3541 
Q 3450 3153 3228 2886 
Q 3006 2619 2597 2516 
z
" transform="scale(0.015625)"/>
       </defs>
       <use xlink:href="#DejaVuSans-33"/>
       <use xlink:href="#DejaVuSans-30" transform="translate(63.623047 0)"/>
       <use xlink:href="#DejaVuSans-30" transform="translate(127.246094 0)"/>
      </g>
     </g>
    </g>
   </g>
   <g id="matplotlib.axis_2">
    <g id="ytick_1">
     <g id="line2d_8">
      <defs>
       <path id="m511c8b75c4" d="M 0 0 
L -3.5 0 
" style="stroke: #000000; stroke-width: 0.8"/>
      </defs>
      <g>
       <use xlink:href="#m511c8b75c4" x="51.223125" y="246.619637" style="stroke: #000000; stroke-width: 0.8"/>
      </g>
     </g>
     <g id="text_8">
      <!-- 0.0 -->
      <g transform="translate(28.32 250.418856) scale(0.1 -0.1)">
       <defs>
        <path id="DejaVuSans-2e" d="M 684 794 
L 1344 794 
L 1344 0 
L 684 0 
L 684 794 
z
" transform="scale(0.015625)"/>
       </defs>
       <use xlink:href="#DejaVuSans-30"/>
       <use xlink:href="#DejaVuSans-2e" transform="translate(63.623047 0)"/>
       <use xlink:href="#DejaVuSans-30" transform="translate(95.410156 0)"/>
      </g>
     </g>
    </g>
    <g id="ytick_2">
     <g id="line2d_9">
      <g>
       <use xlink:href="#m511c8b75c4" x="51.223125" y="212.959577" style="stroke: #000000; stroke-width: 0.8"/>
      </g>
     </g>
     <g id="text_9">
      <!-- 0.2 -->
      <g transform="translate(28.32 216.758796) scale(0.1 -0.1)">
       <use xlink:href="#DejaVuSans-30"/>
       <use xlink:href="#DejaVuSans-2e" transform="translate(63.623047 0)"/>
       <use xlink:href="#DejaVuSans-32" transform="translate(95.410156 0)"/>
      </g>
     </g>
    </g>
    <g id="ytick_3">
     <g id="line2d_10">
      <g>
       <use xlink:href="#m511c8b75c4" x="51.223125" y="179.299518" style="stroke: #000000; stroke-width: 0.8"/>
      </g>
     </g>
     <g id="text_10">
      <!-- 0.4 -->
      <g transform="translate(28.32 183.098736) scale(0.1 -0.1)">
       <defs>
        <path id="DejaVuSans-34" d="M 2419 4116 
L 825 1625 
L 2419 1625 
L 2419 4116 
z
M 2253 4666 
L 3047 4666 
L 3047 1625 
L 3713 1625 
L 3713 1100 
L 3047 1100 
L 3047 0 
L 2419 0 
L 2419 1100 
L 313 1100 
L 313 1709 
L 2253 4666 
z
" transform="scale(0.015625)"/>
       </defs>
       <use xlink:href="#DejaVuSans-30"/>
       <use xlink:href="#DejaVuSans-2e" transform="translate(63.623047 0)"/>
       <use xlink:href="#DejaVuSans-34" transform="translate(95.410156 0)"/>
      </g>
     </g>
    </g>
    <g id="ytick_4">
     <g id="line2d_11">
      <g>
       <use xlink:href="#m511c8b75c4" x="51.223125" y="145.639458" style="stroke: #000000; stroke-width: 0.8"/>
      </g>
     </g>
     <g id="text_11">
      <!-- 0.6 -->
      <g transform="translate(28.32 149.438677) scale(0.1 -0.1)">
       <defs>
        <path id="DejaVuSans-36" d="M 2113 2584 
Q 1688 2584 1439 2293 
Q 1191 2003 1191 1497 
Q 1191 994 1439 701 
Q 1688 409 2113 409 
Q 2538 409 2786 701 
Q 3034 994 3034 1497 
Q 3034 2003 2786 2293 
Q 2538 2584 2113 2584 
z
M 3366 4563 
L 3366 3988 
Q 3128 4100 2886 4159 
Q 2644 4219 2406 4219 
Q 1781 4219 1451 3797 
Q 1122 3375 1075 2522 
Q 1259 2794 1537 2939 
Q 1816 3084 2150 3084 
Q 2853 3084 3261 2657 
Q 3669 2231 3669 1497 
Q 3669 778 3244 343 
Q 2819 -91 2113 -91 
Q 1303 -91 875 529 
Q 447 1150 447 2328 
Q 447 3434 972 4092 
Q 1497 4750 2381 4750 
Q 2619 4750 2861 4703 
Q 3103 4656 3366 4563 
z
" transform="scale(0.015625)"/>
       </defs>
       <use xlink:href="#DejaVuSans-30"/>
       <use xlink:href="#DejaVuSans-2e" transform="translate(63.623047 0)"/>
       <use xlink:href="#DejaVuSans-36" transform="translate(95.410156 0)"/>
      </g>
     </g>
    </g>
    <g id="ytick_5">
     <g id="line2d_12">
      <g>
       <use xlink:href="#m511c8b75c4" x="51.223125" y="111.979398" style="stroke: #000000; stroke-width: 0.8"/>
      </g>
     </g>
     <g id="text_12">
      <!-- 0.8 -->
      <g transform="translate(28.32 115.778617) scale(0.1 -0.1)">
       <defs>
        <path id="DejaVuSans-38" d="M 2034 2216 
Q 1584 2216 1326 1975 
Q 1069 1734 1069 1313 
Q 1069 891 1326 650 
Q 1584 409 2034 409 
Q 2484 409 2743 651 
Q 3003 894 3003 1313 
Q 3003 1734 2745 1975 
Q 2488 2216 2034 2216 
z
M 1403 2484 
Q 997 2584 770 2862 
Q 544 3141 544 3541 
Q 544 4100 942 4425 
Q 1341 4750 2034 4750 
Q 2731 4750 3128 4425 
Q 3525 4100 3525 3541 
Q 3525 3141 3298 2862 
Q 3072 2584 2669 2484 
Q 3125 2378 3379 2068 
Q 3634 1759 3634 1313 
Q 3634 634 3220 271 
Q 2806 -91 2034 -91 
Q 1263 -91 848 271 
Q 434 634 434 1313 
Q 434 1759 690 2068 
Q 947 2378 1403 2484 
z
M 1172 3481 
Q 1172 3119 1398 2916 
Q 1625 2713 2034 2713 
Q 2441 2713 2670 2916 
Q 2900 3119 2900 3481 
Q 2900 3844 2670 4047 
Q 2441 4250 2034 4250 
Q 1625 4250 1398 4047 
Q 1172 3844 1172 3481 
z
" transform="scale(0.015625)"/>
       </defs>
       <use xlink:href="#DejaVuSans-30"/>
       <use xlink:href="#DejaVuSans-2e" transform="translate(63.623047 0)"/>
       <use xlink:href="#DejaVuSans-38" transform="translate(95.410156 0)"/>
      </g>
     </g>
    </g>
    <g id="ytick_6">
     <g id="line2d_13">
      <g>
       <use xlink:href="#m511c8b75c4" x="51.223125" y="78.319338" style="stroke: #000000; stroke-width: 0.8"/>
      </g>
     </g>
     <g id="text_13">
      <!-- 1.0 -->
      <g transform="translate(28.32 82.118557) scale(0.1 -0.1)">
       <use xlink:href="#DejaVuSans-31"/>
       <use xlink:href="#DejaVuSans-2e" transform="translate(63.623047 0)"/>
       <use xlink:href="#DejaVuSans-30" transform="translate(95.410156 0)"/>
      </g>
     </g>
    </g>
    <g id="ytick_7">
     <g id="line2d_14">
      <g>
       <use xlink:href="#m511c8b75c4" x="51.223125" y="44.659279" style="stroke: #000000; stroke-width: 0.8"/>
      </g>
     </g>
     <g id="text_14">
      <!-- 1.2 -->
      <g transform="translate(28.32 48.458497) scale(0.1 -0.1)">
       <use xlink:href="#DejaVuSans-31"/>
       <use xlink:href="#DejaVuSans-2e" transform="translate(63.623047 0)"/>
       <use xlink:href="#DejaVuSans-32" transform="translate(95.410156 0)"/>
      </g>
     </g>
    </g>
    <g id="ytick_8">
     <g id="line2d_15">
      <g>
       <use xlink:href="#m511c8b75c4" x="51.223125" y="10.999219" style="stroke: #000000; stroke-width: 0.8"/>
      </g>
     </g>
     <g id="text_15">
      <!-- 1.4 -->
      <g transform="translate(28.32 14.798437) scale(0.1 -0.1)">
       <use xlink:href="#DejaVuSans-31"/>
       <use xlink:href="#DejaVuSans-2e" transform="translate(63.623047 0)"/>
       <use xlink:href="#DejaVuSans-34" transform="translate(95.410156 0)"/>
      </g>
     </g>
    </g>
    <g id="text_16">
     <!-- $\hat{c}$ [-] -->
     <g transform="translate(20.9925 149.299637) rotate(-90) scale(0.16 -0.16)">
      <defs>
       <path id="DejaVuSans-302" d="M -1831 5119 
L -1369 5119 
L -603 3944 
L -1038 3944 
L -1600 4709 
L -2163 3944 
L -2597 3944 
L -1831 5119 
z
M -1600 3584 
L -1600 3584 
z
" transform="scale(0.015625)"/>
       <path id="DejaVuSans-Oblique-63" d="M 3431 3366 
L 3316 2797 
Q 3109 2947 2876 3022 
Q 2644 3097 2394 3097 
Q 2119 3097 1870 3000 
Q 1622 2903 1453 2725 
Q 1184 2453 1037 2087 
Q 891 1722 891 1331 
Q 891 859 1127 628 
Q 1363 397 1844 397 
Q 2081 397 2348 469 
Q 2616 541 2906 684 
L 2797 116 
Q 2547 13 2283 -39 
Q 2019 -91 1741 -91 
Q 1044 -91 669 257 
Q 294 606 294 1253 
Q 294 1797 489 2255 
Q 684 2713 1069 3078 
Q 1331 3328 1684 3456 
Q 2038 3584 2456 3584 
Q 2700 3584 2940 3529 
Q 3181 3475 3431 3366 
z
" transform="scale(0.015625)"/>
       <path id="DejaVuSans-20" transform="scale(0.015625)"/>
       <path id="DejaVuSans-5b" d="M 550 4863 
L 1875 4863 
L 1875 4416 
L 1125 4416 
L 1125 -397 
L 1875 -397 
L 1875 -844 
L 550 -844 
L 550 4863 
z
" transform="scale(0.015625)"/>
       <path id="DejaVuSans-2d" d="M 313 2009 
L 1997 2009 
L 1997 1497 
L 313 1497 
L 313 2009 
z
" transform="scale(0.015625)"/>
       <path id="DejaVuSans-5d" d="M 1947 4863 
L 1947 -844 
L 622 -844 
L 622 -397 
L 1369 -397 
L 1369 4416 
L 622 4416 
L 622 4863 
L 1947 4863 
z
" transform="scale(0.015625)"/>
      </defs>
      <use xlink:href="#DejaVuSans-302" transform="translate(59.323242 13.015625)"/>
      <use xlink:href="#DejaVuSans-Oblique-63" transform="translate(0 0.515625)"/>
      <use xlink:href="#DejaVuSans-20" transform="translate(54.980469 0.515625)"/>
      <use xlink:href="#DejaVuSans-5b" transform="translate(86.767578 0.515625)"/>
      <use xlink:href="#DejaVuSans-2d" transform="translate(125.78125 0.515625)"/>
      <use xlink:href="#DejaVuSans-5d" transform="translate(161.865234 0.515625)"/>
     </g>
    </g>
   </g>
   <g id="line2d_16">
    <path d="M 51.223125 246.619637 
L 69.108746 246.508616 
L 79.327856 246.265846 
L 85.696287 245.903508 
L 90.3746 245.423391 
L 94.0946 244.825325 
L 97.204764 244.105859 
L 99.896755 243.259105 
L 102.283828 242.278555 
L 104.453102 241.148935 
L 106.456849 239.855499 
L 108.338629 238.37577 
L 110.133289 236.679698 
L 111.866966 234.731306 
L 113.557083 232.49212 
L 115.221064 229.912354 
L 116.876333 226.928029 
L 118.531603 223.47738 
L 120.204296 219.467508 
L 121.911837 214.784601 
L 123.67165 209.293095 
L 125.501158 202.837879 
L 127.443921 195.142934 
L 129.552212 185.851747 
L 131.947996 174.242884 
L 134.997177 158.2821 
L 142.576568 118.127853 
L 145.0072 106.743467 
L 147.124202 97.855626 
L 149.075678 90.593801 
L 150.913898 84.585911 
L 152.67371 79.571318 
L 154.389963 75.336703 
L 156.071369 71.767862 
L 157.73535 68.748273 
L 159.390619 66.196297 
L 161.0546 64.031625 
L 162.744718 62.191651 
L 164.487106 60.620922 
L 166.299191 59.286297 
L 168.207106 58.157512 
L 170.254413 57.206592 
L 172.484671 56.418856 
L 174.967575 55.782002 
L 177.790244 55.292603 
L 181.100783 54.951028 
L 185.125701 54.76804 
L 190.283172 54.767437 
L 197.505373 55.005261 
L 209.719518 55.660013 
L 290.13076 60.293004 
L 312.581439 61.433383 
L 312.581439 61.433383 
" clip-path="url(#p02c9d16a89)" style="fill: none; stroke: #222222; stroke-width: 7; stroke-linecap: square"/>
    <path d="M 51.223125 246.619637 
L 69.108746 246.508616 
L 79.327856 246.265846 
L 85.696287 245.903508 
L 90.3746 245.423391 
L 94.0946 244.825325 
L 97.204764 244.105859 
L 99.896755 243.259105 
L 102.283828 242.278555 
L 104.453102 241.148935 
L 106.456849 239.855499 
L 108.338629 238.37577 
L 110.133289 236.679698 
L 111.866966 234.731306 
L 113.557083 232.49212 
L 115.221064 229.912354 
L 116.876333 226.928029 
L 118.531603 223.47738 
L 120.204296 219.467508 
L 121.911837 214.784601 
L 123.67165 209.293095 
L 125.501158 202.837879 
L 127.443921 195.142934 
L 129.552212 185.851747 
L 131.947996 174.242884 
L 134.997177 158.2821 
L 142.576568 118.127853 
L 145.0072 106.743467 
L 147.124202 97.855626 
L 149.075678 90.593801 
L 150.913898 84.585911 
L 152.67371 79.571318 
L 154.389963 75.336703 
L 156.071369 71.767862 
L 157.73535 68.748273 
L 159.390619 66.196297 
L 161.0546 64.031625 
L 162.744718 62.191651 
L 164.487106 60.620922 
L 166.299191 59.286297 
L 168.207106 58.157512 
L 170.254413 57.206592 
L 172.484671 56.418856 
L 174.967575 55.782002 
L 177.790244 55.292603 
L 181.100783 54.951028 
L 185.125701 54.76804 
L 190.283172 54.767437 
L 197.505373 55.005261 
L 209.719518 55.660013 
L 290.13076 60.293004 
L 312.581439 61.433383 
L 312.581439 61.433383 
" clip-path="url(#p02c9d16a89)" style="fill: none; stroke: #f1eef6; stroke-width: 5; stroke-linecap: square"/>
   </g>
   <g id="line2d_17">
    <path d="M 51.223125 246.619637 
L 71.835584 246.508621 
L 82.324764 246.269692 
L 88.789027 245.911614 
L 93.519612 245.435897 
L 97.283172 244.840757 
L 100.428184 244.123432 
L 103.14631 243.279633 
L 105.56823 242.297385 
L 107.76364 241.169008 
L 109.802235 239.871525 
L 111.718863 238.387714 
L 113.557083 236.680847 
L 115.334319 234.723953 
L 117.076708 232.470889 
L 118.810385 229.858916 
L 120.544062 226.837624 
L 122.303874 223.314707 
L 124.107247 219.195903 
L 125.980315 214.351237 
L 127.966638 208.580888 
L 130.135912 201.571732 
L 132.627528 192.732316 
L 135.929355 180.124051 
L 142.350057 155.477598 
L 144.920081 146.606729 
L 147.132914 139.740672 
L 149.162797 134.143702 
L 151.088137 129.470467 
L 152.943781 125.536891 
L 154.755865 122.204481 
L 156.550525 119.35893 
L 158.353898 116.909443 
L 160.183406 114.79517 
L 162.056474 112.966475 
L 164.007949 111.370025 
L 166.07268 109.968856 
L 168.285514 108.73756 
L 170.707434 107.647537 
L 173.408137 106.679916 
L 176.500877 105.813379 
L 180.151181 105.028432 
L 184.637832 104.299954 
L 190.483547 103.588155 
L 198.812165 102.815193 
L 212.611884 101.784147 
L 239.26172 100.045553 
L 276.409448 97.842096 
L 312.581439 95.894236 
L 312.581439 95.894236 
" clip-path="url(#p02c9d16a89)" style="fill: none; stroke: #222222; stroke-width: 7; stroke-linecap: square"/>
    <path d="M 51.223125 246.619637 
L 71.835584 246.508621 
L 82.324764 246.269692 
L 88.789027 245.911614 
L 93.519612 245.435897 
L 97.283172 244.840757 
L 100.428184 244.123432 
L 103.14631 243.279633 
L 105.56823 242.297385 
L 107.76364 241.169008 
L 109.802235 239.871525 
L 111.718863 238.387714 
L 113.557083 236.680847 
L 115.334319 234.723953 
L 117.076708 232.470889 
L 118.810385 229.858916 
L 120.544062 226.837624 
L 122.303874 223.314707 
L 124.107247 219.195903 
L 125.980315 214.351237 
L 127.966638 208.580888 
L 130.135912 201.571732 
L 132.627528 192.732316 
L 135.929355 180.124051 
L 142.350057 155.477598 
L 144.920081 146.606729 
L 147.132914 139.740672 
L 149.162797 134.143702 
L 151.088137 129.470467 
L 152.943781 125.536891 
L 154.755865 122.204481 
L 156.550525 119.35893 
L 158.353898 116.909443 
L 160.183406 114.79517 
L 162.056474 112.966475 
L 164.007949 111.370025 
L 166.07268 109.968856 
L 168.285514 108.73756 
L 170.707434 107.647537 
L 173.408137 106.679916 
L 176.500877 105.813379 
L 180.151181 105.028432 
L 184.637832 104.299954 
L 190.483547 103.588155 
L 198.812165 102.815193 
L 212.611884 101.784147 
L 239.26172 100.045553 
L 276.409448 97.842096 
L 312.581439 95.894236 
L 312.581439 95.894236 
" clip-path="url(#p02c9d16a89)" style="fill: none; stroke: #d7b5d8; stroke-width: 5; stroke-linecap: square"/>
   </g>
   <g id="line2d_18">
    <path d="M 51.223125 78.319338 
L 325.649355 78.319338 
" clip-path="url(#p02c9d16a89)" style="fill: none; stroke-dasharray: 1,1.65; stroke-dashoffset: 0; stroke: #000000"/>
   </g>
   <g id="patch_3">
    <path d="M 51.223125 257.959637 
L 51.223125 8.479637 
" style="fill: none; stroke: #000000; stroke-width: 0.8; stroke-linejoin: miter; stroke-linecap: square"/>
   </g>
   <g id="patch_4">
    <path d="M 325.649355 257.959637 
L 325.649355 8.479637 
" style="fill: none; stroke: #000000; stroke-width: 0.8; stroke-linejoin: miter; stroke-linecap: square"/>
   </g>
   <g id="patch_5">
    <path d="M 51.223125 257.959637 
L 325.649355 257.959637 
" style="fill: none; stroke: #000000; stroke-width: 0.8; stroke-linejoin: miter; stroke-linecap: square"/>
   </g>
   <g id="patch_6">
    <path d="M 51.223125 8.479637 
L 325.649355 8.479637 
" style="fill: none; stroke: #000000; stroke-width: 0.8; stroke-linejoin: miter; stroke-linecap: square"/>
   </g>
   <g id="text_17">
    <g id="patch_7">
     <path d="M 185.792305 250.930037 
L 318.632305 250.930037 
L 318.632305 188.155412 
L 185.792305 188.155412 
z
" style="fill: #ffffff; stroke: #000000; stroke-linejoin: miter"/>
    </g>
    <!-- $\kappa_1 = \kappa_2 = 0.01$ -->
    <g transform="translate(232.952305 199.769162) scale(0.12 -0.12)">
     <defs>
      <path id="DejaVuSans-Oblique-3ba" d="M 938 3500 
L 1531 3500 
L 1247 2047 
L 3041 3500 
L 3741 3500 
L 2106 2181 
L 3275 0 
L 2572 0 
L 1628 1806 
L 1122 1403 
L 850 0 
L 256 0 
L 938 3500 
z
" transform="scale(0.015625)"/>
      <path id="DejaVuSans-3d" d="M 678 2906 
L 4684 2906 
L 4684 2381 
L 678 2381 
L 678 2906 
z
M 678 1631 
L 4684 1631 
L 4684 1100 
L 678 1100 
L 678 1631 
z
" transform="scale(0.015625)"/>
     </defs>
     <use xlink:href="#DejaVuSans-Oblique-3ba" transform="translate(0 0.78125)"/>
     <use xlink:href="#DejaVuSans-31" transform="translate(58.935547 -15.625) scale(0.7)"/>
     <use xlink:href="#DejaVuSans-3d" transform="translate(125.688477 0.78125)"/>
     <use xlink:href="#DejaVuSans-Oblique-3ba" transform="translate(228.959961 0.78125)"/>
     <use xlink:href="#DejaVuSans-32" transform="translate(287.895508 -15.625) scale(0.7)"/>
     <use xlink:href="#DejaVuSans-3d" transform="translate(354.648438 0.78125)"/>
     <use xlink:href="#DejaVuSans-30" transform="translate(457.919922 0.78125)"/>
     <use xlink:href="#DejaVuSans-2e" transform="translate(521.542969 0.78125)"/>
     <use xlink:href="#DejaVuSans-30" transform="translate(553.330078 0.78125)"/>
     <use xlink:href="#DejaVuSans-31" transform="translate(616.953125 0.78125)"/>
    </g>
    <!-- $\mathsf{Da}_{ads|1} = \mathsf{Da}_{ads|2} = 10$ -->
    <g transform="translate(189.752305 213.206537) scale(0.12 -0.12)">
     <defs>
      <path id="DejaVuSans-44" d="M 1259 4147 
L 1259 519 
L 2022 519 
Q 2988 519 3436 956 
Q 3884 1394 3884 2338 
Q 3884 3275 3436 3711 
Q 2988 4147 2022 4147 
L 1259 4147 
z
M 628 4666 
L 1925 4666 
Q 3281 4666 3915 4102 
Q 4550 3538 4550 2338 
Q 4550 1131 3912 565 
Q 3275 0 1925 0 
L 628 0 
L 628 4666 
z
" transform="scale(0.015625)"/>
      <path id="DejaVuSans-61" d="M 2194 1759 
Q 1497 1759 1228 1600 
Q 959 1441 959 1056 
Q 959 750 1161 570 
Q 1363 391 1709 391 
Q 2188 391 2477 730 
Q 2766 1069 2766 1631 
L 2766 1759 
L 2194 1759 
z
M 3341 1997 
L 3341 0 
L 2766 0 
L 2766 531 
Q 2569 213 2275 61 
Q 1981 -91 1556 -91 
Q 1019 -91 701 211 
Q 384 513 384 1019 
Q 384 1609 779 1909 
Q 1175 2209 1959 2209 
L 2766 2209 
L 2766 2266 
Q 2766 2663 2505 2880 
Q 2244 3097 1772 3097 
Q 1472 3097 1187 3025 
Q 903 2953 641 2809 
L 641 3341 
Q 956 3463 1253 3523 
Q 1550 3584 1831 3584 
Q 2591 3584 2966 3190 
Q 3341 2797 3341 1997 
z
" transform="scale(0.015625)"/>
      <path id="DejaVuSans-Oblique-61" d="M 3438 1997 
L 3047 0 
L 2472 0 
L 2578 531 
Q 2325 219 2001 64 
Q 1678 -91 1281 -91 
Q 834 -91 548 182 
Q 263 456 263 884 
Q 263 1497 752 1853 
Q 1241 2209 2100 2209 
L 2900 2209 
L 2931 2363 
Q 2938 2388 2941 2417 
Q 2944 2447 2944 2509 
Q 2944 2788 2717 2942 
Q 2491 3097 2081 3097 
Q 1800 3097 1504 3025 
Q 1209 2953 897 2809 
L 997 3341 
Q 1322 3463 1633 3523 
Q 1944 3584 2234 3584 
Q 2853 3584 3176 3315 
Q 3500 3047 3500 2534 
Q 3500 2431 3484 2292 
Q 3469 2153 3438 1997 
z
M 2816 1759 
L 2241 1759 
Q 1534 1759 1195 1570 
Q 856 1381 856 984 
Q 856 709 1029 553 
Q 1203 397 1509 397 
Q 1978 397 2328 733 
Q 2678 1069 2791 1631 
L 2816 1759 
z
" transform="scale(0.015625)"/>
      <path id="DejaVuSans-Oblique-64" d="M 2675 525 
Q 2444 222 2128 65 
Q 1813 -91 1428 -91 
Q 903 -91 598 267 
Q 294 625 294 1247 
Q 294 1766 478 2236 
Q 663 2706 1013 3078 
Q 1244 3325 1534 3454 
Q 1825 3584 2144 3584 
Q 2481 3584 2739 3421 
Q 2997 3259 3138 2956 
L 3513 4863 
L 4091 4863 
L 3144 0 
L 2566 0 
L 2675 525 
z
M 891 1350 
Q 891 897 1095 644 
Q 1300 391 1663 391 
Q 1931 391 2161 520 
Q 2391 650 2566 903 
Q 2750 1166 2856 1509 
Q 2963 1853 2963 2188 
Q 2963 2622 2758 2865 
Q 2553 3109 2194 3109 
Q 1922 3109 1687 2981 
Q 1453 2853 1288 2613 
Q 1106 2353 998 2009 
Q 891 1666 891 1350 
z
" transform="scale(0.015625)"/>
      <path id="DejaVuSans-Oblique-73" d="M 3200 3397 
L 3091 2853 
Q 2863 2978 2609 3040 
Q 2356 3103 2088 3103 
Q 1634 3103 1373 2948 
Q 1113 2794 1113 2528 
Q 1113 2219 1719 2053 
Q 1766 2041 1788 2034 
L 1972 1978 
Q 2547 1819 2739 1644 
Q 2931 1469 2931 1166 
Q 2931 609 2489 259 
Q 2047 -91 1331 -91 
Q 1053 -91 747 -37 
Q 441 16 72 128 
L 184 722 
Q 500 559 806 475 
Q 1113 391 1394 391 
Q 1816 391 2080 572 
Q 2344 753 2344 1031 
Q 2344 1331 1650 1516 
L 1591 1531 
L 1394 1581 
Q 956 1697 753 1886 
Q 550 2075 550 2369 
Q 550 2928 970 3256 
Q 1391 3584 2113 3584 
Q 2397 3584 2667 3537 
Q 2938 3491 3200 3397 
z
" transform="scale(0.015625)"/>
      <path id="DejaVuSans-7c" d="M 1344 4891 
L 1344 -1509 
L 813 -1509 
L 813 4891 
L 1344 4891 
z
" transform="scale(0.015625)"/>
     </defs>
     <use xlink:href="#DejaVuSans-44" transform="translate(0 0.78125)"/>
     <use xlink:href="#DejaVuSans-61" transform="translate(77.001953 0.78125)"/>
     <use xlink:href="#DejaVuSans-Oblique-61" transform="translate(139.238281 -15.625) scale(0.7)"/>
     <use xlink:href="#DejaVuSans-Oblique-64" transform="translate(182.133789 -15.625) scale(0.7)"/>
     <use xlink:href="#DejaVuSans-Oblique-73" transform="translate(226.567383 -15.625) scale(0.7)"/>
     <use xlink:href="#DejaVuSans-7c" transform="translate(263.037109 -15.625) scale(0.7)"/>
     <use xlink:href="#DejaVuSans-31" transform="translate(286.621094 -15.625) scale(0.7)"/>
     <use xlink:href="#DejaVuSans-3d" transform="translate(353.374023 0.78125)"/>
     <use xlink:href="#DejaVuSans-44" transform="translate(456.645508 0.78125)"/>
     <use xlink:href="#DejaVuSans-61" transform="translate(533.647461 0.78125)"/>
     <use xlink:href="#DejaVuSans-Oblique-61" transform="translate(595.883789 -15.625) scale(0.7)"/>
     <use xlink:href="#DejaVuSans-Oblique-64" transform="translate(638.779297 -15.625) scale(0.7)"/>
     <use xlink:href="#DejaVuSans-Oblique-73" transform="translate(683.212891 -15.625) scale(0.7)"/>
     <use xlink:href="#DejaVuSans-7c" transform="translate(719.682617 -15.625) scale(0.7)"/>
     <use xlink:href="#DejaVuSans-32" transform="translate(743.266602 -15.625) scale(0.7)"/>
     <use xlink:href="#DejaVuSans-3d" transform="translate(810.019531 0.78125)"/>
     <use xlink:href="#DejaVuSans-31" transform="translate(913.291016 0.78125)"/>
     <use xlink:href="#DejaVuSans-30" transform="translate(976.914062 0.78125)"/>
    </g>
    <!-- $\mathsf{Da}_{des|1} = 0.005$ -->
    <g transform="translate(225.392305 228.108287) scale(0.12 -0.12)">
     <defs>
      <path id="DejaVuSans-Oblique-65" d="M 3078 2063 
Q 3088 2113 3092 2166 
Q 3097 2219 3097 2272 
Q 3097 2653 2873 2875 
Q 2650 3097 2266 3097 
Q 1838 3097 1509 2826 
Q 1181 2556 1013 2059 
L 3078 2063 
z
M 3578 1613 
L 903 1613 
Q 884 1494 878 1425 
Q 872 1356 872 1306 
Q 872 872 1139 634 
Q 1406 397 1894 397 
Q 2269 397 2603 481 
Q 2938 566 3225 728 
L 3116 159 
Q 2806 34 2476 -28 
Q 2147 -91 1806 -91 
Q 1078 -91 686 257 
Q 294 606 294 1247 
Q 294 1794 489 2264 
Q 684 2734 1063 3103 
Q 1306 3334 1642 3459 
Q 1978 3584 2356 3584 
Q 2950 3584 3301 3228 
Q 3653 2872 3653 2272 
Q 3653 2128 3634 1964 
Q 3616 1800 3578 1613 
z
" transform="scale(0.015625)"/>
     </defs>
     <use xlink:href="#DejaVuSans-44" transform="translate(0 0.78125)"/>
     <use xlink:href="#DejaVuSans-61" transform="translate(77.001953 0.78125)"/>
     <use xlink:href="#DejaVuSans-Oblique-64" transform="translate(139.238281 -15.625) scale(0.7)"/>
     <use xlink:href="#DejaVuSans-Oblique-65" transform="translate(183.671875 -15.625) scale(0.7)"/>
     <use xlink:href="#DejaVuSans-Oblique-73" transform="translate(226.738281 -15.625) scale(0.7)"/>
     <use xlink:href="#DejaVuSans-7c" transform="translate(263.208008 -15.625) scale(0.7)"/>
     <use xlink:href="#DejaVuSans-31" transform="translate(286.791992 -15.625) scale(0.7)"/>
     <use xlink:href="#DejaVuSans-3d" transform="translate(353.544922 0.78125)"/>
     <use xlink:href="#DejaVuSans-30" transform="translate(456.816406 0.78125)"/>
     <use xlink:href="#DejaVuSans-2e" transform="translate(520.439453 0.78125)"/>
     <use xlink:href="#DejaVuSans-30" transform="translate(552.226562 0.78125)"/>
     <use xlink:href="#DejaVuSans-30" transform="translate(615.849609 0.78125)"/>
     <use xlink:href="#DejaVuSans-35" transform="translate(679.472656 0.78125)"/>
    </g>
    <!-- $\mathsf{Da}_{des|2} = 0.001$ -->
    <g transform="translate(225.392305 243.010037) scale(0.12 -0.12)">
     <use xlink:href="#DejaVuSans-44" transform="translate(0 0.78125)"/>
     <use xlink:href="#DejaVuSans-61" transform="translate(77.001953 0.78125)"/>
     <use xlink:href="#DejaVuSans-Oblique-64" transform="translate(139.238281 -15.625) scale(0.7)"/>
     <use xlink:href="#DejaVuSans-Oblique-65" transform="translate(183.671875 -15.625) scale(0.7)"/>
     <use xlink:href="#DejaVuSans-Oblique-73" transform="translate(226.738281 -15.625) scale(0.7)"/>
     <use xlink:href="#DejaVuSans-7c" transform="translate(263.208008 -15.625) scale(0.7)"/>
     <use xlink:href="#DejaVuSans-32" transform="translate(286.791992 -15.625) scale(0.7)"/>
     <use xlink:href="#DejaVuSans-3d" transform="translate(353.544922 0.78125)"/>
     <use xlink:href="#DejaVuSans-30" transform="translate(456.816406 0.78125)"/>
     <use xlink:href="#DejaVuSans-2e" transform="translate(520.439453 0.78125)"/>
     <use xlink:href="#DejaVuSans-30" transform="translate(552.226562 0.78125)"/>
     <use xlink:href="#DejaVuSans-30" transform="translate(615.849609 0.78125)"/>
     <use xlink:href="#DejaVuSans-31" transform="translate(679.472656 0.78125)"/>
    </g>
   </g>
  </g>
  <g id="axes_2">
   <g id="patch_8">
    <path d="M 332.51001 257.959637 
L 606.93624 257.959637 
L 606.93624 8.479637 
L 332.51001 8.479637 
z
" style="fill: #ffffff; fill-opacity: 0.501961"/>
   </g>
   <g id="matplotlib.axis_3">
    <g id="xtick_8">
     <g id="line2d_19">
      <g>
       <use xlink:href="#m85ec7ecef7" x="332.51001" y="257.959637" style="stroke: #000000; stroke-width: 0.8"/>
      </g>
     </g>
     <g id="text_18">
      <!-- 0 -->
      <g transform="translate(329.32876 272.558075) scale(0.1 -0.1)">
       <use xlink:href="#DejaVuSans-30"/>
      </g>
     </g>
    </g>
    <g id="xtick_9">
     <g id="line2d_20">
      <g>
       <use xlink:href="#m85ec7ecef7" x="376.069729" y="257.959637" style="stroke: #000000; stroke-width: 0.8"/>
      </g>
     </g>
     <g id="text_19">
      <!-- 50 -->
      <g transform="translate(369.707229 272.558075) scale(0.1 -0.1)">
       <use xlink:href="#DejaVuSans-35"/>
       <use xlink:href="#DejaVuSans-30" transform="translate(63.623047 0)"/>
      </g>
     </g>
    </g>
    <g id="xtick_10">
     <g id="line2d_21">
      <g>
       <use xlink:href="#m85ec7ecef7" x="419.629448" y="257.959637" style="stroke: #000000; stroke-width: 0.8"/>
      </g>
     </g>
     <g id="text_20">
      <!-- 100 -->
      <g transform="translate(410.085698 272.558075) scale(0.1 -0.1)">
       <use xlink:href="#DejaVuSans-31"/>
       <use xlink:href="#DejaVuSans-30" transform="translate(63.623047 0)"/>
       <use xlink:href="#DejaVuSans-30" transform="translate(127.246094 0)"/>
      </g>
     </g>
    </g>
    <g id="xtick_11">
     <g id="line2d_22">
      <g>
       <use xlink:href="#m85ec7ecef7" x="463.189167" y="257.959637" style="stroke: #000000; stroke-width: 0.8"/>
      </g>
     </g>
     <g id="text_21">
      <!-- 150 -->
      <g transform="translate(453.645417 272.558075) scale(0.1 -0.1)">
       <use xlink:href="#DejaVuSans-31"/>
       <use xlink:href="#DejaVuSans-35" transform="translate(63.623047 0)"/>
       <use xlink:href="#DejaVuSans-30" transform="translate(127.246094 0)"/>
      </g>
     </g>
    </g>
    <g id="xtick_12">
     <g id="line2d_23">
      <g>
       <use xlink:href="#m85ec7ecef7" x="506.748886" y="257.959637" style="stroke: #000000; stroke-width: 0.8"/>
      </g>
     </g>
     <g id="text_22">
      <!-- 200 -->
      <g transform="translate(497.205136 272.558075) scale(0.1 -0.1)">
       <use xlink:href="#DejaVuSans-32"/>
       <use xlink:href="#DejaVuSans-30" transform="translate(63.623047 0)"/>
       <use xlink:href="#DejaVuSans-30" transform="translate(127.246094 0)"/>
      </g>
     </g>
    </g>
    <g id="xtick_13">
     <g id="line2d_24">
      <g>
       <use xlink:href="#m85ec7ecef7" x="550.308605" y="257.959637" style="stroke: #000000; stroke-width: 0.8"/>
      </g>
     </g>
     <g id="text_23">
      <!-- 250 -->
      <g transform="translate(540.764855 272.558075) scale(0.1 -0.1)">
       <use xlink:href="#DejaVuSans-32"/>
       <use xlink:href="#DejaVuSans-35" transform="translate(63.623047 0)"/>
       <use xlink:href="#DejaVuSans-30" transform="translate(127.246094 0)"/>
      </g>
     </g>
    </g>
    <g id="xtick_14">
     <g id="line2d_25">
      <g>
       <use xlink:href="#m85ec7ecef7" x="593.868324" y="257.959637" style="stroke: #000000; stroke-width: 0.8"/>
      </g>
     </g>
     <g id="text_24">
      <!-- 300 -->
      <g transform="translate(584.324574 272.558075) scale(0.1 -0.1)">
       <use xlink:href="#DejaVuSans-33"/>
       <use xlink:href="#DejaVuSans-30" transform="translate(63.623047 0)"/>
       <use xlink:href="#DejaVuSans-30" transform="translate(127.246094 0)"/>
      </g>
     </g>
    </g>
   </g>
   <g id="matplotlib.axis_4">
    <g id="ytick_9">
     <g id="line2d_26">
      <g>
       <use xlink:href="#m511c8b75c4" x="332.51001" y="246.619637" style="stroke: #000000; stroke-width: 0.8"/>
      </g>
     </g>
    </g>
    <g id="ytick_10">
     <g id="line2d_27">
      <g>
       <use xlink:href="#m511c8b75c4" x="332.51001" y="212.959577" style="stroke: #000000; stroke-width: 0.8"/>
      </g>
     </g>
    </g>
    <g id="ytick_11">
     <g id="line2d_28">
      <g>
       <use xlink:href="#m511c8b75c4" x="332.51001" y="179.299518" style="stroke: #000000; stroke-width: 0.8"/>
      </g>
     </g>
    </g>
    <g id="ytick_12">
     <g id="line2d_29">
      <g>
       <use xlink:href="#m511c8b75c4" x="332.51001" y="145.639458" style="stroke: #000000; stroke-width: 0.8"/>
      </g>
     </g>
    </g>
    <g id="ytick_13">
     <g id="line2d_30">
      <g>
       <use xlink:href="#m511c8b75c4" x="332.51001" y="111.979398" style="stroke: #000000; stroke-width: 0.8"/>
      </g>
     </g>
    </g>
    <g id="ytick_14">
     <g id="line2d_31">
      <g>
       <use xlink:href="#m511c8b75c4" x="332.51001" y="78.319338" style="stroke: #000000; stroke-width: 0.8"/>
      </g>
     </g>
    </g>
    <g id="ytick_15">
     <g id="line2d_32">
      <g>
       <use xlink:href="#m511c8b75c4" x="332.51001" y="44.659279" style="stroke: #000000; stroke-width: 0.8"/>
      </g>
     </g>
    </g>
    <g id="ytick_16">
     <g id="line2d_33">
      <g>
       <use xlink:href="#m511c8b75c4" x="332.51001" y="10.999219" style="stroke: #000000; stroke-width: 0.8"/>
      </g>
     </g>
    </g>
   </g>
   <g id="line2d_34">
    <path d="M 332.51001 246.619637 
L 339.305326 246.50863 
L 345.090057 246.234007 
L 349.332774 245.817948 
L 352.747856 245.265985 
L 355.648933 244.576278 
L 358.192821 243.745791 
L 360.47535 242.768992 
L 362.566216 241.63425 
L 364.517692 240.323132 
L 366.364624 238.81455 
L 368.14186 237.073701 
L 369.866825 235.068826 
L 371.556942 232.758123 
L 373.229636 230.086831 
L 374.893617 227.001243 
L 376.557598 223.438156 
L 378.239003 219.300858 
L 379.946544 214.494612 
L 381.688933 208.911721 
L 383.483593 202.399671 
L 385.356661 194.745022 
L 387.334273 185.700718 
L 389.468699 174.862583 
L 391.847059 161.591472 
L 394.730713 144.164574 
L 405.010806 80.774149 
L 407.284624 68.860378 
L 409.314507 59.370939 
L 411.187575 51.643521 
L 412.947387 45.296735 
L 414.620081 40.068058 
L 416.23179 35.738857 
L 417.782516 32.19041 
L 419.289682 29.279 
L 420.762001 26.904002 
L 422.208184 24.981565 
L 423.636942 23.442853 
L 425.065701 22.225524 
L 426.503172 21.289739 
L 427.966778 20.600423 
L 429.482657 20.132487 
L 431.076942 19.875048 
L 432.775771 19.827996 
L 434.631415 20.002863 
L 436.687434 20.424692 
L 439.022235 21.137272 
L 441.73165 22.204676 
L 444.981205 23.733376 
L 449.101954 25.930741 
L 454.99994 29.350563 
L 475.952165 41.685918 
L 483.270198 45.63773 
L 490.152633 49.103971 
L 496.843406 52.225945 
L 503.447059 55.062864 
L 510.050713 57.658449 
L 516.724062 60.042477 
L 523.519378 62.233399 
L 530.488933 64.246086 
L 537.69371 66.094183 
L 545.194694 67.787433 
L 553.070291 69.335614 
L 561.407621 70.745738 
L 570.302516 72.02224 
L 579.894366 73.171276 
L 590.348699 74.196384 
L 593.868324 74.495324 
L 593.868324 74.495324 
" clip-path="url(#pd610b9b745)" style="fill: none; stroke: #222222; stroke-width: 7; stroke-linecap: square"/>
    <path d="M 332.51001 246.619637 
L 339.305326 246.50863 
L 345.090057 246.234007 
L 349.332774 245.817948 
L 352.747856 245.265985 
L 355.648933 244.576278 
L 358.192821 243.745791 
L 360.47535 242.768992 
L 362.566216 241.63425 
L 364.517692 240.323132 
L 366.364624 238.81455 
L 368.14186 237.073701 
L 369.866825 235.068826 
L 371.556942 232.758123 
L 373.229636 230.086831 
L 374.893617 227.001243 
L 376.557598 223.438156 
L 378.239003 219.300858 
L 379.946544 214.494612 
L 381.688933 208.911721 
L 383.483593 202.399671 
L 385.356661 194.745022 
L 387.334273 185.700718 
L 389.468699 174.862583 
L 391.847059 161.591472 
L 394.730713 144.164574 
L 405.010806 80.774149 
L 407.284624 68.860378 
L 409.314507 59.370939 
L 411.187575 51.643521 
L 412.947387 45.296735 
L 414.620081 40.068058 
L 416.23179 35.738857 
L 417.782516 32.19041 
L 419.289682 29.279 
L 420.762001 26.904002 
L 422.208184 24.981565 
L 423.636942 23.442853 
L 425.065701 22.225524 
L 426.503172 21.289739 
L 427.966778 20.600423 
L 429.482657 20.132487 
L 431.076942 19.875048 
L 432.775771 19.827996 
L 434.631415 20.002863 
L 436.687434 20.424692 
L 439.022235 21.137272 
L 441.73165 22.204676 
L 444.981205 23.733376 
L 449.101954 25.930741 
L 454.99994 29.350563 
L 475.952165 41.685918 
L 483.270198 45.63773 
L 490.152633 49.103971 
L 496.843406 52.225945 
L 503.447059 55.062864 
L 510.050713 57.658449 
L 516.724062 60.042477 
L 523.519378 62.233399 
L 530.488933 64.246086 
L 537.69371 66.094183 
L 545.194694 67.787433 
L 553.070291 69.335614 
L 561.407621 70.745738 
L 570.302516 72.02224 
L 579.894366 73.171276 
L 590.348699 74.196384 
L 593.868324 74.495324 
L 593.868324 74.495324 
" clip-path="url(#pd610b9b745)" style="fill: none; stroke: #f1eef6; stroke-width: 5; stroke-linecap: square"/>
   </g>
   <g id="line2d_35">
    <path d="M 332.51001 246.619637 
L 347.677504 246.508646 
L 357.278066 246.261094 
L 363.385139 245.891927 
L 367.941486 245.401737 
L 371.626638 244.787726 
L 374.762938 244.044332 
L 377.533336 243.16232 
L 380.051088 242.129484 
L 382.403312 240.924398 
L 384.642282 239.526732 
L 386.820268 237.903473 
L 388.989542 236.00561 
L 391.184952 233.785083 
L 393.467481 231.154474 
L 395.915537 227.985211 
L 398.659799 224.055933 
L 402.02261 218.829592 
L 408.129682 208.82882 
L 413.470104 200.286334 
L 417.556006 194.169931 
L 421.502516 188.661182 
L 425.605842 183.317731 
L 430.075069 177.867756 
L 435.127996 172.063179 
L 440.97371 165.693545 
L 447.655771 158.746107 
L 454.816989 151.620526 
L 461.925935 144.856655 
L 468.703828 138.710054 
L 475.141954 133.16796 
L 481.292586 128.163336 
L 487.234132 123.612569 
L 493.036287 119.446725 
L 498.74261 115.621972 
L 504.396661 112.098643 
L 510.042001 108.841861 
L 515.713476 105.826267 
L 521.445935 103.030107 
L 527.265514 100.438874 
L 533.215771 98.033308 
L 539.322844 95.804644 
L 545.639003 93.737401 
L 552.199097 91.825595 
L 559.055397 90.060631 
L 566.260174 88.437133 
L 573.891837 86.94731 
L 582.028792 85.587597 
L 590.784296 84.352691 
L 593.868324 83.967534 
L 593.868324 83.967534 
" clip-path="url(#pd610b9b745)" style="fill: none; stroke: #222222; stroke-width: 7; stroke-linecap: square"/>
    <path d="M 332.51001 246.619637 
L 347.677504 246.508646 
L 357.278066 246.261094 
L 363.385139 245.891927 
L 367.941486 245.401737 
L 371.626638 244.787726 
L 374.762938 244.044332 
L 377.533336 243.16232 
L 380.051088 242.129484 
L 382.403312 240.924398 
L 384.642282 239.526732 
L 386.820268 237.903473 
L 388.989542 236.00561 
L 391.184952 233.785083 
L 393.467481 231.154474 
L 395.915537 227.985211 
L 398.659799 224.055933 
L 402.02261 218.829592 
L 408.129682 208.82882 
L 413.470104 200.286334 
L 417.556006 194.169931 
L 421.502516 188.661182 
L 425.605842 183.317731 
L 430.075069 177.867756 
L 435.127996 172.063179 
L 440.97371 165.693545 
L 447.655771 158.746107 
L 454.816989 151.620526 
L 461.925935 144.856655 
L 468.703828 138.710054 
L 475.141954 133.16796 
L 481.292586 128.163336 
L 487.234132 123.612569 
L 493.036287 119.446725 
L 498.74261 115.621972 
L 504.396661 112.098643 
L 510.042001 108.841861 
L 515.713476 105.826267 
L 521.445935 103.030107 
L 527.265514 100.438874 
L 533.215771 98.033308 
L 539.322844 95.804644 
L 545.639003 93.737401 
L 552.199097 91.825595 
L 559.055397 90.060631 
L 566.260174 88.437133 
L 573.891837 86.94731 
L 582.028792 85.587597 
L 590.784296 84.352691 
L 593.868324 83.967534 
L 593.868324 83.967534 
" clip-path="url(#pd610b9b745)" style="fill: none; stroke: #d7b5d8; stroke-width: 5; stroke-linecap: square"/>
   </g>
   <g id="line2d_36">
    <path d="M 332.51001 78.319338 
L 606.93624 78.319338 
" clip-path="url(#pd610b9b745)" style="fill: none; stroke-dasharray: 1,1.65; stroke-dashoffset: 0; stroke: #000000"/>
   </g>
   <g id="patch_9">
    <path d="M 332.51001 257.959637 
L 332.51001 8.479637 
" style="fill: none; stroke: #000000; stroke-width: 0.8; stroke-linejoin: miter; stroke-linecap: square"/>
   </g>
   <g id="patch_10">
    <path d="M 606.93624 257.959637 
L 606.93624 8.479637 
" style="fill: none; stroke: #000000; stroke-width: 0.8; stroke-linejoin: miter; stroke-linecap: square"/>
   </g>
   <g id="patch_11">
    <path d="M 332.51001 257.959637 
L 606.93624 257.959637 
" style="fill: none; stroke: #000000; stroke-width: 0.8; stroke-linejoin: miter; stroke-linecap: square"/>
   </g>
   <g id="patch_12">
    <path d="M 332.51001 8.479637 
L 606.93624 8.479637 
" style="fill: none; stroke: #000000; stroke-width: 0.8; stroke-linejoin: miter; stroke-linecap: square"/>
   </g>
   <g id="text_25">
    <g id="patch_13">
     <path d="M 467.079191 250.930037 
L 599.919191 250.930037 
L 599.919191 188.155412 
L 467.079191 188.155412 
z
" style="fill: #ffffff; stroke: #000000; stroke-linejoin: miter"/>
    </g>
    <!-- $\kappa_1 = \kappa_2 = 0.01$ -->
    <g transform="translate(514.239191 199.769162) scale(0.12 -0.12)">
     <use xlink:href="#DejaVuSans-Oblique-3ba" transform="translate(0 0.78125)"/>
     <use xlink:href="#DejaVuSans-31" transform="translate(58.935547 -15.625) scale(0.7)"/>
     <use xlink:href="#DejaVuSans-3d" transform="translate(125.688477 0.78125)"/>
     <use xlink:href="#DejaVuSans-Oblique-3ba" transform="translate(228.959961 0.78125)"/>
     <use xlink:href="#DejaVuSans-32" transform="translate(287.895508 -15.625) scale(0.7)"/>
     <use xlink:href="#DejaVuSans-3d" transform="translate(354.648438 0.78125)"/>
     <use xlink:href="#DejaVuSans-30" transform="translate(457.919922 0.78125)"/>
     <use xlink:href="#DejaVuSans-2e" transform="translate(521.542969 0.78125)"/>
     <use xlink:href="#DejaVuSans-30" transform="translate(553.330078 0.78125)"/>
     <use xlink:href="#DejaVuSans-31" transform="translate(616.953125 0.78125)"/>
    </g>
    <!-- $\mathsf{Da}_{ads|1} = \mathsf{Da}_{ads|2} = 10$ -->
    <g transform="translate(471.039191 213.206537) scale(0.12 -0.12)">
     <use xlink:href="#DejaVuSans-44" transform="translate(0 0.78125)"/>
     <use xlink:href="#DejaVuSans-61" transform="translate(77.001953 0.78125)"/>
     <use xlink:href="#DejaVuSans-Oblique-61" transform="translate(139.238281 -15.625) scale(0.7)"/>
     <use xlink:href="#DejaVuSans-Oblique-64" transform="translate(182.133789 -15.625) scale(0.7)"/>
     <use xlink:href="#DejaVuSans-Oblique-73" transform="translate(226.567383 -15.625) scale(0.7)"/>
     <use xlink:href="#DejaVuSans-7c" transform="translate(263.037109 -15.625) scale(0.7)"/>
     <use xlink:href="#DejaVuSans-31" transform="translate(286.621094 -15.625) scale(0.7)"/>
     <use xlink:href="#DejaVuSans-3d" transform="translate(353.374023 0.78125)"/>
     <use xlink:href="#DejaVuSans-44" transform="translate(456.645508 0.78125)"/>
     <use xlink:href="#DejaVuSans-61" transform="translate(533.647461 0.78125)"/>
     <use xlink:href="#DejaVuSans-Oblique-61" transform="translate(595.883789 -15.625) scale(0.7)"/>
     <use xlink:href="#DejaVuSans-Oblique-64" transform="translate(638.779297 -15.625) scale(0.7)"/>
     <use xlink:href="#DejaVuSans-Oblique-73" transform="translate(683.212891 -15.625) scale(0.7)"/>
     <use xlink:href="#DejaVuSans-7c" transform="translate(719.682617 -15.625) scale(0.7)"/>
     <use xlink:href="#DejaVuSans-32" transform="translate(743.266602 -15.625) scale(0.7)"/>
     <use xlink:href="#DejaVuSans-3d" transform="translate(810.019531 0.78125)"/>
     <use xlink:href="#DejaVuSans-31" transform="translate(913.291016 0.78125)"/>
     <use xlink:href="#DejaVuSans-30" transform="translate(976.914062 0.78125)"/>
    </g>
    <!-- $\mathsf{Da}_{des|1} = 0.05$ -->
    <g transform="translate(514.359191 228.108287) scale(0.12 -0.12)">
     <use xlink:href="#DejaVuSans-44" transform="translate(0 0.78125)"/>
     <use xlink:href="#DejaVuSans-61" transform="translate(77.001953 0.78125)"/>
     <use xlink:href="#DejaVuSans-Oblique-64" transform="translate(139.238281 -15.625) scale(0.7)"/>
     <use xlink:href="#DejaVuSans-Oblique-65" transform="translate(183.671875 -15.625) scale(0.7)"/>
     <use xlink:href="#DejaVuSans-Oblique-73" transform="translate(226.738281 -15.625) scale(0.7)"/>
     <use xlink:href="#DejaVuSans-7c" transform="translate(263.208008 -15.625) scale(0.7)"/>
     <use xlink:href="#DejaVuSans-31" transform="translate(286.791992 -15.625) scale(0.7)"/>
     <use xlink:href="#DejaVuSans-3d" transform="translate(353.544922 0.78125)"/>
     <use xlink:href="#DejaVuSans-30" transform="translate(456.816406 0.78125)"/>
     <use xlink:href="#DejaVuSans-2e" transform="translate(520.439453 0.78125)"/>
     <use xlink:href="#DejaVuSans-30" transform="translate(552.226562 0.78125)"/>
     <use xlink:href="#DejaVuSans-35" transform="translate(615.849609 0.78125)"/>
    </g>
    <!-- $\mathsf{Da}_{des|2} = 0.01$ -->
    <g transform="translate(514.359191 243.010037) scale(0.12 -0.12)">
     <use xlink:href="#DejaVuSans-44" transform="translate(0 0.78125)"/>
     <use xlink:href="#DejaVuSans-61" transform="translate(77.001953 0.78125)"/>
     <use xlink:href="#DejaVuSans-Oblique-64" transform="translate(139.238281 -15.625) scale(0.7)"/>
     <use xlink:href="#DejaVuSans-Oblique-65" transform="translate(183.671875 -15.625) scale(0.7)"/>
     <use xlink:href="#DejaVuSans-Oblique-73" transform="translate(226.738281 -15.625) scale(0.7)"/>
     <use xlink:href="#DejaVuSans-7c" transform="translate(263.208008 -15.625) scale(0.7)"/>
     <use xlink:href="#DejaVuSans-32" transform="translate(286.791992 -15.625) scale(0.7)"/>
     <use xlink:href="#DejaVuSans-3d" transform="translate(353.544922 0.78125)"/>
     <use xlink:href="#DejaVuSans-30" transform="translate(456.816406 0.78125)"/>
     <use xlink:href="#DejaVuSans-2e" transform="translate(520.439453 0.78125)"/>
     <use xlink:href="#DejaVuSans-30" transform="translate(552.226562 0.78125)"/>
     <use xlink:href="#DejaVuSans-31" transform="translate(615.849609 0.78125)"/>
    </g>
   </g>
  </g>
  <g id="axes_3">
   <g id="patch_14">
    <path d="M 613.796895 257.959637 
L 888.223125 257.959637 
L 888.223125 8.479637 
L 613.796895 8.479637 
z
" style="fill: #ffffff; fill-opacity: 0.501961"/>
   </g>
   <g id="matplotlib.axis_5">
    <g id="xtick_15">
     <g id="line2d_37">
      <g>
       <use xlink:href="#m85ec7ecef7" x="613.796895" y="257.959637" style="stroke: #000000; stroke-width: 0.8"/>
      </g>
     </g>
     <g id="text_26">
      <!-- 0 -->
      <g transform="translate(610.615645 272.558075) scale(0.1 -0.1)">
       <use xlink:href="#DejaVuSans-30"/>
      </g>
     </g>
    </g>
    <g id="xtick_16">
     <g id="line2d_38">
      <g>
       <use xlink:href="#m85ec7ecef7" x="657.356614" y="257.959637" style="stroke: #000000; stroke-width: 0.8"/>
      </g>
     </g>
     <g id="text_27">
      <!-- 50 -->
      <g transform="translate(650.994114 272.558075) scale(0.1 -0.1)">
       <use xlink:href="#DejaVuSans-35"/>
       <use xlink:href="#DejaVuSans-30" transform="translate(63.623047 0)"/>
      </g>
     </g>
    </g>
    <g id="xtick_17">
     <g id="line2d_39">
      <g>
       <use xlink:href="#m85ec7ecef7" x="700.916333" y="257.959637" style="stroke: #000000; stroke-width: 0.8"/>
      </g>
     </g>
     <g id="text_28">
      <!-- 100 -->
      <g transform="translate(691.372583 272.558075) scale(0.1 -0.1)">
       <use xlink:href="#DejaVuSans-31"/>
       <use xlink:href="#DejaVuSans-30" transform="translate(63.623047 0)"/>
       <use xlink:href="#DejaVuSans-30" transform="translate(127.246094 0)"/>
      </g>
     </g>
    </g>
    <g id="xtick_18">
     <g id="line2d_40">
      <g>
       <use xlink:href="#m85ec7ecef7" x="744.476052" y="257.959637" style="stroke: #000000; stroke-width: 0.8"/>
      </g>
     </g>
     <g id="text_29">
      <!-- 150 -->
      <g transform="translate(734.932302 272.558075) scale(0.1 -0.1)">
       <use xlink:href="#DejaVuSans-31"/>
       <use xlink:href="#DejaVuSans-35" transform="translate(63.623047 0)"/>
       <use xlink:href="#DejaVuSans-30" transform="translate(127.246094 0)"/>
      </g>
     </g>
    </g>
    <g id="xtick_19">
     <g id="line2d_41">
      <g>
       <use xlink:href="#m85ec7ecef7" x="788.035771" y="257.959637" style="stroke: #000000; stroke-width: 0.8"/>
      </g>
     </g>
     <g id="text_30">
      <!-- 200 -->
      <g transform="translate(778.492021 272.558075) scale(0.1 -0.1)">
       <use xlink:href="#DejaVuSans-32"/>
       <use xlink:href="#DejaVuSans-30" transform="translate(63.623047 0)"/>
       <use xlink:href="#DejaVuSans-30" transform="translate(127.246094 0)"/>
      </g>
     </g>
    </g>
    <g id="xtick_20">
     <g id="line2d_42">
      <g>
       <use xlink:href="#m85ec7ecef7" x="831.59549" y="257.959637" style="stroke: #000000; stroke-width: 0.8"/>
      </g>
     </g>
     <g id="text_31">
      <!-- 250 -->
      <g transform="translate(822.05174 272.558075) scale(0.1 -0.1)">
       <use xlink:href="#DejaVuSans-32"/>
       <use xlink:href="#DejaVuSans-35" transform="translate(63.623047 0)"/>
       <use xlink:href="#DejaVuSans-30" transform="translate(127.246094 0)"/>
      </g>
     </g>
    </g>
    <g id="xtick_21">
     <g id="line2d_43">
      <g>
       <use xlink:href="#m85ec7ecef7" x="875.155209" y="257.959637" style="stroke: #000000; stroke-width: 0.8"/>
      </g>
     </g>
     <g id="text_32">
      <!-- 300 -->
      <g transform="translate(865.611459 272.558075) scale(0.1 -0.1)">
       <use xlink:href="#DejaVuSans-33"/>
       <use xlink:href="#DejaVuSans-30" transform="translate(63.623047 0)"/>
       <use xlink:href="#DejaVuSans-30" transform="translate(127.246094 0)"/>
      </g>
     </g>
    </g>
   </g>
   <g id="matplotlib.axis_6">
    <g id="ytick_17">
     <g id="line2d_44">
      <g>
       <use xlink:href="#m511c8b75c4" x="613.796895" y="246.619637" style="stroke: #000000; stroke-width: 0.8"/>
      </g>
     </g>
    </g>
    <g id="ytick_18">
     <g id="line2d_45">
      <g>
       <use xlink:href="#m511c8b75c4" x="613.796895" y="212.959577" style="stroke: #000000; stroke-width: 0.8"/>
      </g>
     </g>
    </g>
    <g id="ytick_19">
     <g id="line2d_46">
      <g>
       <use xlink:href="#m511c8b75c4" x="613.796895" y="179.299518" style="stroke: #000000; stroke-width: 0.8"/>
      </g>
     </g>
    </g>
    <g id="ytick_20">
     <g id="line2d_47">
      <g>
       <use xlink:href="#m511c8b75c4" x="613.796895" y="145.639458" style="stroke: #000000; stroke-width: 0.8"/>
      </g>
     </g>
    </g>
    <g id="ytick_21">
     <g id="line2d_48">
      <g>
       <use xlink:href="#m511c8b75c4" x="613.796895" y="111.979398" style="stroke: #000000; stroke-width: 0.8"/>
      </g>
     </g>
    </g>
    <g id="ytick_22">
     <g id="line2d_49">
      <g>
       <use xlink:href="#m511c8b75c4" x="613.796895" y="78.319338" style="stroke: #000000; stroke-width: 0.8"/>
      </g>
     </g>
    </g>
    <g id="ytick_23">
     <g id="line2d_50">
      <g>
       <use xlink:href="#m511c8b75c4" x="613.796895" y="44.659279" style="stroke: #000000; stroke-width: 0.8"/>
      </g>
     </g>
    </g>
    <g id="ytick_24">
     <g id="line2d_51">
      <g>
       <use xlink:href="#m511c8b75c4" x="613.796895" y="10.999219" style="stroke: #000000; stroke-width: 0.8"/>
      </g>
     </g>
    </g>
   </g>
   <g id="line2d_52">
    <path d="M 613.796895 246.619637 
L 615.356333 246.508812 
L 616.218816 246.213871 
L 616.941907 245.731126 
L 617.630151 244.994443 
L 618.318394 243.914681 
L 619.032774 242.355965 
L 619.790713 240.134573 
L 620.600924 237.031495 
L 621.48083 232.731152 
L 622.447856 226.830899 
L 623.528137 218.783393 
L 624.765233 207.804071 
L 626.281111 192.226539 
L 628.581064 165.962531 
L 631.691228 130.902454 
L 633.398769 114.182415 
L 634.862376 101.943058 
L 636.195303 92.590509 
L 637.441111 85.357288 
L 638.625935 79.731587 
L 639.7672 75.349148 
L 640.873617 71.951089 
L 641.953898 69.328497 
L 643.008043 67.331283 
L 644.053476 65.810413 
L 645.09891 64.669688 
L 646.170479 63.824151 
L 647.285607 63.225856 
L 648.479144 62.838439 
L 649.803359 62.645979 
L 651.327949 62.656001 
L 653.148746 62.899575 
L 655.422563 63.439346 
L 658.436895 64.397721 
L 662.897411 66.071091 
L 677.089167 71.534664 
L 681.915584 73.070904 
L 686.498066 74.296665 
L 691.115397 75.30074 
L 695.976661 76.127822 
L 701.290947 76.802259 
L 707.337036 77.339624 
L 714.567949 77.75104 
L 723.854881 78.044803 
L 737.262563 78.227516 
L 762.387809 78.308802 
L 875.155209 78.319338 
L 875.155209 78.319338 
" clip-path="url(#pdba0f540d2)" style="fill: none; stroke: #222222; stroke-width: 7; stroke-linecap: square"/>
    <path d="M 613.796895 246.619637 
L 615.356333 246.508812 
L 616.218816 246.213871 
L 616.941907 245.731126 
L 617.630151 244.994443 
L 618.318394 243.914681 
L 619.032774 242.355965 
L 619.790713 240.134573 
L 620.600924 237.031495 
L 621.48083 232.731152 
L 622.447856 226.830899 
L 623.528137 218.783393 
L 624.765233 207.804071 
L 626.281111 192.226539 
L 628.581064 165.962531 
L 631.691228 130.902454 
L 633.398769 114.182415 
L 634.862376 101.943058 
L 636.195303 92.590509 
L 637.441111 85.357288 
L 638.625935 79.731587 
L 639.7672 75.349148 
L 640.873617 71.951089 
L 641.953898 69.328497 
L 643.008043 67.331283 
L 644.053476 65.810413 
L 645.09891 64.669688 
L 646.170479 63.824151 
L 647.285607 63.225856 
L 648.479144 62.838439 
L 649.803359 62.645979 
L 651.327949 62.656001 
L 653.148746 62.899575 
L 655.422563 63.439346 
L 658.436895 64.397721 
L 662.897411 66.071091 
L 677.089167 71.534664 
L 681.915584 73.070904 
L 686.498066 74.296665 
L 691.115397 75.30074 
L 695.976661 76.127822 
L 701.290947 76.802259 
L 707.337036 77.339624 
L 714.567949 77.75104 
L 723.854881 78.044803 
L 737.262563 78.227516 
L 762.387809 78.308802 
L 875.155209 78.319338 
L 875.155209 78.319338 
" clip-path="url(#pdba0f540d2)" style="fill: none; stroke: #f1eef6; stroke-width: 5; stroke-linecap: square"/>
   </g>
   <g id="line2d_53">
    <path d="M 613.796895 246.619637 
L 617.978629 246.50868 
L 621.428558 246.228339 
L 624.059565 245.797537 
L 626.298535 245.209274 
L 628.328418 244.447626 
L 630.245045 243.491382 
L 632.118113 242.306186 
L 633.973757 240.86605 
L 635.846825 239.126155 
L 637.746029 237.05248 
L 639.680081 234.605237 
L 641.657692 231.737871 
L 643.696287 228.381793 
L 645.804577 224.472335 
L 647.999987 219.921936 
L 650.317364 214.593361 
L 652.791556 208.332126 
L 655.509682 200.828615 
L 658.611134 191.587515 
L 662.531509 179.159793 
L 673.909308 142.651114 
L 677.141439 133.287354 
L 679.998956 125.672759 
L 682.638675 119.256628 
L 685.139003 113.752236 
L 687.534788 109.003989 
L 689.869589 104.861199 
L 692.16083 101.241319 
L 694.425935 98.071614 
L 696.691041 95.279638 
L 698.964858 92.825539 
L 701.273523 90.657941 
L 703.63446 88.744146 
L 706.073804 87.051929 
L 708.617692 85.557413 
L 711.30097 84.239137 
L 714.1672 83.079732 
L 717.277364 82.06402 
L 720.701158 81.183508 
L 724.534413 80.431523 
L 728.933945 79.800513 
L 734.134975 79.286394 
L 740.538254 78.886169 
L 748.936568 78.59665 
L 761.255256 78.413958 
L 784.446451 78.330924 
L 875.155209 78.31934 
L 875.155209 78.31934 
" clip-path="url(#pdba0f540d2)" style="fill: none; stroke: #222222; stroke-width: 7; stroke-linecap: square"/>
    <path d="M 613.796895 246.619637 
L 617.978629 246.50868 
L 621.428558 246.228339 
L 624.059565 245.797537 
L 626.298535 245.209274 
L 628.328418 244.447626 
L 630.245045 243.491382 
L 632.118113 242.306186 
L 633.973757 240.86605 
L 635.846825 239.126155 
L 637.746029 237.05248 
L 639.680081 234.605237 
L 641.657692 231.737871 
L 643.696287 228.381793 
L 645.804577 224.472335 
L 647.999987 219.921936 
L 650.317364 214.593361 
L 652.791556 208.332126 
L 655.509682 200.828615 
L 658.611134 191.587515 
L 662.531509 179.159793 
L 673.909308 142.651114 
L 677.141439 133.287354 
L 679.998956 125.672759 
L 682.638675 119.256628 
L 685.139003 113.752236 
L 687.534788 109.003989 
L 689.869589 104.861199 
L 692.16083 101.241319 
L 694.425935 98.071614 
L 696.691041 95.279638 
L 698.964858 92.825539 
L 701.273523 90.657941 
L 703.63446 88.744146 
L 706.073804 87.051929 
L 708.617692 85.557413 
L 711.30097 84.239137 
L 714.1672 83.079732 
L 717.277364 82.06402 
L 720.701158 81.183508 
L 724.534413 80.431523 
L 728.933945 79.800513 
L 734.134975 79.286394 
L 740.538254 78.886169 
L 748.936568 78.59665 
L 761.255256 78.413958 
L 784.446451 78.330924 
L 875.155209 78.31934 
L 875.155209 78.31934 
" clip-path="url(#pdba0f540d2)" style="fill: none; stroke: #d7b5d8; stroke-width: 5; stroke-linecap: square"/>
   </g>
   <g id="line2d_54">
    <path d="M 613.796895 78.319338 
L 888.223125 78.319338 
" clip-path="url(#pdba0f540d2)" style="fill: none; stroke-dasharray: 1,1.65; stroke-dashoffset: 0; stroke: #000000"/>
   </g>
   <g id="patch_15">
    <path d="M 613.796895 257.959637 
L 613.796895 8.479637 
" style="fill: none; stroke: #000000; stroke-width: 0.8; stroke-linejoin: miter; stroke-linecap: square"/>
   </g>
   <g id="patch_16">
    <path d="M 888.223125 257.959637 
L 888.223125 8.479637 
" style="fill: none; stroke: #000000; stroke-width: 0.8; stroke-linejoin: miter; stroke-linecap: square"/>
   </g>
   <g id="patch_17">
    <path d="M 613.796895 257.959637 
L 888.223125 257.959637 
" style="fill: none; stroke: #000000; stroke-width: 0.8; stroke-linejoin: miter; stroke-linecap: square"/>
   </g>
   <g id="patch_18">
    <path d="M 613.796895 8.479637 
L 888.223125 8.479637 
" style="fill: none; stroke: #000000; stroke-width: 0.8; stroke-linejoin: miter; stroke-linecap: square"/>
   </g>
   <g id="text_33">
    <g id="patch_19">
     <path d="M 748.366076 250.930037 
L 881.206076 250.930037 
L 881.206076 188.155412 
L 748.366076 188.155412 
z
" style="fill: #ffffff; stroke: #000000; stroke-linejoin: miter"/>
    </g>
    <!-- $\kappa_1 = \kappa_2 = 0.01$ -->
    <g transform="translate(795.526076 199.769162) scale(0.12 -0.12)">
     <use xlink:href="#DejaVuSans-Oblique-3ba" transform="translate(0 0.78125)"/>
     <use xlink:href="#DejaVuSans-31" transform="translate(58.935547 -15.625) scale(0.7)"/>
     <use xlink:href="#DejaVuSans-3d" transform="translate(125.688477 0.78125)"/>
     <use xlink:href="#DejaVuSans-Oblique-3ba" transform="translate(228.959961 0.78125)"/>
     <use xlink:href="#DejaVuSans-32" transform="translate(287.895508 -15.625) scale(0.7)"/>
     <use xlink:href="#DejaVuSans-3d" transform="translate(354.648438 0.78125)"/>
     <use xlink:href="#DejaVuSans-30" transform="translate(457.919922 0.78125)"/>
     <use xlink:href="#DejaVuSans-2e" transform="translate(521.542969 0.78125)"/>
     <use xlink:href="#DejaVuSans-30" transform="translate(553.330078 0.78125)"/>
     <use xlink:href="#DejaVuSans-31" transform="translate(616.953125 0.78125)"/>
    </g>
    <!-- $\mathsf{Da}_{ads|1} = \mathsf{Da}_{ads|2} = 10$ -->
    <g transform="translate(752.326076 213.206537) scale(0.12 -0.12)">
     <use xlink:href="#DejaVuSans-44" transform="translate(0 0.78125)"/>
     <use xlink:href="#DejaVuSans-61" transform="translate(77.001953 0.78125)"/>
     <use xlink:href="#DejaVuSans-Oblique-61" transform="translate(139.238281 -15.625) scale(0.7)"/>
     <use xlink:href="#DejaVuSans-Oblique-64" transform="translate(182.133789 -15.625) scale(0.7)"/>
     <use xlink:href="#DejaVuSans-Oblique-73" transform="translate(226.567383 -15.625) scale(0.7)"/>
     <use xlink:href="#DejaVuSans-7c" transform="translate(263.037109 -15.625) scale(0.7)"/>
     <use xlink:href="#DejaVuSans-31" transform="translate(286.621094 -15.625) scale(0.7)"/>
     <use xlink:href="#DejaVuSans-3d" transform="translate(353.374023 0.78125)"/>
     <use xlink:href="#DejaVuSans-44" transform="translate(456.645508 0.78125)"/>
     <use xlink:href="#DejaVuSans-61" transform="translate(533.647461 0.78125)"/>
     <use xlink:href="#DejaVuSans-Oblique-61" transform="translate(595.883789 -15.625) scale(0.7)"/>
     <use xlink:href="#DejaVuSans-Oblique-64" transform="translate(638.779297 -15.625) scale(0.7)"/>
     <use xlink:href="#DejaVuSans-Oblique-73" transform="translate(683.212891 -15.625) scale(0.7)"/>
     <use xlink:href="#DejaVuSans-7c" transform="translate(719.682617 -15.625) scale(0.7)"/>
     <use xlink:href="#DejaVuSans-32" transform="translate(743.266602 -15.625) scale(0.7)"/>
     <use xlink:href="#DejaVuSans-3d" transform="translate(810.019531 0.78125)"/>
     <use xlink:href="#DejaVuSans-31" transform="translate(913.291016 0.78125)"/>
     <use xlink:href="#DejaVuSans-30" transform="translate(976.914062 0.78125)"/>
    </g>
    <!-- $\mathsf{Da}_{des|1} = 0.5$ -->
    <g transform="translate(803.326076 228.108287) scale(0.12 -0.12)">
     <use xlink:href="#DejaVuSans-44" transform="translate(0 0.78125)"/>
     <use xlink:href="#DejaVuSans-61" transform="translate(77.001953 0.78125)"/>
     <use xlink:href="#DejaVuSans-Oblique-64" transform="translate(139.238281 -15.625) scale(0.7)"/>
     <use xlink:href="#DejaVuSans-Oblique-65" transform="translate(183.671875 -15.625) scale(0.7)"/>
     <use xlink:href="#DejaVuSans-Oblique-73" transform="translate(226.738281 -15.625) scale(0.7)"/>
     <use xlink:href="#DejaVuSans-7c" transform="translate(263.208008 -15.625) scale(0.7)"/>
     <use xlink:href="#DejaVuSans-31" transform="translate(286.791992 -15.625) scale(0.7)"/>
     <use xlink:href="#DejaVuSans-3d" transform="translate(353.544922 0.78125)"/>
     <use xlink:href="#DejaVuSans-30" transform="translate(456.816406 0.78125)"/>
     <use xlink:href="#DejaVuSans-2e" transform="translate(520.439453 0.78125)"/>
     <use xlink:href="#DejaVuSans-35" transform="translate(552.226562 0.78125)"/>
    </g>
    <!-- $\mathsf{Da}_{des|2} = 0.1$ -->
    <g transform="translate(803.326076 243.010037) scale(0.12 -0.12)">
     <use xlink:href="#DejaVuSans-44" transform="translate(0 0.78125)"/>
     <use xlink:href="#DejaVuSans-61" transform="translate(77.001953 0.78125)"/>
     <use xlink:href="#DejaVuSans-Oblique-64" transform="translate(139.238281 -15.625) scale(0.7)"/>
     <use xlink:href="#DejaVuSans-Oblique-65" transform="translate(183.671875 -15.625) scale(0.7)"/>
     <use xlink:href="#DejaVuSans-Oblique-73" transform="translate(226.738281 -15.625) scale(0.7)"/>
     <use xlink:href="#DejaVuSans-7c" transform="translate(263.208008 -15.625) scale(0.7)"/>
     <use xlink:href="#DejaVuSans-32" transform="translate(286.791992 -15.625) scale(0.7)"/>
     <use xlink:href="#DejaVuSans-3d" transform="translate(353.544922 0.78125)"/>
     <use xlink:href="#DejaVuSans-30" transform="translate(456.816406 0.78125)"/>
     <use xlink:href="#DejaVuSans-2e" transform="translate(520.439453 0.78125)"/>
     <use xlink:href="#DejaVuSans-31" transform="translate(552.226562 0.78125)"/>
    </g>
   </g>
   <g id="legend_1">
    <g id="patch_20">
     <path d="M 910.344436 154.733387 
L 961.104436 154.733387 
Q 963.504436 154.733387 963.504436 152.333387 
L 963.504436 114.105887 
Q 963.504436 111.705887 961.104436 111.705887 
L 910.344436 111.705887 
Q 907.944436 111.705887 907.944436 114.105887 
L 907.944436 152.333387 
Q 907.944436 154.733387 910.344436 154.733387 
z
" style="fill: #ffffff; opacity: 0.8; stroke: #cccccc; stroke-linejoin: miter"/>
    </g>
    <g id="line2d_55">
     <path d="M 912.744436 121.424012 
L 924.744436 121.424012 
L 936.744436 121.424012 
" style="fill: none; stroke: #222222; stroke-width: 7; stroke-linecap: square"/>
     <path d="M 912.744436 121.424012 
L 924.744436 121.424012 
L 936.744436 121.424012 
" style="fill: none; stroke: #f1eef6; stroke-width: 5; stroke-linecap: square"/>
    </g>
    <g id="text_34">
     <!-- $c_1$ -->
     <g transform="translate(946.344436 125.624012) scale(0.12 -0.12)">
      <use xlink:href="#DejaVuSans-Oblique-63"/>
      <use xlink:href="#DejaVuSans-31" transform="translate(54.980469 -16.40625) scale(0.7)"/>
     </g>
    </g>
    <g id="line2d_56">
     <path d="M 912.744436 143.237762 
L 924.744436 143.237762 
L 936.744436 143.237762 
" style="fill: none; stroke: #222222; stroke-width: 7; stroke-linecap: square"/>
     <path d="M 912.744436 143.237762 
L 924.744436 143.237762 
L 936.744436 143.237762 
" style="fill: none; stroke: #d7b5d8; stroke-width: 5; stroke-linecap: square"/>
    </g>
    <g id="text_35">
     <!-- $c_2$ -->
     <g transform="translate(946.344436 147.437762) scale(0.12 -0.12)">
      <use xlink:href="#DejaVuSans-Oblique-63"/>
      <use xlink:href="#DejaVuSans-32" transform="translate(54.980469 -16.40625) scale(0.7)"/>
     </g>
    </g>
   </g>
  </g>
  <g id="text_36">
   <!-- $\hat{t}$ [-] -->
   <g transform="translate(441.343125 293.512137) scale(0.16 -0.16)">
    <defs>
     <path id="DejaVuSans-Oblique-74" d="M 2706 3500 
L 2619 3053 
L 1472 3053 
L 1100 1153 
Q 1081 1047 1072 975 
Q 1063 903 1063 863 
Q 1063 663 1183 572 
Q 1303 481 1569 481 
L 2150 481 
L 2053 0 
L 1503 0 
Q 991 0 739 200 
Q 488 400 488 806 
Q 488 878 497 964 
Q 506 1050 525 1153 
L 897 3053 
L 409 3053 
L 500 3500 
L 978 3500 
L 1172 4494 
L 1747 4494 
L 1556 3500 
L 2706 3500 
z
" transform="scale(0.015625)"/>
    </defs>
    <use xlink:href="#DejaVuSans-302" transform="translate(49.380371 27.015625)"/>
    <use xlink:href="#DejaVuSans-Oblique-74" transform="translate(0 0.296875)"/>
    <use xlink:href="#DejaVuSans-20" transform="translate(39.208984 0.296875)"/>
    <use xlink:href="#DejaVuSans-5b" transform="translate(70.996094 0.296875)"/>
    <use xlink:href="#DejaVuSans-2d" transform="translate(110.009766 0.296875)"/>
    <use xlink:href="#DejaVuSans-5d" transform="translate(146.09375 0.296875)"/>
   </g>
  </g>
 </g>
 <defs>
  <clipPath id="p02c9d16a89">
   <rect x="51.223125" y="8.479637" width="274.42623" height="249.48"/>
  </clipPath>
  <clipPath id="pd610b9b745">
   <rect x="332.51001" y="8.479637" width="274.42623" height="249.48"/>
  </clipPath>
  <clipPath id="pdba0f540d2">
   <rect x="613.796895" y="8.479637" width="274.42623" height="249.48"/>
  </clipPath>
 </defs>
</svg>
