<?xml version="1.0" encoding="utf-8" standalone="no"?>
<!DOCTYPE svg PUBLIC "-//W3C//DTD SVG 1.1//EN"
  "http://www.w3.org/Graphics/SVG/1.1/DTD/svg11.dtd">
<svg xmlns:xlink="http://www.w3.org/1999/xlink" width="393.223125pt" height="248.478125pt" viewBox="0 0 393.223125 248.478125" xmlns="http://www.w3.org/2000/svg" version="1.1">
 <metadata>
  <rdf:RDF xmlns:dc="http://purl.org/dc/elements/1.1/" xmlns:cc="http://creativecommons.org/ns#" xmlns:rdf="http://www.w3.org/1999/02/22-rdf-syntax-ns#">
   <cc:Work>
    <dc:type rdf:resource="http://purl.org/dc/dcmitype/StillImage"/>
    <dc:date>2025-05-23T15:53:43.729581</dc:date>
    <dc:format>image/svg+xml</dc:format>
    <dc:creator>
     <cc:Agent>
      <dc:title>Matplotlib v3.10.1, https://matplotlib.org/</dc:title>
     </cc:Agent>
    </dc:creator>
   </cc:Work>
  </rdf:RDF>
 </metadata>
 <defs>
  <style type="text/css">*{stroke-linejoin: round; stroke-linecap: butt}</style>
 </defs>
 <g id="figure_1">
  <g id="patch_1">
   <path d="M 0 248.478125 
L 393.223125 248.478125 
L 393.223125 0 
L 0 0 
L 0 248.478125 
z
" style="fill: none"/>
  </g>
  <g id="axes_1">
   <g id="patch_2">
    <path d="M 51.223125 201.24 
L 386.023125 201.24 
L 386.023125 7.2 
L 51.223125 7.2 
z
" style="fill: #ffffff; fill-opacity: 0.501961"/>
   </g>
   <g id="matplotlib.axis_1">
    <g id="xtick_1">
     <g id="line2d_1">
      <defs>
       <path id="m7e8734352e" d="M 0 0 
L 0 3.5 
" style="stroke: #000000; stroke-width: 0.8"/>
      </defs>
      <g>
       <use xlink:href="#m7e8734352e" x="51.223125" y="201.24" style="stroke: #000000; stroke-width: 0.8"/>
      </g>
     </g>
     <g id="text_1">
      <!-- 0 -->
      <g transform="translate(48.041875 215.838437) scale(0.1 -0.1)">
       <defs>
        <path id="DejaVuSans-30" d="M 2034 4250 
Q 1547 4250 1301 3770 
Q 1056 3291 1056 2328 
Q 1056 1369 1301 889 
Q 1547 409 2034 409 
Q 2525 409 2770 889 
Q 3016 1369 3016 2328 
Q 3016 3291 2770 3770 
Q 2525 4250 2034 4250 
z
M 2034 4750 
Q 2819 4750 3233 4129 
Q 3647 3509 3647 2328 
Q 3647 1150 3233 529 
Q 2819 -91 2034 -91 
Q 1250 -91 836 529 
Q 422 1150 422 2328 
Q 422 3509 836 4129 
Q 1250 4750 2034 4750 
z
" transform="scale(0.015625)"/>
       </defs>
       <use xlink:href="#DejaVuSans-30"/>
      </g>
     </g>
    </g>
    <g id="xtick_2">
     <g id="line2d_2">
      <g>
       <use xlink:href="#m7e8734352e" x="104.365982" y="201.24" style="stroke: #000000; stroke-width: 0.8"/>
      </g>
     </g>
     <g id="text_2">
      <!-- 50 -->
      <g transform="translate(98.003482 215.838437) scale(0.1 -0.1)">
       <defs>
        <path id="DejaVuSans-35" d="M 691 4666 
L 3169 4666 
L 3169 4134 
L 1269 4134 
L 1269 2991 
Q 1406 3038 1543 3061 
Q 1681 3084 1819 3084 
Q 2600 3084 3056 2656 
Q 3513 2228 3513 1497 
Q 3513 744 3044 326 
Q 2575 -91 1722 -91 
Q 1428 -91 1123 -41 
Q 819 9 494 109 
L 494 744 
Q 775 591 1075 516 
Q 1375 441 1709 441 
Q 2250 441 2565 725 
Q 2881 1009 2881 1497 
Q 2881 1984 2565 2268 
Q 2250 2553 1709 2553 
Q 1456 2553 1204 2497 
Q 953 2441 691 2322 
L 691 4666 
z
" transform="scale(0.015625)"/>
       </defs>
       <use xlink:href="#DejaVuSans-35"/>
       <use xlink:href="#DejaVuSans-30" transform="translate(63.623047 0)"/>
      </g>
     </g>
    </g>
    <g id="xtick_3">
     <g id="line2d_3">
      <g>
       <use xlink:href="#m7e8734352e" x="157.508839" y="201.24" style="stroke: #000000; stroke-width: 0.8"/>
      </g>
     </g>
     <g id="text_3">
      <!-- 100 -->
      <g transform="translate(147.965089 215.838437) scale(0.1 -0.1)">
       <defs>
        <path id="DejaVuSans-31" d="M 794 531 
L 1825 531 
L 1825 4091 
L 703 3866 
L 703 4441 
L 1819 4666 
L 2450 4666 
L 2450 531 
L 3481 531 
L 3481 0 
L 794 0 
L 794 531 
z
" transform="scale(0.015625)"/>
       </defs>
       <use xlink:href="#DejaVuSans-31"/>
       <use xlink:href="#DejaVuSans-30" transform="translate(63.623047 0)"/>
       <use xlink:href="#DejaVuSans-30" transform="translate(127.246094 0)"/>
      </g>
     </g>
    </g>
    <g id="xtick_4">
     <g id="line2d_4">
      <g>
       <use xlink:href="#m7e8734352e" x="210.651696" y="201.24" style="stroke: #000000; stroke-width: 0.8"/>
      </g>
     </g>
     <g id="text_4">
      <!-- 150 -->
      <g transform="translate(201.107946 215.838437) scale(0.1 -0.1)">
       <use xlink:href="#DejaVuSans-31"/>
       <use xlink:href="#DejaVuSans-35" transform="translate(63.623047 0)"/>
       <use xlink:href="#DejaVuSans-30" transform="translate(127.246094 0)"/>
      </g>
     </g>
    </g>
    <g id="xtick_5">
     <g id="line2d_5">
      <g>
       <use xlink:href="#m7e8734352e" x="263.794554" y="201.24" style="stroke: #000000; stroke-width: 0.8"/>
      </g>
     </g>
     <g id="text_5">
      <!-- 200 -->
      <g transform="translate(254.250804 215.838437) scale(0.1 -0.1)">
       <defs>
        <path id="DejaVuSans-32" d="M 1228 531 
L 3431 531 
L 3431 0 
L 469 0 
L 469 531 
Q 828 903 1448 1529 
Q 2069 2156 2228 2338 
Q 2531 2678 2651 2914 
Q 2772 3150 2772 3378 
Q 2772 3750 2511 3984 
Q 2250 4219 1831 4219 
Q 1534 4219 1204 4116 
Q 875 4013 500 3803 
L 500 4441 
Q 881 4594 1212 4672 
Q 1544 4750 1819 4750 
Q 2544 4750 2975 4387 
Q 3406 4025 3406 3419 
Q 3406 3131 3298 2873 
Q 3191 2616 2906 2266 
Q 2828 2175 2409 1742 
Q 1991 1309 1228 531 
z
" transform="scale(0.015625)"/>
       </defs>
       <use xlink:href="#DejaVuSans-32"/>
       <use xlink:href="#DejaVuSans-30" transform="translate(63.623047 0)"/>
       <use xlink:href="#DejaVuSans-30" transform="translate(127.246094 0)"/>
      </g>
     </g>
    </g>
    <g id="xtick_6">
     <g id="line2d_6">
      <g>
       <use xlink:href="#m7e8734352e" x="316.937411" y="201.24" style="stroke: #000000; stroke-width: 0.8"/>
      </g>
     </g>
     <g id="text_6">
      <!-- 250 -->
      <g transform="translate(307.393661 215.838437) scale(0.1 -0.1)">
       <use xlink:href="#DejaVuSans-32"/>
       <use xlink:href="#DejaVuSans-35" transform="translate(63.623047 0)"/>
       <use xlink:href="#DejaVuSans-30" transform="translate(127.246094 0)"/>
      </g>
     </g>
    </g>
    <g id="xtick_7">
     <g id="line2d_7">
      <g>
       <use xlink:href="#m7e8734352e" x="370.080268" y="201.24" style="stroke: #000000; stroke-width: 0.8"/>
      </g>
     </g>
     <g id="text_7">
      <!-- 300 -->
      <g transform="translate(360.536518 215.838437) scale(0.1 -0.1)">
       <defs>
        <path id="DejaVuSans-33" d="M 2597 2516 
Q 3050 2419 3304 2112 
Q 3559 1806 3559 1356 
Q 3559 666 3084 287 
Q 2609 -91 1734 -91 
Q 1441 -91 1130 -33 
Q 819 25 488 141 
L 488 750 
Q 750 597 1062 519 
Q 1375 441 1716 441 
Q 2309 441 2620 675 
Q 2931 909 2931 1356 
Q 2931 1769 2642 2001 
Q 2353 2234 1838 2234 
L 1294 2234 
L 1294 2753 
L 1863 2753 
Q 2328 2753 2575 2939 
Q 2822 3125 2822 3475 
Q 2822 3834 2567 4026 
Q 2313 4219 1838 4219 
Q 1578 4219 1281 4162 
Q 984 4106 628 3988 
L 628 4550 
Q 988 4650 1302 4700 
Q 1616 4750 1894 4750 
Q 2613 4750 3031 4423 
Q 3450 4097 3450 3541 
Q 3450 3153 3228 2886 
Q 3006 2619 2597 2516 
z
" transform="scale(0.015625)"/>
       </defs>
       <use xlink:href="#DejaVuSans-33"/>
       <use xlink:href="#DejaVuSans-30" transform="translate(63.623047 0)"/>
       <use xlink:href="#DejaVuSans-30" transform="translate(127.246094 0)"/>
      </g>
     </g>
    </g>
    <g id="text_8">
     <!-- $\hat{t}$ [-] -->
     <g transform="translate(203.743125 237.950625) scale(0.16 -0.16)">
      <defs>
       <path id="DejaVuSans-302" d="M -1831 5119 
L -1369 5119 
L -603 3944 
L -1038 3944 
L -1600 4709 
L -2163 3944 
L -2597 3944 
L -1831 5119 
z
M -1600 3584 
L -1600 3584 
z
" transform="scale(0.015625)"/>
       <path id="DejaVuSans-Oblique-74" d="M 2706 3500 
L 2619 3053 
L 1472 3053 
L 1100 1153 
Q 1081 1047 1072 975 
Q 1063 903 1063 863 
Q 1063 663 1183 572 
Q 1303 481 1569 481 
L 2150 481 
L 2053 0 
L 1503 0 
Q 991 0 739 200 
Q 488 400 488 806 
Q 488 878 497 964 
Q 506 1050 525 1153 
L 897 3053 
L 409 3053 
L 500 3500 
L 978 3500 
L 1172 4494 
L 1747 4494 
L 1556 3500 
L 2706 3500 
z
" transform="scale(0.015625)"/>
       <path id="DejaVuSans-20" transform="scale(0.015625)"/>
       <path id="DejaVuSans-5b" d="M 550 4863 
L 1875 4863 
L 1875 4416 
L 1125 4416 
L 1125 -397 
L 1875 -397 
L 1875 -844 
L 550 -844 
L 550 4863 
z
" transform="scale(0.015625)"/>
       <path id="DejaVuSans-2d" d="M 313 2009 
L 1997 2009 
L 1997 1497 
L 313 1497 
L 313 2009 
z
" transform="scale(0.015625)"/>
       <path id="DejaVuSans-5d" d="M 1947 4863 
L 1947 -844 
L 622 -844 
L 622 -397 
L 1369 -397 
L 1369 4416 
L 622 4416 
L 622 4863 
L 1947 4863 
z
" transform="scale(0.015625)"/>
      </defs>
      <use xlink:href="#DejaVuSans-302" transform="translate(49.380371 27.015625)"/>
      <use xlink:href="#DejaVuSans-Oblique-74" transform="translate(0 0.296875)"/>
      <use xlink:href="#DejaVuSans-20" transform="translate(39.208984 0.296875)"/>
      <use xlink:href="#DejaVuSans-5b" transform="translate(70.996094 0.296875)"/>
      <use xlink:href="#DejaVuSans-2d" transform="translate(110.009766 0.296875)"/>
      <use xlink:href="#DejaVuSans-5d" transform="translate(146.09375 0.296875)"/>
     </g>
    </g>
   </g>
   <g id="matplotlib.axis_2">
    <g id="ytick_1">
     <g id="line2d_8">
      <defs>
       <path id="m6a95fe2767" d="M 0 0 
L -3.5 0 
" style="stroke: #000000; stroke-width: 0.8"/>
      </defs>
      <g>
       <use xlink:href="#m6a95fe2767" x="51.223125" y="201.24" style="stroke: #000000; stroke-width: 0.8"/>
      </g>
     </g>
     <g id="text_9">
      <!-- 0.0 -->
      <g transform="translate(28.32 205.039219) scale(0.1 -0.1)">
       <defs>
        <path id="DejaVuSans-2e" d="M 684 794 
L 1344 794 
L 1344 0 
L 684 0 
L 684 794 
z
" transform="scale(0.015625)"/>
       </defs>
       <use xlink:href="#DejaVuSans-30"/>
       <use xlink:href="#DejaVuSans-2e" transform="translate(63.623047 0)"/>
       <use xlink:href="#DejaVuSans-30" transform="translate(95.410156 0)"/>
      </g>
     </g>
    </g>
    <g id="ytick_2">
     <g id="line2d_9">
      <g>
       <use xlink:href="#m6a95fe2767" x="51.223125" y="164.28" style="stroke: #000000; stroke-width: 0.8"/>
      </g>
     </g>
     <g id="text_10">
      <!-- 0.2 -->
      <g transform="translate(28.32 168.079219) scale(0.1 -0.1)">
       <use xlink:href="#DejaVuSans-30"/>
       <use xlink:href="#DejaVuSans-2e" transform="translate(63.623047 0)"/>
       <use xlink:href="#DejaVuSans-32" transform="translate(95.410156 0)"/>
      </g>
     </g>
    </g>
    <g id="ytick_3">
     <g id="line2d_10">
      <g>
       <use xlink:href="#m6a95fe2767" x="51.223125" y="127.32" style="stroke: #000000; stroke-width: 0.8"/>
      </g>
     </g>
     <g id="text_11">
      <!-- 0.4 -->
      <g transform="translate(28.32 131.119219) scale(0.1 -0.1)">
       <defs>
        <path id="DejaVuSans-34" d="M 2419 4116 
L 825 1625 
L 2419 1625 
L 2419 4116 
z
M 2253 4666 
L 3047 4666 
L 3047 1625 
L 3713 1625 
L 3713 1100 
L 3047 1100 
L 3047 0 
L 2419 0 
L 2419 1100 
L 313 1100 
L 313 1709 
L 2253 4666 
z
" transform="scale(0.015625)"/>
       </defs>
       <use xlink:href="#DejaVuSans-30"/>
       <use xlink:href="#DejaVuSans-2e" transform="translate(63.623047 0)"/>
       <use xlink:href="#DejaVuSans-34" transform="translate(95.410156 0)"/>
      </g>
     </g>
    </g>
    <g id="ytick_4">
     <g id="line2d_11">
      <g>
       <use xlink:href="#m6a95fe2767" x="51.223125" y="90.36" style="stroke: #000000; stroke-width: 0.8"/>
      </g>
     </g>
     <g id="text_12">
      <!-- 0.6 -->
      <g transform="translate(28.32 94.159219) scale(0.1 -0.1)">
       <defs>
        <path id="DejaVuSans-36" d="M 2113 2584 
Q 1688 2584 1439 2293 
Q 1191 2003 1191 1497 
Q 1191 994 1439 701 
Q 1688 409 2113 409 
Q 2538 409 2786 701 
Q 3034 994 3034 1497 
Q 3034 2003 2786 2293 
Q 2538 2584 2113 2584 
z
M 3366 4563 
L 3366 3988 
Q 3128 4100 2886 4159 
Q 2644 4219 2406 4219 
Q 1781 4219 1451 3797 
Q 1122 3375 1075 2522 
Q 1259 2794 1537 2939 
Q 1816 3084 2150 3084 
Q 2853 3084 3261 2657 
Q 3669 2231 3669 1497 
Q 3669 778 3244 343 
Q 2819 -91 2113 -91 
Q 1303 -91 875 529 
Q 447 1150 447 2328 
Q 447 3434 972 4092 
Q 1497 4750 2381 4750 
Q 2619 4750 2861 4703 
Q 3103 4656 3366 4563 
z
" transform="scale(0.015625)"/>
       </defs>
       <use xlink:href="#DejaVuSans-30"/>
       <use xlink:href="#DejaVuSans-2e" transform="translate(63.623047 0)"/>
       <use xlink:href="#DejaVuSans-36" transform="translate(95.410156 0)"/>
      </g>
     </g>
    </g>
    <g id="ytick_5">
     <g id="line2d_12">
      <g>
       <use xlink:href="#m6a95fe2767" x="51.223125" y="53.4" style="stroke: #000000; stroke-width: 0.8"/>
      </g>
     </g>
     <g id="text_13">
      <!-- 0.8 -->
      <g transform="translate(28.32 57.199219) scale(0.1 -0.1)">
       <defs>
        <path id="DejaVuSans-38" d="M 2034 2216 
Q 1584 2216 1326 1975 
Q 1069 1734 1069 1313 
Q 1069 891 1326 650 
Q 1584 409 2034 409 
Q 2484 409 2743 651 
Q 3003 894 3003 1313 
Q 3003 1734 2745 1975 
Q 2488 2216 2034 2216 
z
M 1403 2484 
Q 997 2584 770 2862 
Q 544 3141 544 3541 
Q 544 4100 942 4425 
Q 1341 4750 2034 4750 
Q 2731 4750 3128 4425 
Q 3525 4100 3525 3541 
Q 3525 3141 3298 2862 
Q 3072 2584 2669 2484 
Q 3125 2378 3379 2068 
Q 3634 1759 3634 1313 
Q 3634 634 3220 271 
Q 2806 -91 2034 -91 
Q 1263 -91 848 271 
Q 434 634 434 1313 
Q 434 1759 690 2068 
Q 947 2378 1403 2484 
z
M 1172 3481 
Q 1172 3119 1398 2916 
Q 1625 2713 2034 2713 
Q 2441 2713 2670 2916 
Q 2900 3119 2900 3481 
Q 2900 3844 2670 4047 
Q 2441 4250 2034 4250 
Q 1625 4250 1398 4047 
Q 1172 3844 1172 3481 
z
" transform="scale(0.015625)"/>
       </defs>
       <use xlink:href="#DejaVuSans-30"/>
       <use xlink:href="#DejaVuSans-2e" transform="translate(63.623047 0)"/>
       <use xlink:href="#DejaVuSans-38" transform="translate(95.410156 0)"/>
      </g>
     </g>
    </g>
    <g id="ytick_6">
     <g id="line2d_13">
      <g>
       <use xlink:href="#m6a95fe2767" x="51.223125" y="16.44" style="stroke: #000000; stroke-width: 0.8"/>
      </g>
     </g>
     <g id="text_14">
      <!-- 1.0 -->
      <g transform="translate(28.32 20.239219) scale(0.1 -0.1)">
       <use xlink:href="#DejaVuSans-31"/>
       <use xlink:href="#DejaVuSans-2e" transform="translate(63.623047 0)"/>
       <use xlink:href="#DejaVuSans-30" transform="translate(95.410156 0)"/>
      </g>
     </g>
    </g>
    <g id="text_15">
     <!-- $\hat{c}$ [-] -->
     <g transform="translate(20.9925 120.3) rotate(-90) scale(0.16 -0.16)">
      <defs>
       <path id="DejaVuSans-Oblique-63" d="M 3431 3366 
L 3316 2797 
Q 3109 2947 2876 3022 
Q 2644 3097 2394 3097 
Q 2119 3097 1870 3000 
Q 1622 2903 1453 2725 
Q 1184 2453 1037 2087 
Q 891 1722 891 1331 
Q 891 859 1127 628 
Q 1363 397 1844 397 
Q 2081 397 2348 469 
Q 2616 541 2906 684 
L 2797 116 
Q 2547 13 2283 -39 
Q 2019 -91 1741 -91 
Q 1044 -91 669 257 
Q 294 606 294 1253 
Q 294 1797 489 2255 
Q 684 2713 1069 3078 
Q 1331 3328 1684 3456 
Q 2038 3584 2456 3584 
Q 2700 3584 2940 3529 
Q 3181 3475 3431 3366 
z
" transform="scale(0.015625)"/>
      </defs>
      <use xlink:href="#DejaVuSans-302" transform="translate(59.323242 13.015625)"/>
      <use xlink:href="#DejaVuSans-Oblique-63" transform="translate(0 0.515625)"/>
      <use xlink:href="#DejaVuSans-20" transform="translate(54.980469 0.515625)"/>
      <use xlink:href="#DejaVuSans-5b" transform="translate(86.767578 0.515625)"/>
      <use xlink:href="#DejaVuSans-2d" transform="translate(125.78125 0.515625)"/>
      <use xlink:href="#DejaVuSans-5d" transform="translate(161.865234 0.515625)"/>
     </g>
    </g>
   </g>
   <g id="line2d_14">
    <path d="M 51.223125 201.24 
L 60.810096 201.128965 
L 70.811582 200.837496 
L 78.921182 200.384048 
L 86.010439 199.768925 
L 92.440725 198.99083 
L 98.413982 198.046358 
L 104.057754 196.930335 
L 109.446439 195.639432 
L 114.654439 194.163967 
L 119.724268 192.49703 
L 124.698439 190.62769 
L 129.608839 188.544897 
L 134.497982 186.228879 
L 139.387125 183.665612 
L 144.297525 180.839276 
L 149.271696 177.718439 
L 154.341525 174.273258 
L 159.549525 170.46263 
L 164.938211 166.240917 
L 170.560725 161.550256 
L 176.512725 156.29128 
L 182.932382 150.317077 
L 190.053525 143.378878 
L 198.396954 134.927326 
L 209.875811 122.953408 
L 230.016954 101.924992 
L 238.838668 93.069925 
L 246.416839 85.772293 
L 253.325411 79.423569 
L 259.819468 73.754231 
L 266.026554 68.627371 
L 272.042325 63.94419 
L 277.930554 59.640034 
L 283.733754 55.671685 
L 289.494439 52.000363 
L 295.244496 48.598324 
L 301.015811 45.44115 
L 306.840268 42.507848 
L 312.749754 39.780776 
L 318.765525 37.249726 
L 324.919468 34.901895 
L 331.254096 32.723664 
L 337.801296 30.708251 
L 344.603582 28.847838 
L 351.714096 27.134778 
L 359.196611 25.562476 
L 367.114896 24.127723 
L 370.080268 23.645308 
L 370.080268 23.645308 
" clip-path="url(#p5a270e99a0)" style="fill: none; stroke: #222222; stroke-width: 7; stroke-linecap: square"/>
    <path d="M 51.223125 201.24 
L 60.810096 201.128965 
L 70.811582 200.837496 
L 78.921182 200.384048 
L 86.010439 199.768925 
L 92.440725 198.99083 
L 98.413982 198.046358 
L 104.057754 196.930335 
L 109.446439 195.639432 
L 114.654439 194.163967 
L 119.724268 192.49703 
L 124.698439 190.62769 
L 129.608839 188.544897 
L 134.497982 186.228879 
L 139.387125 183.665612 
L 144.297525 180.839276 
L 149.271696 177.718439 
L 154.341525 174.273258 
L 159.549525 170.46263 
L 164.938211 166.240917 
L 170.560725 161.550256 
L 176.512725 156.29128 
L 182.932382 150.317077 
L 190.053525 143.378878 
L 198.396954 134.927326 
L 209.875811 122.953408 
L 230.016954 101.924992 
L 238.838668 93.069925 
L 246.416839 85.772293 
L 253.325411 79.423569 
L 259.819468 73.754231 
L 266.026554 68.627371 
L 272.042325 63.94419 
L 277.930554 59.640034 
L 283.733754 55.671685 
L 289.494439 52.000363 
L 295.244496 48.598324 
L 301.015811 45.44115 
L 306.840268 42.507848 
L 312.749754 39.780776 
L 318.765525 37.249726 
L 324.919468 34.901895 
L 331.254096 32.723664 
L 337.801296 30.708251 
L 344.603582 28.847838 
L 351.714096 27.134778 
L 359.196611 25.562476 
L 367.114896 24.127723 
L 370.080268 23.645308 
L 370.080268 23.645308 
" clip-path="url(#p5a270e99a0)" style="fill: none; stroke: #f1eef6; stroke-width: 5; stroke-linecap: square"/>
   </g>
   <g id="line2d_15">
    <path d="M 51.223125 201.24 
L 56.569296 201.128898 
L 61.681639 200.836498 
L 65.858668 200.379975 
L 69.546782 199.756209 
L 72.916039 198.963296 
L 76.083354 197.990958 
L 79.112496 196.829037 
L 82.056611 195.460859 
L 84.947582 193.870558 
L 87.806668 192.042963 
L 90.676382 189.942469 
L 93.567354 187.548658 
L 96.511468 184.819403 
L 99.529982 181.714661 
L 102.654782 178.177021 
L 105.907125 174.154451 
L 109.340154 169.548275 
L 112.996382 164.26314 
L 116.960839 158.132895 
L 121.371696 150.891678 
L 126.515925 142.002503 
L 133.296954 129.806297 
L 149.633068 100.259549 
L 155.244954 90.67566 
L 160.144725 82.737782 
L 164.651239 75.852854 
L 168.892039 69.773321 
L 172.952154 64.33561 
L 176.884725 59.435329 
L 180.732268 54.992565 
L 184.516039 50.959692 
L 188.267925 47.283142 
L 192.009182 43.926534 
L 195.750439 40.866372 
L 199.523582 38.065543 
L 203.349868 35.50116 
L 207.250554 33.154213 
L 211.246896 31.009102 
L 215.370782 29.048376 
L 219.643468 27.263447 
L 224.118096 25.636476 
L 228.826554 24.162914 
L 233.821982 22.834575 
L 239.168154 21.6452 
L 244.960725 20.587207 
L 251.305982 19.657742 
L 258.363354 18.852725 
L 266.366668 18.168643 
L 275.666668 17.603171 
L 286.847925 17.153959 
L 301.015811 16.818084 
L 320.572382 16.592676 
L 352.723811 16.472171 
L 370.080268 16.453456 
L 370.080268 16.453456 
" clip-path="url(#p5a270e99a0)" style="fill: none; stroke: #222222; stroke-width: 7; stroke-linecap: square"/>
    <path d="M 51.223125 201.24 
L 56.569296 201.128898 
L 61.681639 200.836498 
L 65.858668 200.379975 
L 69.546782 199.756209 
L 72.916039 198.963296 
L 76.083354 197.990958 
L 79.112496 196.829037 
L 82.056611 195.460859 
L 84.947582 193.870558 
L 87.806668 192.042963 
L 90.676382 189.942469 
L 93.567354 187.548658 
L 96.511468 184.819403 
L 99.529982 181.714661 
L 102.654782 178.177021 
L 105.907125 174.154451 
L 109.340154 169.548275 
L 112.996382 164.26314 
L 116.960839 158.132895 
L 121.371696 150.891678 
L 126.515925 142.002503 
L 133.296954 129.806297 
L 149.633068 100.259549 
L 155.244954 90.67566 
L 160.144725 82.737782 
L 164.651239 75.852854 
L 168.892039 69.773321 
L 172.952154 64.33561 
L 176.884725 59.435329 
L 180.732268 54.992565 
L 184.516039 50.959692 
L 188.267925 47.283142 
L 192.009182 43.926534 
L 195.750439 40.866372 
L 199.523582 38.065543 
L 203.349868 35.50116 
L 207.250554 33.154213 
L 211.246896 31.009102 
L 215.370782 29.048376 
L 219.643468 27.263447 
L 224.118096 25.636476 
L 228.826554 24.162914 
L 233.821982 22.834575 
L 239.168154 21.6452 
L 244.960725 20.587207 
L 251.305982 19.657742 
L 258.363354 18.852725 
L 266.366668 18.168643 
L 275.666668 17.603171 
L 286.847925 17.153959 
L 301.015811 16.818084 
L 320.572382 16.592676 
L 352.723811 16.472171 
L 370.080268 16.453456 
L 370.080268 16.453456 
" clip-path="url(#p5a270e99a0)" style="fill: none; stroke: #d7b5d8; stroke-width: 5; stroke-linecap: square"/>
   </g>
   <g id="line2d_16">
    <path d="M 51.223125 201.24 
L 53.083125 201.129832 
L 54.135354 200.836454 
L 55.028154 200.35571 
L 55.857182 199.650645 
L 56.675582 198.651906 
L 57.515239 197.259607 
L 58.397411 195.342154 
L 59.332725 192.75031 
L 60.342439 189.264712 
L 61.447811 184.606275 
L 62.670096 178.441676 
L 64.051811 170.272912 
L 65.677982 159.251165 
L 67.761182 143.491519 
L 75.615696 82.489579 
L 77.550096 70.030113 
L 79.303811 60.129483 
L 80.940611 52.116524 
L 82.503011 45.543347 
L 84.001639 40.166494 
L 85.457754 35.740738 
L 86.892611 32.072664 
L 88.306211 29.055036 
L 89.709182 26.571287 
L 91.122782 24.513024 
L 92.557639 22.812126 
L 94.024382 21.412932 
L 95.565525 20.248251 
L 97.212954 19.283526 
L 99.009182 18.491936 
L 101.028611 17.848851 
L 103.388154 17.337372 
L 106.268496 16.949133 
L 110.062896 16.675292 
L 115.727925 16.510781 
L 127.238668 16.445272 
L 221.779811 16.44 
L 370.080268 16.44 
L 370.080268 16.44 
" clip-path="url(#p5a270e99a0)" style="fill: none; stroke: #222222; stroke-width: 7; stroke-linecap: square"/>
    <path d="M 51.223125 201.24 
L 53.083125 201.129832 
L 54.135354 200.836454 
L 55.028154 200.35571 
L 55.857182 199.650645 
L 56.675582 198.651906 
L 57.515239 197.259607 
L 58.397411 195.342154 
L 59.332725 192.75031 
L 60.342439 189.264712 
L 61.447811 184.606275 
L 62.670096 178.441676 
L 64.051811 170.272912 
L 65.677982 159.251165 
L 67.761182 143.491519 
L 75.615696 82.489579 
L 77.550096 70.030113 
L 79.303811 60.129483 
L 80.940611 52.116524 
L 82.503011 45.543347 
L 84.001639 40.166494 
L 85.457754 35.740738 
L 86.892611 32.072664 
L 88.306211 29.055036 
L 89.709182 26.571287 
L 91.122782 24.513024 
L 92.557639 22.812126 
L 94.024382 21.412932 
L 95.565525 20.248251 
L 97.212954 19.283526 
L 99.009182 18.491936 
L 101.028611 17.848851 
L 103.388154 17.337372 
L 106.268496 16.949133 
L 110.062896 16.675292 
L 115.727925 16.510781 
L 127.238668 16.445272 
L 221.779811 16.44 
L 370.080268 16.44 
L 370.080268 16.44 
" clip-path="url(#p5a270e99a0)" style="fill: none; stroke: #df65b0; stroke-width: 5; stroke-linecap: square"/>
   </g>
   <g id="line2d_17">
    <path d="M 51.223125 201.24 
L 52.636725 201.131517 
L 53.178782 200.833687 
L 53.667696 200.29876 
L 54.156611 199.413884 
L 54.677411 197.983245 
L 55.251354 195.707479 
L 55.889068 192.196965 
L 56.601182 186.953543 
L 57.419582 179.176219 
L 58.397411 167.606855 
L 59.651582 149.903641 
L 62.234325 109.293702 
L 64.062439 82.614279 
L 65.433525 65.720394 
L 66.645182 53.416846 
L 67.761182 44.241783 
L 68.824039 37.268132 
L 69.844382 31.993206 
L 70.832839 28.009238 
L 71.800039 25.000015 
L 72.756611 22.726462 
L 73.713182 21.010138 
L 74.680382 19.718366 
L 75.690096 18.734595 
L 76.774211 17.987584 
L 77.985868 17.424109 
L 79.431354 17.00418 
L 81.280725 16.710274 
L 83.959125 16.529084 
L 89.018325 16.449663 
L 116.631354 16.44 
L 370.080268 16.44 
L 370.080268 16.44 
" clip-path="url(#p5a270e99a0)" style="fill: none; stroke: #222222; stroke-width: 7; stroke-linecap: square"/>
    <path d="M 51.223125 201.24 
L 52.636725 201.131517 
L 53.178782 200.833687 
L 53.667696 200.29876 
L 54.156611 199.413884 
L 54.677411 197.983245 
L 55.251354 195.707479 
L 55.889068 192.196965 
L 56.601182 186.953543 
L 57.419582 179.176219 
L 58.397411 167.606855 
L 59.651582 149.903641 
L 62.234325 109.293702 
L 64.062439 82.614279 
L 65.433525 65.720394 
L 66.645182 53.416846 
L 67.761182 44.241783 
L 68.824039 37.268132 
L 69.844382 31.993206 
L 70.832839 28.009238 
L 71.800039 25.000015 
L 72.756611 22.726462 
L 73.713182 21.010138 
L 74.680382 19.718366 
L 75.690096 18.734595 
L 76.774211 17.987584 
L 77.985868 17.424109 
L 79.431354 17.00418 
L 81.280725 16.710274 
L 83.959125 16.529084 
L 89.018325 16.449663 
L 116.631354 16.44 
L 370.080268 16.44 
L 370.080268 16.44 
" clip-path="url(#p5a270e99a0)" style="fill: none; stroke: #dd1c77; stroke-width: 5; stroke-linecap: square"/>
   </g>
   <g id="patch_3">
    <path d="M 51.223125 201.24 
L 51.223125 7.2 
" style="fill: none; stroke: #000000; stroke-width: 0.8; stroke-linejoin: miter; stroke-linecap: square"/>
   </g>
   <g id="patch_4">
    <path d="M 386.023125 201.24 
L 386.023125 7.2 
" style="fill: none; stroke: #000000; stroke-width: 0.8; stroke-linejoin: miter; stroke-linecap: square"/>
   </g>
   <g id="patch_5">
    <path d="M 51.223125 201.24 
L 386.023125 201.24 
" style="fill: none; stroke: #000000; stroke-width: 0.8; stroke-linejoin: miter; stroke-linecap: square"/>
   </g>
   <g id="patch_6">
    <path d="M 51.223125 7.2 
L 386.023125 7.2 
" style="fill: none; stroke: #000000; stroke-width: 0.8; stroke-linejoin: miter; stroke-linecap: square"/>
   </g>
   <g id="text_16">
    <g id="patch_7">
     <path d="M 301.927125 105.003563 
L 383.287125 105.003563 
L 383.287125 72.032438 
L 301.927125 72.032438 
z
" style="fill: #ffffff; stroke: #000000; stroke-linejoin: miter"/>
    </g>
    <!-- $\kappa=0.001$ -->
    <g transform="translate(323.167125 85.110562) scale(0.12 -0.12)">
     <defs>
      <path id="DejaVuSans-Oblique-3ba" d="M 938 3500 
L 1531 3500 
L 1247 2047 
L 3041 3500 
L 3741 3500 
L 2106 2181 
L 3275 0 
L 2572 0 
L 1628 1806 
L 1122 1403 
L 850 0 
L 256 0 
L 938 3500 
z
" transform="scale(0.015625)"/>
      <path id="DejaVuSans-3d" d="M 678 2906 
L 4684 2906 
L 4684 2381 
L 678 2381 
L 678 2906 
z
M 678 1631 
L 4684 1631 
L 4684 1100 
L 678 1100 
L 678 1631 
z
" transform="scale(0.015625)"/>
     </defs>
     <use xlink:href="#DejaVuSans-Oblique-3ba" transform="translate(0 0.78125)"/>
     <use xlink:href="#DejaVuSans-3d" transform="translate(78.417969 0.78125)"/>
     <use xlink:href="#DejaVuSans-30" transform="translate(181.689453 0.78125)"/>
     <use xlink:href="#DejaVuSans-2e" transform="translate(245.3125 0.78125)"/>
     <use xlink:href="#DejaVuSans-30" transform="translate(277.099609 0.78125)"/>
     <use xlink:href="#DejaVuSans-30" transform="translate(340.722656 0.78125)"/>
     <use xlink:href="#DejaVuSans-31" transform="translate(404.345703 0.78125)"/>
    </g>
    <!-- $\mathsf{Da}_{ads}=10.0$ -->
    <g transform="translate(305.887125 98.547937) scale(0.12 -0.12)">
     <defs>
      <path id="DejaVuSans-44" d="M 1259 4147 
L 1259 519 
L 2022 519 
Q 2988 519 3436 956 
Q 3884 1394 3884 2338 
Q 3884 3275 3436 3711 
Q 2988 4147 2022 4147 
L 1259 4147 
z
M 628 4666 
L 1925 4666 
Q 3281 4666 3915 4102 
Q 4550 3538 4550 2338 
Q 4550 1131 3912 565 
Q 3275 0 1925 0 
L 628 0 
L 628 4666 
z
" transform="scale(0.015625)"/>
      <path id="DejaVuSans-61" d="M 2194 1759 
Q 1497 1759 1228 1600 
Q 959 1441 959 1056 
Q 959 750 1161 570 
Q 1363 391 1709 391 
Q 2188 391 2477 730 
Q 2766 1069 2766 1631 
L 2766 1759 
L 2194 1759 
z
M 3341 1997 
L 3341 0 
L 2766 0 
L 2766 531 
Q 2569 213 2275 61 
Q 1981 -91 1556 -91 
Q 1019 -91 701 211 
Q 384 513 384 1019 
Q 384 1609 779 1909 
Q 1175 2209 1959 2209 
L 2766 2209 
L 2766 2266 
Q 2766 2663 2505 2880 
Q 2244 3097 1772 3097 
Q 1472 3097 1187 3025 
Q 903 2953 641 2809 
L 641 3341 
Q 956 3463 1253 3523 
Q 1550 3584 1831 3584 
Q 2591 3584 2966 3190 
Q 3341 2797 3341 1997 
z
" transform="scale(0.015625)"/>
      <path id="DejaVuSans-Oblique-61" d="M 3438 1997 
L 3047 0 
L 2472 0 
L 2578 531 
Q 2325 219 2001 64 
Q 1678 -91 1281 -91 
Q 834 -91 548 182 
Q 263 456 263 884 
Q 263 1497 752 1853 
Q 1241 2209 2100 2209 
L 2900 2209 
L 2931 2363 
Q 2938 2388 2941 2417 
Q 2944 2447 2944 2509 
Q 2944 2788 2717 2942 
Q 2491 3097 2081 3097 
Q 1800 3097 1504 3025 
Q 1209 2953 897 2809 
L 997 3341 
Q 1322 3463 1633 3523 
Q 1944 3584 2234 3584 
Q 2853 3584 3176 3315 
Q 3500 3047 3500 2534 
Q 3500 2431 3484 2292 
Q 3469 2153 3438 1997 
z
M 2816 1759 
L 2241 1759 
Q 1534 1759 1195 1570 
Q 856 1381 856 984 
Q 856 709 1029 553 
Q 1203 397 1509 397 
Q 1978 397 2328 733 
Q 2678 1069 2791 1631 
L 2816 1759 
z
" transform="scale(0.015625)"/>
      <path id="DejaVuSans-Oblique-64" d="M 2675 525 
Q 2444 222 2128 65 
Q 1813 -91 1428 -91 
Q 903 -91 598 267 
Q 294 625 294 1247 
Q 294 1766 478 2236 
Q 663 2706 1013 3078 
Q 1244 3325 1534 3454 
Q 1825 3584 2144 3584 
Q 2481 3584 2739 3421 
Q 2997 3259 3138 2956 
L 3513 4863 
L 4091 4863 
L 3144 0 
L 2566 0 
L 2675 525 
z
M 891 1350 
Q 891 897 1095 644 
Q 1300 391 1663 391 
Q 1931 391 2161 520 
Q 2391 650 2566 903 
Q 2750 1166 2856 1509 
Q 2963 1853 2963 2188 
Q 2963 2622 2758 2865 
Q 2553 3109 2194 3109 
Q 1922 3109 1687 2981 
Q 1453 2853 1288 2613 
Q 1106 2353 998 2009 
Q 891 1666 891 1350 
z
" transform="scale(0.015625)"/>
      <path id="DejaVuSans-Oblique-73" d="M 3200 3397 
L 3091 2853 
Q 2863 2978 2609 3040 
Q 2356 3103 2088 3103 
Q 1634 3103 1373 2948 
Q 1113 2794 1113 2528 
Q 1113 2219 1719 2053 
Q 1766 2041 1788 2034 
L 1972 1978 
Q 2547 1819 2739 1644 
Q 2931 1469 2931 1166 
Q 2931 609 2489 259 
Q 2047 -91 1331 -91 
Q 1053 -91 747 -37 
Q 441 16 72 128 
L 184 722 
Q 500 559 806 475 
Q 1113 391 1394 391 
Q 1816 391 2080 572 
Q 2344 753 2344 1031 
Q 2344 1331 1650 1516 
L 1591 1531 
L 1394 1581 
Q 956 1697 753 1886 
Q 550 2075 550 2369 
Q 550 2928 970 3256 
Q 1391 3584 2113 3584 
Q 2397 3584 2667 3537 
Q 2938 3491 3200 3397 
z
" transform="scale(0.015625)"/>
     </defs>
     <use xlink:href="#DejaVuSans-44" transform="translate(0 0.78125)"/>
     <use xlink:href="#DejaVuSans-61" transform="translate(77.001953 0.78125)"/>
     <use xlink:href="#DejaVuSans-Oblique-61" transform="translate(139.238281 -15.625) scale(0.7)"/>
     <use xlink:href="#DejaVuSans-Oblique-64" transform="translate(182.133789 -15.625) scale(0.7)"/>
     <use xlink:href="#DejaVuSans-Oblique-73" transform="translate(226.567383 -15.625) scale(0.7)"/>
     <use xlink:href="#DejaVuSans-3d" transform="translate(285.253906 0.78125)"/>
     <use xlink:href="#DejaVuSans-31" transform="translate(388.525391 0.78125)"/>
     <use xlink:href="#DejaVuSans-30" transform="translate(452.148438 0.78125)"/>
     <use xlink:href="#DejaVuSans-2e" transform="translate(515.771484 0.78125)"/>
     <use xlink:href="#DejaVuSans-30" transform="translate(547.558594 0.78125)"/>
    </g>
   </g>
   <g id="legend_1">
    <g id="patch_8">
     <path d="M 285.823125 196.24 
L 379.023125 196.24 
Q 381.023125 196.24 381.023125 194.24 
L 381.023125 136.5275 
Q 381.023125 134.5275 379.023125 134.5275 
L 285.823125 134.5275 
Q 283.823125 134.5275 283.823125 136.5275 
L 283.823125 194.24 
Q 283.823125 196.24 285.823125 196.24 
z
" style="fill: #ffffff; opacity: 0.8; stroke: #cccccc; stroke-linejoin: miter"/>
    </g>
    <g id="line2d_18">
     <path d="M 287.823125 142.625937 
L 297.823125 142.625937 
L 307.823125 142.625937 
" style="fill: none; stroke: #222222; stroke-width: 7; stroke-linecap: square"/>
     <path d="M 287.823125 142.625937 
L 297.823125 142.625937 
L 307.823125 142.625937 
" style="fill: none; stroke: #f1eef6; stroke-width: 5; stroke-linecap: square"/>
    </g>
    <g id="text_17">
     <!-- $\mathsf{Da}_{des}=0.05$ -->
     <g transform="translate(315.823125 146.125937) scale(0.1 -0.1)">
      <defs>
       <path id="DejaVuSans-Oblique-65" d="M 3078 2063 
Q 3088 2113 3092 2166 
Q 3097 2219 3097 2272 
Q 3097 2653 2873 2875 
Q 2650 3097 2266 3097 
Q 1838 3097 1509 2826 
Q 1181 2556 1013 2059 
L 3078 2063 
z
M 3578 1613 
L 903 1613 
Q 884 1494 878 1425 
Q 872 1356 872 1306 
Q 872 872 1139 634 
Q 1406 397 1894 397 
Q 2269 397 2603 481 
Q 2938 566 3225 728 
L 3116 159 
Q 2806 34 2476 -28 
Q 2147 -91 1806 -91 
Q 1078 -91 686 257 
Q 294 606 294 1247 
Q 294 1794 489 2264 
Q 684 2734 1063 3103 
Q 1306 3334 1642 3459 
Q 1978 3584 2356 3584 
Q 2950 3584 3301 3228 
Q 3653 2872 3653 2272 
Q 3653 2128 3634 1964 
Q 3616 1800 3578 1613 
z
" transform="scale(0.015625)"/>
      </defs>
      <use xlink:href="#DejaVuSans-44" transform="translate(0 0.78125)"/>
      <use xlink:href="#DejaVuSans-61" transform="translate(77.001953 0.78125)"/>
      <use xlink:href="#DejaVuSans-Oblique-64" transform="translate(139.238281 -15.625) scale(0.7)"/>
      <use xlink:href="#DejaVuSans-Oblique-65" transform="translate(183.671875 -15.625) scale(0.7)"/>
      <use xlink:href="#DejaVuSans-Oblique-73" transform="translate(226.738281 -15.625) scale(0.7)"/>
      <use xlink:href="#DejaVuSans-3d" transform="translate(285.424805 0.78125)"/>
      <use xlink:href="#DejaVuSans-30" transform="translate(388.696289 0.78125)"/>
      <use xlink:href="#DejaVuSans-2e" transform="translate(452.319336 0.78125)"/>
      <use xlink:href="#DejaVuSans-30" transform="translate(484.106445 0.78125)"/>
      <use xlink:href="#DejaVuSans-35" transform="translate(547.729492 0.78125)"/>
     </g>
    </g>
    <g id="line2d_19">
     <path d="M 287.823125 157.304062 
L 297.823125 157.304062 
L 307.823125 157.304062 
" style="fill: none; stroke: #222222; stroke-width: 7; stroke-linecap: square"/>
     <path d="M 287.823125 157.304062 
L 297.823125 157.304062 
L 307.823125 157.304062 
" style="fill: none; stroke: #d7b5d8; stroke-width: 5; stroke-linecap: square"/>
    </g>
    <g id="text_18">
     <!-- $\mathsf{Da}_{des}=0.10$ -->
     <g transform="translate(315.823125 160.804062) scale(0.1 -0.1)">
      <use xlink:href="#DejaVuSans-44" transform="translate(0 0.78125)"/>
      <use xlink:href="#DejaVuSans-61" transform="translate(77.001953 0.78125)"/>
      <use xlink:href="#DejaVuSans-Oblique-64" transform="translate(139.238281 -15.625) scale(0.7)"/>
      <use xlink:href="#DejaVuSans-Oblique-65" transform="translate(183.671875 -15.625) scale(0.7)"/>
      <use xlink:href="#DejaVuSans-Oblique-73" transform="translate(226.738281 -15.625) scale(0.7)"/>
      <use xlink:href="#DejaVuSans-3d" transform="translate(285.424805 0.78125)"/>
      <use xlink:href="#DejaVuSans-30" transform="translate(388.696289 0.78125)"/>
      <use xlink:href="#DejaVuSans-2e" transform="translate(452.319336 0.78125)"/>
      <use xlink:href="#DejaVuSans-31" transform="translate(484.106445 0.78125)"/>
      <use xlink:href="#DejaVuSans-30" transform="translate(547.729492 0.78125)"/>
     </g>
    </g>
    <g id="line2d_20">
     <path d="M 287.823125 171.982188 
L 297.823125 171.982188 
L 307.823125 171.982188 
" style="fill: none; stroke: #222222; stroke-width: 7; stroke-linecap: square"/>
     <path d="M 287.823125 171.982188 
L 297.823125 171.982188 
L 307.823125 171.982188 
" style="fill: none; stroke: #df65b0; stroke-width: 5; stroke-linecap: square"/>
    </g>
    <g id="text_19">
     <!-- $\mathsf{Da}_{des}=0.50$ -->
     <g transform="translate(315.823125 175.482188) scale(0.1 -0.1)">
      <use xlink:href="#DejaVuSans-44" transform="translate(0 0.78125)"/>
      <use xlink:href="#DejaVuSans-61" transform="translate(77.001953 0.78125)"/>
      <use xlink:href="#DejaVuSans-Oblique-64" transform="translate(139.238281 -15.625) scale(0.7)"/>
      <use xlink:href="#DejaVuSans-Oblique-65" transform="translate(183.671875 -15.625) scale(0.7)"/>
      <use xlink:href="#DejaVuSans-Oblique-73" transform="translate(226.738281 -15.625) scale(0.7)"/>
      <use xlink:href="#DejaVuSans-3d" transform="translate(285.424805 0.78125)"/>
      <use xlink:href="#DejaVuSans-30" transform="translate(388.696289 0.78125)"/>
      <use xlink:href="#DejaVuSans-2e" transform="translate(452.319336 0.78125)"/>
      <use xlink:href="#DejaVuSans-35" transform="translate(484.106445 0.78125)"/>
      <use xlink:href="#DejaVuSans-30" transform="translate(547.729492 0.78125)"/>
     </g>
    </g>
    <g id="line2d_21">
     <path d="M 287.823125 186.660313 
L 297.823125 186.660313 
L 307.823125 186.660313 
" style="fill: none; stroke: #222222; stroke-width: 7; stroke-linecap: square"/>
     <path d="M 287.823125 186.660313 
L 297.823125 186.660313 
L 307.823125 186.660313 
" style="fill: none; stroke: #dd1c77; stroke-width: 5; stroke-linecap: square"/>
    </g>
    <g id="text_20">
     <!-- $\mathsf{Da}_{des}=1.00$ -->
     <g transform="translate(315.823125 190.160313) scale(0.1 -0.1)">
      <use xlink:href="#DejaVuSans-44" transform="translate(0 0.78125)"/>
      <use xlink:href="#DejaVuSans-61" transform="translate(77.001953 0.78125)"/>
      <use xlink:href="#DejaVuSans-Oblique-64" transform="translate(139.238281 -15.625) scale(0.7)"/>
      <use xlink:href="#DejaVuSans-Oblique-65" transform="translate(183.671875 -15.625) scale(0.7)"/>
      <use xlink:href="#DejaVuSans-Oblique-73" transform="translate(226.738281 -15.625) scale(0.7)"/>
      <use xlink:href="#DejaVuSans-3d" transform="translate(285.424805 0.78125)"/>
      <use xlink:href="#DejaVuSans-31" transform="translate(388.696289 0.78125)"/>
      <use xlink:href="#DejaVuSans-2e" transform="translate(452.319336 0.78125)"/>
      <use xlink:href="#DejaVuSans-30" transform="translate(484.106445 0.78125)"/>
      <use xlink:href="#DejaVuSans-30" transform="translate(547.729492 0.78125)"/>
     </g>
    </g>
   </g>
  </g>
 </g>
 <defs>
  <clipPath id="p5a270e99a0">
   <rect x="51.223125" y="7.2" width="334.8" height="194.04"/>
  </clipPath>
 </defs>
</svg>
