<?xml version="1.0" encoding="utf-8" standalone="no"?>
<!DOCTYPE svg PUBLIC "-//W3C//DTD SVG 1.1//EN"
  "http://www.w3.org/Graphics/SVG/1.1/DTD/svg11.dtd">
<svg xmlns:xlink="http://www.w3.org/1999/xlink" width="393.223125pt" height="248.478125pt" viewBox="0 0 393.223125 248.478125" xmlns="http://www.w3.org/2000/svg" version="1.1">
 <metadata>
  <rdf:RDF xmlns:dc="http://purl.org/dc/elements/1.1/" xmlns:cc="http://creativecommons.org/ns#" xmlns:rdf="http://www.w3.org/1999/02/22-rdf-syntax-ns#">
   <cc:Work>
    <dc:type rdf:resource="http://purl.org/dc/dcmitype/StillImage"/>
    <dc:date>2025-06-20T09:09:32.976596</dc:date>
    <dc:format>image/svg+xml</dc:format>
    <dc:creator>
     <cc:Agent>
      <dc:title>Matplotlib v3.10.1, https://matplotlib.org/</dc:title>
     </cc:Agent>
    </dc:creator>
   </cc:Work>
  </rdf:RDF>
 </metadata>
 <defs>
  <style type="text/css">*{stroke-linejoin: round; stroke-linecap: butt}</style>
 </defs>
 <g id="figure_1">
  <g id="patch_1">
   <path d="M 0 248.478125 
L 393.223125 248.478125 
L 393.223125 0 
L 0 0 
L 0 248.478125 
z
" style="fill: none"/>
  </g>
  <g id="axes_1">
   <g id="patch_2">
    <path d="M 51.223125 201.24 
L 386.023125 201.24 
L 386.023125 7.2 
L 51.223125 7.2 
z
" style="fill: #ffffff; fill-opacity: 0.501961"/>
   </g>
   <g id="matplotlib.axis_1">
    <g id="xtick_1">
     <g id="line2d_1">
      <defs>
       <path id="m9403a35a8d" d="M 0 0 
L 0 3.5 
" style="stroke: #000000; stroke-width: 0.8"/>
      </defs>
      <g>
       <use xlink:href="#m9403a35a8d" x="51.223125" y="201.24" style="stroke: #000000; stroke-width: 0.8"/>
      </g>
     </g>
     <g id="text_1">
      <!-- 0 -->
      <g transform="translate(48.041875 215.838437) scale(0.1 -0.1)">
       <defs>
        <path id="DejaVuSans-30" d="M 2034 4250 
Q 1547 4250 1301 3770 
Q 1056 3291 1056 2328 
Q 1056 1369 1301 889 
Q 1547 409 2034 409 
Q 2525 409 2770 889 
Q 3016 1369 3016 2328 
Q 3016 3291 2770 3770 
Q 2525 4250 2034 4250 
z
M 2034 4750 
Q 2819 4750 3233 4129 
Q 3647 3509 3647 2328 
Q 3647 1150 3233 529 
Q 2819 -91 2034 -91 
Q 1250 -91 836 529 
Q 422 1150 422 2328 
Q 422 3509 836 4129 
Q 1250 4750 2034 4750 
z
" transform="scale(0.015625)"/>
       </defs>
       <use xlink:href="#DejaVuSans-30"/>
      </g>
     </g>
    </g>
    <g id="xtick_2">
     <g id="line2d_2">
      <g>
       <use xlink:href="#m9403a35a8d" x="115.60774" y="201.24" style="stroke: #000000; stroke-width: 0.8"/>
      </g>
     </g>
     <g id="text_2">
      <!-- 50 -->
      <g transform="translate(109.24524 215.838437) scale(0.1 -0.1)">
       <defs>
        <path id="DejaVuSans-35" d="M 691 4666 
L 3169 4666 
L 3169 4134 
L 1269 4134 
L 1269 2991 
Q 1406 3038 1543 3061 
Q 1681 3084 1819 3084 
Q 2600 3084 3056 2656 
Q 3513 2228 3513 1497 
Q 3513 744 3044 326 
Q 2575 -91 1722 -91 
Q 1428 -91 1123 -41 
Q 819 9 494 109 
L 494 744 
Q 775 591 1075 516 
Q 1375 441 1709 441 
Q 2250 441 2565 725 
Q 2881 1009 2881 1497 
Q 2881 1984 2565 2268 
Q 2250 2553 1709 2553 
Q 1456 2553 1204 2497 
Q 953 2441 691 2322 
L 691 4666 
z
" transform="scale(0.015625)"/>
       </defs>
       <use xlink:href="#DejaVuSans-35"/>
       <use xlink:href="#DejaVuSans-30" transform="translate(63.623047 0)"/>
      </g>
     </g>
    </g>
    <g id="xtick_3">
     <g id="line2d_3">
      <g>
       <use xlink:href="#m9403a35a8d" x="179.992356" y="201.24" style="stroke: #000000; stroke-width: 0.8"/>
      </g>
     </g>
     <g id="text_3">
      <!-- 100 -->
      <g transform="translate(170.448606 215.838437) scale(0.1 -0.1)">
       <defs>
        <path id="DejaVuSans-31" d="M 794 531 
L 1825 531 
L 1825 4091 
L 703 3866 
L 703 4441 
L 1819 4666 
L 2450 4666 
L 2450 531 
L 3481 531 
L 3481 0 
L 794 0 
L 794 531 
z
" transform="scale(0.015625)"/>
       </defs>
       <use xlink:href="#DejaVuSans-31"/>
       <use xlink:href="#DejaVuSans-30" transform="translate(63.623047 0)"/>
       <use xlink:href="#DejaVuSans-30" transform="translate(127.246094 0)"/>
      </g>
     </g>
    </g>
    <g id="xtick_4">
     <g id="line2d_4">
      <g>
       <use xlink:href="#m9403a35a8d" x="244.376971" y="201.24" style="stroke: #000000; stroke-width: 0.8"/>
      </g>
     </g>
     <g id="text_4">
      <!-- 150 -->
      <g transform="translate(234.833221 215.838437) scale(0.1 -0.1)">
       <use xlink:href="#DejaVuSans-31"/>
       <use xlink:href="#DejaVuSans-35" transform="translate(63.623047 0)"/>
       <use xlink:href="#DejaVuSans-30" transform="translate(127.246094 0)"/>
      </g>
     </g>
    </g>
    <g id="xtick_5">
     <g id="line2d_5">
      <g>
       <use xlink:href="#m9403a35a8d" x="308.761587" y="201.24" style="stroke: #000000; stroke-width: 0.8"/>
      </g>
     </g>
     <g id="text_5">
      <!-- 200 -->
      <g transform="translate(299.217837 215.838437) scale(0.1 -0.1)">
       <defs>
        <path id="DejaVuSans-32" d="M 1228 531 
L 3431 531 
L 3431 0 
L 469 0 
L 469 531 
Q 828 903 1448 1529 
Q 2069 2156 2228 2338 
Q 2531 2678 2651 2914 
Q 2772 3150 2772 3378 
Q 2772 3750 2511 3984 
Q 2250 4219 1831 4219 
Q 1534 4219 1204 4116 
Q 875 4013 500 3803 
L 500 4441 
Q 881 4594 1212 4672 
Q 1544 4750 1819 4750 
Q 2544 4750 2975 4387 
Q 3406 4025 3406 3419 
Q 3406 3131 3298 2873 
Q 3191 2616 2906 2266 
Q 2828 2175 2409 1742 
Q 1991 1309 1228 531 
z
" transform="scale(0.015625)"/>
       </defs>
       <use xlink:href="#DejaVuSans-32"/>
       <use xlink:href="#DejaVuSans-30" transform="translate(63.623047 0)"/>
       <use xlink:href="#DejaVuSans-30" transform="translate(127.246094 0)"/>
      </g>
     </g>
    </g>
    <g id="xtick_6">
     <g id="line2d_6">
      <g>
       <use xlink:href="#m9403a35a8d" x="373.146202" y="201.24" style="stroke: #000000; stroke-width: 0.8"/>
      </g>
     </g>
     <g id="text_6">
      <!-- 250 -->
      <g transform="translate(363.602452 215.838437) scale(0.1 -0.1)">
       <use xlink:href="#DejaVuSans-32"/>
       <use xlink:href="#DejaVuSans-35" transform="translate(63.623047 0)"/>
       <use xlink:href="#DejaVuSans-30" transform="translate(127.246094 0)"/>
      </g>
     </g>
    </g>
    <g id="text_7">
     <!-- $\hat{t}$ [-] -->
     <g transform="translate(203.743125 237.950625) scale(0.16 -0.16)">
      <defs>
       <path id="DejaVuSans-302" d="M -1831 5119 
L -1369 5119 
L -603 3944 
L -1038 3944 
L -1600 4709 
L -2163 3944 
L -2597 3944 
L -1831 5119 
z
M -1600 3584 
L -1600 3584 
z
" transform="scale(0.015625)"/>
       <path id="DejaVuSans-Oblique-74" d="M 2706 3500 
L 2619 3053 
L 1472 3053 
L 1100 1153 
Q 1081 1047 1072 975 
Q 1063 903 1063 863 
Q 1063 663 1183 572 
Q 1303 481 1569 481 
L 2150 481 
L 2053 0 
L 1503 0 
Q 991 0 739 200 
Q 488 400 488 806 
Q 488 878 497 964 
Q 506 1050 525 1153 
L 897 3053 
L 409 3053 
L 500 3500 
L 978 3500 
L 1172 4494 
L 1747 4494 
L 1556 3500 
L 2706 3500 
z
" transform="scale(0.015625)"/>
       <path id="DejaVuSans-20" transform="scale(0.015625)"/>
       <path id="DejaVuSans-5b" d="M 550 4863 
L 1875 4863 
L 1875 4416 
L 1125 4416 
L 1125 -397 
L 1875 -397 
L 1875 -844 
L 550 -844 
L 550 4863 
z
" transform="scale(0.015625)"/>
       <path id="DejaVuSans-2d" d="M 313 2009 
L 1997 2009 
L 1997 1497 
L 313 1497 
L 313 2009 
z
" transform="scale(0.015625)"/>
       <path id="DejaVuSans-5d" d="M 1947 4863 
L 1947 -844 
L 622 -844 
L 622 -397 
L 1369 -397 
L 1369 4416 
L 622 4416 
L 622 4863 
L 1947 4863 
z
" transform="scale(0.015625)"/>
      </defs>
      <use xlink:href="#DejaVuSans-302" transform="translate(49.380371 27.015625)"/>
      <use xlink:href="#DejaVuSans-Oblique-74" transform="translate(0 0.296875)"/>
      <use xlink:href="#DejaVuSans-20" transform="translate(39.208984 0.296875)"/>
      <use xlink:href="#DejaVuSans-5b" transform="translate(70.996094 0.296875)"/>
      <use xlink:href="#DejaVuSans-2d" transform="translate(110.009766 0.296875)"/>
      <use xlink:href="#DejaVuSans-5d" transform="translate(146.09375 0.296875)"/>
     </g>
    </g>
   </g>
   <g id="matplotlib.axis_2">
    <g id="ytick_1">
     <g id="line2d_7">
      <defs>
       <path id="m8956d6e762" d="M 0 0 
L -3.5 0 
" style="stroke: #000000; stroke-width: 0.8"/>
      </defs>
      <g>
       <use xlink:href="#m8956d6e762" x="51.223125" y="201.24" style="stroke: #000000; stroke-width: 0.8"/>
      </g>
     </g>
     <g id="text_8">
      <!-- 0.0 -->
      <g transform="translate(28.32 205.039219) scale(0.1 -0.1)">
       <defs>
        <path id="DejaVuSans-2e" d="M 684 794 
L 1344 794 
L 1344 0 
L 684 0 
L 684 794 
z
" transform="scale(0.015625)"/>
       </defs>
       <use xlink:href="#DejaVuSans-30"/>
       <use xlink:href="#DejaVuSans-2e" transform="translate(63.623047 0)"/>
       <use xlink:href="#DejaVuSans-30" transform="translate(95.410156 0)"/>
      </g>
     </g>
    </g>
    <g id="ytick_2">
     <g id="line2d_8">
      <g>
       <use xlink:href="#m8956d6e762" x="51.223125" y="164.28" style="stroke: #000000; stroke-width: 0.8"/>
      </g>
     </g>
     <g id="text_9">
      <!-- 0.2 -->
      <g transform="translate(28.32 168.079219) scale(0.1 -0.1)">
       <use xlink:href="#DejaVuSans-30"/>
       <use xlink:href="#DejaVuSans-2e" transform="translate(63.623047 0)"/>
       <use xlink:href="#DejaVuSans-32" transform="translate(95.410156 0)"/>
      </g>
     </g>
    </g>
    <g id="ytick_3">
     <g id="line2d_9">
      <g>
       <use xlink:href="#m8956d6e762" x="51.223125" y="127.32" style="stroke: #000000; stroke-width: 0.8"/>
      </g>
     </g>
     <g id="text_10">
      <!-- 0.4 -->
      <g transform="translate(28.32 131.119219) scale(0.1 -0.1)">
       <defs>
        <path id="DejaVuSans-34" d="M 2419 4116 
L 825 1625 
L 2419 1625 
L 2419 4116 
z
M 2253 4666 
L 3047 4666 
L 3047 1625 
L 3713 1625 
L 3713 1100 
L 3047 1100 
L 3047 0 
L 2419 0 
L 2419 1100 
L 313 1100 
L 313 1709 
L 2253 4666 
z
" transform="scale(0.015625)"/>
       </defs>
       <use xlink:href="#DejaVuSans-30"/>
       <use xlink:href="#DejaVuSans-2e" transform="translate(63.623047 0)"/>
       <use xlink:href="#DejaVuSans-34" transform="translate(95.410156 0)"/>
      </g>
     </g>
    </g>
    <g id="ytick_4">
     <g id="line2d_10">
      <g>
       <use xlink:href="#m8956d6e762" x="51.223125" y="90.36" style="stroke: #000000; stroke-width: 0.8"/>
      </g>
     </g>
     <g id="text_11">
      <!-- 0.6 -->
      <g transform="translate(28.32 94.159219) scale(0.1 -0.1)">
       <defs>
        <path id="DejaVuSans-36" d="M 2113 2584 
Q 1688 2584 1439 2293 
Q 1191 2003 1191 1497 
Q 1191 994 1439 701 
Q 1688 409 2113 409 
Q 2538 409 2786 701 
Q 3034 994 3034 1497 
Q 3034 2003 2786 2293 
Q 2538 2584 2113 2584 
z
M 3366 4563 
L 3366 3988 
Q 3128 4100 2886 4159 
Q 2644 4219 2406 4219 
Q 1781 4219 1451 3797 
Q 1122 3375 1075 2522 
Q 1259 2794 1537 2939 
Q 1816 3084 2150 3084 
Q 2853 3084 3261 2657 
Q 3669 2231 3669 1497 
Q 3669 778 3244 343 
Q 2819 -91 2113 -91 
Q 1303 -91 875 529 
Q 447 1150 447 2328 
Q 447 3434 972 4092 
Q 1497 4750 2381 4750 
Q 2619 4750 2861 4703 
Q 3103 4656 3366 4563 
z
" transform="scale(0.015625)"/>
       </defs>
       <use xlink:href="#DejaVuSans-30"/>
       <use xlink:href="#DejaVuSans-2e" transform="translate(63.623047 0)"/>
       <use xlink:href="#DejaVuSans-36" transform="translate(95.410156 0)"/>
      </g>
     </g>
    </g>
    <g id="ytick_5">
     <g id="line2d_11">
      <g>
       <use xlink:href="#m8956d6e762" x="51.223125" y="53.4" style="stroke: #000000; stroke-width: 0.8"/>
      </g>
     </g>
     <g id="text_12">
      <!-- 0.8 -->
      <g transform="translate(28.32 57.199219) scale(0.1 -0.1)">
       <defs>
        <path id="DejaVuSans-38" d="M 2034 2216 
Q 1584 2216 1326 1975 
Q 1069 1734 1069 1313 
Q 1069 891 1326 650 
Q 1584 409 2034 409 
Q 2484 409 2743 651 
Q 3003 894 3003 1313 
Q 3003 1734 2745 1975 
Q 2488 2216 2034 2216 
z
M 1403 2484 
Q 997 2584 770 2862 
Q 544 3141 544 3541 
Q 544 4100 942 4425 
Q 1341 4750 2034 4750 
Q 2731 4750 3128 4425 
Q 3525 4100 3525 3541 
Q 3525 3141 3298 2862 
Q 3072 2584 2669 2484 
Q 3125 2378 3379 2068 
Q 3634 1759 3634 1313 
Q 3634 634 3220 271 
Q 2806 -91 2034 -91 
Q 1263 -91 848 271 
Q 434 634 434 1313 
Q 434 1759 690 2068 
Q 947 2378 1403 2484 
z
M 1172 3481 
Q 1172 3119 1398 2916 
Q 1625 2713 2034 2713 
Q 2441 2713 2670 2916 
Q 2900 3119 2900 3481 
Q 2900 3844 2670 4047 
Q 2441 4250 2034 4250 
Q 1625 4250 1398 4047 
Q 1172 3844 1172 3481 
z
" transform="scale(0.015625)"/>
       </defs>
       <use xlink:href="#DejaVuSans-30"/>
       <use xlink:href="#DejaVuSans-2e" transform="translate(63.623047 0)"/>
       <use xlink:href="#DejaVuSans-38" transform="translate(95.410156 0)"/>
      </g>
     </g>
    </g>
    <g id="ytick_6">
     <g id="line2d_12">
      <g>
       <use xlink:href="#m8956d6e762" x="51.223125" y="16.44" style="stroke: #000000; stroke-width: 0.8"/>
      </g>
     </g>
     <g id="text_13">
      <!-- 1.0 -->
      <g transform="translate(28.32 20.239219) scale(0.1 -0.1)">
       <use xlink:href="#DejaVuSans-31"/>
       <use xlink:href="#DejaVuSans-2e" transform="translate(63.623047 0)"/>
       <use xlink:href="#DejaVuSans-30" transform="translate(95.410156 0)"/>
      </g>
     </g>
    </g>
    <g id="text_14">
     <!-- $\hat{c}$ [-] -->
     <g transform="translate(20.9925 120.3) rotate(-90) scale(0.16 -0.16)">
      <defs>
       <path id="DejaVuSans-Oblique-63" d="M 3431 3366 
L 3316 2797 
Q 3109 2947 2876 3022 
Q 2644 3097 2394 3097 
Q 2119 3097 1870 3000 
Q 1622 2903 1453 2725 
Q 1184 2453 1037 2087 
Q 891 1722 891 1331 
Q 891 859 1127 628 
Q 1363 397 1844 397 
Q 2081 397 2348 469 
Q 2616 541 2906 684 
L 2797 116 
Q 2547 13 2283 -39 
Q 2019 -91 1741 -91 
Q 1044 -91 669 257 
Q 294 606 294 1253 
Q 294 1797 489 2255 
Q 684 2713 1069 3078 
Q 1331 3328 1684 3456 
Q 2038 3584 2456 3584 
Q 2700 3584 2940 3529 
Q 3181 3475 3431 3366 
z
" transform="scale(0.015625)"/>
      </defs>
      <use xlink:href="#DejaVuSans-302" transform="translate(59.323242 13.015625)"/>
      <use xlink:href="#DejaVuSans-Oblique-63" transform="translate(0 0.515625)"/>
      <use xlink:href="#DejaVuSans-20" transform="translate(54.980469 0.515625)"/>
      <use xlink:href="#DejaVuSans-5b" transform="translate(86.767578 0.515625)"/>
      <use xlink:href="#DejaVuSans-2d" transform="translate(125.78125 0.515625)"/>
      <use xlink:href="#DejaVuSans-5d" transform="translate(161.865234 0.515625)"/>
     </g>
    </g>
   </g>
   <g id="line2d_13">
    <path d="M 51.223125 201.24 
L 54.442356 201.129071 
L 55.884571 200.880232 
L 56.81171 200.505167 
L 57.532817 199.97532 
L 58.15091 199.238761 
L 58.717494 198.206084 
L 59.258325 196.745836 
L 59.799156 194.6149 
L 60.339987 191.533415 
L 60.880817 187.135008 
L 61.447402 180.626027 
L 62.03974 171.143494 
L 62.683587 157.128449 
L 63.456202 135.098304 
L 66.263371 49.055846 
L 66.958725 37.075759 
L 67.602571 29.586538 
L 68.220663 24.829234 
L 68.813002 21.840608 
L 69.40534 19.894602 
L 70.023433 18.597806 
L 70.667279 17.757655 
L 71.362633 17.211848 
L 72.186756 16.848811 
L 73.319925 16.610346 
L 75.174202 16.480596 
L 80.015925 16.440957 
L 232.761987 16.44 
L 386.048879 16.44 
L 386.048879 16.44 
" clip-path="url(#p59c80112e7)" style="fill: none; stroke: #222222; stroke-width: 7; stroke-linecap: square"/>
    <path d="M 51.223125 201.24 
L 54.442356 201.129071 
L 55.884571 200.880232 
L 56.81171 200.505167 
L 57.532817 199.97532 
L 58.15091 199.238761 
L 58.717494 198.206084 
L 59.258325 196.745836 
L 59.799156 194.6149 
L 60.339987 191.533415 
L 60.880817 187.135008 
L 61.447402 180.626027 
L 62.03974 171.143494 
L 62.683587 157.128449 
L 63.456202 135.098304 
L 66.263371 49.055846 
L 66.958725 37.075759 
L 67.602571 29.586538 
L 68.220663 24.829234 
L 68.813002 21.840608 
L 69.40534 19.894602 
L 70.023433 18.597806 
L 70.667279 17.757655 
L 71.362633 17.211848 
L 72.186756 16.848811 
L 73.319925 16.610346 
L 75.174202 16.480596 
L 80.015925 16.440957 
L 232.761987 16.44 
L 386.048879 16.44 
L 386.048879 16.44 
" clip-path="url(#p59c80112e7)" style="fill: none; stroke: #f1eef6; stroke-width: 5; stroke-linecap: square"/>
   </g>
   <g id="line2d_14">
    <path d="M 51.223125 201.24 
L 57.095002 201.129705 
L 62.194263 200.847761 
L 66.134602 200.414223 
L 69.431094 199.832823 
L 72.315525 199.101497 
L 74.916663 198.213487 
L 77.286017 197.172152 
L 79.500848 195.958692 
L 81.612663 194.548458 
L 83.647217 192.920284 
L 85.630263 191.043852 
L 87.561802 188.907618 
L 89.49334 186.433261 
L 91.424879 183.587554 
L 93.356417 180.338629 
L 95.31371 176.605411 
L 97.32251 172.286209 
L 99.408571 167.257753 
L 101.571894 161.449304 
L 103.863987 154.644848 
L 106.36211 146.509674 
L 109.169279 136.582017 
L 112.646048 123.414144 
L 123.926233 80.011813 
L 126.759156 70.387847 
L 129.283033 62.580377 
L 131.626633 56.035492 
L 133.841463 50.490393 
L 135.979033 45.721501 
L 138.065094 41.598321 
L 140.125402 38.010952 
L 142.159956 34.9067 
L 144.19451 32.200492 
L 146.254817 29.826192 
L 148.340879 27.757176 
L 150.478448 25.945511 
L 152.719033 24.338632 
L 155.062633 22.933027 
L 157.560756 21.697128 
L 160.239156 20.622481 
L 163.175094 19.687277 
L 166.445833 18.883013 
L 170.18014 18.199992 
L 174.53254 17.636655 
L 179.812079 17.186008 
L 186.533833 16.8461 
L 195.856725 16.61283 
L 211.051494 16.481918 
L 249.605002 16.441024 
L 386.048879 16.44 
L 386.048879 16.44 
" clip-path="url(#p59c80112e7)" style="fill: none; stroke: #222222; stroke-width: 7; stroke-linecap: square"/>
    <path d="M 51.223125 201.24 
L 57.095002 201.129705 
L 62.194263 200.847761 
L 66.134602 200.414223 
L 69.431094 199.832823 
L 72.315525 199.101497 
L 74.916663 198.213487 
L 77.286017 197.172152 
L 79.500848 195.958692 
L 81.612663 194.548458 
L 83.647217 192.920284 
L 85.630263 191.043852 
L 87.561802 188.907618 
L 89.49334 186.433261 
L 91.424879 183.587554 
L 93.356417 180.338629 
L 95.31371 176.605411 
L 97.32251 172.286209 
L 99.408571 167.257753 
L 101.571894 161.449304 
L 103.863987 154.644848 
L 106.36211 146.509674 
L 109.169279 136.582017 
L 112.646048 123.414144 
L 123.926233 80.011813 
L 126.759156 70.387847 
L 129.283033 62.580377 
L 131.626633 56.035492 
L 133.841463 50.490393 
L 135.979033 45.721501 
L 138.065094 41.598321 
L 140.125402 38.010952 
L 142.159956 34.9067 
L 144.19451 32.200492 
L 146.254817 29.826192 
L 148.340879 27.757176 
L 150.478448 25.945511 
L 152.719033 24.338632 
L 155.062633 22.933027 
L 157.560756 21.697128 
L 160.239156 20.622481 
L 163.175094 19.687277 
L 166.445833 18.883013 
L 170.18014 18.199992 
L 174.53254 17.636655 
L 179.812079 17.186008 
L 186.533833 16.8461 
L 195.856725 16.61283 
L 211.051494 16.481918 
L 249.605002 16.441024 
L 386.048879 16.44 
L 386.048879 16.44 
" clip-path="url(#p59c80112e7)" style="fill: none; stroke: #d7b5d8; stroke-width: 5; stroke-linecap: square"/>
   </g>
   <g id="line2d_15">
    <path d="M 51.223125 201.24 
L 57.68734 201.129294 
L 63.894017 200.836561 
L 68.967525 200.378618 
L 73.42294 199.756387 
L 77.492048 198.966415 
L 81.303617 198.002251 
L 84.93491 196.856376 
L 88.463187 195.509659 
L 91.914202 193.952874 
L 95.31371 192.173987 
L 98.687463 190.157222 
L 102.086971 187.864014 
L 105.512233 185.283617 
L 109.014756 182.363365 
L 112.59454 179.086547 
L 116.303094 175.387004 
L 120.166171 171.215634 
L 124.235279 166.490831 
L 128.587679 161.091164 
L 133.326387 154.851004 
L 138.657433 147.452083 
L 144.992879 138.261963 
L 154.10974 124.600681 
L 167.862294 104.020021 
L 174.66131 94.267198 
L 180.481679 86.297719 
L 185.786971 79.403986 
L 190.757463 73.304339 
L 195.496171 67.835526 
L 200.080356 62.879761 
L 204.561525 58.35946 
L 208.965433 54.230008 
L 213.317833 50.450352 
L 217.670233 46.963912 
L 222.022633 43.761511 
L 226.400787 40.815269 
L 230.830448 38.101692 
L 235.337371 35.601366 
L 239.94731 33.298562 
L 244.686017 31.18077 
L 249.579248 29.238184 
L 254.67851 27.454722 
L 260.009556 25.827621 
L 265.623894 24.348375 
L 271.598787 23.006926 
L 277.98574 21.803592 
L 284.887771 20.732027 
L 292.459402 19.785205 
L 300.855156 18.963477 
L 310.358325 18.261895 
L 321.355217 17.679238 
L 334.515433 17.212666 
L 351.023648 16.860338 
L 373.455248 16.618941 
L 386.048879 16.549399 
L 386.048879 16.549399 
" clip-path="url(#p59c80112e7)" style="fill: none; stroke: #222222; stroke-width: 7; stroke-linecap: square"/>
    <path d="M 51.223125 201.24 
L 57.68734 201.129294 
L 63.894017 200.836561 
L 68.967525 200.378618 
L 73.42294 199.756387 
L 77.492048 198.966415 
L 81.303617 198.002251 
L 84.93491 196.856376 
L 88.463187 195.509659 
L 91.914202 193.952874 
L 95.31371 192.173987 
L 98.687463 190.157222 
L 102.086971 187.864014 
L 105.512233 185.283617 
L 109.014756 182.363365 
L 112.59454 179.086547 
L 116.303094 175.387004 
L 120.166171 171.215634 
L 124.235279 166.490831 
L 128.587679 161.091164 
L 133.326387 154.851004 
L 138.657433 147.452083 
L 144.992879 138.261963 
L 154.10974 124.600681 
L 167.862294 104.020021 
L 174.66131 94.267198 
L 180.481679 86.297719 
L 185.786971 79.403986 
L 190.757463 73.304339 
L 195.496171 67.835526 
L 200.080356 62.879761 
L 204.561525 58.35946 
L 208.965433 54.230008 
L 213.317833 50.450352 
L 217.670233 46.963912 
L 222.022633 43.761511 
L 226.400787 40.815269 
L 230.830448 38.101692 
L 235.337371 35.601366 
L 239.94731 33.298562 
L 244.686017 31.18077 
L 249.579248 29.238184 
L 254.67851 27.454722 
L 260.009556 25.827621 
L 265.623894 24.348375 
L 271.598787 23.006926 
L 277.98574 21.803592 
L 284.887771 20.732027 
L 292.459402 19.785205 
L 300.855156 18.963477 
L 310.358325 18.261895 
L 321.355217 17.679238 
L 334.515433 17.212666 
L 351.023648 16.860338 
L 373.455248 16.618941 
L 386.048879 16.549399 
L 386.048879 16.549399 
" clip-path="url(#p59c80112e7)" style="fill: none; stroke: #df65b0; stroke-width: 5; stroke-linecap: square"/>
   </g>
   <g id="line2d_16">
    <path d="M 51.223125 201.24 
L 57.738848 201.129626 
L 64.04854 200.837625 
L 69.250817 200.378746 
L 73.835002 199.755283 
L 78.058633 198.959301 
L 82.050479 197.981373 
L 85.862048 196.819542 
L 89.570602 195.456942 
L 93.201894 193.886761 
L 96.807433 192.086192 
L 100.438725 190.022184 
L 104.095771 187.685295 
L 107.804325 185.050128 
L 111.615894 182.06631 
L 115.556233 178.69547 
L 119.651094 174.896609 
L 123.97774 170.574286 
L 128.587679 165.64829 
L 133.583925 159.976665 
L 139.146756 153.315295 
L 145.610971 145.213364 
L 153.980971 134.340466 
L 177.21094 103.970396 
L 184.344756 95.127024 
L 190.654448 87.651545 
L 196.500571 81.064022 
L 202.037648 75.154918 
L 207.368694 69.787506 
L 212.545217 64.888321 
L 217.618725 60.390461 
L 222.614971 56.255684 
L 227.585463 52.429577 
L 232.530202 48.902236 
L 237.500694 45.629118 
L 242.49694 42.604646 
L 247.544694 39.807775 
L 252.695463 37.208496 
L 257.949248 34.807066 
L 263.331802 32.591573 
L 268.894633 30.543515 
L 274.663494 28.65835 
L 280.66414 26.932636 
L 286.973833 25.351515 
L 293.618325 23.91738 
L 300.700633 22.618431 
L 308.298017 21.453598 
L 316.539248 20.417976 
L 325.578848 19.509387 
L 335.674356 18.722694 
L 347.134817 18.057995 
L 360.501063 17.512003 
L 376.674479 17.08238 
L 386.048879 16.914226 
L 386.048879 16.914226 
" clip-path="url(#p59c80112e7)" style="fill: none; stroke: #222222; stroke-width: 7; stroke-linecap: square"/>
    <path d="M 51.223125 201.24 
L 57.738848 201.129626 
L 64.04854 200.837625 
L 69.250817 200.378746 
L 73.835002 199.755283 
L 78.058633 198.959301 
L 82.050479 197.981373 
L 85.862048 196.819542 
L 89.570602 195.456942 
L 93.201894 193.886761 
L 96.807433 192.086192 
L 100.438725 190.022184 
L 104.095771 187.685295 
L 107.804325 185.050128 
L 111.615894 182.06631 
L 115.556233 178.69547 
L 119.651094 174.896609 
L 123.97774 170.574286 
L 128.587679 165.64829 
L 133.583925 159.976665 
L 139.146756 153.315295 
L 145.610971 145.213364 
L 153.980971 134.340466 
L 177.21094 103.970396 
L 184.344756 95.127024 
L 190.654448 87.651545 
L 196.500571 81.064022 
L 202.037648 75.154918 
L 207.368694 69.787506 
L 212.545217 64.888321 
L 217.618725 60.390461 
L 222.614971 56.255684 
L 227.585463 52.429577 
L 232.530202 48.902236 
L 237.500694 45.629118 
L 242.49694 42.604646 
L 247.544694 39.807775 
L 252.695463 37.208496 
L 257.949248 34.807066 
L 263.331802 32.591573 
L 268.894633 30.543515 
L 274.663494 28.65835 
L 280.66414 26.932636 
L 286.973833 25.351515 
L 293.618325 23.91738 
L 300.700633 22.618431 
L 308.298017 21.453598 
L 316.539248 20.417976 
L 325.578848 19.509387 
L 335.674356 18.722694 
L 347.134817 18.057995 
L 360.501063 17.512003 
L 376.674479 17.08238 
L 386.048879 16.914226 
L 386.048879 16.914226 
" clip-path="url(#p59c80112e7)" style="fill: none; stroke: #dd1c77; stroke-width: 5; stroke-linecap: square"/>
   </g>
   <g id="patch_3">
    <path d="M 51.223125 201.24 
L 51.223125 7.2 
" style="fill: none; stroke: #000000; stroke-width: 0.8; stroke-linejoin: miter; stroke-linecap: square"/>
   </g>
   <g id="patch_4">
    <path d="M 386.023125 201.24 
L 386.023125 7.2 
" style="fill: none; stroke: #000000; stroke-width: 0.8; stroke-linejoin: miter; stroke-linecap: square"/>
   </g>
   <g id="patch_5">
    <path d="M 51.223125 201.24 
L 386.023125 201.24 
" style="fill: none; stroke: #000000; stroke-width: 0.8; stroke-linejoin: miter; stroke-linecap: square"/>
   </g>
   <g id="patch_6">
    <path d="M 51.223125 7.2 
L 386.023125 7.2 
" style="fill: none; stroke: #000000; stroke-width: 0.8; stroke-linejoin: miter; stroke-linecap: square"/>
   </g>
   <g id="text_15">
    <g id="patch_7">
     <path d="M 309.607125 105.003563 
L 383.287125 105.003563 
L 383.287125 72.032438 
L 309.607125 72.032438 
z
" style="fill: #ffffff; stroke: #000000; stroke-linejoin: miter"/>
    </g>
    <!-- $\mathsf{Da}_{ads}=10$ -->
    <g transform="translate(317.407125 85.110562) scale(0.12 -0.12)">
     <defs>
      <path id="DejaVuSans-44" d="M 1259 4147 
L 1259 519 
L 2022 519 
Q 2988 519 3436 956 
Q 3884 1394 3884 2338 
Q 3884 3275 3436 3711 
Q 2988 4147 2022 4147 
L 1259 4147 
z
M 628 4666 
L 1925 4666 
Q 3281 4666 3915 4102 
Q 4550 3538 4550 2338 
Q 4550 1131 3912 565 
Q 3275 0 1925 0 
L 628 0 
L 628 4666 
z
" transform="scale(0.015625)"/>
      <path id="DejaVuSans-61" d="M 2194 1759 
Q 1497 1759 1228 1600 
Q 959 1441 959 1056 
Q 959 750 1161 570 
Q 1363 391 1709 391 
Q 2188 391 2477 730 
Q 2766 1069 2766 1631 
L 2766 1759 
L 2194 1759 
z
M 3341 1997 
L 3341 0 
L 2766 0 
L 2766 531 
Q 2569 213 2275 61 
Q 1981 -91 1556 -91 
Q 1019 -91 701 211 
Q 384 513 384 1019 
Q 384 1609 779 1909 
Q 1175 2209 1959 2209 
L 2766 2209 
L 2766 2266 
Q 2766 2663 2505 2880 
Q 2244 3097 1772 3097 
Q 1472 3097 1187 3025 
Q 903 2953 641 2809 
L 641 3341 
Q 956 3463 1253 3523 
Q 1550 3584 1831 3584 
Q 2591 3584 2966 3190 
Q 3341 2797 3341 1997 
z
" transform="scale(0.015625)"/>
      <path id="DejaVuSans-Oblique-61" d="M 3438 1997 
L 3047 0 
L 2472 0 
L 2578 531 
Q 2325 219 2001 64 
Q 1678 -91 1281 -91 
Q 834 -91 548 182 
Q 263 456 263 884 
Q 263 1497 752 1853 
Q 1241 2209 2100 2209 
L 2900 2209 
L 2931 2363 
Q 2938 2388 2941 2417 
Q 2944 2447 2944 2509 
Q 2944 2788 2717 2942 
Q 2491 3097 2081 3097 
Q 1800 3097 1504 3025 
Q 1209 2953 897 2809 
L 997 3341 
Q 1322 3463 1633 3523 
Q 1944 3584 2234 3584 
Q 2853 3584 3176 3315 
Q 3500 3047 3500 2534 
Q 3500 2431 3484 2292 
Q 3469 2153 3438 1997 
z
M 2816 1759 
L 2241 1759 
Q 1534 1759 1195 1570 
Q 856 1381 856 984 
Q 856 709 1029 553 
Q 1203 397 1509 397 
Q 1978 397 2328 733 
Q 2678 1069 2791 1631 
L 2816 1759 
z
" transform="scale(0.015625)"/>
      <path id="DejaVuSans-Oblique-64" d="M 2675 525 
Q 2444 222 2128 65 
Q 1813 -91 1428 -91 
Q 903 -91 598 267 
Q 294 625 294 1247 
Q 294 1766 478 2236 
Q 663 2706 1013 3078 
Q 1244 3325 1534 3454 
Q 1825 3584 2144 3584 
Q 2481 3584 2739 3421 
Q 2997 3259 3138 2956 
L 3513 4863 
L 4091 4863 
L 3144 0 
L 2566 0 
L 2675 525 
z
M 891 1350 
Q 891 897 1095 644 
Q 1300 391 1663 391 
Q 1931 391 2161 520 
Q 2391 650 2566 903 
Q 2750 1166 2856 1509 
Q 2963 1853 2963 2188 
Q 2963 2622 2758 2865 
Q 2553 3109 2194 3109 
Q 1922 3109 1687 2981 
Q 1453 2853 1288 2613 
Q 1106 2353 998 2009 
Q 891 1666 891 1350 
z
" transform="scale(0.015625)"/>
      <path id="DejaVuSans-Oblique-73" d="M 3200 3397 
L 3091 2853 
Q 2863 2978 2609 3040 
Q 2356 3103 2088 3103 
Q 1634 3103 1373 2948 
Q 1113 2794 1113 2528 
Q 1113 2219 1719 2053 
Q 1766 2041 1788 2034 
L 1972 1978 
Q 2547 1819 2739 1644 
Q 2931 1469 2931 1166 
Q 2931 609 2489 259 
Q 2047 -91 1331 -91 
Q 1053 -91 747 -37 
Q 441 16 72 128 
L 184 722 
Q 500 559 806 475 
Q 1113 391 1394 391 
Q 1816 391 2080 572 
Q 2344 753 2344 1031 
Q 2344 1331 1650 1516 
L 1591 1531 
L 1394 1581 
Q 956 1697 753 1886 
Q 550 2075 550 2369 
Q 550 2928 970 3256 
Q 1391 3584 2113 3584 
Q 2397 3584 2667 3537 
Q 2938 3491 3200 3397 
z
" transform="scale(0.015625)"/>
      <path id="DejaVuSans-3d" d="M 678 2906 
L 4684 2906 
L 4684 2381 
L 678 2381 
L 678 2906 
z
M 678 1631 
L 4684 1631 
L 4684 1100 
L 678 1100 
L 678 1631 
z
" transform="scale(0.015625)"/>
     </defs>
     <use xlink:href="#DejaVuSans-44" transform="translate(0 0.78125)"/>
     <use xlink:href="#DejaVuSans-61" transform="translate(77.001953 0.78125)"/>
     <use xlink:href="#DejaVuSans-Oblique-61" transform="translate(139.238281 -15.625) scale(0.7)"/>
     <use xlink:href="#DejaVuSans-Oblique-64" transform="translate(182.133789 -15.625) scale(0.7)"/>
     <use xlink:href="#DejaVuSans-Oblique-73" transform="translate(226.567383 -15.625) scale(0.7)"/>
     <use xlink:href="#DejaVuSans-3d" transform="translate(285.253906 0.78125)"/>
     <use xlink:href="#DejaVuSans-31" transform="translate(388.525391 0.78125)"/>
     <use xlink:href="#DejaVuSans-30" transform="translate(452.148438 0.78125)"/>
    </g>
    <!-- $\mathsf{Da}_{des}=0.1$ -->
    <g transform="translate(313.567125 98.547937) scale(0.12 -0.12)">
     <defs>
      <path id="DejaVuSans-Oblique-65" d="M 3078 2063 
Q 3088 2113 3092 2166 
Q 3097 2219 3097 2272 
Q 3097 2653 2873 2875 
Q 2650 3097 2266 3097 
Q 1838 3097 1509 2826 
Q 1181 2556 1013 2059 
L 3078 2063 
z
M 3578 1613 
L 903 1613 
Q 884 1494 878 1425 
Q 872 1356 872 1306 
Q 872 872 1139 634 
Q 1406 397 1894 397 
Q 2269 397 2603 481 
Q 2938 566 3225 728 
L 3116 159 
Q 2806 34 2476 -28 
Q 2147 -91 1806 -91 
Q 1078 -91 686 257 
Q 294 606 294 1247 
Q 294 1794 489 2264 
Q 684 2734 1063 3103 
Q 1306 3334 1642 3459 
Q 1978 3584 2356 3584 
Q 2950 3584 3301 3228 
Q 3653 2872 3653 2272 
Q 3653 2128 3634 1964 
Q 3616 1800 3578 1613 
z
" transform="scale(0.015625)"/>
     </defs>
     <use xlink:href="#DejaVuSans-44" transform="translate(0 0.78125)"/>
     <use xlink:href="#DejaVuSans-61" transform="translate(77.001953 0.78125)"/>
     <use xlink:href="#DejaVuSans-Oblique-64" transform="translate(139.238281 -15.625) scale(0.7)"/>
     <use xlink:href="#DejaVuSans-Oblique-65" transform="translate(183.671875 -15.625) scale(0.7)"/>
     <use xlink:href="#DejaVuSans-Oblique-73" transform="translate(226.738281 -15.625) scale(0.7)"/>
     <use xlink:href="#DejaVuSans-3d" transform="translate(285.424805 0.78125)"/>
     <use xlink:href="#DejaVuSans-30" transform="translate(388.696289 0.78125)"/>
     <use xlink:href="#DejaVuSans-2e" transform="translate(452.319336 0.78125)"/>
     <use xlink:href="#DejaVuSans-31" transform="translate(484.106445 0.78125)"/>
    </g>
   </g>
   <g id="legend_1">
    <g id="patch_8">
     <path d="M 293.823125 196.24 
L 379.023125 196.24 
Q 381.023125 196.24 381.023125 194.24 
L 381.023125 136.5275 
Q 381.023125 134.5275 379.023125 134.5275 
L 293.823125 134.5275 
Q 291.823125 134.5275 291.823125 136.5275 
L 291.823125 194.24 
Q 291.823125 196.24 293.823125 196.24 
z
" style="fill: #ffffff; opacity: 0.8; stroke: #cccccc; stroke-linejoin: miter"/>
    </g>
    <g id="line2d_17">
     <path d="M 295.823125 142.625937 
L 305.823125 142.625937 
L 315.823125 142.625937 
" style="fill: none; stroke: #222222; stroke-width: 7; stroke-linecap: square"/>
     <path d="M 295.823125 142.625937 
L 305.823125 142.625937 
L 315.823125 142.625937 
" style="fill: none; stroke: #f1eef6; stroke-width: 5; stroke-linecap: square"/>
    </g>
    <g id="text_16">
     <!-- $\kappa=0.1$ -->
     <g transform="translate(323.823125 146.125937) scale(0.1 -0.1)">
      <defs>
       <path id="DejaVuSans-Oblique-3ba" d="M 938 3500 
L 1531 3500 
L 1247 2047 
L 3041 3500 
L 3741 3500 
L 2106 2181 
L 3275 0 
L 2572 0 
L 1628 1806 
L 1122 1403 
L 850 0 
L 256 0 
L 938 3500 
z
" transform="scale(0.015625)"/>
      </defs>
      <use xlink:href="#DejaVuSans-Oblique-3ba" transform="translate(0 0.78125)"/>
      <use xlink:href="#DejaVuSans-3d" transform="translate(78.417969 0.78125)"/>
      <use xlink:href="#DejaVuSans-30" transform="translate(181.689453 0.78125)"/>
      <use xlink:href="#DejaVuSans-2e" transform="translate(245.3125 0.78125)"/>
      <use xlink:href="#DejaVuSans-31" transform="translate(277.099609 0.78125)"/>
     </g>
    </g>
    <g id="line2d_18">
     <path d="M 295.823125 157.304062 
L 305.823125 157.304062 
L 315.823125 157.304062 
" style="fill: none; stroke: #222222; stroke-width: 7; stroke-linecap: square"/>
     <path d="M 295.823125 157.304062 
L 305.823125 157.304062 
L 315.823125 157.304062 
" style="fill: none; stroke: #d7b5d8; stroke-width: 5; stroke-linecap: square"/>
    </g>
    <g id="text_17">
     <!-- $\kappa=0.01$ -->
     <g transform="translate(323.823125 160.804062) scale(0.1 -0.1)">
      <use xlink:href="#DejaVuSans-Oblique-3ba" transform="translate(0 0.78125)"/>
      <use xlink:href="#DejaVuSans-3d" transform="translate(78.417969 0.78125)"/>
      <use xlink:href="#DejaVuSans-30" transform="translate(181.689453 0.78125)"/>
      <use xlink:href="#DejaVuSans-2e" transform="translate(245.3125 0.78125)"/>
      <use xlink:href="#DejaVuSans-30" transform="translate(277.099609 0.78125)"/>
      <use xlink:href="#DejaVuSans-31" transform="translate(340.722656 0.78125)"/>
     </g>
    </g>
    <g id="line2d_19">
     <path d="M 295.823125 171.982188 
L 305.823125 171.982188 
L 315.823125 171.982188 
" style="fill: none; stroke: #222222; stroke-width: 7; stroke-linecap: square"/>
     <path d="M 295.823125 171.982188 
L 305.823125 171.982188 
L 315.823125 171.982188 
" style="fill: none; stroke: #df65b0; stroke-width: 5; stroke-linecap: square"/>
    </g>
    <g id="text_18">
     <!-- $\kappa=0.001$ -->
     <g transform="translate(323.823125 175.482188) scale(0.1 -0.1)">
      <use xlink:href="#DejaVuSans-Oblique-3ba" transform="translate(0 0.78125)"/>
      <use xlink:href="#DejaVuSans-3d" transform="translate(78.417969 0.78125)"/>
      <use xlink:href="#DejaVuSans-30" transform="translate(181.689453 0.78125)"/>
      <use xlink:href="#DejaVuSans-2e" transform="translate(245.3125 0.78125)"/>
      <use xlink:href="#DejaVuSans-30" transform="translate(277.099609 0.78125)"/>
      <use xlink:href="#DejaVuSans-30" transform="translate(340.722656 0.78125)"/>
      <use xlink:href="#DejaVuSans-31" transform="translate(404.345703 0.78125)"/>
     </g>
    </g>
    <g id="line2d_20">
     <path d="M 295.823125 186.660313 
L 305.823125 186.660313 
L 315.823125 186.660313 
" style="fill: none; stroke: #222222; stroke-width: 7; stroke-linecap: square"/>
     <path d="M 295.823125 186.660313 
L 305.823125 186.660313 
L 315.823125 186.660313 
" style="fill: none; stroke: #dd1c77; stroke-width: 5; stroke-linecap: square"/>
    </g>
    <g id="text_19">
     <!-- $\kappa=0.0001$ -->
     <g transform="translate(323.823125 190.160313) scale(0.1 -0.1)">
      <use xlink:href="#DejaVuSans-Oblique-3ba" transform="translate(0 0.78125)"/>
      <use xlink:href="#DejaVuSans-3d" transform="translate(78.417969 0.78125)"/>
      <use xlink:href="#DejaVuSans-30" transform="translate(181.689453 0.78125)"/>
      <use xlink:href="#DejaVuSans-2e" transform="translate(245.3125 0.78125)"/>
      <use xlink:href="#DejaVuSans-30" transform="translate(277.099609 0.78125)"/>
      <use xlink:href="#DejaVuSans-30" transform="translate(340.722656 0.78125)"/>
      <use xlink:href="#DejaVuSans-30" transform="translate(404.345703 0.78125)"/>
      <use xlink:href="#DejaVuSans-31" transform="translate(467.96875 0.78125)"/>
     </g>
    </g>
   </g>
  </g>
 </g>
 <defs>
  <clipPath id="p59c80112e7">
   <rect x="51.223125" y="7.2" width="334.8" height="194.04"/>
  </clipPath>
 </defs>
</svg>
