<?xml version="1.0" encoding="utf-8" standalone="no"?>
<!DOCTYPE svg PUBLIC "-//W3C//DTD SVG 1.1//EN"
  "http://www.w3.org/Graphics/SVG/1.1/DTD/svg11.dtd">
<svg xmlns:xlink="http://www.w3.org/1999/xlink" width="444.4005pt" height="244.098125pt" viewBox="0 0 444.4005 244.098125" xmlns="http://www.w3.org/2000/svg" version="1.1">
 <metadata>
  <rdf:RDF xmlns:dc="http://purl.org/dc/elements/1.1/" xmlns:cc="http://creativecommons.org/ns#" xmlns:rdf="http://www.w3.org/1999/02/22-rdf-syntax-ns#">
   <cc:Work>
    <dc:type rdf:resource="http://purl.org/dc/dcmitype/StillImage"/>
    <dc:date>2025-06-09T13:54:40.713482</dc:date>
    <dc:format>image/svg+xml</dc:format>
    <dc:creator>
     <cc:Agent>
      <dc:title>Matplotlib v3.10.1, https://matplotlib.org/</dc:title>
     </cc:Agent>
    </dc:creator>
   </cc:Work>
  </rdf:RDF>
 </metadata>
 <defs>
  <style type="text/css">*{stroke-linejoin: round; stroke-linecap: butt}</style>
 </defs>
 <g id="figure_1">
  <g id="patch_1">
   <path d="M 0 244.098125 
L 444.4005 244.098125 
L 444.4005 0 
L 0 0 
z
" style="fill: #ffffff; fill-opacity: 0.501961"/>
  </g>
  <g id="axes_1">
   <g id="patch_2">
    <path d="M 47.6525 201.24 
L 382.4525 201.24 
L 382.4525 7.2 
L 47.6525 7.2 
z
" style="fill: #ffffff; fill-opacity: 0.501961"/>
   </g>
   <g id="matplotlib.axis_1">
    <g id="xtick_1">
     <g id="line2d_1">
      <defs>
       <path id="mf059ce9d08" d="M 0 0 
L 0 3.5 
" style="stroke: #000000; stroke-width: 0.8"/>
      </defs>
      <g>
       <use xlink:href="#mf059ce9d08" x="62.870682" y="201.24" style="stroke: #000000; stroke-width: 0.8"/>
      </g>
     </g>
     <g id="text_1">
      <!-- 0 -->
      <g transform="translate(59.689432 215.838437) scale(0.1 -0.1)">
       <defs>
        <path id="DejaVuSans-30" d="M 2034 4250 
Q 1547 4250 1301 3770 
Q 1056 3291 1056 2328 
Q 1056 1369 1301 889 
Q 1547 409 2034 409 
Q 2525 409 2770 889 
Q 3016 1369 3016 2328 
Q 3016 3291 2770 3770 
Q 2525 4250 2034 4250 
z
M 2034 4750 
Q 2819 4750 3233 4129 
Q 3647 3509 3647 2328 
Q 3647 1150 3233 529 
Q 2819 -91 2034 -91 
Q 1250 -91 836 529 
Q 422 1150 422 2328 
Q 422 3509 836 4129 
Q 1250 4750 2034 4750 
z
" transform="scale(0.015625)"/>
       </defs>
       <use xlink:href="#DejaVuSans-30"/>
      </g>
     </g>
    </g>
    <g id="xtick_2">
     <g id="line2d_2">
      <g>
       <use xlink:href="#mf059ce9d08" x="123.767768" y="201.24" style="stroke: #000000; stroke-width: 0.8"/>
      </g>
     </g>
     <g id="text_2">
      <!-- 20 -->
      <g transform="translate(117.405268 215.838437) scale(0.1 -0.1)">
       <defs>
        <path id="DejaVuSans-32" d="M 1228 531 
L 3431 531 
L 3431 0 
L 469 0 
L 469 531 
Q 828 903 1448 1529 
Q 2069 2156 2228 2338 
Q 2531 2678 2651 2914 
Q 2772 3150 2772 3378 
Q 2772 3750 2511 3984 
Q 2250 4219 1831 4219 
Q 1534 4219 1204 4116 
Q 875 4013 500 3803 
L 500 4441 
Q 881 4594 1212 4672 
Q 1544 4750 1819 4750 
Q 2544 4750 2975 4387 
Q 3406 4025 3406 3419 
Q 3406 3131 3298 2873 
Q 3191 2616 2906 2266 
Q 2828 2175 2409 1742 
Q 1991 1309 1228 531 
z
" transform="scale(0.015625)"/>
       </defs>
       <use xlink:href="#DejaVuSans-32"/>
       <use xlink:href="#DejaVuSans-30" transform="translate(63.623047 0)"/>
      </g>
     </g>
    </g>
    <g id="xtick_3">
     <g id="line2d_3">
      <g>
       <use xlink:href="#mf059ce9d08" x="184.664854" y="201.24" style="stroke: #000000; stroke-width: 0.8"/>
      </g>
     </g>
     <g id="text_3">
      <!-- 40 -->
      <g transform="translate(178.302354 215.838437) scale(0.1 -0.1)">
       <defs>
        <path id="DejaVuSans-34" d="M 2419 4116 
L 825 1625 
L 2419 1625 
L 2419 4116 
z
M 2253 4666 
L 3047 4666 
L 3047 1625 
L 3713 1625 
L 3713 1100 
L 3047 1100 
L 3047 0 
L 2419 0 
L 2419 1100 
L 313 1100 
L 313 1709 
L 2253 4666 
z
" transform="scale(0.015625)"/>
       </defs>
       <use xlink:href="#DejaVuSans-34"/>
       <use xlink:href="#DejaVuSans-30" transform="translate(63.623047 0)"/>
      </g>
     </g>
    </g>
    <g id="xtick_4">
     <g id="line2d_4">
      <g>
       <use xlink:href="#mf059ce9d08" x="245.56194" y="201.24" style="stroke: #000000; stroke-width: 0.8"/>
      </g>
     </g>
     <g id="text_4">
      <!-- 60 -->
      <g transform="translate(239.19944 215.838437) scale(0.1 -0.1)">
       <defs>
        <path id="DejaVuSans-36" d="M 2113 2584 
Q 1688 2584 1439 2293 
Q 1191 2003 1191 1497 
Q 1191 994 1439 701 
Q 1688 409 2113 409 
Q 2538 409 2786 701 
Q 3034 994 3034 1497 
Q 3034 2003 2786 2293 
Q 2538 2584 2113 2584 
z
M 3366 4563 
L 3366 3988 
Q 3128 4100 2886 4159 
Q 2644 4219 2406 4219 
Q 1781 4219 1451 3797 
Q 1122 3375 1075 2522 
Q 1259 2794 1537 2939 
Q 1816 3084 2150 3084 
Q 2853 3084 3261 2657 
Q 3669 2231 3669 1497 
Q 3669 778 3244 343 
Q 2819 -91 2113 -91 
Q 1303 -91 875 529 
Q 447 1150 447 2328 
Q 447 3434 972 4092 
Q 1497 4750 2381 4750 
Q 2619 4750 2861 4703 
Q 3103 4656 3366 4563 
z
" transform="scale(0.015625)"/>
       </defs>
       <use xlink:href="#DejaVuSans-36"/>
       <use xlink:href="#DejaVuSans-30" transform="translate(63.623047 0)"/>
      </g>
     </g>
    </g>
    <g id="xtick_5">
     <g id="line2d_5">
      <g>
       <use xlink:href="#mf059ce9d08" x="306.459026" y="201.24" style="stroke: #000000; stroke-width: 0.8"/>
      </g>
     </g>
     <g id="text_5">
      <!-- 80 -->
      <g transform="translate(300.096526 215.838437) scale(0.1 -0.1)">
       <defs>
        <path id="DejaVuSans-38" d="M 2034 2216 
Q 1584 2216 1326 1975 
Q 1069 1734 1069 1313 
Q 1069 891 1326 650 
Q 1584 409 2034 409 
Q 2484 409 2743 651 
Q 3003 894 3003 1313 
Q 3003 1734 2745 1975 
Q 2488 2216 2034 2216 
z
M 1403 2484 
Q 997 2584 770 2862 
Q 544 3141 544 3541 
Q 544 4100 942 4425 
Q 1341 4750 2034 4750 
Q 2731 4750 3128 4425 
Q 3525 4100 3525 3541 
Q 3525 3141 3298 2862 
Q 3072 2584 2669 2484 
Q 3125 2378 3379 2068 
Q 3634 1759 3634 1313 
Q 3634 634 3220 271 
Q 2806 -91 2034 -91 
Q 1263 -91 848 271 
Q 434 634 434 1313 
Q 434 1759 690 2068 
Q 947 2378 1403 2484 
z
M 1172 3481 
Q 1172 3119 1398 2916 
Q 1625 2713 2034 2713 
Q 2441 2713 2670 2916 
Q 2900 3119 2900 3481 
Q 2900 3844 2670 4047 
Q 2441 4250 2034 4250 
Q 1625 4250 1398 4047 
Q 1172 3844 1172 3481 
z
" transform="scale(0.015625)"/>
       </defs>
       <use xlink:href="#DejaVuSans-38"/>
       <use xlink:href="#DejaVuSans-30" transform="translate(63.623047 0)"/>
      </g>
     </g>
    </g>
    <g id="xtick_6">
     <g id="line2d_6">
      <g>
       <use xlink:href="#mf059ce9d08" x="367.356112" y="201.24" style="stroke: #000000; stroke-width: 0.8"/>
      </g>
     </g>
     <g id="text_6">
      <!-- 100 -->
      <g transform="translate(357.812362 215.838437) scale(0.1 -0.1)">
       <defs>
        <path id="DejaVuSans-31" d="M 794 531 
L 1825 531 
L 1825 4091 
L 703 3866 
L 703 4441 
L 1819 4666 
L 2450 4666 
L 2450 531 
L 3481 531 
L 3481 0 
L 794 0 
L 794 531 
z
" transform="scale(0.015625)"/>
       </defs>
       <use xlink:href="#DejaVuSans-31"/>
       <use xlink:href="#DejaVuSans-30" transform="translate(63.623047 0)"/>
       <use xlink:href="#DejaVuSans-30" transform="translate(127.246094 0)"/>
      </g>
     </g>
    </g>
    <g id="text_7">
     <!-- $\hat{t}$ -->
     <g transform="translate(212.2525 233.986562) scale(0.14 -0.14)">
      <defs>
       <path id="DejaVuSans-302" d="M -1831 5119 
L -1369 5119 
L -603 3944 
L -1038 3944 
L -1600 4709 
L -2163 3944 
L -2597 3944 
L -1831 5119 
z
M -1600 3584 
L -1600 3584 
z
" transform="scale(0.015625)"/>
       <path id="DejaVuSans-Oblique-74" d="M 2706 3500 
L 2619 3053 
L 1472 3053 
L 1100 1153 
Q 1081 1047 1072 975 
Q 1063 903 1063 863 
Q 1063 663 1183 572 
Q 1303 481 1569 481 
L 2150 481 
L 2053 0 
L 1503 0 
Q 991 0 739 200 
Q 488 400 488 806 
Q 488 878 497 964 
Q 506 1050 525 1153 
L 897 3053 
L 409 3053 
L 500 3500 
L 978 3500 
L 1172 4494 
L 1747 4494 
L 1556 3500 
L 2706 3500 
z
" transform="scale(0.015625)"/>
      </defs>
      <use xlink:href="#DejaVuSans-302" transform="translate(49.380371 27.015625)"/>
      <use xlink:href="#DejaVuSans-Oblique-74" transform="translate(0 0.296875)"/>
     </g>
    </g>
   </g>
   <g id="matplotlib.axis_2">
    <g id="ytick_1">
     <g id="line2d_7">
      <defs>
       <path id="m7257d1e6e3" d="M 0 0 
L -3.5 0 
" style="stroke: #000000; stroke-width: 0.8"/>
      </defs>
      <g>
       <use xlink:href="#m7257d1e6e3" x="47.6525" y="194.828079" style="stroke: #000000; stroke-width: 0.8"/>
      </g>
     </g>
     <g id="text_8">
      <!-- 0.0 -->
      <g transform="translate(24.749375 198.627298) scale(0.1 -0.1)">
       <defs>
        <path id="DejaVuSans-2e" d="M 684 794 
L 1344 794 
L 1344 0 
L 684 0 
L 684 794 
z
" transform="scale(0.015625)"/>
       </defs>
       <use xlink:href="#DejaVuSans-30"/>
       <use xlink:href="#DejaVuSans-2e" transform="translate(63.623047 0)"/>
       <use xlink:href="#DejaVuSans-30" transform="translate(95.410156 0)"/>
      </g>
     </g>
    </g>
    <g id="ytick_2">
     <g id="line2d_8">
      <g>
       <use xlink:href="#m7257d1e6e3" x="47.6525" y="169.180396" style="stroke: #000000; stroke-width: 0.8"/>
      </g>
     </g>
     <g id="text_9">
      <!-- 0.2 -->
      <g transform="translate(24.749375 172.979615) scale(0.1 -0.1)">
       <use xlink:href="#DejaVuSans-30"/>
       <use xlink:href="#DejaVuSans-2e" transform="translate(63.623047 0)"/>
       <use xlink:href="#DejaVuSans-32" transform="translate(95.410156 0)"/>
      </g>
     </g>
    </g>
    <g id="ytick_3">
     <g id="line2d_9">
      <g>
       <use xlink:href="#m7257d1e6e3" x="47.6525" y="143.532713" style="stroke: #000000; stroke-width: 0.8"/>
      </g>
     </g>
     <g id="text_10">
      <!-- 0.4 -->
      <g transform="translate(24.749375 147.331932) scale(0.1 -0.1)">
       <use xlink:href="#DejaVuSans-30"/>
       <use xlink:href="#DejaVuSans-2e" transform="translate(63.623047 0)"/>
       <use xlink:href="#DejaVuSans-34" transform="translate(95.410156 0)"/>
      </g>
     </g>
    </g>
    <g id="ytick_4">
     <g id="line2d_10">
      <g>
       <use xlink:href="#m7257d1e6e3" x="47.6525" y="117.88503" style="stroke: #000000; stroke-width: 0.8"/>
      </g>
     </g>
     <g id="text_11">
      <!-- 0.6 -->
      <g transform="translate(24.749375 121.684248) scale(0.1 -0.1)">
       <use xlink:href="#DejaVuSans-30"/>
       <use xlink:href="#DejaVuSans-2e" transform="translate(63.623047 0)"/>
       <use xlink:href="#DejaVuSans-36" transform="translate(95.410156 0)"/>
      </g>
     </g>
    </g>
    <g id="ytick_5">
     <g id="line2d_11">
      <g>
       <use xlink:href="#m7257d1e6e3" x="47.6525" y="92.237346" style="stroke: #000000; stroke-width: 0.8"/>
      </g>
     </g>
     <g id="text_12">
      <!-- 0.8 -->
      <g transform="translate(24.749375 96.036565) scale(0.1 -0.1)">
       <use xlink:href="#DejaVuSans-30"/>
       <use xlink:href="#DejaVuSans-2e" transform="translate(63.623047 0)"/>
       <use xlink:href="#DejaVuSans-38" transform="translate(95.410156 0)"/>
      </g>
     </g>
    </g>
    <g id="ytick_6">
     <g id="line2d_12">
      <g>
       <use xlink:href="#m7257d1e6e3" x="47.6525" y="66.589663" style="stroke: #000000; stroke-width: 0.8"/>
      </g>
     </g>
     <g id="text_13">
      <!-- 1.0 -->
      <g transform="translate(24.749375 70.388882) scale(0.1 -0.1)">
       <use xlink:href="#DejaVuSans-31"/>
       <use xlink:href="#DejaVuSans-2e" transform="translate(63.623047 0)"/>
       <use xlink:href="#DejaVuSans-30" transform="translate(95.410156 0)"/>
      </g>
     </g>
    </g>
    <g id="ytick_7">
     <g id="line2d_13">
      <g>
       <use xlink:href="#m7257d1e6e3" x="47.6525" y="40.94198" style="stroke: #000000; stroke-width: 0.8"/>
      </g>
     </g>
     <g id="text_14">
      <!-- 1.2 -->
      <g transform="translate(24.749375 44.741199) scale(0.1 -0.1)">
       <use xlink:href="#DejaVuSans-31"/>
       <use xlink:href="#DejaVuSans-2e" transform="translate(63.623047 0)"/>
       <use xlink:href="#DejaVuSans-32" transform="translate(95.410156 0)"/>
      </g>
     </g>
    </g>
    <g id="ytick_8">
     <g id="line2d_14">
      <g>
       <use xlink:href="#m7257d1e6e3" x="47.6525" y="15.294297" style="stroke: #000000; stroke-width: 0.8"/>
      </g>
     </g>
     <g id="text_15">
      <!-- 1.4 -->
      <g transform="translate(24.749375 19.093516) scale(0.1 -0.1)">
       <use xlink:href="#DejaVuSans-31"/>
       <use xlink:href="#DejaVuSans-2e" transform="translate(63.623047 0)"/>
       <use xlink:href="#DejaVuSans-34" transform="translate(95.410156 0)"/>
      </g>
     </g>
    </g>
    <g id="text_16">
     <!-- $\hat{c}$ -->
     <g transform="translate(17.837812 108.07) rotate(-90) scale(0.14 -0.14)">
      <defs>
       <path id="DejaVuSans-Oblique-63" d="M 3431 3366 
L 3316 2797 
Q 3109 2947 2876 3022 
Q 2644 3097 2394 3097 
Q 2119 3097 1870 3000 
Q 1622 2903 1453 2725 
Q 1184 2453 1037 2087 
Q 891 1722 891 1331 
Q 891 859 1127 628 
Q 1363 397 1844 397 
Q 2081 397 2348 469 
Q 2616 541 2906 684 
L 2797 116 
Q 2547 13 2283 -39 
Q 2019 -91 1741 -91 
Q 1044 -91 669 257 
Q 294 606 294 1253 
Q 294 1797 489 2255 
Q 684 2713 1069 3078 
Q 1331 3328 1684 3456 
Q 2038 3584 2456 3584 
Q 2700 3584 2940 3529 
Q 3181 3475 3431 3366 
z
" transform="scale(0.015625)"/>
      </defs>
      <use xlink:href="#DejaVuSans-302" transform="translate(59.323242 13.015625)"/>
      <use xlink:href="#DejaVuSans-Oblique-63" transform="translate(0 0.515625)"/>
     </g>
    </g>
   </g>
   <g id="line2d_15">
    <path d="M 62.870682 194.828079 
L 68.199177 194.729637 
L 70.756854 194.458876 
L 72.675113 194.031704 
L 74.167091 193.487427 
L 75.44593 192.81355 
L 76.724769 191.887251 
L 77.790468 190.871571 
L 78.856167 189.582611 
L 79.921866 187.9642 
L 80.987565 185.952755 
L 82.053264 183.477804 
L 83.118963 180.46337 
L 84.184662 176.83052 
L 85.250361 172.501431 
L 86.5292 166.288614 
L 87.808039 158.878948 
L 89.086877 150.233188 
L 90.578856 138.641688 
L 92.497114 121.749124 
L 98.678168 65.202654 
L 100.170147 54.368002 
L 101.448986 46.549932 
L 102.727825 40.115582 
L 103.793524 35.767358 
L 104.859223 32.269929 
L 105.924922 29.53917 
L 106.990621 27.483667 
L 107.84318 26.263702 
L 108.695739 25.372098 
L 109.548298 24.766727 
L 110.400858 24.408945 
L 111.253417 24.263861 
L 112.319116 24.33459 
L 113.384815 24.636595 
L 114.663654 25.242117 
L 116.155632 26.205289 
L 118.07389 27.731899 
L 120.631568 30.081796 
L 125.107504 34.564618 
L 131.501698 40.926569 
L 135.551354 44.644831 
L 139.174731 47.684709 
L 142.584968 50.274309 
L 145.995204 52.594538 
L 149.405441 54.650029 
L 152.815678 56.452945 
L 156.439055 58.111153 
L 160.062431 59.52815 
L 163.898948 60.794599 
L 167.948604 61.903998 
L 172.42454 62.899354 
L 177.326755 63.759905 
L 182.86839 64.502316 
L 189.262584 65.126899 
L 196.935617 65.639767 
L 206.313768 66.032551 
L 218.675877 66.316079 
L 237.219039 66.496731 
L 272.813386 66.578362 
L 367.234318 66.589628 
L 367.234318 66.589628 
" clip-path="url(#p55f479d838)" style="fill: none; stroke: #808080; stroke-width: 4; stroke-linecap: square"/>
    <path d="M 62.870682 194.828079 
L 68.199177 194.729637 
L 70.756854 194.458876 
L 72.675113 194.031704 
L 74.167091 193.487427 
L 75.44593 192.81355 
L 76.724769 191.887251 
L 77.790468 190.871571 
L 78.856167 189.582611 
L 79.921866 187.9642 
L 80.987565 185.952755 
L 82.053264 183.477804 
L 83.118963 180.46337 
L 84.184662 176.83052 
L 85.250361 172.501431 
L 86.5292 166.288614 
L 87.808039 158.878948 
L 89.086877 150.233188 
L 90.578856 138.641688 
L 92.497114 121.749124 
L 98.678168 65.202654 
L 100.170147 54.368002 
L 101.448986 46.549932 
L 102.727825 40.115582 
L 103.793524 35.767358 
L 104.859223 32.269929 
L 105.924922 29.53917 
L 106.990621 27.483667 
L 107.84318 26.263702 
L 108.695739 25.372098 
L 109.548298 24.766727 
L 110.400858 24.408945 
L 111.253417 24.263861 
L 112.319116 24.33459 
L 113.384815 24.636595 
L 114.663654 25.242117 
L 116.155632 26.205289 
L 118.07389 27.731899 
L 120.631568 30.081796 
L 125.107504 34.564618 
L 131.501698 40.926569 
L 135.551354 44.644831 
L 139.174731 47.684709 
L 142.584968 50.274309 
L 145.995204 52.594538 
L 149.405441 54.650029 
L 152.815678 56.452945 
L 156.439055 58.111153 
L 160.062431 59.52815 
L 163.898948 60.794599 
L 167.948604 61.903998 
L 172.42454 62.899354 
L 177.326755 63.759905 
L 182.86839 64.502316 
L 189.262584 65.126899 
L 196.935617 65.639767 
L 206.313768 66.032551 
L 218.675877 66.316079 
L 237.219039 66.496731 
L 272.813386 66.578362 
L 367.234318 66.589628 
L 367.234318 66.589628 
" clip-path="url(#p55f479d838)" style="fill: none; stroke: #a9a9a9; stroke-width: 2; stroke-linecap: square"/>
   </g>
   <g id="line2d_16">
    <path d="M 62.870682 194.828079 
L 72.888252 194.720064 
L 77.577328 194.472191 
L 80.561285 194.105617 
L 82.905823 193.594261 
L 84.824081 192.944597 
L 86.5292 192.121443 
L 88.021178 191.157078 
L 89.513157 189.917763 
L 91.005136 188.365278 
L 92.497114 186.476316 
L 94.202233 183.905603 
L 96.120491 180.540234 
L 98.465029 175.914256 
L 102.514685 167.310551 
L 108.695739 154.289766 
L 115.089933 141.403242 
L 121.910407 128.120368 
L 126.812622 119.01974 
L 130.862278 111.95089 
L 134.485655 106.068816 
L 137.682752 101.276094 
L 140.879849 96.882852 
L 143.863806 93.152814 
L 146.847764 89.779234 
L 149.831721 86.752666 
L 152.815678 84.057255 
L 155.799635 81.672535 
L 158.783592 79.57508 
L 161.76755 77.739919 
L 164.964647 76.035918 
L 168.374883 74.483674 
L 171.78512 73.170903 
L 175.621637 71.939915 
L 179.671293 70.878908 
L 184.147229 69.940813 
L 189.049444 69.140492 
L 194.804219 68.435956 
L 201.411553 67.859422 
L 209.510865 67.389007 
L 219.741576 67.032908 
L 233.808803 66.785179 
L 256.188482 66.64203 
L 308.407733 66.591945 
L 367.234318 66.589725 
L 367.234318 66.589725 
" clip-path="url(#p55f479d838)" style="fill: none; stroke: #808080; stroke-width: 4; stroke-linecap: square"/>
    <path d="M 62.870682 194.828079 
L 72.888252 194.720064 
L 77.577328 194.472191 
L 80.561285 194.105617 
L 82.905823 193.594261 
L 84.824081 192.944597 
L 86.5292 192.121443 
L 88.021178 191.157078 
L 89.513157 189.917763 
L 91.005136 188.365278 
L 92.497114 186.476316 
L 94.202233 183.905603 
L 96.120491 180.540234 
L 98.465029 175.914256 
L 102.514685 167.310551 
L 108.695739 154.289766 
L 115.089933 141.403242 
L 121.910407 128.120368 
L 126.812622 119.01974 
L 130.862278 111.95089 
L 134.485655 106.068816 
L 137.682752 101.276094 
L 140.879849 96.882852 
L 143.863806 93.152814 
L 146.847764 89.779234 
L 149.831721 86.752666 
L 152.815678 84.057255 
L 155.799635 81.672535 
L 158.783592 79.57508 
L 161.76755 77.739919 
L 164.964647 76.035918 
L 168.374883 74.483674 
L 171.78512 73.170903 
L 175.621637 71.939915 
L 179.671293 70.878908 
L 184.147229 69.940813 
L 189.049444 69.140492 
L 194.804219 68.435956 
L 201.411553 67.859422 
L 209.510865 67.389007 
L 219.741576 67.032908 
L 233.808803 66.785179 
L 256.188482 66.64203 
L 308.407733 66.591945 
L 367.234318 66.589725 
L 367.234318 66.589725 
" clip-path="url(#p55f479d838)" style="fill: none; stroke: #800080; stroke-width: 2; stroke-linecap: square"/>
   </g>
   <g id="line2d_17">
    <path d="M 47.6525 66.589663 
L 382.4525 66.589663 
" clip-path="url(#p55f479d838)" style="fill: none; stroke-dasharray: 1,1.65; stroke-dashoffset: 0; stroke: #000000"/>
   </g>
   <g id="patch_3">
    <path d="M 47.6525 201.24 
L 47.6525 7.2 
" style="fill: none; stroke: #000000; stroke-width: 0.8; stroke-linejoin: miter; stroke-linecap: square"/>
   </g>
   <g id="patch_4">
    <path d="M 47.6525 201.24 
L 382.4525 201.24 
" style="fill: none; stroke: #000000; stroke-width: 0.8; stroke-linejoin: miter; stroke-linecap: square"/>
   </g>
   <g id="legend_1">
    <g id="patch_5">
     <path d="M 392.8005 131.12 
L 435.2005 131.12 
Q 437.2005 131.12 437.2005 129.12 
L 437.2005 79.32 
Q 437.2005 77.32 435.2005 77.32 
L 392.8005 77.32 
Q 390.8005 77.32 390.8005 79.32 
L 390.8005 129.12 
Q 390.8005 131.12 392.8005 131.12 
z
" style="fill: #ffffff; opacity: 0.8; stroke: #cccccc; stroke-linejoin: miter"/>
    </g>
    <g id="text_17">
     <!-- $\hat{c}_j\left( \hat{t} \right)$ -->
     <g transform="translate(404.0505 92.02) scale(0.1 -0.1)">
      <defs>
       <path id="DejaVuSans-Oblique-6a" d="M 928 3500 
L 1503 3500 
L 813 -63 
L 809 -78 
Q 694 -675 544 -897 
Q 403 -1106 132 -1218 
Q -138 -1331 -506 -1331 
L -722 -1331 
L -628 -844 
L -481 -844 
Q -144 -844 -1 -703 
Q 141 -563 238 -63 
L 928 3500 
z
M 1197 4863 
L 1772 4863 
L 1631 4134 
L 1056 4134 
L 1197 4863 
z
" transform="scale(0.015625)"/>
       <path id="STIXSizeOneSym-Regular-28" d="M 2445 -858 
L 2445 -1050 
Q 1728 -371 1309 630 
Q 890 1632 890 2886 
Q 890 4122 1309 5136 
Q 1728 6150 2445 6822 
L 2445 6630 
Q 1408 5363 1408 2886 
Q 1408 410 2445 -858 
z
" transform="scale(0.015625)"/>
       <path id="STIXSizeOneSym-Regular-29" d="M 550 6630 
L 550 6822 
Q 1267 6144 1686 5142 
Q 2106 4141 2106 2886 
Q 2106 1651 1686 636 
Q 1267 -378 550 -1050 
L 550 -858 
Q 1587 410 1587 2886 
Q 1587 5363 550 6630 
z
" transform="scale(0.015625)"/>
      </defs>
      <use xlink:href="#DejaVuSans-302" transform="translate(59.323242 12.5)"/>
      <use xlink:href="#DejaVuSans-Oblique-63"/>
      <use xlink:href="#DejaVuSans-Oblique-6a" transform="translate(55.9375 -16.40625) scale(0.7)"/>
      <use xlink:href="#STIXSizeOneSym-Regular-28" transform="translate(78.120117 14.265625) scale(0.867505)"/>
      <use xlink:href="#DejaVuSans-302" transform="translate(168.099487 26.71875)"/>
      <use xlink:href="#DejaVuSans-Oblique-74" transform="translate(118.719116 0)"/>
      <use xlink:href="#STIXSizeOneSym-Regular-29" transform="translate(157.928101 14.265625) scale(0.867505)"/>
     </g>
    </g>
    <g id="line2d_18">
     <path d="M 394.8005 105.540312 
L 404.8005 105.540312 
L 414.8005 105.540312 
" style="fill: none; stroke: #808080; stroke-width: 4; stroke-linecap: square"/>
     <path d="M 394.8005 105.540312 
L 404.8005 105.540312 
L 414.8005 105.540312 
" style="fill: none; stroke: #a9a9a9; stroke-width: 2; stroke-linecap: square"/>
    </g>
    <g id="text_18">
     <!-- $\hat{c}_1$ -->
     <g transform="translate(422.8005 109.040312) scale(0.1 -0.1)">
      <use xlink:href="#DejaVuSans-302" transform="translate(59.323242 13.015625)"/>
      <use xlink:href="#DejaVuSans-Oblique-63" transform="translate(0 0.515625)"/>
      <use xlink:href="#DejaVuSans-31" transform="translate(55.9375 -15.890625) scale(0.7)"/>
     </g>
    </g>
    <g id="line2d_19">
     <path d="M 394.8005 121.540312 
L 404.8005 121.540312 
L 414.8005 121.540312 
" style="fill: none; stroke: #808080; stroke-width: 4; stroke-linecap: square"/>
     <path d="M 394.8005 121.540312 
L 404.8005 121.540312 
L 414.8005 121.540312 
" style="fill: none; stroke: #800080; stroke-width: 2; stroke-linecap: square"/>
    </g>
    <g id="text_19">
     <!-- $\hat{c}_2$ -->
     <g transform="translate(422.8005 125.040312) scale(0.1 -0.1)">
      <use xlink:href="#DejaVuSans-302" transform="translate(59.323242 13.015625)"/>
      <use xlink:href="#DejaVuSans-Oblique-63" transform="translate(0 0.515625)"/>
      <use xlink:href="#DejaVuSans-32" transform="translate(55.9375 -15.890625) scale(0.7)"/>
     </g>
    </g>
   </g>
  </g>
 </g>
 <defs>
  <clipPath id="p55f479d838">
   <rect x="47.6525" y="7.2" width="334.8" height="194.04"/>
  </clipPath>
 </defs>
</svg>
