<?xml version="1.0" encoding="utf-8" standalone="no"?>
<!DOCTYPE svg PUBLIC "-//W3C//DTD SVG 1.1//EN"
  "http://www.w3.org/Graphics/SVG/1.1/DTD/svg11.dtd">
<svg xmlns:xlink="http://www.w3.org/1999/xlink" width="444.4005pt" height="244.098125pt" viewBox="0 0 444.4005 244.098125" xmlns="http://www.w3.org/2000/svg" version="1.1">
 <metadata>
  <rdf:RDF xmlns:dc="http://purl.org/dc/elements/1.1/" xmlns:cc="http://creativecommons.org/ns#" xmlns:rdf="http://www.w3.org/1999/02/22-rdf-syntax-ns#">
   <cc:Work>
    <dc:type rdf:resource="http://purl.org/dc/dcmitype/StillImage"/>
    <dc:date>2025-05-21T14:42:33.440595</dc:date>
    <dc:format>image/svg+xml</dc:format>
    <dc:creator>
     <cc:Agent>
      <dc:title>Matplotlib v3.10.1, https://matplotlib.org/</dc:title>
     </cc:Agent>
    </dc:creator>
   </cc:Work>
  </rdf:RDF>
 </metadata>
 <defs>
  <style type="text/css">*{stroke-linejoin: round; stroke-linecap: butt}</style>
 </defs>
 <g id="figure_1">
  <g id="patch_1">
   <path d="M 0 244.098125 
L 444.4005 244.098125 
L 444.4005 0 
L 0 0 
z
" style="fill: #ffffff; fill-opacity: 0.501961"/>
  </g>
  <g id="axes_1">
   <g id="patch_2">
    <path d="M 47.6525 201.24 
L 382.4525 201.24 
L 382.4525 7.2 
L 47.6525 7.2 
z
" style="fill: #ffffff; fill-opacity: 0.501961"/>
   </g>
   <g id="matplotlib.axis_1">
    <g id="xtick_1">
     <g id="line2d_1">
      <defs>
       <path id="mcd999746bb" d="M 0 0 
L 0 3.5 
" style="stroke: #000000; stroke-width: 0.8"/>
      </defs>
      <g>
       <use xlink:href="#mcd999746bb" x="62.870682" y="201.24" style="stroke: #000000; stroke-width: 0.8"/>
      </g>
     </g>
     <g id="text_1">
      <!-- 0 -->
      <g transform="translate(59.689432 215.838437) scale(0.1 -0.1)">
       <defs>
        <path id="DejaVuSans-30" d="M 2034 4250 
Q 1547 4250 1301 3770 
Q 1056 3291 1056 2328 
Q 1056 1369 1301 889 
Q 1547 409 2034 409 
Q 2525 409 2770 889 
Q 3016 1369 3016 2328 
Q 3016 3291 2770 3770 
Q 2525 4250 2034 4250 
z
M 2034 4750 
Q 2819 4750 3233 4129 
Q 3647 3509 3647 2328 
Q 3647 1150 3233 529 
Q 2819 -91 2034 -91 
Q 1250 -91 836 529 
Q 422 1150 422 2328 
Q 422 3509 836 4129 
Q 1250 4750 2034 4750 
z
" transform="scale(0.015625)"/>
       </defs>
       <use xlink:href="#DejaVuSans-30"/>
      </g>
     </g>
    </g>
    <g id="xtick_2">
     <g id="line2d_2">
      <g>
       <use xlink:href="#mcd999746bb" x="113.597955" y="201.24" style="stroke: #000000; stroke-width: 0.8"/>
      </g>
     </g>
     <g id="text_2">
      <!-- 50 -->
      <g transform="translate(107.235455 215.838437) scale(0.1 -0.1)">
       <defs>
        <path id="DejaVuSans-35" d="M 691 4666 
L 3169 4666 
L 3169 4134 
L 1269 4134 
L 1269 2991 
Q 1406 3038 1543 3061 
Q 1681 3084 1819 3084 
Q 2600 3084 3056 2656 
Q 3513 2228 3513 1497 
Q 3513 744 3044 326 
Q 2575 -91 1722 -91 
Q 1428 -91 1123 -41 
Q 819 9 494 109 
L 494 744 
Q 775 591 1075 516 
Q 1375 441 1709 441 
Q 2250 441 2565 725 
Q 2881 1009 2881 1497 
Q 2881 1984 2565 2268 
Q 2250 2553 1709 2553 
Q 1456 2553 1204 2497 
Q 953 2441 691 2322 
L 691 4666 
z
" transform="scale(0.015625)"/>
       </defs>
       <use xlink:href="#DejaVuSans-35"/>
       <use xlink:href="#DejaVuSans-30" transform="translate(63.623047 0)"/>
      </g>
     </g>
    </g>
    <g id="xtick_3">
     <g id="line2d_3">
      <g>
       <use xlink:href="#mcd999746bb" x="164.325227" y="201.24" style="stroke: #000000; stroke-width: 0.8"/>
      </g>
     </g>
     <g id="text_3">
      <!-- 100 -->
      <g transform="translate(154.781477 215.838437) scale(0.1 -0.1)">
       <defs>
        <path id="DejaVuSans-31" d="M 794 531 
L 1825 531 
L 1825 4091 
L 703 3866 
L 703 4441 
L 1819 4666 
L 2450 4666 
L 2450 531 
L 3481 531 
L 3481 0 
L 794 0 
L 794 531 
z
" transform="scale(0.015625)"/>
       </defs>
       <use xlink:href="#DejaVuSans-31"/>
       <use xlink:href="#DejaVuSans-30" transform="translate(63.623047 0)"/>
       <use xlink:href="#DejaVuSans-30" transform="translate(127.246094 0)"/>
      </g>
     </g>
    </g>
    <g id="xtick_4">
     <g id="line2d_4">
      <g>
       <use xlink:href="#mcd999746bb" x="215.0525" y="201.24" style="stroke: #000000; stroke-width: 0.8"/>
      </g>
     </g>
     <g id="text_4">
      <!-- 150 -->
      <g transform="translate(205.50875 215.838437) scale(0.1 -0.1)">
       <use xlink:href="#DejaVuSans-31"/>
       <use xlink:href="#DejaVuSans-35" transform="translate(63.623047 0)"/>
       <use xlink:href="#DejaVuSans-30" transform="translate(127.246094 0)"/>
      </g>
     </g>
    </g>
    <g id="xtick_5">
     <g id="line2d_5">
      <g>
       <use xlink:href="#mcd999746bb" x="265.779773" y="201.24" style="stroke: #000000; stroke-width: 0.8"/>
      </g>
     </g>
     <g id="text_5">
      <!-- 200 -->
      <g transform="translate(256.236023 215.838437) scale(0.1 -0.1)">
       <defs>
        <path id="DejaVuSans-32" d="M 1228 531 
L 3431 531 
L 3431 0 
L 469 0 
L 469 531 
Q 828 903 1448 1529 
Q 2069 2156 2228 2338 
Q 2531 2678 2651 2914 
Q 2772 3150 2772 3378 
Q 2772 3750 2511 3984 
Q 2250 4219 1831 4219 
Q 1534 4219 1204 4116 
Q 875 4013 500 3803 
L 500 4441 
Q 881 4594 1212 4672 
Q 1544 4750 1819 4750 
Q 2544 4750 2975 4387 
Q 3406 4025 3406 3419 
Q 3406 3131 3298 2873 
Q 3191 2616 2906 2266 
Q 2828 2175 2409 1742 
Q 1991 1309 1228 531 
z
" transform="scale(0.015625)"/>
       </defs>
       <use xlink:href="#DejaVuSans-32"/>
       <use xlink:href="#DejaVuSans-30" transform="translate(63.623047 0)"/>
       <use xlink:href="#DejaVuSans-30" transform="translate(127.246094 0)"/>
      </g>
     </g>
    </g>
    <g id="xtick_6">
     <g id="line2d_6">
      <g>
       <use xlink:href="#mcd999746bb" x="316.507045" y="201.24" style="stroke: #000000; stroke-width: 0.8"/>
      </g>
     </g>
     <g id="text_6">
      <!-- 250 -->
      <g transform="translate(306.963295 215.838437) scale(0.1 -0.1)">
       <use xlink:href="#DejaVuSans-32"/>
       <use xlink:href="#DejaVuSans-35" transform="translate(63.623047 0)"/>
       <use xlink:href="#DejaVuSans-30" transform="translate(127.246094 0)"/>
      </g>
     </g>
    </g>
    <g id="xtick_7">
     <g id="line2d_7">
      <g>
       <use xlink:href="#mcd999746bb" x="367.234318" y="201.24" style="stroke: #000000; stroke-width: 0.8"/>
      </g>
     </g>
     <g id="text_7">
      <!-- 300 -->
      <g transform="translate(357.690568 215.838437) scale(0.1 -0.1)">
       <defs>
        <path id="DejaVuSans-33" d="M 2597 2516 
Q 3050 2419 3304 2112 
Q 3559 1806 3559 1356 
Q 3559 666 3084 287 
Q 2609 -91 1734 -91 
Q 1441 -91 1130 -33 
Q 819 25 488 141 
L 488 750 
Q 750 597 1062 519 
Q 1375 441 1716 441 
Q 2309 441 2620 675 
Q 2931 909 2931 1356 
Q 2931 1769 2642 2001 
Q 2353 2234 1838 2234 
L 1294 2234 
L 1294 2753 
L 1863 2753 
Q 2328 2753 2575 2939 
Q 2822 3125 2822 3475 
Q 2822 3834 2567 4026 
Q 2313 4219 1838 4219 
Q 1578 4219 1281 4162 
Q 984 4106 628 3988 
L 628 4550 
Q 988 4650 1302 4700 
Q 1616 4750 1894 4750 
Q 2613 4750 3031 4423 
Q 3450 4097 3450 3541 
Q 3450 3153 3228 2886 
Q 3006 2619 2597 2516 
z
" transform="scale(0.015625)"/>
       </defs>
       <use xlink:href="#DejaVuSans-33"/>
       <use xlink:href="#DejaVuSans-30" transform="translate(63.623047 0)"/>
       <use xlink:href="#DejaVuSans-30" transform="translate(127.246094 0)"/>
      </g>
     </g>
    </g>
    <g id="text_8">
     <!-- $\hat{t}$ -->
     <g transform="translate(212.2525 233.986562) scale(0.14 -0.14)">
      <defs>
       <path id="DejaVuSans-302" d="M -1831 5119 
L -1369 5119 
L -603 3944 
L -1038 3944 
L -1600 4709 
L -2163 3944 
L -2597 3944 
L -1831 5119 
z
M -1600 3584 
L -1600 3584 
z
" transform="scale(0.015625)"/>
       <path id="DejaVuSans-Oblique-74" d="M 2706 3500 
L 2619 3053 
L 1472 3053 
L 1100 1153 
Q 1081 1047 1072 975 
Q 1063 903 1063 863 
Q 1063 663 1183 572 
Q 1303 481 1569 481 
L 2150 481 
L 2053 0 
L 1503 0 
Q 991 0 739 200 
Q 488 400 488 806 
Q 488 878 497 964 
Q 506 1050 525 1153 
L 897 3053 
L 409 3053 
L 500 3500 
L 978 3500 
L 1172 4494 
L 1747 4494 
L 1556 3500 
L 2706 3500 
z
" transform="scale(0.015625)"/>
      </defs>
      <use xlink:href="#DejaVuSans-302" transform="translate(49.380371 27.015625)"/>
      <use xlink:href="#DejaVuSans-Oblique-74" transform="translate(0 0.296875)"/>
     </g>
    </g>
   </g>
   <g id="matplotlib.axis_2">
    <g id="ytick_1">
     <g id="line2d_8">
      <defs>
       <path id="m505663f3dd" d="M 0 0 
L -3.5 0 
" style="stroke: #000000; stroke-width: 0.8"/>
      </defs>
      <g>
       <use xlink:href="#m505663f3dd" x="47.6525" y="194.428105" style="stroke: #000000; stroke-width: 0.8"/>
      </g>
     </g>
     <g id="text_9">
      <!-- 0.0 -->
      <g transform="translate(24.749375 198.227323) scale(0.1 -0.1)">
       <defs>
        <path id="DejaVuSans-2e" d="M 684 794 
L 1344 794 
L 1344 0 
L 684 0 
L 684 794 
z
" transform="scale(0.015625)"/>
       </defs>
       <use xlink:href="#DejaVuSans-30"/>
       <use xlink:href="#DejaVuSans-2e" transform="translate(63.623047 0)"/>
       <use xlink:href="#DejaVuSans-30" transform="translate(95.410156 0)"/>
      </g>
     </g>
    </g>
    <g id="ytick_2">
     <g id="line2d_9">
      <g>
       <use xlink:href="#m505663f3dd" x="47.6525" y="167.180523" style="stroke: #000000; stroke-width: 0.8"/>
      </g>
     </g>
     <g id="text_10">
      <!-- 0.2 -->
      <g transform="translate(24.749375 170.979741) scale(0.1 -0.1)">
       <use xlink:href="#DejaVuSans-30"/>
       <use xlink:href="#DejaVuSans-2e" transform="translate(63.623047 0)"/>
       <use xlink:href="#DejaVuSans-32" transform="translate(95.410156 0)"/>
      </g>
     </g>
    </g>
    <g id="ytick_3">
     <g id="line2d_10">
      <g>
       <use xlink:href="#m505663f3dd" x="47.6525" y="139.932941" style="stroke: #000000; stroke-width: 0.8"/>
      </g>
     </g>
     <g id="text_11">
      <!-- 0.4 -->
      <g transform="translate(24.749375 143.732159) scale(0.1 -0.1)">
       <defs>
        <path id="DejaVuSans-34" d="M 2419 4116 
L 825 1625 
L 2419 1625 
L 2419 4116 
z
M 2253 4666 
L 3047 4666 
L 3047 1625 
L 3713 1625 
L 3713 1100 
L 3047 1100 
L 3047 0 
L 2419 0 
L 2419 1100 
L 313 1100 
L 313 1709 
L 2253 4666 
z
" transform="scale(0.015625)"/>
       </defs>
       <use xlink:href="#DejaVuSans-30"/>
       <use xlink:href="#DejaVuSans-2e" transform="translate(63.623047 0)"/>
       <use xlink:href="#DejaVuSans-34" transform="translate(95.410156 0)"/>
      </g>
     </g>
    </g>
    <g id="ytick_4">
     <g id="line2d_11">
      <g>
       <use xlink:href="#m505663f3dd" x="47.6525" y="112.685359" style="stroke: #000000; stroke-width: 0.8"/>
      </g>
     </g>
     <g id="text_12">
      <!-- 0.6 -->
      <g transform="translate(24.749375 116.484577) scale(0.1 -0.1)">
       <defs>
        <path id="DejaVuSans-36" d="M 2113 2584 
Q 1688 2584 1439 2293 
Q 1191 2003 1191 1497 
Q 1191 994 1439 701 
Q 1688 409 2113 409 
Q 2538 409 2786 701 
Q 3034 994 3034 1497 
Q 3034 2003 2786 2293 
Q 2538 2584 2113 2584 
z
M 3366 4563 
L 3366 3988 
Q 3128 4100 2886 4159 
Q 2644 4219 2406 4219 
Q 1781 4219 1451 3797 
Q 1122 3375 1075 2522 
Q 1259 2794 1537 2939 
Q 1816 3084 2150 3084 
Q 2853 3084 3261 2657 
Q 3669 2231 3669 1497 
Q 3669 778 3244 343 
Q 2819 -91 2113 -91 
Q 1303 -91 875 529 
Q 447 1150 447 2328 
Q 447 3434 972 4092 
Q 1497 4750 2381 4750 
Q 2619 4750 2861 4703 
Q 3103 4656 3366 4563 
z
" transform="scale(0.015625)"/>
       </defs>
       <use xlink:href="#DejaVuSans-30"/>
       <use xlink:href="#DejaVuSans-2e" transform="translate(63.623047 0)"/>
       <use xlink:href="#DejaVuSans-36" transform="translate(95.410156 0)"/>
      </g>
     </g>
    </g>
    <g id="ytick_5">
     <g id="line2d_12">
      <g>
       <use xlink:href="#m505663f3dd" x="47.6525" y="85.437777" style="stroke: #000000; stroke-width: 0.8"/>
      </g>
     </g>
     <g id="text_13">
      <!-- 0.8 -->
      <g transform="translate(24.749375 89.236995) scale(0.1 -0.1)">
       <defs>
        <path id="DejaVuSans-38" d="M 2034 2216 
Q 1584 2216 1326 1975 
Q 1069 1734 1069 1313 
Q 1069 891 1326 650 
Q 1584 409 2034 409 
Q 2484 409 2743 651 
Q 3003 894 3003 1313 
Q 3003 1734 2745 1975 
Q 2488 2216 2034 2216 
z
M 1403 2484 
Q 997 2584 770 2862 
Q 544 3141 544 3541 
Q 544 4100 942 4425 
Q 1341 4750 2034 4750 
Q 2731 4750 3128 4425 
Q 3525 4100 3525 3541 
Q 3525 3141 3298 2862 
Q 3072 2584 2669 2484 
Q 3125 2378 3379 2068 
Q 3634 1759 3634 1313 
Q 3634 634 3220 271 
Q 2806 -91 2034 -91 
Q 1263 -91 848 271 
Q 434 634 434 1313 
Q 434 1759 690 2068 
Q 947 2378 1403 2484 
z
M 1172 3481 
Q 1172 3119 1398 2916 
Q 1625 2713 2034 2713 
Q 2441 2713 2670 2916 
Q 2900 3119 2900 3481 
Q 2900 3844 2670 4047 
Q 2441 4250 2034 4250 
Q 1625 4250 1398 4047 
Q 1172 3844 1172 3481 
z
" transform="scale(0.015625)"/>
       </defs>
       <use xlink:href="#DejaVuSans-30"/>
       <use xlink:href="#DejaVuSans-2e" transform="translate(63.623047 0)"/>
       <use xlink:href="#DejaVuSans-38" transform="translate(95.410156 0)"/>
      </g>
     </g>
    </g>
    <g id="ytick_6">
     <g id="line2d_13">
      <g>
       <use xlink:href="#m505663f3dd" x="47.6525" y="58.190195" style="stroke: #000000; stroke-width: 0.8"/>
      </g>
     </g>
     <g id="text_14">
      <!-- 1.0 -->
      <g transform="translate(24.749375 61.989413) scale(0.1 -0.1)">
       <use xlink:href="#DejaVuSans-31"/>
       <use xlink:href="#DejaVuSans-2e" transform="translate(63.623047 0)"/>
       <use xlink:href="#DejaVuSans-30" transform="translate(95.410156 0)"/>
      </g>
     </g>
    </g>
    <g id="ytick_7">
     <g id="line2d_14">
      <g>
       <use xlink:href="#m505663f3dd" x="47.6525" y="30.942613" style="stroke: #000000; stroke-width: 0.8"/>
      </g>
     </g>
     <g id="text_15">
      <!-- 1.2 -->
      <g transform="translate(24.749375 34.741831) scale(0.1 -0.1)">
       <use xlink:href="#DejaVuSans-31"/>
       <use xlink:href="#DejaVuSans-2e" transform="translate(63.623047 0)"/>
       <use xlink:href="#DejaVuSans-32" transform="translate(95.410156 0)"/>
      </g>
     </g>
    </g>
    <g id="text_16">
     <!-- $\hat{c}$ -->
     <g transform="translate(17.837812 108.07) rotate(-90) scale(0.14 -0.14)">
      <defs>
       <path id="DejaVuSans-Oblique-63" d="M 3431 3366 
L 3316 2797 
Q 3109 2947 2876 3022 
Q 2644 3097 2394 3097 
Q 2119 3097 1870 3000 
Q 1622 2903 1453 2725 
Q 1184 2453 1037 2087 
Q 891 1722 891 1331 
Q 891 859 1127 628 
Q 1363 397 1844 397 
Q 2081 397 2348 469 
Q 2616 541 2906 684 
L 2797 116 
Q 2547 13 2283 -39 
Q 2019 -91 1741 -91 
Q 1044 -91 669 257 
Q 294 606 294 1253 
Q 294 1797 489 2255 
Q 684 2713 1069 3078 
Q 1331 3328 1684 3456 
Q 2038 3584 2456 3584 
Q 2700 3584 2940 3529 
Q 3181 3475 3431 3366 
z
" transform="scale(0.015625)"/>
      </defs>
      <use xlink:href="#DejaVuSans-302" transform="translate(59.323242 13.015625)"/>
      <use xlink:href="#DejaVuSans-Oblique-63" transform="translate(0 0.515625)"/>
     </g>
    </g>
   </g>
   <g id="line2d_15">
    <path d="M 62.870682 194.428105 
L 66.594064 194.317663 
L 67.902827 194.04954 
L 68.907227 193.619846 
L 69.779736 193.003855 
L 70.601518 192.144919 
L 71.413155 190.961161 
L 72.234936 189.351082 
L 73.087155 187.167907 
L 73.979955 184.240702 
L 74.933627 180.310853 
L 75.958318 175.094167 
L 77.074318 168.201545 
L 78.322209 159.031171 
L 79.773009 146.629635 
L 81.660064 128.420061 
L 86.783518 77.946433 
L 88.366209 65.108587 
L 89.745991 55.657023 
L 91.004027 48.514349 
L 92.170755 43.109485 
L 93.276609 38.991098 
L 94.331736 35.881099 
L 95.346282 33.553796 
L 96.330391 31.832127 
L 97.294209 30.580235 
L 98.247882 29.695374 
L 99.221845 29.090564 
L 100.246536 28.716731 
L 101.362536 28.548506 
L 102.651009 28.58456 
L 104.243845 28.862547 
L 106.425118 29.487259 
L 110.513736 30.937115 
L 119.319991 34.038895 
L 158.856827 47.343463 
L 165.867336 49.31109 
L 172.512609 50.94624 
L 179.097009 52.337134 
L 185.833591 53.531424 
L 192.904973 54.556814 
L 200.514064 55.432238 
L 208.924645 56.171614 
L 218.491809 56.78386 
L 229.793845 57.276886 
L 243.804718 57.655808 
L 262.533227 57.926122 
L 291.0521 58.093452 
L 349.560936 58.168743 
L 367.234318 58.174093 
L 367.234318 58.174093 
" clip-path="url(#p21af3d4c0e)" style="fill: none; stroke: #808080; stroke-width: 4; stroke-linecap: square"/>
    <path d="M 62.870682 194.428105 
L 66.594064 194.317663 
L 67.902827 194.04954 
L 68.907227 193.619846 
L 69.779736 193.003855 
L 70.601518 192.144919 
L 71.413155 190.961161 
L 72.234936 189.351082 
L 73.087155 187.167907 
L 73.979955 184.240702 
L 74.933627 180.310853 
L 75.958318 175.094167 
L 77.074318 168.201545 
L 78.322209 159.031171 
L 79.773009 146.629635 
L 81.660064 128.420061 
L 86.783518 77.946433 
L 88.366209 65.108587 
L 89.745991 55.657023 
L 91.004027 48.514349 
L 92.170755 43.109485 
L 93.276609 38.991098 
L 94.331736 35.881099 
L 95.346282 33.553796 
L 96.330391 31.832127 
L 97.294209 30.580235 
L 98.247882 29.695374 
L 99.221845 29.090564 
L 100.246536 28.716731 
L 101.362536 28.548506 
L 102.651009 28.58456 
L 104.243845 28.862547 
L 106.425118 29.487259 
L 110.513736 30.937115 
L 119.319991 34.038895 
L 158.856827 47.343463 
L 165.867336 49.31109 
L 172.512609 50.94624 
L 179.097009 52.337134 
L 185.833591 53.531424 
L 192.904973 54.556814 
L 200.514064 55.432238 
L 208.924645 56.171614 
L 218.491809 56.78386 
L 229.793845 57.276886 
L 243.804718 57.655808 
L 262.533227 57.926122 
L 291.0521 58.093452 
L 349.560936 58.168743 
L 367.234318 58.174093 
L 367.234318 58.174093 
" clip-path="url(#p21af3d4c0e)" style="fill: none; stroke: #a9a9a9; stroke-width: 2; stroke-linecap: square"/>
   </g>
   <g id="line2d_16">
    <path d="M 62.870682 194.428105 
L 66.350573 194.317674 
L 67.933264 194.045364 
L 69.160864 193.613953 
L 70.226136 193.005787 
L 71.220391 192.177284 
L 72.174064 191.086888 
L 73.127736 189.648793 
L 74.1017 187.761557 
L 75.1061 185.311098 
L 76.161227 182.123696 
L 77.277227 178.011356 
L 78.474391 172.709577 
L 79.773009 165.90607 
L 81.223809 157.07032 
L 82.928245 145.246956 
L 85.210973 127.706074 
L 90.608355 85.697384 
L 92.566427 72.512413 
L 94.291155 62.356874 
L 95.873845 54.315852 
L 97.365227 47.846292 
L 98.795736 42.599633 
L 100.175518 38.361479 
L 101.504573 34.972253 
L 102.803191 32.248926 
L 104.081518 30.071357 
L 105.339555 28.356397 
L 106.587445 27.020797 
L 107.845482 25.99299 
L 109.133955 25.224597 
L 110.473155 24.684478 
L 111.893518 24.352443 
L 113.435627 24.222478 
L 115.160355 24.304938 
L 117.138718 24.628992 
L 119.472173 25.244322 
L 122.343336 26.241509 
L 126.066718 27.783394 
L 131.372791 30.24131 
L 143.090791 35.990731 
L 151.957918 40.201065 
L 158.5829 43.103787 
L 164.538282 45.473113 
L 170.199445 47.487781 
L 175.779445 49.237904 
L 181.400027 50.767551 
L 187.193082 52.112426 
L 193.260064 53.290819 
L 199.743009 54.320732 
L 206.7941 55.21224 
L 214.626391 55.97421 
L 223.554391 56.614072 
L 234.065082 57.137369 
L 246.9701 57.547984 
L 263.841991 57.849893 
L 288.383845 58.047954 
L 332.942682 58.15039 
L 367.234318 58.169057 
L 367.234318 58.169057 
" clip-path="url(#p21af3d4c0e)" style="fill: none; stroke: #808080; stroke-width: 4; stroke-linecap: square"/>
    <path d="M 62.870682 194.428105 
L 66.350573 194.317674 
L 67.933264 194.045364 
L 69.160864 193.613953 
L 70.226136 193.005787 
L 71.220391 192.177284 
L 72.174064 191.086888 
L 73.127736 189.648793 
L 74.1017 187.761557 
L 75.1061 185.311098 
L 76.161227 182.123696 
L 77.277227 178.011356 
L 78.474391 172.709577 
L 79.773009 165.90607 
L 81.223809 157.07032 
L 82.928245 145.246956 
L 85.210973 127.706074 
L 90.608355 85.697384 
L 92.566427 72.512413 
L 94.291155 62.356874 
L 95.873845 54.315852 
L 97.365227 47.846292 
L 98.795736 42.599633 
L 100.175518 38.361479 
L 101.504573 34.972253 
L 102.803191 32.248926 
L 104.081518 30.071357 
L 105.339555 28.356397 
L 106.587445 27.020797 
L 107.845482 25.99299 
L 109.133955 25.224597 
L 110.473155 24.684478 
L 111.893518 24.352443 
L 113.435627 24.222478 
L 115.160355 24.304938 
L 117.138718 24.628992 
L 119.472173 25.244322 
L 122.343336 26.241509 
L 126.066718 27.783394 
L 131.372791 30.24131 
L 143.090791 35.990731 
L 151.957918 40.201065 
L 158.5829 43.103787 
L 164.538282 45.473113 
L 170.199445 47.487781 
L 175.779445 49.237904 
L 181.400027 50.767551 
L 187.193082 52.112426 
L 193.260064 53.290819 
L 199.743009 54.320732 
L 206.7941 55.21224 
L 214.626391 55.97421 
L 223.554391 56.614072 
L 234.065082 57.137369 
L 246.9701 57.547984 
L 263.841991 57.849893 
L 288.383845 58.047954 
L 332.942682 58.15039 
L 367.234318 58.169057 
L 367.234318 58.169057 
" clip-path="url(#p21af3d4c0e)" style="fill: none; stroke: #800080; stroke-width: 2; stroke-linecap: square"/>
   </g>
   <g id="line2d_17">
    <path d="M 62.870682 194.428105 
L 63.763482 194.328937 
L 64.098282 194.010084 
L 73.148027 193.026961 
L 76.972864 192.301225 
L 80.544064 191.398095 
L 84.115264 190.263494 
L 87.8285 188.847584 
L 91.683773 187.137952 
L 95.508609 185.19958 
L 99.191409 183.08545 
L 102.732173 180.79702 
L 106.171482 178.308909 
L 109.549918 175.589698 
L 112.918209 172.591615 
L 116.316936 169.265786 
L 119.786682 165.555069 
L 123.368027 161.394963 
L 127.131991 156.676599 
L 131.180027 151.238355 
L 135.694755 144.790174 
L 141.132718 136.61627 
L 150.679591 121.773935 
L 158.065482 110.493624 
L 163.1585 103.113886 
L 167.561627 97.116458 
L 171.589373 91.998576 
L 175.393918 87.518272 
L 179.046282 83.555854 
L 182.607336 80.016813 
L 186.117664 76.839243 
L 189.6077 73.978463 
L 193.097736 71.403364 
L 196.628355 69.073709 
L 200.219845 66.969838 
L 203.902645 65.070106 
L 207.707191 63.358013 
L 211.674064 61.817697 
L 215.843845 60.438899 
L 220.257118 59.215559 
L 224.9849 58.138163 
L 230.098209 57.203784 
L 235.708645 56.408379 
L 241.9481 55.752901 
L 249.019482 55.238985 
L 257.227155 54.871843 
L 267.088536 54.661368 
L 279.587736 54.627876 
L 297.149518 54.820507 
L 332.415118 55.481875 
L 367.234318 56.121132 
L 367.234318 56.121132 
" clip-path="url(#p21af3d4c0e)" style="fill: none; stroke: #808080; stroke-width: 4; stroke-linecap: square"/>
    <path d="M 62.870682 194.428105 
L 63.763482 194.328937 
L 64.098282 194.010084 
L 73.148027 193.026961 
L 76.972864 192.301225 
L 80.544064 191.398095 
L 84.115264 190.263494 
L 87.8285 188.847584 
L 91.683773 187.137952 
L 95.508609 185.19958 
L 99.191409 183.08545 
L 102.732173 180.79702 
L 106.171482 178.308909 
L 109.549918 175.589698 
L 112.918209 172.591615 
L 116.316936 169.265786 
L 119.786682 165.555069 
L 123.368027 161.394963 
L 127.131991 156.676599 
L 131.180027 151.238355 
L 135.694755 144.790174 
L 141.132718 136.61627 
L 150.679591 121.773935 
L 158.065482 110.493624 
L 163.1585 103.113886 
L 167.561627 97.116458 
L 171.589373 91.998576 
L 175.393918 87.518272 
L 179.046282 83.555854 
L 182.607336 80.016813 
L 186.117664 76.839243 
L 189.6077 73.978463 
L 193.097736 71.403364 
L 196.628355 69.073709 
L 200.219845 66.969838 
L 203.902645 65.070106 
L 207.707191 63.358013 
L 211.674064 61.817697 
L 215.843845 60.438899 
L 220.257118 59.215559 
L 224.9849 58.138163 
L 230.098209 57.203784 
L 235.708645 56.408379 
L 241.9481 55.752901 
L 249.019482 55.238985 
L 257.227155 54.871843 
L 267.088536 54.661368 
L 279.587736 54.627876 
L 297.149518 54.820507 
L 332.415118 55.481875 
L 367.234318 56.121132 
L 367.234318 56.121132 
" clip-path="url(#p21af3d4c0e)" style="fill: none; stroke: #0000ff; stroke-width: 2; stroke-linecap: square"/>
   </g>
   <g id="line2d_18">
    <path d="M 62.870682 194.428105 
L 63.7229 194.32087 
L 64.250464 193.342627 
L 68.9681 192.640557 
L 72.945118 191.826132 
L 76.587336 190.8548 
L 80.148391 189.673621 
L 83.881918 188.196822 
L 88.011118 186.318877 
L 92.485264 184.037583 
L 96.888391 181.545034 
L 101.037882 178.942283 
L 105.004755 176.191533 
L 108.870173 173.240018 
L 112.725445 170.014519 
L 116.631445 166.45337 
L 120.649045 162.486107 
L 124.8797 157.990984 
L 129.4553 152.798024 
L 134.659918 146.543366 
L 141.335627 138.148157 
L 157.274136 117.972102 
L 162.620791 111.650545 
L 167.318136 106.434111 
L 171.670536 101.928039 
L 175.809882 97.958059 
L 179.837627 94.400423 
L 183.794355 91.199608 
L 187.740936 88.291514 
L 191.707809 85.643754 
L 195.735555 83.222376 
L 199.854609 81.005312 
L 204.1157 78.965082 
L 208.549264 77.089848 
L 213.206027 75.362866 
L 218.146864 73.769521 
L 223.442791 72.297984 
L 229.174973 70.939304 
L 235.444864 69.685123 
L 242.404645 68.52378 
L 250.236936 67.446835 
L 259.215664 66.442135 
L 269.706064 65.498247 
L 282.255991 64.599655 
L 297.616209 63.731005 
L 316.801264 62.877572 
L 340.906864 62.036424 
L 367.234318 61.310855 
L 367.234318 61.310855 
" clip-path="url(#p21af3d4c0e)" style="fill: none; stroke: #808080; stroke-width: 4; stroke-linecap: square"/>
    <path d="M 62.870682 194.428105 
L 63.7229 194.32087 
L 64.250464 193.342627 
L 68.9681 192.640557 
L 72.945118 191.826132 
L 76.587336 190.8548 
L 80.148391 189.673621 
L 83.881918 188.196822 
L 88.011118 186.318877 
L 92.485264 184.037583 
L 96.888391 181.545034 
L 101.037882 178.942283 
L 105.004755 176.191533 
L 108.870173 173.240018 
L 112.725445 170.014519 
L 116.631445 166.45337 
L 120.649045 162.486107 
L 124.8797 157.990984 
L 129.4553 152.798024 
L 134.659918 146.543366 
L 141.335627 138.148157 
L 157.274136 117.972102 
L 162.620791 111.650545 
L 167.318136 106.434111 
L 171.670536 101.928039 
L 175.809882 97.958059 
L 179.837627 94.400423 
L 183.794355 91.199608 
L 187.740936 88.291514 
L 191.707809 85.643754 
L 195.735555 83.222376 
L 199.854609 81.005312 
L 204.1157 78.965082 
L 208.549264 77.089848 
L 213.206027 75.362866 
L 218.146864 73.769521 
L 223.442791 72.297984 
L 229.174973 70.939304 
L 235.444864 69.685123 
L 242.404645 68.52378 
L 250.236936 67.446835 
L 259.215664 66.442135 
L 269.706064 65.498247 
L 282.255991 64.599655 
L 297.616209 63.731005 
L 316.801264 62.877572 
L 340.906864 62.036424 
L 367.234318 61.310855 
L 367.234318 61.310855 
" clip-path="url(#p21af3d4c0e)" style="fill: none; stroke: #008000; stroke-width: 2; stroke-linecap: square"/>
   </g>
   <g id="line2d_19">
    <path d="M 62.870682 194.428105 
L 63.682318 194.341651 
L 63.773627 193.829431 
L 64.108427 191.676692 
L 64.625845 191.530631 
L 68.339082 190.431683 
L 71.737809 189.195785 
L 74.964064 187.785711 
L 78.180173 186.134975 
L 81.609336 184.118673 
L 85.555918 181.529876 
L 90.324282 178.126356 
L 95.437591 174.205573 
L 100.175518 170.295834 
L 104.619227 166.340628 
L 108.971627 162.166727 
L 113.374755 157.632194 
L 117.9605 152.585267 
L 122.911482 146.79832 
L 128.582791 139.814437 
L 136.202027 130.047133 
L 149.3201 113.210982 
L 154.971118 106.356651 
L 159.8105 100.828249 
L 164.233918 96.107034 
L 168.4037 91.977717 
L 172.411155 88.318558 
L 176.3273 85.041276 
L 180.192718 82.094 
L 184.058136 79.42498 
L 187.953991 77.004517 
L 191.910718 74.807418 
L 195.9689 72.808112 
L 200.169118 70.987226 
L 204.551955 69.33061 
L 209.168136 67.825162 
L 214.078536 66.459997 
L 219.354173 65.226984 
L 225.086355 64.118929 
L 231.396827 63.12929 
L 238.458064 62.251529 
L 246.503409 61.480907 
L 255.887955 60.811896 
L 267.1697 60.238543 
L 281.292173 59.753351 
L 300.020682 59.345153 
L 326.967009 58.997201 
L 367.234318 58.702425 
L 367.234318 58.702425 
" clip-path="url(#p21af3d4c0e)" style="fill: none; stroke: #808080; stroke-width: 4; stroke-linecap: square"/>
    <path d="M 62.870682 194.428105 
L 63.682318 194.341651 
L 63.773627 193.829431 
L 64.108427 191.676692 
L 64.625845 191.530631 
L 68.339082 190.431683 
L 71.737809 189.195785 
L 74.964064 187.785711 
L 78.180173 186.134975 
L 81.609336 184.118673 
L 85.555918 181.529876 
L 90.324282 178.126356 
L 95.437591 174.205573 
L 100.175518 170.295834 
L 104.619227 166.340628 
L 108.971627 162.166727 
L 113.374755 157.632194 
L 117.9605 152.585267 
L 122.911482 146.79832 
L 128.582791 139.814437 
L 136.202027 130.047133 
L 149.3201 113.210982 
L 154.971118 106.356651 
L 159.8105 100.828249 
L 164.233918 96.107034 
L 168.4037 91.977717 
L 172.411155 88.318558 
L 176.3273 85.041276 
L 180.192718 82.094 
L 184.058136 79.42498 
L 187.953991 77.004517 
L 191.910718 74.807418 
L 195.9689 72.808112 
L 200.169118 70.987226 
L 204.551955 69.33061 
L 209.168136 67.825162 
L 214.078536 66.459997 
L 219.354173 65.226984 
L 225.086355 64.118929 
L 231.396827 63.12929 
L 238.458064 62.251529 
L 246.503409 61.480907 
L 255.887955 60.811896 
L 267.1697 60.238543 
L 281.292173 59.753351 
L 300.020682 59.345153 
L 326.967009 58.997201 
L 367.234318 58.702425 
L 367.234318 58.702425 
" clip-path="url(#p21af3d4c0e)" style="fill: none; stroke: #ffa500; stroke-width: 2; stroke-linecap: square"/>
   </g>
   <g id="line2d_20">
    <path d="M 62.870682 194.428105 
L 63.662027 194.329374 
L 63.743191 193.635857 
L 64.230173 187.15365 
L 69.130427 184.36838 
L 72.265373 182.268008 
L 75.410464 179.889403 
L 78.758464 177.070803 
L 82.715191 173.434255 
L 88.548827 167.736154 
L 97.131882 159.04324 
L 103.391627 152.398581 
L 109.123809 145.986308 
L 115.069045 138.995051 
L 121.988245 130.499444 
L 145.343082 101.509729 
L 150.507118 95.650818 
L 155.133445 90.731742 
L 159.435118 86.476925 
L 163.533882 82.731268 
L 167.500755 79.40393 
L 171.396609 76.424342 
L 175.251882 73.753834 
L 179.1173 71.345925 
L 183.013155 69.180049 
L 186.990173 67.223408 
L 191.078791 65.460377 
L 195.319591 63.875111 
L 199.753155 62.456488 
L 204.440355 61.191952 
L 209.442064 60.074895 
L 214.849591 59.097688 
L 220.774536 58.256426 
L 227.369082 57.549042 
L 234.846282 56.975662 
L 243.551082 56.53744 
L 254.051627 56.239705 
L 267.413191 56.094357 
L 286.202573 56.129543 
L 321.285555 56.459455 
L 367.234318 56.92651 
L 367.234318 56.92651 
" clip-path="url(#p21af3d4c0e)" style="fill: none; stroke: #808080; stroke-width: 4; stroke-linecap: square"/>
    <path d="M 62.870682 194.428105 
L 63.662027 194.329374 
L 63.743191 193.635857 
L 64.230173 187.15365 
L 69.130427 184.36838 
L 72.265373 182.268008 
L 75.410464 179.889403 
L 78.758464 177.070803 
L 82.715191 173.434255 
L 88.548827 167.736154 
L 97.131882 159.04324 
L 103.391627 152.398581 
L 109.123809 145.986308 
L 115.069045 138.995051 
L 121.988245 130.499444 
L 145.343082 101.509729 
L 150.507118 95.650818 
L 155.133445 90.731742 
L 159.435118 86.476925 
L 163.533882 82.731268 
L 167.500755 79.40393 
L 171.396609 76.424342 
L 175.251882 73.753834 
L 179.1173 71.345925 
L 183.013155 69.180049 
L 186.990173 67.223408 
L 191.078791 65.460377 
L 195.319591 63.875111 
L 199.753155 62.456488 
L 204.440355 61.191952 
L 209.442064 60.074895 
L 214.849591 59.097688 
L 220.774536 58.256426 
L 227.369082 57.549042 
L 234.846282 56.975662 
L 243.551082 56.53744 
L 254.051627 56.239705 
L 267.413191 56.094357 
L 286.202573 56.129543 
L 321.285555 56.459455 
L 367.234318 56.92651 
L 367.234318 56.92651 
" clip-path="url(#p21af3d4c0e)" style="fill: none; stroke: #ff0000; stroke-width: 2; stroke-linecap: square"/>
   </g>
   <g id="line2d_21">
    <path d="M 47.6525 58.190195 
L 382.4525 58.190195 
" clip-path="url(#p21af3d4c0e)" style="fill: none; stroke-dasharray: 1,1.65; stroke-dashoffset: 0; stroke: #000000"/>
   </g>
   <g id="patch_3">
    <path d="M 47.6525 201.24 
L 47.6525 7.2 
" style="fill: none; stroke: #000000; stroke-width: 0.8; stroke-linejoin: miter; stroke-linecap: square"/>
   </g>
   <g id="patch_4">
    <path d="M 47.6525 201.24 
L 382.4525 201.24 
" style="fill: none; stroke: #000000; stroke-width: 0.8; stroke-linejoin: miter; stroke-linecap: square"/>
   </g>
   <g id="legend_1">
    <g id="patch_5">
     <path d="M 392.8005 163.27 
L 435.2005 163.27 
Q 437.2005 163.27 437.2005 161.27 
L 437.2005 47.17 
Q 437.2005 45.17 435.2005 45.17 
L 392.8005 45.17 
Q 390.8005 45.17 390.8005 47.17 
L 390.8005 161.27 
Q 390.8005 163.27 392.8005 163.27 
z
" style="fill: #ffffff; opacity: 0.8; stroke: #cccccc; stroke-linejoin: miter"/>
    </g>
    <g id="text_17">
     <!-- $\hat{c}_j\left( \hat{t} \right)$ -->
     <g transform="translate(404.0505 59.87) scale(0.1 -0.1)">
      <defs>
       <path id="DejaVuSans-Oblique-6a" d="M 928 3500 
L 1503 3500 
L 813 -63 
L 809 -78 
Q 694 -675 544 -897 
Q 403 -1106 132 -1218 
Q -138 -1331 -506 -1331 
L -722 -1331 
L -628 -844 
L -481 -844 
Q -144 -844 -1 -703 
Q 141 -563 238 -63 
L 928 3500 
z
M 1197 4863 
L 1772 4863 
L 1631 4134 
L 1056 4134 
L 1197 4863 
z
" transform="scale(0.015625)"/>
       <path id="STIXSizeOneSym-Regular-28" d="M 2445 -858 
L 2445 -1050 
Q 1728 -371 1309 630 
Q 890 1632 890 2886 
Q 890 4122 1309 5136 
Q 1728 6150 2445 6822 
L 2445 6630 
Q 1408 5363 1408 2886 
Q 1408 410 2445 -858 
z
" transform="scale(0.015625)"/>
       <path id="STIXSizeOneSym-Regular-29" d="M 550 6630 
L 550 6822 
Q 1267 6144 1686 5142 
Q 2106 4141 2106 2886 
Q 2106 1651 1686 636 
Q 1267 -378 550 -1050 
L 550 -858 
Q 1587 410 1587 2886 
Q 1587 5363 550 6630 
z
" transform="scale(0.015625)"/>
      </defs>
      <use xlink:href="#DejaVuSans-302" transform="translate(59.323242 12.5)"/>
      <use xlink:href="#DejaVuSans-Oblique-63"/>
      <use xlink:href="#DejaVuSans-Oblique-6a" transform="translate(55.9375 -16.40625) scale(0.7)"/>
      <use xlink:href="#STIXSizeOneSym-Regular-28" transform="translate(78.120117 14.265625) scale(0.867505)"/>
      <use xlink:href="#DejaVuSans-302" transform="translate(168.099487 26.71875)"/>
      <use xlink:href="#DejaVuSans-Oblique-74" transform="translate(118.719116 0)"/>
      <use xlink:href="#STIXSizeOneSym-Regular-29" transform="translate(157.928101 14.265625) scale(0.867505)"/>
     </g>
    </g>
    <g id="line2d_22">
     <path d="M 394.8005 73.390312 
L 404.8005 73.390312 
L 414.8005 73.390312 
" style="fill: none; stroke: #808080; stroke-width: 4; stroke-linecap: square"/>
     <path d="M 394.8005 73.390312 
L 404.8005 73.390312 
L 414.8005 73.390312 
" style="fill: none; stroke: #a9a9a9; stroke-width: 2; stroke-linecap: square"/>
    </g>
    <g id="text_18">
     <!-- $\hat{c}_1$ -->
     <g transform="translate(422.8005 76.890312) scale(0.1 -0.1)">
      <use xlink:href="#DejaVuSans-302" transform="translate(59.323242 13.015625)"/>
      <use xlink:href="#DejaVuSans-Oblique-63" transform="translate(0 0.515625)"/>
      <use xlink:href="#DejaVuSans-31" transform="translate(55.9375 -15.890625) scale(0.7)"/>
     </g>
    </g>
    <g id="line2d_23">
     <path d="M 394.8005 89.390312 
L 404.8005 89.390312 
L 414.8005 89.390312 
" style="fill: none; stroke: #808080; stroke-width: 4; stroke-linecap: square"/>
     <path d="M 394.8005 89.390312 
L 404.8005 89.390312 
L 414.8005 89.390312 
" style="fill: none; stroke: #800080; stroke-width: 2; stroke-linecap: square"/>
    </g>
    <g id="text_19">
     <!-- $\hat{c}_2$ -->
     <g transform="translate(422.8005 92.890312) scale(0.1 -0.1)">
      <use xlink:href="#DejaVuSans-302" transform="translate(59.323242 13.015625)"/>
      <use xlink:href="#DejaVuSans-Oblique-63" transform="translate(0 0.515625)"/>
      <use xlink:href="#DejaVuSans-32" transform="translate(55.9375 -15.890625) scale(0.7)"/>
     </g>
    </g>
    <g id="line2d_24">
     <path d="M 394.8005 105.490312 
L 404.8005 105.490312 
L 414.8005 105.490312 
" style="fill: none; stroke: #808080; stroke-width: 4; stroke-linecap: square"/>
     <path d="M 394.8005 105.490312 
L 404.8005 105.490312 
L 414.8005 105.490312 
" style="fill: none; stroke: #0000ff; stroke-width: 2; stroke-linecap: square"/>
    </g>
    <g id="text_20">
     <!-- $\hat{c}_3$ -->
     <g transform="translate(422.8005 108.990312) scale(0.1 -0.1)">
      <use xlink:href="#DejaVuSans-302" transform="translate(59.323242 13.015625)"/>
      <use xlink:href="#DejaVuSans-Oblique-63" transform="translate(0 0.515625)"/>
      <use xlink:href="#DejaVuSans-33" transform="translate(55.9375 -15.890625) scale(0.7)"/>
     </g>
    </g>
    <g id="line2d_25">
     <path d="M 394.8005 121.490312 
L 404.8005 121.490312 
L 414.8005 121.490312 
" style="fill: none; stroke: #808080; stroke-width: 4; stroke-linecap: square"/>
     <path d="M 394.8005 121.490312 
L 404.8005 121.490312 
L 414.8005 121.490312 
" style="fill: none; stroke: #008000; stroke-width: 2; stroke-linecap: square"/>
    </g>
    <g id="text_21">
     <!-- $\hat{c}_4$ -->
     <g transform="translate(422.8005 124.990312) scale(0.1 -0.1)">
      <use xlink:href="#DejaVuSans-302" transform="translate(59.323242 13.015625)"/>
      <use xlink:href="#DejaVuSans-Oblique-63" transform="translate(0 0.515625)"/>
      <use xlink:href="#DejaVuSans-34" transform="translate(55.9375 -15.890625) scale(0.7)"/>
     </g>
    </g>
    <g id="line2d_26">
     <path d="M 394.8005 137.590312 
L 404.8005 137.590312 
L 414.8005 137.590312 
" style="fill: none; stroke: #808080; stroke-width: 4; stroke-linecap: square"/>
     <path d="M 394.8005 137.590312 
L 404.8005 137.590312 
L 414.8005 137.590312 
" style="fill: none; stroke: #ffa500; stroke-width: 2; stroke-linecap: square"/>
    </g>
    <g id="text_22">
     <!-- $\hat{c}_5$ -->
     <g transform="translate(422.8005 141.090312) scale(0.1 -0.1)">
      <use xlink:href="#DejaVuSans-302" transform="translate(59.323242 13.015625)"/>
      <use xlink:href="#DejaVuSans-Oblique-63" transform="translate(0 0.515625)"/>
      <use xlink:href="#DejaVuSans-35" transform="translate(55.9375 -15.890625) scale(0.7)"/>
     </g>
    </g>
    <g id="line2d_27">
     <path d="M 394.8005 153.690312 
L 404.8005 153.690312 
L 414.8005 153.690312 
" style="fill: none; stroke: #808080; stroke-width: 4; stroke-linecap: square"/>
     <path d="M 394.8005 153.690312 
L 404.8005 153.690312 
L 414.8005 153.690312 
" style="fill: none; stroke: #ff0000; stroke-width: 2; stroke-linecap: square"/>
    </g>
    <g id="text_23">
     <!-- $\hat{c}_6$ -->
     <g transform="translate(422.8005 157.190312) scale(0.1 -0.1)">
      <use xlink:href="#DejaVuSans-302" transform="translate(59.323242 13.015625)"/>
      <use xlink:href="#DejaVuSans-Oblique-63" transform="translate(0 0.515625)"/>
      <use xlink:href="#DejaVuSans-36" transform="translate(55.9375 -15.890625) scale(0.7)"/>
     </g>
    </g>
   </g>
  </g>
 </g>
 <defs>
  <clipPath id="p21af3d4c0e">
   <rect x="47.6525" y="7.2" width="334.8" height="194.04"/>
  </clipPath>
 </defs>
</svg>
